<?xml version="1.0" encoding="utf-8"?>
<!-- Generator: Adobe Illustrator 19.0.0, SVG Export Plug-In . SVG Version: 6.00 Build 0)  -->
<svg version="1.1" id="Layer_1" xmlns="http://www.w3.org/2000/svg" xmlns:xlink="http://www.w3.org/1999/xlink" x="0px" y="0px"
	 viewBox="0 0 150 200" style="enable-background:new 0 0 150 200;" xml:space="preserve">
<style type="text/css">
	.st0{fill:none;stroke:#000000;stroke-width:0.9921;stroke-miterlimit:10;}
</style>
<g id="XMLID_132_">
	<g id="XMLID_455_">
		<path id="XMLID_154_" class="st0" d="M28.9,67.3c0,0.2,0.1,0.5,0,0.7c0,0.2-0.3,0.4-0.4,0.5c-0.2,0.3-0.6,0.5-0.7,0.8
			c-0.1,0.3-0.1,0.6-0.3,0.9c-0.1,0.1-0.3,0.1-0.4,0.3c-0.1,0.1-0.2,0.3-0.4,0.4c-0.4,0.2-0.8,0.3-1.2,0.6c-0.4,0.3-0.8,0.6-1.2,0.9
			c-0.2,0.1-0.3,0.3-0.5,0.3c-0.2,0-0.3,0-0.5,0.1c-0.3,0.2-0.6,0.4-0.8,0.6c-0.1,0.1-0.2,0.2-0.2,0.3c0,0.1,0.1,0.2,0,0.3
			c-0.1,0.1-0.2,0.1-0.3,0.2c-0.2,0.3,0,0.8-0.1,1.2c0,0.2-0.1,0.2-0.1,0.5c0,0.2,0,0.4,0,0.6c0,0.5-0.1,0.8,0.3,1.1
			c0.2,0.2,0.4,0.4,0.5,0.7c0.1,0.2,0,0.5,0.1,0.7c0.1,0.6,0.1,1.2,0.1,1.8c0,0.4,0.2,1.2-0.1,1.5c-0.1,0.2-0.4,0.2-0.5,0.4
			c-0.2,0.2-0.3,0.4-0.4,0.6c-0.2,0.3-0.6,0.6-0.8,0.8c-0.2,0.1-0.4,0.3-0.6,0.4c-0.3,0.1-0.5,0.2-0.8,0.4c-0.3,0.2-0.4,0.5-0.8,0.7
			c-0.3,0.1-0.5,0.2-0.7,0.4c-0.3,0.3-0.6,0.7-0.8,1.1c-0.2,0.4-0.2,0.8-0.3,1.2c-0.1,0.2-0.1,0.4-0.2,0.6c-0.2,0.3-0.3,0.3-0.2,0.7
			c0,1.1-0.1,2.2,0.1,3.3c0,0.2,0.2,0.4,0.2,0.6c0.1,0.4,0,0.9,0,1.4c0,0.6-0.1,1.3,0,1.9c0.1,0.3,0.1,0.4,0.1,0.7
			c0,0.3,0,0.4,0.2,0.7c0.2,0.4,0.4,0.7,0.6,1.1c0.2,0.3,0.2,0.7,0.4,1c0.1,0.3,0.2,0.6,0.4,0.9c0.2,0.4,0.4,0.6,0.3,1
			c0,0.4-0.3,0.7-0.3,1.1c0,0.5,0,1,0,1.6c0,0.5,0.1,0.9,0.1,1.4c0,0.3,0.2,0.5,0.2,0.8c0.1,0.4,0.1,0.8,0.2,1.2
			c0.2,0.8,0.3,1.5,0.5,2.3c0.5,1.3,0.4,2.5,0.4,3.9c0,0.4,0,0.8,0,1.2c0,0.3-0.1,0.3-0.3,0.6c-0.3,0.4-0.4,0.9-0.4,1.4"/>
		<path id="XMLID_155_" class="st0" d="M19.2,117.3c0,0.2-0.1,0.3-0.1,0.4c0,0.2,0,0.3,0,0.4c0,0.1-0.1,0.2-0.1,0.3
			c-0.1,0.2,0,0.4-0.1,0.6c-0.3,0.6-0.5,1.1-0.6,1.7c-0.1,0.3-0.3,0.6-0.3,0.8c-0.1,0.5,0,1.2,0,1.7c0,0.4-0.1,0.9,0,1.3
			c0.1,0.6,0.3,1.3,0.3,2c0,0.4,0.1,0.9,0.3,1.2c0.2,0.3,0.4,0.6,0.5,0.9c0.1,0.3,0.4,0.8,0.6,1c0.1,0.1,0.2,0.1,0.2,0.2
			c0,0.1,0,0.1,0,0.2c0.1,0.1,0.1,0.3,0.2,0.4c0.2,0.3,0.4,0.5,0.6,0.8c0.2,0.2,0.5,0.4,0.7,0.6c0.4,0.3,1.2,0.3,1.5,0.8
			c0.1,0.1,0,0.3,0.1,0.4c0,0.2,0.1,0.3,0.1,0.5c0,0.4,0,0.7,0,1.1c0,1,0,2,0,3.1c0,0.4,0,0.8,0,1.1c0,0.2,0.1,0.5,0.2,0.7
			c0.1,0.2,0.1,0.5,0.2,0.8c0.1,0.2,0.2,0.3,0.4,0.5c0.1,0.2,0.1,0.4,0.2,0.5c0,0.2,0.1,0.3,0.2,0.5c0.1,0.2,0,0.4,0.1,0.6
			c0.1,0.3,0.1,0.6,0.1,0.9c0,0.6,0.1,1.2-0.2,1.7c-0.2,0.4-0.5,0.7-0.8,1.1c-0.1,0.2-0.3,0.5-0.5,0.7c-0.2,0.2-0.2,0.4-0.3,0.7
			c-0.1,0.4-0.2,0.8-0.3,1.2c0,0.2-0.1,0.2-0.1,0.4c0,0.2-0.1,0.4-0.1,0.5c-0.3,0.8-0.1,2-0.1,2.9c0,0.7,0,1.4,0,2.1
			c0,0.6-0.1,1.2-0.1,1.8c0,1.3,0,2.6,0,3.9c0,0.6,0,1.2,0.1,1.8c0.1,0.4,0.2,0.7,0.3,1.1c0,0.2,0.1,0.3,0.1,0.5
			c0,0.2,0,0.4,0.1,0.6c0.1,0.2,0.2,0.8,0.4,0.9"/>
		<path id="XMLID_156_" class="st0" d="M29.3,67.2c0.1-0.2-0.2-0.4-0.3-0.5c-0.1-0.2-0.2-0.3-0.4-0.5c-0.4-0.3-0.7-0.6-1.2-0.9
			c-0.5-0.3-1-0.5-1.5-0.8c-0.3-0.2-0.7-0.3-1.1-0.4c-0.2-0.1-0.5-0.1-0.8-0.1c-0.7,0-1.5,0-2.2,0c-0.4,0-0.3,0.1-0.6,0.3
			c-0.1,0-0.1,0.1-0.2,0.1c-0.1,0-0.2,0-0.2,0c0,0.1-0.1,0.2-0.2,0.2c-0.2,0.1-0.3,0.1-0.4,0.3c-0.2,0.2-0.2,0.5-0.4,0.7
			c-0.2,0.3-0.5,0.5-0.8,0.8c-0.2,0.2-0.4,0.4-0.7,0.7c-0.3,0.3-0.6,0.5-0.8,0.9c-0.1,0.2-0.2,0.4-0.3,0.7c0,0.1,0,0.3-0.1,0.4
			c-0.1,0.2-0.2,0.4-0.2,0.6c-0.2,0.7-0.1,1.6-0.1,2.3c0,0.6-0.1,1.3,0,1.9c0,0.3,0.2,0.6,0.3,0.9c0.1,0.3,0.1,0.6,0.2,1
			c0,0.2,0.1,0.4,0.1,0.6c0.1,0.3,0,0.7,0,1c0,0.6,0.1,1.3,0,1.9c-0.1,0.5-0.8,0.7-1.3,0.8c-0.6,0.2-1.2,0.4-1.8,0.7
			c-0.2,0.1-0.4,0.3-0.6,0.4c-0.2,0.1-0.5,0.1-0.7,0.3c-0.1,0.1-0.1,0.3-0.3,0.4c-0.2,0.2-0.3,0.4-0.5,0.6c-0.4,0.5-0.9,0.9-1.2,1.5
			C11,84.1,11,84.5,11,85c0,0.5-0.1,0.9-0.1,1.3c0,0.5,0,1,0,1.5c0,0.3,0.1,0.8,0,1.1c-0.1,0-0.1,0-0.2,0c-0.2,1-0.8,2-0.8,3.1
			c0,0.5,0,1,0,1.5c0,0.5-0.1,0.9,0.2,1.3c0.3,0.4,0.4,0.7,0.8,1c0.2,0.1,0.2,0.3,0.3,0.5c0,0.1,0,0.3,0.1,0.4
			c0.1,0,0.2,0.1,0.3,0.2c0.1,0.2,0,0.7,0,0.9c0,0.4,0,0.7,0,1.1c0,0.4-0.1,0.6-0.2,1c-0.1,0.2-0.2,0.2-0.2,0.5c0,0.2,0,0.4,0,0.6
			c0,0.4,0,0.8,0,1.3c0,0.6,0.1,0.9,0.3,1.4c0.2,0.5,0.1,1.1,0.1,1.6c0,0.7-0.1,1.2-0.5,1.8c-0.3,0.5-0.5,1.1-0.9,1.6
			c-0.2,0.2-0.4,0.4-0.6,0.6c-0.2,0.3-0.4,0.5-0.6,0.7c-0.2,0.2-0.5,0.4-0.7,0.5"/>
		<path id="XMLID_157_" class="st0" d="M29.7,67.3c0.1,0.3,0.3,0.4,0.5,0.6c0.1,0.2,0.4,0.4,0.4,0.6c0.1,0.3,0,0.5,0.2,0.7
			c0,0.1,0.1,0.1,0.2,0.2c0.1,0.1,0.1,0.3,0.2,0.5c0.3,0.4,0.5,0.7,0.8,1.1c0.1,0.2,0.2,0.4,0.3,0.6c0.2,0.3,0.2,0.5,0.5,0.7
			c0.2,0.1,0.3,0.3,0.5,0.5c0.2,0.2,0.3,0.4,0.5,0.7c0.1,0.2,0.2,0.4,0.3,0.6c0.1,0.2,0.3,0.5,0.3,0.7c0,0.5-1.1,0.5-0.8,1
			c0.1,0.2,0.5,0.3,0.6,0.6c0.2,0.3,0.2,0.6,0.2,0.9c0,0.3,0,0.6,0,0.9c0,0.2,0.1,0.8,0,1c-0.1,0.1-0.4,0.3-0.5,0.4
			c-0.2,0.1-0.5,0.3-0.7,0.4c-0.5,0.2-1,0.3-1.4,0.6c-0.2,0.1-0.4,0.4-0.6,0.5c-0.1,0.1-0.2,0.1-0.3,0.2c-0.1,0-0.3,0.1-0.4,0.2
			c-0.2,0.2-0.2,0.6-0.2,0.9c0,0.3,0,0.6,0,0.9c0,0.2,0,0.6,0.1,0.8c0.1,0.1,0.4,0.3,0.5,0.4c0.2,0.1,0.4,0.2,0.5,0.3
			c0.1,0,0.1,0,0.2,0c0.1,0,0.1,0.1,0.1,0.1c0.1,0.1,0.2,0.1,0.3,0.2c0.3,0.1,0.6,0.3,0.8,0.4c0.3,0.1,0.6,0.3,0.9,0.4
			c0.3,0.1,0.5,0.1,0.8,0.3c0.1,0.1,0.3,0.2,0.4,0.3c0.4,0.2,0.8,0.3,1.1,0.6c0.3,0.3,0.7,0.5,1.1,0.8c0.4,0.3,0.7,0.6,1.1,1
			c0.3,0.3,0.4,0.7,0.5,1.1c0.1,0.3,0.3,0.5,0.3,0.8c0.1,0.4,0.1,0.7,0.1,1.1c0,0.3,0.1,0.8,0,1.1c0,0-0.1,0-0.1,0"/>
		<path id="XMLID_158_" class="st0" d="M31.9,87.8c0.2-0.1,0.2,0.1,0.4,0.2c0.3,0.1,0.6,0.2,0.8,0.4c0.2,0.1,0.3,0.2,0.5,0.3
			c0.2,0.1,0.4,0.1,0.6,0.2c0.3,0.1,0.6,0.5,0.8,0.7c0.2,0.1,0.3,0.3,0.5,0.4c0.1,0.1,0.3,0.1,0.4,0.2c0.2,0.3,0.4,0.6,0.5,0.8
			c0.2,0.3,0.4,0.5,0.6,0.8c0.2,0.3,0.2,0.6,0.4,0.9c0.1,0.3,0.1,0.7,0.1,1.1"/>
		<path id="XMLID_159_" class="st0" d="M25.9,89.5c0.8,0,1.6-0.1,2.4,0.3c0.6,0.2,1.2,0.6,1.8,0.8c0.5,0.2,1,0.6,1.5,0.9
			c0.3,0.2,0.6,0.2,0.8,0.4c0.1,0.1,0.2,0.2,0.3,0.3c0.2,0.1,0.4,0.2,0.6,0.3c0.2,0.1,0.3,0.2,0.5,0.3c0.2,0.1,0.5,0.1,0.7,0.3
			c0.1,0.1,0.2,0.3,0.3,0.4c0.2,0.1,0.4,0.2,0.6,0.3c0.3,0.1,0.4,0.3,0.6,0.5c0.2,0.2,0.7,0.2,1,0.2c0.2,0,0.5-0.3,0.7-0.4
			c0.3-0.2,0.7-0.5,1-0.8c0.6-0.4,1.4-0.4,2-0.7c0.3-0.1,0.6-0.1,0.9-0.3c0.3-0.2,0.7-0.2,1.1-0.3c0.4-0.1,0.9-0.3,1.3-0.4
			c0.1-0.1,0.2-0.1,0.3-0.2c0.2-0.1,0.2-0.1,0.4-0.1c0.3-0.1,0.6-0.1,0.8-0.2c0-0.3,0.2-0.2,0.3-0.3c0.2-0.1,0.3-0.2,0.5-0.3
			c0.3-0.2,0.8-0.2,1.1-0.4c0-0.1,0.1-0.2,0.2-0.2c0.1,0,0.2,0,0.3,0c0.2,0,0.3,0,0.5-0.1c0.2-0.1,0.5,0,0.7-0.1
			c0.2-0.1,0.2-0.1,0.4-0.2c0.5-0.1,0.8-0.4,1.1-0.8c0.1-0.2,0.3-0.4,0.4-0.6c0.1-0.2,0.4-0.4,0.5-0.6c0-0.1,0-0.3,0-0.4
			c0-0.1,0.1-0.3,0.1-0.4c0.1-0.2,0.2-0.4,0.3-0.7c0.2-0.4,0.4-1,0.6-1.4c0.4-0.7,1.1-1.9,2.1-2"/>
		<path id="XMLID_160_" class="st0" d="M24.5,97.6c0.3,0,0.7,0,1,0.1c0.3,0.2,0.8,0.4,1.1,0.6c0.2,0.2,0.3,0.4,0.6,0.5
			c0.2,0.1,0.3,0.1,0.5,0.1c0.2,0,0.2,0.2,0.4,0.2c0.4,0.2,1,0.2,1.5,0.3c0.4,0.1,0.8,0.1,1.1,0.2c0.2,0.1,0.3,0.2,0.5,0.3
			c0.1,0,0.3,0,0.4,0c0.4,0,0.7,0,1.1,0c0.3,0,0.6-0.1,0.9,0c0.2,0,0.4,0.2,0.7,0.3c0.5,0.2,0.9,0.4,1.4,0.5
			c0.3,0.1,0.5,0.2,0.7,0.2c0.3,0,0.6,0,0.9,0c0.4,0,0.9,0,1.3,0c0.3,0,0.5,0,0.8,0c0.2,0,0.2-0.1,0.4-0.1c0.4-0.1,0.6,0,0.9-0.2
			c0.1-0.1,0.2-0.2,0.4-0.3c0.1,0,0.2-0.1,0.3-0.1c0.2-0.1,0.1-0.2,0.2-0.4c0.3-0.3,0.7-0.3,1-0.5c0.2-0.1,0.3-0.2,0.5-0.3
			c0.2-0.1,0.3-0.4,0.6-0.4c0-0.4,0.6-0.9,0.9-1.2c0.3-0.4,0.8-0.7,1.3-0.8c0.2-0.1,0.5-0.2,0.7-0.4c0.3-0.3,0.5-0.4,0.8-0.6
			c0.5-0.3,0.9-0.6,1.4-0.9c0.4-0.2,0.9-0.4,1.1-0.8c0.4-0.8,1-1.4,1.5-2.1c0.2-0.3,0.3-0.5,0.6-0.7c0.3-0.2,0.5-0.5,0.8-0.7
			c0.2-0.2,0.5-0.4,0.7-0.6c0.2-0.1,0.1-0.1,0.3-0.1c0.2,0,0.4,0,0.5,0c0.2-0.1,0.4-0.2,0.6-0.3c0.3,0,0.5-0.1,0.9-0.1
			c0.4-0.1,0.7-0.2,1-0.3c0.2,0,0.2-0.1,0.3-0.1c0,0,0.2,0,0.2,0c0.1-0.1,0.1-0.2,0.2-0.3c0.1-0.1,0.2,0,0.4-0.1
			c0.1-0.1,0.2-0.2,0.3-0.3c0.2-0.2,0.5-0.3,0.7-0.5c0.3-0.5,0.7-0.9,1-1.4"/>
		<path id="XMLID_161_" class="st0" d="M50.3,83c0-0.9,0.2-1.7,0.8-2.4c0.2-0.2,0.3-0.5,0.5-0.6c0.2-0.1,0.5-0.3,0.7-0.4
			c0.1-0.1,0.3-0.1,0.4-0.2c0.2-0.1,0.3-0.2,0.5-0.3c0.4-0.2,0.8-0.3,1.3-0.3c0.4,0,1-0.1,1.4,0c0.3,0.1,0.5,0.3,0.7,0.5
			c0.2,0.3,0.6,0.5,1,0.5c0.4,0.1,0.7-0.1,1,0.2c0.3,0.2,0.5,0.5,0.6,0.8c0.1,0.1,0.2,0.2,0.2,0.4c0.1,0.2,0,0.4,0.1,0.6
			c0,0.2,0.1,0.3,0.2,0.5c0,0.1,0.1,0.1,0.1,0.2c0,0.1,0,0.3,0,0.4c0,0.3,0.1,0.4,0.1,0.7c0,0.2,0,0.4,0,0.7c0,0.5,0,0.8-0.4,1.1
			c-0.1,0.1-0.3,0.3-0.5,0.3c-0.1,0-0.2,0-0.2,0c0,0-0.3,0.1-0.3,0.1c-0.4,0.1-0.9,0-1.3,0C57,85.8,57,86,56.8,86.1
			c-0.2,0.1-0.5,0-0.7,0c-0.5,0-1.1,0.3-1.6,0.1c-0.1,0-0.4-0.3-0.4-0.4c0-0.1,0-0.2,0-0.3c0-0.1-0.1-0.2-0.1-0.3
			c-0.2-0.5-0.1-1.1-0.1-1.6"/>
		<path id="XMLID_162_" class="st0" d="M56.5,80.8c0-0.2-0.1-0.3-0.1-0.5c0.1-0.2,0.2-0.4,0.4-0.6c0.2-0.2,0.3-0.4,0.5-0.6
			c0-0.1,0.1-0.3,0.2-0.3c0.1-0.1,0.2,0,0.3-0.1c0.1-0.1,0.1-0.2,0.1-0.3c0.1-0.2,0.3-0.5,0.2-0.7"/>
		<path id="XMLID_163_" class="st0" d="M39.1,101.7c0,0.6,0.4,1.1,0.7,1.6c0.3,0.4,0.5,0.7,0.7,1.1c0.1,0.2,0.2,0.3,0.3,0.5
			c0.1,0.1,0.1,0.3,0.2,0.4c0.1,0.2,0.3,0.2,0.4,0.4c0,0,0,0.2,0.1,0.2c0.1,0.3,0.2,0.5,0.3,0.8c0.2,0.5,0.4,1,0.6,1.6
			c0.2,0.5,0.2,1.2,0.4,1.7c0.1,0.5,0.3,1.1,0.4,1.6c0.1,0.5,0,1,0,1.5c0,0.6,0,1.2,0,1.8c0,0.5,0,0.9-0.1,1.3
			c0,0.3-0.1,0.5-0.2,0.8c-0.1,0.3-0.1,0.7-0.2,1c-0.2,1-0.3,1.9-0.6,2.8c-0.2,0.7-0.4,1.5-0.6,2.2c-0.1,0.2-0.1,0.5-0.2,0.7
			c-0.2,0.4-0.5,0.8-0.6,1.3c-0.2,0.6-0.4,1-0.8,1.4c-0.2,0.2-0.2,0.3-0.4,0.5c-0.1,0.1-0.3,0.3-0.5,0.4c-0.2,0.2-0.3,0.5-0.5,0.8
			c-0.1,0.1-0.3,0.2-0.4,0.4c-0.2,0.3-0.2,0.3-0.6,0.5c-0.4,0.2-0.4,0.3-0.6,0.6c-0.2,0.2-0.4,0.2-0.5,0.3c-0.2,0.2-0.2,0.4-0.4,0.6
			c-0.2,0.1-0.4,0.2-0.5,0.3c-0.2,0.1-0.4,0.3-0.5,0.4"/>
		<path id="XMLID_164_" class="st0" d="M29,118.2C29,118.1,29,118.1,29,118.2c0.1,0.4,0.4,0.7,0.7,1c0.1,0.1,0.3,0.2,0.3,0.3
			c0.1,0.2,0.1,0.4,0.3,0.5c0.3,0.3,0.6,0.5,0.8,0.9c0.1,0.3,0.3,0.5,0.4,0.8c0.1,0.2,0.2,0.4,0.2,0.6c0,0.1,0.1,0.3,0.2,0.4
			c0.1,0.3,0,0.4,0.1,0.7c0.2,0.4,0.5,0.8,0.7,1.3c0.1,0.3,0.2,0.7,0.4,1c0.2,0.4,0.4,0.7,0.6,1.1c0.3,0.8,0.6,1.7,0.6,2.5
			c0,0.5,0.2,0.9,0.3,1.4c0,0.3,0.1,0.5,0.1,0.8c0.1,0.3,0,0.6,0,0.9c0,0.7,0,1.4,0,2.1c0,0.6-0.1,1.1-0.1,1.7
			c0,0.3-0.1,0.5-0.1,0.8c0,0.4-0.1,0.8-0.2,1.2c-0.1,0.3,0,0.5-0.1,0.8c-0.1,0.2-0.3,0.4-0.4,0.6c-0.4,0.5-0.5,1-0.7,1.5
			c-0.1,0.2-0.1,0.2-0.2,0.5c0,0.1-0.1,0.4-0.1,0.6c-0.1,0.2-0.3,0.2-0.3,0.4c-0.1,0.2,0,0.2,0,0.4c0,0.1-0.1,0.1-0.1,0.2
			c-0.1,0.3-0.2,0.5-0.3,0.8c-0.1,0.4-0.1,0.8-0.1,1.3c0,0.2,0,0.4,0,0.7c0,0.4,0.1,0.8,0.1,1.2c0,0.5,0.1,1-0.3,1.4
			c-0.2,0.2-0.4,0.3-0.6,0.6c-0.2,0.2-0.3,0.4-0.5,0.6c-0.2,0.2-0.4,0.4-0.6,0.7c-0.3,0.4-0.7,0.7-0.9,1.2c-0.2,0.4-0.4,0.8-0.7,1.2
			c-0.1,0.2-0.3,0.3-0.5,0.5c-0.4,0.4-0.4,1-0.7,1.4c-0.2,0.4-0.5,0.9-0.6,1.4c-0.2,0.5-0.3,1.1-0.3,1.6c0,0.3,0,0.5,0,0.8
			c0,0.3-0.1,0.6-0.2,0.9c-0.2,0.6-0.4,1.3-0.5,1.9c-0.1,0.6-0.1,1.2-0.4,1.8c-0.2,0.3-0.5,0.7-0.7,1c-0.1,0.2-0.3,0.3-0.4,0.4
			c-0.2,0.2-0.4,0.5-0.6,0.8c-0.3,0.4-0.7,0.7-0.9,1c-0.2,0.3-0.5,0.7-0.5,1.1c-0.1,0.4,0,1,0,1.4c0,0.4,0.3,1,0.6,1.2
			c0.1,0,0.1,0.1,0.2,0.1c0.1,0,0.2,0,0.2,0c0,0.1,0.1,0.2,0.2,0.2c0.3,0.2,0.4,0.4,0.7,0.6c0.3,0.3,0.6,0.6,0.8,1
			c0.3,0.5,0.3,0.4,0.8,0.6c0.3,0.1,0.6,0.3,0.8,0.5c0.3,0.1,0.6,0.3,0.8,0.5c0.2,0.2,0.3,0.5,0.4,0.7c0.2,0.2,0.2,0.5,0.4,0.8
			c0.1,0.1,0.2,0.1,0.3,0.3c0.1,0.1,0,0.2,0,0.4c0.1,0.4,0.3,0.8,0.5,1.1c0.1,0.2,0.3,0.3,0.4,0.4c0.1,0.1,0.1,0.3,0.2,0.4
			c0.3,0.4,0.9,0.9,1.3,1.1c0.2,0.2,0.6,0.4,0.8,0.5c0.2,0.1,0.5,0.1,0.8,0.2c-0.1,0.2,0.6,0.6,0.9,0.5c0.2-0.1,0.2-0.8,0-1
			c0.3,0,0.5,0.7,0.9,0.6c0.2-0.1,0.1-0.4,0.2-0.5c0-0.1,0.1-0.1,0.2-0.1c0.1-0.1,0.1-0.2,0.2-0.3c0.1-0.1,0.3-0.1,0.4-0.2
			c0.1-0.1,0-0.3,0-0.4c0-0.4-0.1-0.7-0.4-1c-0.3-0.3-0.6-0.5-1-0.6c-0.2-0.1-0.3-0.2-0.4-0.4c-0.1-0.1-0.2-0.1-0.2-0.2
			c-0.1-0.1-0.1-0.2-0.2-0.2c-0.1-0.1-0.2-0.1-0.4-0.2c-0.1-0.1-0.3-0.2-0.4-0.3c-0.3-0.2-0.5-0.5-0.7-0.7c-0.2-0.2-0.3-0.2-0.4-0.4
			c-0.1-0.1,0-0.2-0.1-0.3c0-0.1-0.1-0.1-0.2-0.2c-0.1-0.2-0.1-0.4-0.2-0.6c-0.1-0.2-0.2-0.3-0.3-0.5c-0.2-0.3-0.4-0.6-0.5-1
			c-0.1-0.1,0-0.3-0.1-0.4c-0.1-0.2-0.2-0.4-0.2-0.7c-0.1-1,0-2,0-3c0-0.1,0-0.3,0-0.4c0-0.2,0.2-0.3,0.3-0.5c0.1-0.2,0-0.3,0.1-0.5
			c0.1-0.2,0.3-0.3,0.4-0.5c0.2-0.3,0.4-0.6,0.7-0.9c0.4-0.5,0.9-1,1.1-1.6c0.4-1.5,1.5-2.6,2.2-4c0.3-0.7,0.8-1.4,1.1-2.1
			c0.1-0.3,0.3-0.7,0.4-1c0.1-0.3,0-0.5,0.2-0.7c0.8-1.2,1-2.7,1.8-3.9c0.3-0.4,0.6-0.6,1-0.9c0.2-0.2,0.5-0.5,0.7-0.7
			c0.3-0.3,0.6-0.5,0.8-0.8c0.3-0.3,0.5-0.6,0.7-0.8c0.8-0.7,1.5-1.5,2-2.4c0.2-0.3,0.1-0.6,0.1-0.9c0-0.4,0-0.9-0.1-1.3
			c-0.2-0.6-0.6-1.2-0.8-1.8c-0.1-0.7-0.1-1.4-0.3-2.1c-0.1-0.2-0.1-0.5-0.1-0.7c0-0.8,0-1.5,0-2.3c0-0.8-0.1-1.7-0.1-2.5
			c0-0.8,0-1.6,0-2.4c0-0.4-0.1-0.9-0.3-1.3c-0.1-0.3-0.2-0.6-0.3-0.9c-0.1-0.4-0.1-0.7-0.3-1.1c-0.1-0.2-0.4-0.6-0.3-0.8"/>
		<path id="XMLID_165_" class="st0" d="M39.8,61.1c-0.1,0-0.2,0.2-0.3,0.2c-0.1,0-0.2,0-0.3,0.1c-0.1,0.1-0.2,0.2-0.3,0.4
			c-0.2,0.2-0.4,0.4-0.6,0.6c-0.6,0.4-0.8,1.2-1.2,1.7c-0.2,0.3-0.4,0.5-0.6,0.8c-0.2,0.3-0.5,0.6-0.7,1c-0.1,0.1-0.1,0.2-0.2,0.3
			c-0.1,0.2-0.1,0.2-0.4,0.4c-0.3,0.2-0.4,0.5-0.7,0.8c-0.2,0.2-0.4,0.6-0.2,0.9c0.1,0.4,0.6,0.4,0.9,0.5c0.2,0,0.6,0.1,0.7,0.4
			c0.1,0.2,0.1,0.3-0.1,0.4c-0.5,0.2-0.2-0.1-0.3-0.3c-0.3-0.4-0.5,0.3-0.5,0.5c0,0.2,0,0.4,0,0.6c0,0.1,0,0.2,0,0.3
			c0,0.1,0.1,0.1,0.1,0.2c0.1,0.3,0,0.7-0.1,1c-0.2,0.4-0.1,0.7-0.1,1.1c0,0.2-0.1,0.5,0,0.7c0,0.1,0.1,0.2,0.2,0.3
			c0.1,0.1,0.1,0.1,0.2,0.3c0.2,0.3,0.4,0.8,0.7,0.9c0.4,0.1,0.9-0.1,1.3,0.1c0.2,0.1,0.3,0.4,0.5,0.5c0.2,0.1,0.5,0,0.7,0
			c0.2,0.6,0.2,1,0,1.6c-0.1,0.2-0.1,0.3-0.3,0.5c-0.1,0.1-0.3,0.1-0.4,0.2c-0.1,0.1-0.1,0.2-0.2,0.3c-0.1,0.1-0.3,0.2-0.4,0.3
			c-0.2,0.1-0.3,0.2-0.5,0.2c-0.5,0.1-0.9-0.1-1.3,0.1"/>
		<path id="XMLID_166_" class="st0" d="M40.1,61.4c0.5-0.1,1.2,0.9,1.5,1.3c0.2,0.2,0.3,0.5,0.4,0.7c0.1,0.2,0,0.4,0.1,0.6
			c0.1,0.2,0.2,0.2,0.3,0.3c0.1,0.3-0.1,0.6,0.2,0.8c0.1,0.1,0.3,0.1,0.5,0.2c0.2,0.1,0.2,0.3,0.3,0.5c0.1,0.2,0.2,0.4,0.4,0.6
			c0.2,0.3,0.3,0.6,0.4,1c0.1,0.5,0.7,0.9,1.3,0.9c0.5,0,1.4-0.2,1.9,0.2c0.5,0.4,0.9,1,0.9,1.7c0,0.6,0.1,1.1-0.3,1.5
			c-0.2,0.2-0.5,0.3-0.8,0.5c-0.2,0.2-0.5,0.3-0.7,0.4c-0.3,0.1-0.7,0.1-1,0.2c-0.3,0.1-0.7,0-1.1,0"/>
		<path id="XMLID_445_" class="st0" d="M40.1,60.4c0.3,0,0.3,0,0.5-0.1c0.2-0.1,0.3-0.1,0.4-0.2c0.1,0,0.2-0.1,0.4-0.1
			c0.3,0,0.4,0,0.7-0.1c0.6-0.2,1.7-0.3,2.4,0c0.4,0.2,0.9,0.3,1.3,0.5c0.3,0.1,0.6,0.1,0.8,0.3c0.2,0.1,0.4,0.3,0.5,0.4
			c0.1,0.1,0.2,0.2,0.3,0.2c0.1,0.1,0.2,0,0.4,0.2c0.1,0.1,0.2,0.4,0.3,0.5c0.1,0.2,0.3,0.3,0.4,0.5c0.1,0.1,0.1,0.3,0.2,0.5
			c0.2,0.3,0.2,0.6,0.4,1c0.1,0.2,0.2,0.3,0.3,0.5c0.1,0.2,0.1,0.4,0.2,0.6c0.1,0.4,0.4,0.7,0.5,1c0.1,0.4,0.3,1,0.3,1.4
			c0,0.9,0,1.8,0,2.7c0,0.4,0,0.8,0,1.3c0,0.4-0.1,0.7-0.4,1c-0.2,0.3-0.5,0.4-0.6,0.8c0,0.3,0,0.3-0.2,0.5
			c-0.1,0.1-0.3,0.2-0.4,0.4c-0.2,0.4-0.2,0.9-0.2,1.3c0,0.5-0.1,1.2,0,1.7c0.5,0.1,0.9-0.1,1.4,0.1c0.4,0.2,0.8,0.2,1.1,0.4
			c0.4,0.2,0.7,0.4,1.1,0.5c0.2,0.1,0.3,0.2,0.5,0.3c0.1,0,0.5,0.2,0.6,0.1"/>
		<path id="XMLID_446_" class="st0" d="M33.9,85.2c0.5,0,0.4-0.8,0.6-1.1c0.2-0.3,0.3-0.5,0.4-0.8c0.3-0.5,1-0.7,1.4-1
			c0.6-0.3,1.1-0.8,1.8-1c0.3-0.1,0.5-0.2,0.7-0.3c0.2-0.1,0.5-0.3,0.7-0.3c0,0,0-0.1,0-0.1"/>
		<path id="XMLID_447_" class="st0" d="M48.4,78.2c0.5,0.4,1,0.7,1.5,1.1c0.2,0.1,0.8,0.6,0.7,0.9"/>
		<path id="XMLID_448_" class="st0" d="M58.4,89.5c0.4,0.4,0.6,0.7,0.9,1.1c0.1,0.1,0.2,0.2,0.3,0.4c0.1,0.2,0.2,0.3,0.3,0.4
			c0.3,0.3,0.7,0.6,0.9,0.9c0.3,0.4,0.4,0.9,0.4,1.4c0,0.2,0.1,0.4,0.1,0.6c0,0.3,0,0.6,0,0.9c0,0.4,0.1,0.6,0.3,1
			c0.2,0.4,0.4,0.8,0.6,1.2c0.1,0.2,0.1,0.3,0.1,0.6c0,0.2,0,0.4,0.1,0.5c0-0.5,0-1,0-1.4c0-0.4,0.3-0.5,0.5-0.9
			c0.1-0.3,0.3-0.5,0.6-0.7c0.3-0.2,0.6-0.2,0.9-0.2c0.8,0,1.5-0.2,2.2-0.6c0.4-0.3,0.8-0.6,1.3-0.8c0.2-0.1,0.4-0.3,0.7-0.4
			c0.3-0.1,0.5-0.3,0.7-0.6c0.2-0.2,0.2-0.4,0.4-0.6c0.1-0.2,0.4-0.3,0.4-0.4c0.1-0.1,0-0.3,0.1-0.5c0-0.1,0.1-0.2,0.1-0.4
			c0-0.3,0-0.7,0-1c0-0.7-0.2-1.6,0.3-2.2c0.2-0.2,0.4-0.3,0.6-0.5c0.3-0.2,0.3-0.3,0.7-0.5c0.1,0.4,0,1,0,1.5
			c0,0.4-0.2,1.1,0.2,1.4c0.4,0.3,0.9,0.3,1.4,0.3c0.3,0,0.4,0.1,0.6,0.1c0.2,0.1,0.6,0,0.8,0c0.5,0,1.2,0.1,1.8,0
			c0.5-0.1,0.6-0.6,1.2-0.5c0.3,0,0.6,0,0.9,0c0.3,0,0.4,0,0.7-0.1c0.5-0.1,1-0.3,1.6-0.3"/>
		<path id="XMLID_449_" class="st0" d="M54.1,91.5c0,1,0,2.1,0,3.1c0,0.4-0.1,0.9-0.2,1.3c-0.2,0.5-0.3,1.1-0.4,1.6
			c-0.2,0.6-0.3,1.1-0.3,1.8c0,0.7-0.1,1.4-0.1,2.2c0,0.9-0.2,2,0.1,2.9c0.2,0.6,0.3,1,0.6,1.5c0.2,0.5,0.5,1,0.5,1.6
			c0,0.2,0,0.4,0,0.6c0,0.2,0.1,0.5,0.2,0.7c0.2,0.7,0.3,1.4,0.5,2.2c0.1,0.4,0.3,0.7,0.4,1.1c0.1,0.3,0.1,0.5,0.1,0.8
			c0,0.3,0.1,0.5,0.1,0.8c0,0.3,0,0.6,0.1,0.9c0.1,0.5,0,1,0.1,1.5c0.1,0.3,0.2,0.5,0.2,0.7c0,0.4,0.1,0.8,0.1,1.2
			c0,0.6,0.1,1.2,0.1,1.9c0,0.6,0,1.2,0,1.7c0,1.4,0,2.9,0,4.3"/>
		<path id="XMLID_450_" class="st0" d="M54.5,96.8c0.3,0.5,0.7,0.9,1.1,1.4c0.3,0.3,0.4,0.7,0.7,1c0.1,0.1,0.2,0.3,0.3,0.3
			c0.1,0.1,0.3,0.1,0.4,0.2c0.1,0.1,0.1,0.3,0.2,0.5c0.1,0.2,0.2,0.2,0.3,0.4c0.2,0.3,0.4,0.4,0.6,0.7c0.2,0.3,0.5,0.6,0.7,0.9
			c0.1,0.2,0.2,0.4,0.3,0.6c0.1,0.1,0.2,0.2,0.3,0.3c0.2,0.3,0.5,0.6,0.7,0.9c0.2,0.2,0.3,0.4,0.5,0.6c0.2,0.3,0.4,0.3,0.7,0.3
			c0.2,0.1,0.4,0.2,0.6,0.3c0.3,0.1,0.4,0.1,0.6,0.3c0,0,0.1,0,0.2,0c0.1,0.1,0,0.2,0.2,0.2c0.2,0.1,0.2,0,0.3-0.1
			c0.2-0.1,0.3-0.4,0.5-0.6c0.3-0.4,0.8-0.8,1.1-1.2c0.6-0.6,1.2-1.1,1.6-1.8c0.2-0.2,0.2-0.5,0.3-0.7c0.1-0.2,0.3-0.3,0.5-0.5
			c0.3-0.2,0.3-0.4,0.5-0.7c0.2-0.3,0.4-0.7,0.5-1c0.1-0.2,0.1-0.4,0.1-0.7c0.1-0.3,0.3-0.4,0.5-0.7c0.2-0.4,0.2-0.8,0.5-1.2
			c0.2-0.3,0.4-0.6,0.7-0.8c0.2-0.2,0.4-0.3,0.6-0.5c0.1-0.1,0.2-0.2,0.3-0.3c0.2-0.1,0.3-0.1,0.5-0.1c0.4,0,0.8-0.1,1.2-0.1
			c0.4,0,0.7,0,1.1,0c0.3,0,0.5,0,0.8,0.1c0.2,0.1,0.5,0.3,0.7,0.3c0.1,0,0.3,0,0.4,0c0.1,0,0.2,0.1,0.3,0.1c0.3,0,0.7,0,1,0
			c0.4,0,0.8,0,1.2,0c0.3,0,0.6-0.1,0.8-0.1c0.3-0.1,0.4-0.3,0.6-0.4c0.3-0.2,0.5-0.4,0.7-0.6c0.3-0.2,0.5-0.4,0.6-0.8
			c0.1-0.2,0.2-0.4,0.4-0.5c0.2-0.2,0.2,0,0.3-0.3c0.1-0.1,0.1-0.3,0.2-0.4c0.1-0.3,0.3-0.6,0.2-0.9c-0.1-0.4-0.4-0.6-0.4-1.1"/>
		<path id="XMLID_451_" class="st0" d="M56.1,125.4c0,0.5,0,0.9-0.1,1.3c-0.1,0.4-0.2,0.7-0.3,1.1c0,0.2-0.1,0.4-0.2,0.6
			c-0.1,0.3-0.3,0.6-0.4,0.9c-0.1,0.3-0.1,0.6-0.2,0.9c-0.1,0.3-0.2,0.6-0.3,0.9c-0.1,0.5-0.3,1-0.4,1.5c-0.1,0.4-0.1,0.8-0.2,1.1
			c-0.3,0.7-0.5,1.5-0.8,2.3c-0.2,0.5-0.3,0.9-0.5,1.4c-0.2,0.4-0.4,0.9-0.6,1.3c-0.2,0.4-0.6,1.1-0.5,1.6"/>
		<path id="XMLID_452_" class="st0" d="M45.6,121.3c0,0.2,0.2,0.2,0.3,0.3c0.2,0.1,0.2,0.2,0.3,0.4c0.2,0.4,0.6,0.7,0.9,1.1
			c0.2,0.3,0.4,0.7,0.5,1c0.2,0.4,0.5,0.6,0.5,1c0.1,0.5,0.2,1.1,0.5,1.5c0.2,0.2,0.3,0.4,0.4,0.6c0.1,0.2,0.1,0.4,0.1,0.6
			c0,0.2,0.1,0.4,0.1,0.5c0.1,0.8,0.2,1.6,0.4,2.4c0.1,0.3,0.2,0.5,0.2,0.8c0,0.2,0,0.5,0.1,0.7c0.1,0.6,0.2,1.3,0.3,1.9
			c0.1,0.3,0,0.6,0,0.9c0,0.4,0.1,0.8,0.1,1.3c0.1,0.8,0.4,1.6,0.4,2.4c0,0.4,0.1,0.8,0.1,1.2c0,0.6,0.1,1.2,0.3,1.8
			c0.3,1,1,1.5,1.4,2.4c0.3,0.6,0.6,1.2,0.6,1.9c0,0.4,0,0.9,0,1.3c0,0.5,0,0.8,0.1,1.2c0.1,0.4,0.1,0.8,0.3,1.2
			c0.1,0.3,0.2,0.7,0.2,1.1c0.1,1,0.2,2,0.3,3c0,0.3,0.1,0.2,0.2,0.5c0.2,0.4,0,0.7-0.1,1c-0.2,0.6,0.3,1,0.5,1.5
			c0.2,0.6,0.6,1.2,0.6,1.8c0,0.8,0,1.5,0,2.3c0,0.3-0.1,0.7,0.1,1c0.1,0.2,0.2,0.3,0.3,0.6c0.1,0.3,0.2,0.7,0.3,1
			c0.3,0.6,0.6,1.2,0.8,1.8c0.1,0.3,0.1,0.8,0.3,1c0.1,0.1,0.2,0.2,0.3,0.3c0.1,0.3,0.1,0.6,0.3,0.8c0.1,0.1,0.2,0.1,0.2,0.2
			c0.1,0.1,0.1,0.3,0.1,0.4c0.1,0.1,0.1,0.2,0.2,0.3c0.1,0.2,0.1,0.3,0.1,0.4c0.1,0.1,0.2,0.3,0.3,0.4c0.1,0.1,0.1,0.3,0.2,0.4"/>
		<path id="XMLID_453_" class="st0" d="M58.8,169c0,0.8,0,1.6,0.4,2.4c0.2,0.3,0.3,0.7,0.6,1c0.3,0.3,0.5,0.6,0.7,1
			c0.7,1.4,0.8,3,1.2,4.5c0,0.2,0.1,0.3,0.1,0.5c0,0.3,0.2,0.3,0.2,0.5c0.1,0.2,0.1,0.4,0.1,0.6c0.1,0.3,0.2,0.4,0.3,0.7
			c0.3,0.7,0.3,1.5,0.3,2.2c0,0.2,0.1,0.7,0,0.9c-0.1,0.2-0.6,0.1-0.8,0.1c-0.4,0-1,0.1-1.3-0.3c-0.2-0.2-0.2-0.6-0.2-0.9
			c0,0.3,0,0.6,0,0.9c0,0.4-0.3,0.5-0.6,0.7c-0.3,0.1-0.5,0.1-0.8,0.1c-0.5,0-0.8,0-1-0.5c-0.2-0.5-0.3-1-0.4-1.5
			c-0.1-0.5-0.4-0.5-0.8-0.7c-0.2-0.1-0.4-0.2-0.5-0.4c-0.1-0.2-0.1-0.4-0.1-0.6c0-0.1-0.2-0.3-0.2-0.4c-0.1-0.3,0-0.6,0-0.8
			c0-0.4-0.1-0.6-0.1-1c0-0.9-0.1-1.7-0.1-2.6c0-0.4,0-0.7,0-1.1c0-0.4-0.1-0.5-0.3-0.7c-0.3-0.4-0.5-0.9-0.9-1.2
			c-0.7-0.7-1.3-1.5-1.9-2.3c-0.4-0.5-0.8-1.1-1.3-1.6c-0.4-0.4-0.5-0.9-0.9-1.3c-0.4-0.4-0.5-1-0.7-1.5c-0.1-0.3-0.2-0.5-0.3-0.7
			c-0.1-0.3-0.2-0.6-0.3-0.8c-0.1-0.3-0.3-0.7-0.4-1c-0.2-0.4-0.3-0.9-0.5-1.3c-0.2-0.4-0.2-0.7-0.3-1.1c0-0.4-0.3-0.8-0.4-1.1
			c-0.3-0.8-0.5-1.7-0.7-2.5c-0.1-0.4-0.1-0.7-0.1-1.1c0-0.5-0.1-0.9-0.1-1.4c0-0.3,0-0.6,0-0.9c0-0.5-0.1-0.9-0.1-1.4
			c0-0.5,0-1,0-1.5c0-0.2,0-0.5,0-0.7c0-0.2-0.1-0.3-0.1-0.4c-0.1-0.2,0-0.5-0.1-0.8c0-0.2-0.1-0.4-0.1-0.7
			c-0.1-0.4-0.2-0.8-0.3-1.2c-0.1-0.6-0.5-1.2-0.9-1.7c-0.2-0.3-0.5-0.4-0.7-0.7c-0.2-0.2-0.5-0.8-0.8-0.7"/>
		<path id="XMLID_454_" class="st0" d="M37.1,152.2c0,0.5,0,1.1,0,1.6c0,0.3-0.1,0.5-0.2,0.8c-0.1,0.2-0.1,0.4-0.1,0.7
			c0,0.5,0,1.1,0,1.6c0,0.6-0.1,1.5,0,2.1c0.1,0.3,0.5,0.5,0.6,0.8c0,0.1,0,0.4,0,0.5c0.1,0.1,0.2,0.3,0.2,0.4
			c0.3,0.5,0.4,1.1,0.7,1.6c0.2,0.3,0.3,0.5,0.3,0.8c0,0.2,0,0.2,0.1,0.4c0.1,0.1,0.1,0.1,0.2,0.3c0,0.1,0,0.3,0,0.5
			c0,0.1,0.1,0.2,0.1,0.3c0,0.3,0,0.5,0,0.8c0,0.7,0.1,1.4-0.1,2c-0.1,0.6-0.3,1-0.6,1.5c-0.3,0.6-0.5,1.2-0.7,1.8
			c-0.1,0.2-0.2,0.5-0.3,0.7c0,0.2-0.1,0.3-0.1,0.4c0,0.1-0.1,0.3-0.1,0.4c-0.1,0.4-0.1,1,0,1.4c0,0.3,0.2,0.5,0.3,0.8
			c0.1,0.3,0.3,0.4,0.6,0.5c0.4,0.2,0.9,0.2,1.3,0.1c0.2,0,0.4-0.2,0.6-0.2c0.3-0.1,0.5-0.1,0.9-0.1c0.6,0,1.2,0,1.8,0
			c0.3,0,0.7,0,1,0c0.4-0.1,0.7-0.2,1.1-0.2c0.6,0,1.2,0,1.8,0c0.5,0,0.9,0.3,1.2,0.5c0.2,0.1,0.4,0.2,0.6,0.3c0,0,0.1,0.1,0.2,0.2
			c0.1,0.1,0.2,0,0.3,0.1c0.4,0.2,0.8,0.4,1.3,0.4c0.6,0,1.1,0,1.5-0.3c0.3-0.2,0.2-0.2,0.3-0.5c0-0.3,0.3-0.5,0.3-0.8
			c0-0.3,0-0.6-0.1-0.8c-0.2-0.3-0.3-0.3-0.5-0.4c-0.4-0.1-0.8-0.2-1.2-0.4c-0.3-0.2-0.4-0.4-0.7-0.5c-0.2,0-0.5-0.1-0.8-0.1
			c-0.6,0-1.2,0-1.7,0c-0.5,0-1.2-0.3-1.6-0.5c-0.3-0.2-0.7-0.4-0.9-0.7c-0.3-0.4-0.4-0.8-0.4-1.3c0-0.5-0.4-1.1-0.5-1.6
			c-0.2-0.9,0-1.9,0-2.8c0-0.8,0-1.5,0-2.3c0-0.3,0-0.5,0-0.8c0-0.3,0.1-0.5,0.1-0.8c0.1-0.4,0-0.8,0.1-1.2c0.1-0.3,0.1-0.6,0.1-1
			c0-0.4,0.1-0.7,0.1-1.1c0-0.9,0.3-1.7,0.6-2.5c0.2-0.6,0.5-1.1,0.5-1.7c0-0.3,0.1-0.5,0.1-0.8c0-0.3,0-0.5,0.1-0.7
			c0.1-0.3,0.1-0.5,0.2-0.7c0-0.2,0.3-0.5,0.2-0.7"/>
	</g>
	<path id="XMLID_546_" class="st0" d="M129.6,49.1c-0.8,0-1.7,0-2.5,0c-0.6,0-1.9-0.2-2.4,0.1c-1.1,0.7-1,2.7-1.9,3.7
		c-0.5,0.5-1,0.8-1.4,1.4c-0.5,0.8-0.9,1.6-1.4,2.3c-0.6,0.9-1.5,2.7-2.9,2.5c-1.2-0.2-0.6-2.9-0.3-3.8c0.3-1,0.4-1.9,0.5-2.9
		c0.2-1.2,0.9-2.4,1.5-3.4c0.3-0.6,0.5-1,0.7-1.7c0.4-1.3,0.8-1.3,1.8-2.1c0.8-0.7,0.5-1.2,0.7-2.1c0.1-0.3,0.4-0.4,0.4-0.6
		c0.1-0.3,0-0.7,0-1c0.1-0.8,0.4-1.2,0.4-2.1"/>
	<g id="XMLID_549_">
		<path id="XMLID_515_" class="st0" d="M97.1,124.3c0-0.6-0.1-1.4,0-2.1c0.1-0.6,0.3-1,0.3-1.7c0-1.3,0.3-3,0-4.3
			c-0.1-0.6-0.5-0.8-0.8-1.4c-0.3-0.5-0.6-1.1-1-1.6c-0.2-0.3-0.6-0.5-0.8-0.8c-0.4-0.5-0.7-1.2-1.1-1.7c-0.6-0.8-1.4-1.1-2.1-1.8
			c-0.4-0.4-0.6-0.5-1.1-0.8c-0.5-0.2-0.7-0.6-1.1-1c-0.3-0.2-0.8-0.3-1.1-0.5c-0.4-0.2-0.8-0.6-1.2-0.8c-0.9-0.6-1.5-1.1-2.1-2
			c-0.6-0.9-0.6-1.8-1.2-2.7c-0.6-1.1-1.2-2.4-1.5-3.6c-0.2-0.8-0.2-1.6-0.4-2.4c-0.2-0.8-0.5-1.7-0.8-2.5c-0.1-0.4-0.3-0.8-0.4-1.2
			c-0.2-0.9,0-2.1,0-3.1c0-3.3-0.8-8.1,1.9-10.6c0.7-0.6,1.7-1.1,2.6-1.4c0.3-0.1,0.8-0.2,1.1-0.4c0.4-0.2,0.5-0.5,0.9-0.7
			c0.9-0.4,1.7-1,2.7-1.2c0.5-0.1,0.8-0.2,1.2-0.5c0.2-0.1,0.3-0.4,0.5-0.5c0.5-0.3,1.1-0.2,1.6-0.2c0.9,0,2.1-0.1,2.9,0.1
			c0.4,0.1,0.9,0.4,1.3,0.6c0.4,0.2,0.5,0.3,0.8,0.5c0.2,0.1,0.4,0.1,0.5,0.2c0.2,0.1,0.2,0.4,0.4,0.6c0.6,0.4,1-0.3,1.4-0.6
			c0.2-0.2,0.4-0.2,0.7-0.4c0.2-0.1,0.2-0.3,0.4-0.4c0.5-0.3,0.9-0.1,1.2-0.6c0-0.1,0.1-0.5,0.2-0.6c0.1-0.1,0.2-0.4,0.3-0.5
			c0.3-0.5,0.5-0.8,0.6-1.3c0.1-0.4,0-0.9,0-1.3c0-0.6,0-0.6-0.5-0.9c-0.5-0.2-0.8-0.1-1.4-0.2c-0.7-0.1-1.2-0.8-1.9-1
			c-1-0.3-1.7-0.9-2.8-0.9c-0.7,0-1.1-0.1-1.7-0.3c-1.4-0.5-3.3-0.2-4.8-0.2c-1,0-2.2,0-3.1,0.5c-0.8,0.4-1.3,1-1.9,1.7
			c-0.6,0.8-1.6,1.2-2.3,2c-0.5,0.5-0.9,1.1-1.4,1.4c-0.4,0.3-0.8,0.4-1.2,0.8c-0.5,0.5-0.8,1-1.3,1.4c-0.8,0.6-1.2,1.1-1.7,1.9
			c-0.3,0.4-0.4,0.6-0.6,1.1c-0.3,1-1,1.5-1.5,2.4c-0.3,0.6-0.5,1.2-0.5,1.9c0,0.7-0.1,1-0.3,1.7c-0.1,0.5,0,1.3,0,1.8
			c0,0.8,0,1.6,0,2.5c0,1.7,0,3.3,0,5c0,1-0.1,1.9,0,2.9c0,0.5,0.2,0.9,0.3,1.5c0.1,0.7-0.1,1.3,0,2c0.6,2.5,2.1,4.8,2.9,7.2
			c0.4,1.3,1.4,1.9,2.1,3c0.7,1,1.6,1.3,2.5,2.1c1,0.9,2.1,1.7,3.1,2.5c1,0.7,1.9,0.8,2.9,1.4c0.9,0.5,1.6,1.3,2.4,1.9
			c0.8,0.5,1.5,1,2.2,1.6c0.4,0.3,0.7,0.8,1.1,1.1c0.2,0.2,0.4,0.2,0.6,0.4c0.2,0.3,0.3,0.8,0.5,1.1c0.3,0.4,0.6,0.9,0.9,1.3
			C97.1,122.5,97.1,122.7,97.1,124.3z"/>
		<path id="XMLID_516_" class="st0" d="M106.2,56.6c-0.6,0-0.6,0-1-0.3c-0.4-0.3-0.9-0.5-1.4-0.8c-0.5-0.3-0.8-0.5-1.3-0.7
			c-0.4-0.2-1-0.3-1.4-0.6c-0.3-0.2-0.4-0.4-0.7-0.5c-0.3-0.1-0.6,0.1-0.8,0c-0.2,0-0.2-0.2-0.3-0.2c-0.4-0.1-0.6-0.2-1-0.3
			c-0.7-0.2-1.3-0.6-2.1-0.9c-0.6-0.2-1.1-0.2-1.6-0.4c-0.6-0.2-1.1-0.3-1.7-0.3c-1.2,0-2.4,0-3.6,0c-0.9,0-1.8,0-2.7,0
			c-1.1,0-2.4,0.6-3.4,1.1c-1.1,0.5-2.2,0.8-3.3,1.3c-0.5,0.3-1,0.7-1.6,0.9c-0.2,0.1-0.5,0-0.7,0.2c-0.2,0.1-0.5,0.6-0.6,0.8
			c-1,1.2-2,2.3-3.2,3.2c-0.4,0.3-0.7,0.6-1,0.9c-0.6,0.4-0.7,0.8-1,1.4c-0.4,0.8-1.2,1.5-1.8,2.2c-0.5,0.6-1.1,1.3-1.8,1.6
			c-0.8,0.5-1.7,0.3-2.6,0.3c-0.4,0-0.7,0-1.1-0.1c-0.3-0.1-1-0.3-1.3-0.2c-0.4,0.1-0.6,0.7-0.8,1.1c-0.2,0.3-0.5,0.6-0.8,0.9
			c-0.2,0.3-0.4,0.6-0.6,0.9c-0.2,0.3-0.5,0.8-0.7,1.2c-0.1,0.2,0,0.3-0.1,0.5c0,0.1-0.2,0.5-0.2,0.7c0,0.2,0,0.5,0,0.7
			c-0.1,0.2-0.2,0.3-0.3,0.5c-0.1,0.5,0.1,1.1,0,1.6c-0.1,0.5-0.3,0.8-0.3,1.3c-0.1,0-0.3,0.1-0.4,0.1c-0.1,0.6-0.6,1.1-0.8,1.6
			c-0.2,0.6-0.2,1.9,0,2.6c0.4,0.1,1.1,0.1,1.5,0c0-0.1,0.1-0.3,0.1-0.4c0.3,0,0.8-0.2,1-0.3c0.4-0.1,0.7-0.2,1.1-0.3
			c0.4-0.1,0.5-0.3,0.9-0.3c0.4,0,1-0.1,1.5,0c0.5,0.1,0.4,0,0.5,0.5c0.1,0.5,0.1,1,0.3,1.5c0.1,0.4,0.3,0.7,0.3,1.2
			c0,0.4-0.1,1,0.5,0.8c0.3-0.1,0.5-1,0.6-1.3c0.1-0.3,0.3-0.6,0.5-0.9c0.2-0.4,0.4-0.8,0.7-1.1c0.2-0.2,0.3-0.2,0.5-0.4
			c0.2-0.3,0.2-0.6,0.5-0.9c0.4-0.4,0.8-0.7,1.1-1.2c0.3-0.5,0.7-0.8,1-1.3c0.8-1.2,1.5-2.5,2.5-3.6c1.1-1.3,1.7-2.6,3.1-3.6
			c1.4-0.9,2.7-1.9,4.2-2.7c0.7-0.4,1.2-0.9,1.9-1.4c0.6-0.5,1.4-0.7,2-1.2c0.6-0.4,1.3-1.1,2.1-1.4c0.6-0.2,1.4-0.2,2-0.4
			c2.8-0.6,5.9-0.2,8.8-0.2c1.1,0,1.9,0.1,2.9,0.7c0.4,0.2,0.6,0.6,1,0.8c0.3,0.2,0.7,0.3,1,0.6c0.6,0.7,1,1.4,1.8,1.8
			c0.4,0.2,0.7,0.5,1.2,0.4c0.5-0.1,0.4-0.3,0.6-0.6c0.3-0.3,0.4-0.4,0.7-0.6c0.2-0.2,0.3-0.5,0.5-0.6c0.3-0.3,0.6-0.3,0.9-0.6
			c0.3-0.4,0.2-0.9,0.2-1.3C108,59.5,108.2,58.7,106.2,56.6z"/>
		<path id="XMLID_517_" class="st0" d="M63.7,70.7c0.6,0,1.5,0.2,1.8-0.4c0.5-1-0.6-1.1-1.3-0.9c-0.1,0.7-0.4,0.9-0.6,1.6"/>
		<path id="XMLID_518_" class="st0" d="M59.4,78.6c0.1,0.4,0.4,0.5,0.8,0.6c0,0.3-0.1,0.7,0.3,0.7c0-0.1,0-0.5,0-0.5
			c0.1-0.2,0.4-0.2,0.5-0.4c0.2-0.3,0-0.8,0-1.1c0,0.7,0.1,2.4,1.3,2.3c0.2-0.9,0-2,0-2.9"/>
		<path id="XMLID_519_" class="st0" d="M67.5,34c0,1.1-0.1,2.2,0.1,3.3c0.2,0.1,0.3,0.3,0.3,0.5c0,0.3,0,0.6,0,0.8
			c0.1,0.9,0.6,1.8,0.8,2.7c0.5,2.1,0.8,4.2,1.7,6c0.8,1.6,2.9,2.7,3,4.8c0,1.2,0.6,1.9,0.8,2.9c0.1,0.5-0.2,1.2,0,1.7
			c0.1,0.5,0.6,0.6,0.4,1.2"/>
		<path id="XMLID_520_" class="st0" d="M76.3,66.7c0,1.5,0.1,2.7,0.5,4.1c0.1,0.4,0.5,1,0.7,1.4c0.2,0.8,0.1,1.6,0.1,2.4"/>
		<path id="XMLID_545_" class="st0" d="M113.7,128.8c0-2,0-3.9,0-5.9c0-2,0.3-4.3,0-6.3c-0.1-0.6-0.4-1-0.4-1.6
			c-0.1-0.7,0-1.5,0-2.2c0-3.3,0-6.6,0-9.9c0-1.6,0.3-3.8-0.3-5.2c-0.3-0.8-0.6-1.6-0.9-2.4c-0.3-0.9-1.1-1.4-1.6-2.2
			c-1.8-2.7-2.2-5.6-2.9-8.7c-0.2-0.7,0.1-1.4-0.1-2.1c-0.2-0.7-0.6-0.8-0.5-1.6c0.4-2.1,2-3.4,3.1-4.9c1.2-1.6,2.7-2.6,4.1-3.8
			c1-0.8,1.7-2.2,2.2-3.3c0.2-0.6,0.3-1.2,0.7-1.7c0.3-0.5,1.1-0.7,1.4-1.2c0.2-0.3,0.2-0.8,0.4-1.1c0.4-0.6,0.3-0.3,0.7-0.7
			c0.5-0.4,1-0.9,1.5-1.4c0.7-0.6,0.9-1.3,1.4-2c0-0.1,0.6-0.8,0.8-0.9c0.3-0.2,0.6-0.3,0.8-0.5c0.9-0.7,1.5-1.7,2.2-2.4
			c0.7-0.8,2.3-1.5,3.4-1.7c0.9-0.2,1.3-0.6,2.1-0.8c0.5-0.2,0.8,0,1.3-0.3c0.3-0.2,0.4-0.4,0.7-0.6c1.4-1.1,3.2-1.6,4.9-1
			c1.1,0.4,2,1,2.7,1.9c0.4,0.5,1,1.6,1.7,1.7"/>
		<path id="XMLID_547_" class="st0" d="M117.4,32.3c0,3.1-0.3,5.9-1.6,8.8c-0.3,0.6-0.6,1.1-1,1.7c-0.7,0.9-0.6,1-0.8,2
			c-0.2,0.9-0.7,1.8-0.9,2.7c-0.3,1.1-0.7,2-1,3c-0.2,1.1-0.6,2.2-1.1,3.2c-0.3,0.8-0.5,1.5-0.8,2.3c-0.3,0.8-0.7,1.5-0.8,2.3
			c-0.3,1.8-1.2,3.1-2,4.7c-0.6,1.3-1.1,2.6-1.7,3.8c-0.3,0.5-0.7,1.1-0.9,1.7c-0.2,0.9-0.1,1.6-0.5,2.4c-0.4,0.7-0.8,1.1-1.3,1.7
			c-0.2,0.2-0.3,0.6-0.4,0.8c-0.2,0.5-0.7,0.8-0.8,1.3"/>
		<path id="XMLID_548_" class="st0" d="M94.8,50.3c-1.1,0.2-1.8-2.3-2.1-2.9c-0.8-1.6-1-4.2-2.3-5.5c-0.4-0.4-0.7-0.5-1.1-0.7
			c-0.6-0.3-0.6-0.5-1-1.1c-1.1-1.4-2.6-2.4-3.7-3.9c-0.6-0.8-0.8-1.4-1-2.3c-0.5-1.6-1.6-2.8-1.7-4.6c-0.1-1.5,0.1-3.1,0-4.6
			c-0.2-2.3-1.4-4.3-1.3-6.7"/>
	</g>
</g>
</svg>
