<?xml version="1.0" encoding="utf-8"?>
<!-- Generator: Adobe Illustrator 19.0.0, SVG Export Plug-In . SVG Version: 6.00 Build 0)  -->
<svg version="1.1" id="Layer_1" xmlns="http://www.w3.org/2000/svg" xmlns:xlink="http://www.w3.org/1999/xlink" x="0px" y="0px"
	 viewBox="0 0 150 200" style="enable-background:new 0 0 150 200;" xml:space="preserve">
<style type="text/css">
	.st0{fill:none;stroke:#000000;stroke-width:0.9921;stroke-miterlimit:10;}
	.st1{stroke:#000000;stroke-width:0.9921;stroke-miterlimit:10;}
</style>
<g id="XMLID_792_">
	<path id="XMLID_327_" class="st0" d="M84,25.7c0-0.3,0-0.7,0-1c0-0.2,0.1-0.4,0.1-0.6c0.1-0.3,0.1-0.5,0.1-0.8
		c0-1.1,0.1-2.2-0.1-3.2c-0.1-0.4-0.4-0.7-0.5-1c-0.2-0.5-0.5-1.1-0.8-1.5c-0.2-0.3-0.7-0.6-1-0.8c-0.2-0.1-0.3-0.3-0.5-0.4
		c-0.2-0.1-0.3-0.1-0.5-0.1c-0.3-0.1-0.6-0.3-0.9-0.3c-0.5-0.1-0.9,0-1.4,0c-0.4,0-0.7,0-1.1,0c-0.2,0-0.4,0-0.5,0.1
		c-0.1,0.1-0.1,0.2-0.2,0.3c-0.1,0.1-0.4,0.2-0.5,0.3c-0.2,0.2-0.4,0.4-0.5,0.6c-0.3,0.4-0.5,0.9-0.5,1.3c0,0.2,0,0.4,0,0.5
		c0,0.2-0.1,0.2-0.1,0.4c0,0.4-0.1,1,0.1,1.4c0.1,0.2,0.2,0.3,0.4,0.4c0.2,0.1,0.3,0.3,0.6,0.4c0.1,0,0.2,0,0.3,0.1
		c0.1,0.1,0.2,0.2,0.3,0.3c0.1,0.1,0.3,0.1,0.5,0.1c0.4,0.1,0.9,0.1,1.3,0.1c0.2,0,0.5,0.1,0.6,0c0.2,0,0.2-0.2,0.4-0.2
		c0-0.1,0.5-0.3,0.5-0.4c0,0-0.1-0.4,0-0.4"/>
	<path id="XMLID_329_" class="st0" d="M79.9,23c0-0.5,0-1.4,0-1.9c0-0.2,0-0.5,0-0.7c0-0.2-0.1-0.4-0.2-0.6
		c-0.1-0.2-0.2-0.4-0.3-0.7c-0.1-0.2-0.1-0.5-0.3-0.6c-0.2-0.1-0.5,0-0.7,0c-0.3,0-0.4-0.1-0.4,0.3"/>
	<path id="XMLID_330_" class="st0" d="M83.8,19.4c0.2,0,0.4-0.4,0.4-0.6c0-0.2,0.1-0.4,0.1-0.6c0-0.2,0-0.5,0-0.7
		c0-0.3,0-0.4-0.2-0.6c-0.1-0.2-0.1-0.4-0.2-0.6c-0.1-0.2-0.2-0.3-0.3-0.4c-0.1-0.1-0.2-0.3-0.3-0.4c-0.1-0.1-0.2-0.2-0.3-0.3
		c-0.1-0.1-0.1-0.3-0.3-0.4c-0.2-0.2-0.5-0.3-0.7-0.5c-0.2-0.2-0.4-0.5-0.7-0.7c-0.1-0.1-0.2-0.2-0.2-0.2c-0.2-0.1-0.3-0.1-0.5-0.3
		c-0.1-0.1-0.2-0.2-0.4-0.4c-0.1-0.1-0.2-0.4-0.2-0.5c-0.2-0.3-0.3-0.6-0.4-0.9c-0.1-0.5,0-1,0-1.5c0-0.3,0-0.9,0.1-1.4
		c-0.4,0.1-0.5,0.6-0.7,0.9c-0.1,0.2-0.4,0.4-0.6,0.6c-0.2,0.2-0.3,0.5-0.5,0.7c-0.1,0.2-0.2,0.4-0.3,0.7c-0.2,0.4-0.2,0.9-0.3,1.3
		c0,0.3-0.1,0.9,0,1.2c0.1,0.3,0.2,0.5,0.3,0.7c0.1,0.3,0.2,1.1,0.7,1.1"/>
	<path id="XMLID_331_" class="st0" d="M74.9,20.5c-1,0-2.1-0.2-3.1,0.3c-0.2,0.1-0.3,0.1-0.5,0.1c-0.2,0-0.3,0-0.5,0.1
		c-0.3,0.1-0.6,0.2-0.9,0.3c-0.4,0.1-0.9,0.1-1.3,0.3c-0.3,0.1-0.6,0.2-0.9,0.4c-0.2,0.1-0.4,0.1-0.6,0.2c-0.1,0-0.3,0.1-0.4,0.1
		c-0.1,0-0.3,0.2-0.5,0.1"/>
	<path id="XMLID_332_" class="st0" d="M63.5,16.7c0.2,0,0.3,0,0.5,0c0,0,0.1,0,0.2,0c0.1,0,0.1,0,0.2,0.1c0.2,0,0.3,0,0.4,0.1
		c0.1,0.1,0.2,0.1,0.4,0.2c0.4,0.2,0.8,0.5,1.1,0.9c0,0.1,0.1,0.1,0.2,0.2c0.1,0.1,0.1,0.2,0.1,0.3c0,0.1,0.1,0.2,0.2,0.3
		c0.1,0.1,0.1,0.2,0.1,0.4c0.1,0.3,0.1,0.5,0.1,0.7c0,0.3,0,0.6-0.1,0.8c-0.1,0.2-0.2,0.5-0.3,0.7c-0.1,0.3-0.2,0.5-0.5,0.6
		c-0.1,0.1-0.2,0.2-0.3,0.2c-0.2,0.1-0.2,0.1-0.4,0.1c-0.1,0-0.2,0.1-0.3,0.1c-0.2,0-0.4,0.1-0.6,0.1c-0.2,0-0.3,0.1-0.5,0.1
		c-0.2,0-0.4,0-0.7,0c-0.1,0-0.3,0-0.4,0c-0.3,0-0.3-0.2-0.5-0.3c-0.2-0.2-0.5-0.3-0.7-0.5c-0.1-0.1-0.1-0.2-0.2-0.3
		c-0.1-0.1-0.3-0.2-0.4-0.3c-0.3-0.3-0.3-0.7-0.4-1c-0.1-0.2-0.1-0.3-0.2-0.4c0-0.1-0.1-0.1-0.1-0.2c0-0.1,0-0.2,0-0.3
		c0-0.4,0-0.9,0-1.3c0-0.1,0-0.3,0-0.4c0-0.1,0.2-0.3,0.2-0.4c0.2-0.3,0.2-0.6,0.3-0.9c0.1-0.4,0.3-0.8,0.4-1.2
		c0.2-0.4,0.2-0.8,0.2-1.2c0-0.3,0-0.6,0-0.8c0-0.2,0-0.4,0-0.5c0,0,0-0.1,0-0.1c0-0.1-0.1-0.2-0.1-0.3c0-0.1,0-0.2,0-0.3
		c0-0.1-0.1-0.1-0.2-0.1c0-0.1-0.1-0.1-0.1-0.2c-0.1-0.2-0.3-0.5-0.4-0.7c-0.1-0.2-0.2-0.4-0.3-0.6c-0.1-0.1-0.1-0.2-0.2-0.4
		c-0.1-0.2-0.1-0.2,0.1-0.2c0.3,0,0.6,0,0.9,0c0.3,0,0.7-0.1,1,0.1c0.1,0,0.1,0.1,0.2,0.2c0.1,0.1,0.1,0,0.2,0.1
		c0.1,0.1,0.2,0.4,0.4,0.5c0.2,0.2,0.2,0.4,0.4,0.6c0.2,0.3,0.2,0.5,0.4,0.8c0.1,0.2,0.2,0.4,0.2,0.6c0,0.2,0,0.4,0.1,0.6
		c0.1,0.3,0,0.6,0,0.9c0,0.2,0.1,0.5,0,0.8c0,0.1-0.1,0.2-0.1,0.3c0,0.1,0,0.2-0.1,0.3c-0.1,0.3-0.3,0.7-0.5,1
		c-0.1,0.2-0.1,0.6-0.1,0.8c0,0.3-0.1,0.8,0.1,1c0.1,0.3,0.4,0.4,0.5,0.7c0.1,0.1,0.2,0.2,0.2,0.2c0.1,0.1,0,0.1,0.1,0.1
		c0,0,0.2,0.1,0.2,0.1c0,0,0,0,0,0.1"/>
	<path id="XMLID_333_" class="st0" d="M60.9,21.3c0,0.2,0,0.5,0,0.7c0,0.1-0.1,0.2-0.1,0.3c0,0.2-0.1,0.3-0.1,0.5
		c-0.2,0.4-0.4,0.8-0.5,1.2C60,24.3,60,24.6,60,25c0,0.2,0,0.5,0,0.7c0,0.2,0,0.4,0,0.6c0,0.2,0.1,0.3,0.2,0.5c0,0,0,0,0.1,0"/>
	<path id="XMLID_334_" class="st0" d="M62.5,26c-0.2,0-0.3,0-0.5,0c-0.1,0-0.1,0.1-0.2,0.1c-0.1,0.1-0.2,0.1-0.3,0.1
		c-0.1,0.1-0.2,0.2-0.3,0.2c-0.1,0-0.1,0.1-0.2,0.1c-0.1,0-0.1,0.1-0.2,0.2c-0.1,0.1-0.3,0.1-0.5,0.2c-0.1,0.1-0.3,0.1-0.4,0.2
		c-0.1,0.1-0.2,0.2-0.3,0.3c-0.1,0.1-0.3,0.1-0.4,0.3c-0.1,0.1-0.3,0.2-0.4,0.3c-0.1,0.1-0.1,0.2-0.2,0.3c-0.1,0.2-0.3,0.3-0.5,0.4
		c-0.2,0.2-0.3,0.3-0.4,0.6c-0.1,0.2-0.2,0.3-0.2,0.5c0,0.1,0,0.3,0,0.4c0,0.2-0.1,0.4-0.1,0.6c0,0.2,0,0.4-0.1,0.5
		c-0.1,0.1-0.1,0.2-0.1,0.3c0,0.2-0.1,0.5-0.1,0.7c0,0.3,0,0.7,0,1c0,0.3,0.2,0.6,0.3,0.9c0.1,0.2,0,0.4,0.1,0.5
		c0.1,0.2,0.3,0.4,0.5,0.6c0.1,0.1,0.2,0.2,0.3,0.3c0.1,0.1,0.1,0.3,0.2,0.4c0.1,0.1,0.2,0.1,0.3,0.2c0.1,0.1,0.1,0.2,0.2,0.3
		c0.1,0.2,0.4,0.3,0.5,0.4c0.1,0.1,0.2,0.2,0.3,0.3c0.1,0.1,0.2,0.1,0.3,0.1c0.1,0.1,0.2,0.2,0.4,0.2c0.2,0.1,0.3,0.1,0.5,0.2
		c0.3,0.2,0.6,0.2,0.9,0.2c0.2,0,0.4,0,0.6,0c0.2,0,0.3-0.1,0.5-0.1c0.4-0.1,0.6-0.4,0.9-0.7c0.3-0.3,0.6-0.6,0.9-1
		c0.2-0.2,0.3-0.4,0.3-0.6c0-0.3,0-0.5,0-0.8c0-0.4,0.1-0.9-0.1-1.2c-0.1-0.3-0.3-0.6-0.4-0.9c-0.1-0.2-0.2-0.4-0.3-0.7
		c-0.1-0.2-0.2-0.4-0.3-0.6c-0.1-0.2-0.1-0.4-0.2-0.6c0-0.1-0.1-0.2-0.1-0.3c0-0.1,0-0.3,0-0.5c0-0.1-0.1-0.2-0.1-0.3
		c0-0.1,0-0.2,0-0.3c0-0.3,0.1-0.2,0.3-0.4c0.1-0.1,0.1-0.2,0.1-0.2c0-0.1,0.1-0.1,0.2-0.2c0.1-0.1,0.3-0.2,0.4-0.2"/>
	<path id="XMLID_647_" class="st0" d="M62.8,26.4c0,0.2,0.2,0.4,0.2,0.5c0.1,0.2,0.1,0.5,0.1,0.7c0,0.2,0,0.4,0,0.6
		c0,0.2-0.2,0.4-0.3,0.5c-0.1,0.1-0.1,0.2-0.2,0.2c-0.1,0.1-0.2,0.2-0.3,0.3c-0.1,0.2-0.3,0.3-0.5,0.4c-0.3,0.3-0.8,0.3-1.1,0.5
		c-0.1,0-0.2,0.1-0.3,0.1c-0.1,0-0.2,0-0.3,0c-0.2,0-0.4,0.2-0.5,0.2c-0.1,0-0.1,0-0.1,0c0,0.1,0,0.1-0.1,0.1
		c-0.1,0.1-0.2,0.1-0.3,0.1c-0.1,0.1-0.3,0.2-0.4,0.3c-0.2,0.1-0.4,0.3-0.6,0.5c-0.1,0.1-0.2,0.2-0.3,0.3c0,0-0.1,0.1-0.1,0.2
		c-0.1,0.1-0.1,0.1-0.1,0.3"/>
	<path id="XMLID_749_" class="st0" d="M81.7,27.3c0-0.1,0.2-0.1,0.2-0.1c0.1-0.1,0.2-0.2,0.3-0.3c0.2-0.2,0.3-0.4,0.5-0.5
		c0.3-0.2,0.8-0.5,1.2-0.6c0.2-0.1,0.5-0.1,0.7-0.2c0.1,0,0.1-0.1,0.2-0.1c0.1,0,0.2,0,0.3,0c0.3,0,0.5,0,0.8,0
		c0.2,0,0.4,0.1,0.6,0.3c0.1,0.1,0.2,0.2,0.3,0.3c0.1,0.1,0.3,0.2,0.4,0.3c0.2,0.2,0.4,0.4,0.5,0.7c0.1,0.2,0.3,0.3,0.4,0.5
		c0.1,0.1,0.1,0.1,0.1,0.2c0.1,0.1,0.2,0.1,0.3,0.2c0.1,0.1,0.1,0.2,0.2,0.3c0.1,0.1,0.1,0.2,0.2,0.3c0.1,0.1,0.2,0.3,0.3,0.4
		c0.1,0.2,0.1,0.3,0.2,0.4c0,0.1,0.1,0.1,0.1,0.2c0,0.1,0.1,0.2,0.2,0.4c0,0.1,0,0.2,0,0.4c0,0,0.1,0.1,0.1,0.1c0,0.1,0,0.2,0,0.3
		c0,0.4,0,0.8-0.1,1.2c-0.1,0.2-0.1,0.3-0.2,0.5c-0.1,0.2-0.1,0.3-0.2,0.5c-0.1,0.1-0.1,0.2-0.2,0.3c0,0.1,0,0.3-0.2,0.3
		c0,0.2-0.2,0.4-0.3,0.6c-0.1,0.3-0.2,0.5-0.4,0.7c-0.2,0.2-0.4,0.4-0.6,0.6c0,0-0.1,0.1-0.1,0.1c-0.1,0-0.2,0.1-0.2,0.1
		c-0.1,0.1-0.2,0.2-0.3,0.2c-0.1,0.1-0.2,0.2-0.4,0.3c-0.1,0.1-0.1,0.1-0.2,0.1c-0.1,0-0.2,0.1-0.3,0.1c-0.1,0-0.2,0.1-0.3,0.1
		c-0.1,0-0.2,0-0.3,0c-0.1,0-0.2,0-0.3,0c-0.2,0-0.2,0-0.3-0.1c-0.1-0.1-0.2-0.2-0.2-0.4c0-0.1-0.1-0.1-0.1-0.2
		c-0.1-0.1-0.1-0.2-0.2-0.2c-0.1-0.1-0.2-0.3-0.3-0.4c-0.1-0.1-0.2-0.1-0.2-0.2c0-0.1,0-0.3,0-0.5c0-0.2,0-0.4,0.1-0.5
		c0-0.1,0-0.1,0-0.2c0-0.1,0.1-0.1,0.2-0.2c0.1-0.1,0.1-0.1,0.1-0.2c0.1-0.2,0.2-0.3,0.4-0.4c0.1-0.1,0.2-0.1,0.3-0.2
		c0-0.1,0.1-0.2,0.1-0.3c0-0.1,0-0.2,0.1-0.3c0-0.1,0.1-0.1,0.2-0.2c0.1-0.1,0.1-0.3,0.2-0.4c0.1-0.3,0.1-0.7,0.2-1.1
		c0-0.1,0.1-0.1,0.1-0.2c0-0.1,0-0.2,0.1-0.2c0-0.1,0-0.2,0.1-0.4c0.1-0.3,0.1-0.6,0.1-0.9c0-0.2-0.1-0.2-0.2-0.3
		c-0.1-0.2-0.1-0.1-0.3-0.2c0,0,0-0.1,0-0.1c-0.2,0-0.4-0.1-0.5-0.1c-0.2,0-0.3,0-0.4,0.2c-0.3,0.3-0.6,0.6-0.9,0.9
		c-0.1,0.2-0.3,0.5-0.4,0.8c-0.1,0.3-0.2,0.6-0.3,0.9c-0.1,0.2,0,0.4-0.1,0.6c0,0.2-0.1,0.4-0.2,0.5c-0.1,0.1-0.1,0-0.2,0.1
		c-0.1,0-0.2,0.1-0.3,0.1c-0.2,0-0.3-0.2-0.4-0.4c-0.1-0.1-0.1-0.3-0.2-0.4c0-0.1-0.1-0.2-0.2-0.2c0,0-0.1,0-0.1-0.1
		c0,0-0.1-0.1-0.1-0.1c-0.1-0.1-0.4-0.1-0.6,0c-0.1,0.1-0.2,0.3-0.3,0.4c-0.2,0.2-0.8,0.1-1,0c-0.1,0-0.1-0.1-0.2-0.2
		c-0.1-0.1-0.2-0.1-0.3-0.2c-0.1-0.1-0.2-0.4-0.5-0.4C78,30.2,78,30.8,78,31c0,0.1,0,0.4,0,0.5c0,0.1,0.1,0.1,0.2,0.1
		c0.1,0.1,0.2,0.3,0.2,0.4c0.1,0.2,0.2,0.2,0.3,0.4c0,0.1,0.1,0.1,0.2,0.2c0.1,0.2,0.1,0.4,0.1,0.7c0,0.3,0.3,0.6,0.4,0.8
		c0.1,0.1,0.1,0.2,0.2,0.3c0.1,0.1,0.1,0.4,0.2,0.5c0.2,0.4,0.5,0.9,0.1,1.2c-0.3,0.2-0.5,0.4-0.6,0.8c0,0.1,0,0.2-0.1,0.3
		c0,0.1-0.1,0.1-0.2,0.2c-0.1,0.1-0.1,0.2-0.2,0.3c-0.1,0.2-0.3,0.2-0.4,0.3c-0.1,0.1-0.1,0.1-0.2,0.2c-0.1,0.1-0.2,0.1-0.3,0.1
		c-0.3,0.1-1,0.2-1.2,0c-0.3-0.3-0.3-0.9-0.1-1.2c0-0.1,0.1-0.2,0.2-0.2c0.1-0.1,0.1-0.2,0.2-0.4c0.1-0.1,0.4-0.4,0.6-0.4
		c-0.3,0-0.8-0.1-1.1,0c-0.2,0.1-0.3,0.2-0.4,0.3c-0.1,0-0.3,0.1-0.4,0c-0.1-0.1,0-0.4,0-0.5c0.1-0.2,0.3-0.1,0.4-0.4
		c0-0.1,0-0.3,0.1-0.4c0.1-0.1,0.2-0.2,0.2-0.4c0.1-0.4,0.2-0.9,0.2-1.3c0-0.2,0-0.3,0-0.5c0-0.1-0.1-0.3-0.1-0.4
		c-0.1-0.4-0.4-0.8-0.6-1.2c-0.1-0.2-0.1-0.2-0.4-0.4c-0.2-0.1-0.5-0.4-0.7-0.3c0,0.3-0.7,0.2-0.9,0.3c-0.5,0.1-0.9,0.2-1.4,0.2
		c-0.6,0-1.1-0.1-1.7-0.1c-0.4,0-0.8-0.1-1.2-0.1c-0.2,0-0.4,0-0.5,0.1c-0.1,0.1-0.1,0.2-0.2,0.2c-0.1,0-0.1,0-0.2,0
		c0,0.1,0,0.1,0,0.2c-0.1,0.1-0.2,0.2-0.3,0.3c-0.1,0.1-0.1,0.3-0.1,0.4c-0.1,0.2-0.2,0.4-0.3,0.5"/>
	<path id="XMLID_750_" class="st0" d="M85.8,29.5c0,0.3-0.4,0.7-0.7,0.8c-0.1,0-0.1,0.1-0.2,0.1c-0.1,0-0.1,0.1-0.2,0.2
		c-0.2,0.1-0.2,0.3-0.4,0.4c-0.2,0.2-0.4,0.4-0.5,0.6c-0.1,0.2-0.2,0.5-0.4,0.6c-0.1,0.1-0.1,0.2-0.2,0.3c-0.1,0.1-0.2,0.2-0.3,0.3
		c-0.1,0.2-0.2,0.4-0.3,0.6c-0.1,0.2-0.3,0.4-0.4,0.6c-0.1,0.2-0.2,0.4-0.4,0.6c-0.1,0.1-0.1,0.1-0.2,0.2c-0.1,0.1-0.1,0.1-0.2,0.2
		c-0.2,0.3-0.5,0.5-0.6,0.8c-0.2,0.3-0.1,0.7-0.1,1.1c0,0.2,0,0.4,0,0.5c0,0.1,0,0.3,0.1,0.4c0.1,0.1,0.2,0.2,0.3,0.2
		c0.1,0.1,0.2,0.1,0.3,0.2c0.1,0,0.2,0,0.3,0.1c0.2,0.1,0.4,0.2,0.5,0.4c0.3,0.3,0.2,0.7,0.2,1.1c0,0.5,0,1-0.2,1.5
		c-0.1,0.1-0.2,0.3-0.1,0.4c0.1,0,0.2,0,0.3,0c0.1,0,0.2,0.1,0.4,0.1c0.2,0,0.3,0.1,0.4,0.1c0.2,0.1,0.3,0.1,0.5,0.1
		c0.3,0,0.9,0.1,1.2,0.3c0.4,0.3,0.9,0.6,1.1,1.1c0.1,0.1,0.1,0.3,0.2,0.5c0.1,0.1,0.2,0.2,0.3,0.3c0.1,0.1,0.1,0.2,0.2,0.4
		c0.1,0.2,0.1,0.4,0.2,0.5c0.2,0.3,0.3,0.8,0.3,1.2c0,0.2,0,0.5,0,0.8c0,0.1-0.1,0.2-0.1,0.3c0,0-0.1,0-0.1,0.1c0,0,0,0.1-0.1,0.1
		c-0.1,0.1-0.3,0.2-0.5,0.3c-0.1,0.1-0.2,0.2-0.3,0.2c-0.1,0-0.1,0-0.2,0c-0.6,0.2-0.7,0.8-0.8,1.3c-0.1,0.3-0.1,0.5-0.1,0.8
		c0,0.4,0.3,0.7,0.5,1c0.1,0.2,0.2,0.4,0.2,0.7c0,0.2,0.1,0.4,0,0.5c-0.1,0.1-0.2,0.1-0.3,0.2c-0.1,0-0.1-0.1-0.1-0.2
		c-0.1-0.2,0-0.4-0.2-0.6c-0.3-0.2-0.5-0.4-0.8-0.6c-0.2-0.1-0.4-0.1-0.6-0.2c-0.2,0-0.4,0.1-0.5-0.1c-0.4-0.3-0.6-0.7-0.8-1.1
		c-0.2-0.3-0.2-0.8-0.1-1.2c0-0.2,0.2-0.5,0.4-0.7c0-0.1,0.1-0.1,0.1-0.1c0.1,0,0.2-0.1,0.2-0.1c0.1-0.1,0.1-0.1,0.2-0.2
		c0.1-0.1,0.3-0.2,0.4-0.4c0-0.1,0.1-0.3,0.1-0.5c0-0.2-0.1-0.4-0.2-0.5c-0.1-0.2-0.2-0.2-0.4-0.2c-0.3,0-0.5-0.1-0.7-0.2
		c-0.1,0-0.3,0-0.4,0c-0.2,0-0.3,0-0.3,0.2c0,0.5,0,1-0.2,1.5c-0.2,0.4-0.5,0.7-0.7,1.1c-0.1,0.2-0.2,0.4-0.3,0.6c0,0.2,0,0.4,0,0.5
		c0,0.3,0,0.5,0.1,0.7c0.1,0.2,0.2,0.5,0.3,0.7c0.2,0.3,0.7,0.4,1,0.5c0.1,0.1,0.3,0.1,0.4,0.3c0.1,0.1,0.1,0.2,0.2,0.3
		c0.1,0.1,0.2,0.1,0.2,0.3c0.1,0.2,0.1,0.5,0.2,0.8c0.1,0.2,0.2,0.5,0.2,0.7c0,0.5-0.4,0.7-0.8,0.8c-0.4,0.1-0.8,0.2-1.1,0.3
		c-0.3,0.1-0.7,0.3-1,0.3c-0.2,0-0.2,0.1-0.4,0.2c-0.3,0.2-0.7,0.3-1,0.6c-0.3,0.2-0.4,0.5-0.7,0.7c-0.1,0.1-0.3,0.2-0.4,0.4
		c0-0.3,0-0.5,0-0.8c0-0.4,0.2-0.7,0.4-1c0.1-0.1,0.2-0.3,0.2-0.5c0.1-0.2,0.2-0.3,0.3-0.4c0.1-0.2,0.1-0.2,0.1-0.4
		c0.1-0.2,0.2-0.4,0.3-0.6c0-0.1,0.1-0.4,0-0.5c-0.1-0.2-0.4-0.5-0.6-0.6c-0.1-0.1-0.2-0.1-0.3-0.1c-0.1-0.1-0.2-0.1-0.3-0.2
		c-0.2-0.2-0.5-0.4-0.6-0.6c-0.4-0.5-0.5-1-0.5-1.6c0-0.2,0-0.5,0.1-0.7c0-0.2,0.1-0.3,0.1-0.5c0-0.2,0-0.3-0.1-0.4
		c0-0.1-0.1-0.1-0.1-0.2c0-0.1-0.1-0.2-0.1-0.3c-0.2-0.3-0.3,0.3-0.3,0.5c-0.1,0.4-0.2,0.6-0.4,1c-0.1,0.1-0.2,0.2-0.2,0.3
		c-0.1,0.1,0,0.2,0,0.3c0,0.2,0,0.5,0,0.7c0,0.5-0.1,0.8,0.3,1.1c0.2,0.2,0.6,0.7,0.5,1c-0.1,0-0.4,0.1-0.5,0
		c-0.2-0.1-0.2-0.3-0.4-0.4c-0.3-0.2-0.7-0.1-0.9-0.4c-0.2-0.4,0-1-0.1-1.5c0-0.4-0.2-0.7-0.3-1.1c0-0.3,0-0.5-0.1-0.7
		c-0.1-0.4-0.3-0.7-0.4-1.1c-0.1-0.4-0.2-0.7-0.5-1c-0.1-0.2-0.3-0.3-0.5-0.4c-0.2-0.1-0.4-0.1-0.6-0.1c-0.3,0-0.6,0-0.9,0
		c-0.1,0-0.2,0-0.3,0.2c0,0.1-0.1,0.2-0.1,0.3c-0.1,0.2-0.2,0.4-0.2,0.6c-0.2,0.5-0.2,0.9-0.2,1.4c0,0.5,0.2,1,0.5,1.4
		c0.2,0.3,0.6,0.6,0.9,0.8c0.2,0.2,0.6,0.2,0.8,0.4c0.2,0.2,0.6,0.4,0.7,0.7c0.1,0.1,0.1,0.2,0.1,0.3c0.1,0.1,0.2,0.2,0.2,0.3
		c0.1,0.3,0.2,0.6,0.2,0.9c0,0.3,0,0.5,0,0.8c0,0.2,0,0.4,0,0.6c0,0.1-0.1,0.3-0.2,0.4c-0.4,0.7-0.7-0.6-0.8-0.8
		c-0.2-0.5-0.9-0.8-1.3-1.1c-0.2-0.2-0.3-0.4-0.5-0.7c-0.2-0.3-0.4-0.6-0.6-0.8c-0.2-0.1-0.4-0.1-0.6-0.2c-0.2-0.1-0.4-0.2-0.6-0.3
		c0,0-0.1-0.1-0.1-0.1c-0.1-0.1-0.2-0.1-0.3-0.2c-0.2-0.1-0.4-0.5-0.5-0.7c-0.2-0.4-0.2-0.9-0.2-1.3c0-0.8,0.1-1.5,0.2-2.3
		c0.1,0.2,0.2,0.7,0,0.9c-0.1,0.1-0.3,0.1-0.5,0.2c-0.2,0.1-0.4,0.2-0.4,0.4c0,0.2-0.1,0.2-0.2,0.3c-0.5,0.3-0.3-0.4-0.3-0.7
		c0-1,0-2,0.8-2.8c0.2-0.2,0.5-0.3,0.7-0.5c0.1-0.1,0.2-0.4,0.3-0.5c-0.1,0.2-0.3,0.3-0.4,0.4c-0.2,0.1-0.4,0.1-0.6,0.2
		c-0.2,0.1-0.4,0.3-0.6,0.4c-0.2,0.1-0.5,0.1-0.7,0.1c-0.3,0.1-0.6,0.1-0.8,0.3c-0.3,0.4-0.5,0.8-0.7,1.2c-0.1,0.2-0.3,0.3-0.4,0.5
		c-0.1,0.1-0.2,0.3-0.3,0.5c-0.1,0.1-0.1,0.2-0.2,0.4c0,0.1,0,0.1-0.1,0.2c-0.3-0.2-0.3-0.7-0.4-1C64,47,64,46.8,63.9,46.5
		c-0.1-0.4-0.1-0.6,0.1-0.9c0.3-0.4,0.6-0.8,1.1-1c0.1-0.1,0.3-0.1,0.4-0.1c0.2,0,0.4-0.1,0.6-0.2c0.4-0.1,0.6-0.1,0.9-0.4
		c0,0,0.2-0.2,0.2-0.2c0.1-0.1,0-0.9,0-0.7c0-0.4,0-0.8,0-1.2c0-0.1-0.3-0.9-0.5-0.9c0,0.2,0,0.4,0,0.5c0,0.2-0.1,0.5-0.2,0.7
		c-0.1,0.3-0.2,0.6-0.4,0.8c-0.1,0.1-0.1,0.1-0.2,0.2c0,0,0,0.2-0.1,0.2c-0.3,0.2-0.4-0.3-0.4-0.4c0-0.4-0.1-0.8-0.1-1.2
		c0-0.4-0.1-0.9-0.1-1.3c0-0.3,0-0.7,0-1c-0.2-0.1-0.3,0.4-0.5,0.5c-0.4,0.2-0.4-0.5-0.5-0.7c-0.1-0.2-0.1-0.5-0.2-0.7
		c-0.1-0.1-0.2-0.1-0.3-0.1c-0.1-0.1-0.4-0.3-0.5-0.3"/>
	<path id="XMLID_751_" class="st0" d="M82.3,43.3c-0.3,0-0.6,0.1-0.8,0c-0.3-0.1-0.4-0.3-0.6-0.5c-0.4-0.6-0.6-1.3-0.6-2
		c0-0.5-0.1-1-0.4-1.3c-0.2-0.2-0.4-0.2-0.7-0.3c-0.3-0.1-0.6,0-0.9,0c-0.4,0-0.9-0.1-1.4,0c-0.2,0-0.5,0.2-0.7,0.2
		c-0.2,0.1-0.4,0.1-0.7,0.1c-0.2,0-0.5,0-0.6,0.1c-0.2,0.1-0.3,0.3-0.4,0.5c-0.1,0.2-0.4,0.3-0.4,0.6c0,0.1,0,0.2,0,0.3
		c0,0.1-0.1,0.2-0.1,0.2c-0.1,0.2,0,0.5,0,0.7c0,0.3,0,0.5,0,0.8c0,0.4-0.1,0.7-0.2,1.1c-0.1,0.3-0.4,0.6-0.4,0.9
		c0,0.2-0.1,0.7,0.1,0.7c0.1-0.2,0.1-0.4,0.1-0.6c0-0.2,0.1-0.3,0.1-0.5c0-0.2,0-0.3,0.1-0.4c0.1-0.2,0.2-0.3,0.3-0.5
		c0.2-0.4,0.6-0.7,0.7-1.1c0.1-0.2,0.1-0.4,0.1-0.7c0-0.2,0.1-0.3,0.1-0.4c0.4,0,0.8-0.1,1.2-0.2c0.5-0.1,0.8-0.2,1.2-0.5
		c0.2-0.1,0.6-0.1,0.9-0.1c0.1,0,0.3,0,0.4,0c0.2,0,0.2,0,0.3,0.1c0.2,0.1,0.4,0.3,0.6,0.4c0.1,0.1,0.1,0.1,0.2,0.2
		c0,0.1,0.1,0,0.2,0.1c0,0,0,0.2,0.1,0.2c0.1,0.3,0.2,0.5,0.4,0.7c0.1,0.1,0.1,0.2,0.1,0.2C80.7,42.6,80.9,42.6,82.3,43.3z"/>
	<path id="XMLID_752_" class="st0" d="M75.4,41.4c0.2,0.2,0.4,0.4,0.6,0.7c0.1,0.1,0.1,0.4,0.1,0.6c0,0.4,0.2,0.6,0.4,0.9
		c0.3,0.3,0.5,0.9,0.9,1.1c0.2,0.1,0.3,0.3,0.5,0.4c0.2,0.1,0.4,0.2,0.6,0.2c0.2,0,0.4,0.1,0.6,0.1c0.3,0.1,0.7,0.1,1,0.1
		c0.4,0,0.9,0.1,1.1-0.4c0.1-0.2,0.1-0.5,0.1-0.7c0-0.1,0-0.2,0-0.2c0-0.1-0.3-0.1-0.4-0.1c-0.2,0-0.4,0-0.5-0.1
		c-0.2-0.1-0.4-0.1-0.6-0.3c-0.2-0.1-0.3-0.3-0.4-0.5c-0.1-0.1-0.2-0.2-0.3-0.3c-0.1-0.1-0.1-0.3-0.1-0.4c-0.1-0.3-0.1-0.5-0.1-0.8
		c0-0.1-0.1-0.2-0.1-0.3c0-0.1,0-0.2,0-0.3"/>
	<path id="XMLID_753_" class="st0" d="M70.7,32c0.2,0,0.5-0.1,0.7,0c0.1,0.1,0.2,0.2,0.3,0.3c0.1,0.1,0.1,0.1,0.2,0.1
		c0,0,0.1,0.1,0.1,0.1c0.1,0.1,0.2,0.2,0.2,0.3c0,0,0,0.1,0.1,0.2c0,0,0.1,0.1,0.1,0.1c0.1,0.1,0.2,0.2,0.3,0.2c0.1,0,0.2,0,0.2,0.1
		c0,0,0.1,0,0.1,0c0.1,0,0.1,0,0.2,0c0.1,0,0.2,0.1,0.2,0.2c0.1,0,0.2,0,0.3,0.1c0.1,0,0.3,0,0.4,0c0.1,0,0.2,0,0.3,0
		c0.2,0,0.3,0,0.5,0c0.1,0,0.2,0,0.3,0c0.1,0,0.3,0,0.3,0c0.1,0,0-0.1,0-0.1c0-0.1,0-0.2,0-0.3c0-0.1,0-0.2,0-0.3
		c0-0.2,0-0.4-0.1-0.5c-0.1-0.1-0.2-0.2-0.3-0.3c-0.1-0.1-0.2-0.3-0.3-0.4c-0.1-0.1-0.3,0-0.4,0c-0.2,0-0.4,0.1-0.6,0.1
		c-0.1,0-0.2,0-0.3,0c-0.1,0-0.2,0-0.4,0c-0.2,0-0.4,0-0.7,0c-0.2,0-0.4,0-0.6,0c-0.1,0-0.2,0-0.3,0c-0.1,0-0.2,0-0.3,0
		c-0.1,0-0.2,0-0.3,0c0,0-0.1,0-0.1,0c-0.1,0-0.1,0-0.1,0c-0.1,0-0.1,0-0.1,0c0,0-0.1,0-0.1,0.1C70.7,31.9,70.7,32,70.7,32z"/>
	<path id="XMLID_754_" class="st1" d="M74.5,31.7c-0.1,0-0.3,0-0.4,0c0,0-0.1,0-0.1,0.1c0,0-0.1,0-0.1,0c0,0.1-0.1,0.1-0.1,0.2
		c-0.1,0.1,0,0.2,0,0.3c0,0.1,0,0.1,0,0.2c0,0.1,0,0.1,0,0.1c0,0.1,0,0.2,0,0.3c0,0.1,0,0.2,0,0.3c0,0.1,0.1,0.1,0.2,0.2
		c0.1,0.1,0.1,0.2,0.2,0.2c0.1,0,0.2,0,0.3,0c0.2,0,0.4,0,0.6,0c0.1,0,0.2,0,0.3,0c0,0,0.1,0,0.1,0c0.1,0,0.1,0,0.1-0.1
		c0.1-0.2,0.1-0.4,0.1-0.6c0-0.1,0-0.2,0-0.4c0,0,0-0.1,0-0.2c0,0-0.1-0.1-0.1-0.1c-0.1-0.1-0.2-0.2-0.2-0.3
		c-0.1-0.1-0.1-0.2-0.2-0.3C75,31.7,74.7,31.7,74.5,31.7z"/>
	<path id="XMLID_755_" class="st0" d="M79,32.8c0.1,0,0.2,0,0.3,0c0.1,0,0.1,0.1,0.2,0.1c0.1,0,0.1,0,0.2,0c0.1,0,0.1,0.1,0.2,0.1
		c0.1,0.1,0.1,0.1,0.2,0.2c0.1,0.1,0.3,0.1,0.4,0.2c0.1,0.1,0.2,0.1,0.4,0.1c0.1,0,0.2,0.1,0.4,0.1c0.1,0,0.2,0.1,0.4,0
		c0.1,0,0.2-0.1,0.2-0.2c0-0.1,0-0.1,0-0.2c0-0.1,0.1-0.2,0.1-0.4c0-0.1,0.1-0.3,0.1-0.4c0-0.1,0-0.3-0.1-0.4
		c-0.1-0.1-0.2-0.1-0.2-0.2c-0.1-0.1,0-0.2-0.1-0.3c0,0-0.1,0-0.1,0c-0.1,0-0.2,0-0.2,0c-0.1,0-0.2-0.1-0.4-0.2
		c-0.1,0-0.1-0.1-0.2-0.1c-0.1,0-0.2-0.1-0.2-0.1c-0.1,0-0.2,0-0.3,0c-0.1,0-0.2,0-0.3,0c-0.1,0-0.2,0-0.3,0c-0.1,0-0.1,0-0.2,0
		c-0.1,0-0.2,0.1-0.3,0.2c-0.1,0.1-0.2,0.2-0.2,0.4C78.7,32,78.8,32.2,79,32.8z"/>
	<path id="XMLID_756_" class="st1" d="M81.9,32c-0.1,0-0.1,0-0.2,0c0,0-0.1-0.1-0.1-0.1c-0.1,0-0.1,0-0.1-0.1c0,0-0.1,0-0.1,0
		c-0.1,0-0.1-0.1-0.2-0.1c-0.1,0-0.2,0-0.3,0c-0.1,0-0.2,0-0.2,0c0,0-0.1,0-0.2,0c-0.1,0-0.1,0.1-0.1,0.2c0,0,0,0-0.1,0
		c0,0,0,0,0,0.1c0,0.1,0,0.1,0,0.2c0,0.2,0,0.4,0,0.6c0,0.1,0,0.3,0,0.4c0,0,0.1,0.1,0.1,0.1c0,0,0,0.1,0.1,0.1c0,0,0.1,0.1,0.1,0.1
		c0.1,0.1,0.1,0.2,0.2,0.2c0.1,0,0.2,0,0.3,0c0.1,0,0.2,0,0.3,0c0.2,0,0.3-0.2,0.3-0.3c0-0.1,0-0.2,0.1-0.3c0-0.1,0-0.1,0-0.2
		c0-0.1,0-0.1,0-0.1c0-0.1,0-0.2,0-0.3C82,32.2,82,32.1,81.9,32z"/>
	<path id="XMLID_757_" class="st0" d="M59.2,25.1c-0.3,0-0.6,0.7-0.8,1c-0.2,0.3-0.3,0.5-0.6,0.8c-0.5,0.4-0.9,0.9-1.3,1.3
		c-0.3,0.3-0.5,0.6-0.8,0.9c-0.3,0.3-0.3,0.5-0.5,0.9c-0.1,0.2-0.4,0.4-0.5,0.6c-0.1,0.1-0.2,0.7-0.2,0.8c-0.1,0-0.2,0-0.3,0.1
		c0,0.3-0.3,0.5-0.4,0.8c-0.1,0.4-0.3,0.7-0.5,1c-0.2,0.4-0.5,0.8-0.7,1.2c-0.2,0.3-0.3,0.6-0.5,0.8c-0.1,0.1-0.2,0.3-0.3,0.4
		c0,0.1,0,0.3,0,0.3c-0.2,0.3-0.7,0.5-1,0.8c-0.4,0.4-0.8,1.1-0.8,1.6c0,0.5-0.2,0.9-0.2,1.4c0,0.3,0,0.5-0.1,0.7
		c-0.1,0.1-0.2,0.2-0.3,0.3c-0.1,0.2,0,0.3-0.1,0.5c-0.2,1.1-1.1,1.9-1.3,3.1c-0.1,0.7-0.5,1.3-0.7,1.9c-0.2,0.9-0.1,2-0.1,3
		c0,0.4-0.2,0.8-0.2,1.2c0,0.5,0,1.1,0,1.6c0,1.1,0,2.1,0,3.2c0,0.5,0.2,1.2,0,1.6c-0.1,0.3-0.4,0.5-0.5,0.8
		c-0.1,0.4-0.3,0.7-0.4,1.1C46.4,59.1,46,59.7,46,60c-0.1,0-0.1,0-0.2,0"/>
	<path id="XMLID_758_" class="st0" d="M43.9,64.2c0,0.7-0.6,1.5-0.9,2.1c-0.3,0.6-0.5,1.3-0.7,1.9c-0.2,0.6-0.5,1.2-0.5,1.9
		c0,0.7,0,1.4,0,2c0,0.5,0,0.9-0.1,1.4c-0.3,0.9-0.7,1.7-1,2.6c-0.5,1.2,0,2.7-0.5,3.9c-0.2,0.6-0.6,1.1-0.9,1.6
		c-0.2,0.5-0.3,0.9-0.3,1.5c0,1.6,0,3.1,0,4.7c0,0.5,0,0.5-0.4,0.8c-0.3,0.2-0.6,0.3-0.7,0.6c-0.3,0.6-0.4,1.1-0.4,1.8
		c0,0.3,0.1,0.7-0.1,0.9c-0.2,0.3-0.6,0.2-0.8,0.2c-0.5,0-1.1,0.3-1.6,0.5c-0.3,0.2-0.4,0.4-0.7,0.6c-0.3,0.3-0.7,0.4-1,0.7
		c-0.1,0.2-0.2,0.4-0.3,0.6c-0.1,0.2-0.4,0.3-0.5,0.5c-0.4,0.7,1.2,0.2,1.6,0.4c0.6,0.3,0.6,1,0.6,1.6c0,0.5-0.2,0.8-0.3,1.2
		c-0.1,0.4,0,0.8,0,1.1c0,0.3,0,0.7,0,1c0,0.6,0.3,1,0.4,1.6c1,0,0.7,2.1,0.7,2.7c0,0.5,0.1,1.1,0,1.7c0,0.2-0.2,0.3-0.1,0.6
		c0,0.3,0,0.6,0,0.9c0,0.4,0.1,1.1,0,1.5c-0.2,0.3-0.6,0.5-0.7,0.9c0,0.1,0,0.3-0.1,0.4c0,0.1-0.2,0.1-0.2,0.2
		c-0.1,0.2-0.1,0.3-0.1,0.6c0,0.3-0.1,0.5,0.2,0.6c0.1,0,0.3,0,0.4,0c0.2,0,0.4,0.1,0.6,0.2c0.5,0.1,1.2-0.2,1.3,0.3
		c0.2,0.6,0,1.5,0,2.2c0,2,0,4,0,6c0,0.8-0.1,1.7,0,2.5c0.1,0.6,0.3,1.1,0.4,1.8c0.1,1.5,0,3.1,0,4.6c0,1.4,0,2.8,0,4.1
		c0,0.7-0.3,1.1-0.6,1.8c-0.1,0.2-0.2,0.5-0.4,0.8c-0.1,0.2-0.4,0.4-0.4,0.7c-0.1,0-0.1,0-0.2,0"/>
	<path id="XMLID_759_" class="st0" d="M35.4,137c0.1,0.3-0.1,0.4-0.2,0.7c-0.1,0.3-0.1,0.4-0.2,0.6c-0.2,0.4-0.4,0.8-0.6,1.2
		c-0.3,0.4-0.5,0.6-0.9,0.9c-0.4,0.3-0.8,0.6-1.2,1c-0.3,0.4-0.7,0.7-1,1.1c-0.1,0.2-0.2,0.4-0.4,0.6c-0.2,0.2-0.6,0.3-0.8,0.6
		c-0.2,0.3-0.3,0.6-0.6,0.9c-0.2,0.2-0.5,0.5-0.6,0.8c-0.4,0.7-0.9,1.4-1.2,2.1c-0.2,0.4-0.5,0.8-0.6,1.2c-0.1,0.3-0.1,0.4-0.2,0.6
		c-0.2,0.3-0.1,0.6-0.2,1c-0.1,0.2-0.2,0.3-0.2,0.6c0,0.2,0,0.5,0,0.8c0,0.3-0.1,0.7-0.2,1c-0.2,0.4-0.3,0.4-0.3,0.9
		c0,1.2-0.4,2.5-1,3.6c-0.4,0.7-0.6,1.5-1,2.1c-0.7,0.9-1.4,1.7-1.9,2.6c-0.2,0.3-0.3,0.6-0.4,0.9c-0.1,0.4-0.4,0.7-0.5,1
		c-0.1,0.3-0.1,0.5-0.2,0.7c-0.1,0.1-0.3,0.3-0.3,0.4c-0.1,0.3,0,0.7,0,1.1c0,0.2-0.1,0.3-0.2,0.5c-0.1,0.3-0.1,0.5-0.2,0.8
		c-0.1,0.3-0.4,0.3-0.6,0.5c-0.5,0.5-0.8,1.2-0.9,1.9c-0.3,0-0.6,0.2-0.9,0.3c0,0.4-0.4,0.6-0.7,0.8c-0.4,0.2-0.8,0-1.3,0.1
		c-0.8,0.1-1.4,0.6-1.7,1.3c-0.2,0.3-0.4,0.5-0.6,0.8c-0.2,0.2-0.2,0.5-0.4,0.8c-0.3,0.5-0.9,0.5-1.2,0.9c-0.2,0.4-0.3,0.8-0.6,1.1
		c-0.1,0.1-0.3,0.3-0.4,0.4c-0.1,0.2-0.1,0.4-0.2,0.6c0.4-0.4,1.2-0.6,1.7-0.9c0.3-0.2,0.7-0.2,1-0.4c0.2-0.1,0.2-0.2,0.4-0.3
		c0.3-0.3,0.9-0.4,1.2-0.6c0.5-0.4,0.5-0.3,1.1-0.3c1.2,0,2.2-0.1,3.3,0.2c0.6,0.2,1,0.4,1.5,0.7c0.7,0.4,1.3,0.4,2.1,0.4
		c1.1,0,2.4-0.2,3.4,0.2c0.5,0.2,1,0.5,1.6,0.5c0.5,0,1.1,0,1.7,0c0.2,0,0.4,0,0.6,0c0.4,0,0.4,0.1,0.7,0.4c0.3,0.4,1,0.4,1,0.9
		c0.1,0.5,0.2,2.3-0.2,2.6c0.3-0.3,0.8-0.3,1.1-0.7c0.1-0.2,0.2-0.4,0.4-0.6c0.2-0.2,0.5-0.1,0.6-0.4c0.2-0.5,0-1.3,0-1.8
		c0-0.2,0.1-0.6,0-0.9c-0.1-0.2-0.4-0.3-0.5-0.5c0.1,0.2,0.4,0.3,0.6,0.4c0.2,0.1,0.5,0.2,0.7,0.2c0.3,0.1,0.4,0,0.6,0.1
		c0.2,0.1,0.2,0.3,0.3,0.5c0.1,0.2,0.3,0.4,0.4,0.7c0,0.1,0.1,0.3,0.1,0.4c0.1,0.2,0.1,0.1,0.3,0.2c0.3,0.3,0.6,0.6,0.7,1
		c0,0.2-0.1,0.6,0,0.8c0.2,0.3,0.5,0,0.7-0.1c0.4-0.3,0.4-0.6,0.6-1.1c0.2-0.5,0.4-1.1,0.4-1.6c0-0.5-0.4-1.5-1-1.5
		c0-0.3,1.7-0.1,2.1-0.2c0.6-0.2,0.7-0.1,1.1,0.3c0.7,0.7,1.6,1.1,2.3,1.8c0.2,0,0.3-1.8,0.1-2c-0.1-0.1-0.6-0.2-0.7-0.3
		c-0.3-0.2-0.5-0.4-0.7-0.6c-0.4-0.3-0.9-0.4-1.3-0.7c-0.5-0.4-0.9-1-1.2-1.6c0.2-0.1,0.5-0.1,0.7-0.3c0.1-0.1,0.1-0.2,0.2-0.2
		c0.3-0.2,0.6-0.1,0.9-0.1c0.7,0,1.5,0.2,2.1,0c0.2-0.6,0-1-0.5-1.4c-0.3-0.2-0.8-0.5-1.1-0.5c-0.9-0.1-2.1,0.3-2.8-0.2
		c-0.3-0.3-0.5-0.6-0.9-0.8c-0.7-0.3-1.6-0.4-2.4-0.5c-0.2,0-0.4,0-0.6,0c-0.5,0-0.7,0.1-1.1,0.4c-0.7,0.5-1.4,0.6-2.1,1
		c-0.5,0.2-0.9,0.5-1.5,0.6c-0.7,0-1.4,0-2-0.2c-0.4-0.1-1-0.5-1.2-0.9c-0.2-0.3-0.2-0.8,0-1.1c0-0.1,0.2-0.2,0.2-0.3
		c0.1-0.1,0-0.3,0-0.4c0.1-0.3,0.5-0.7,0.7-1.1c0.1-0.2,0.3-0.3,0.4-0.5c0.1-0.3,0.2-0.6,0.3-0.9c0.2-0.5,0.7-1.1,1.1-1.5
		c1-1.2,2.1-2.4,3-3.6c0.6-0.9,1.3-1.7,1.7-2.6c0.1-0.3,0.3-0.5,0.5-0.7c0.6-0.7,1.2-1.4,1.7-2.2c0.3-0.4,0.6-0.9,0.9-1.3
		c0.2-0.3,0.3-0.8,0.6-1c0.4-0.3,0.9-0.6,1.3-0.8c0.6-0.3,0.8-0.3,1.4,0c0.4,0.2,1.1,0.3,1.6,0.2c0.2-0.1,0.6-0.4,0.8-0.5
		c0.1-0.2,0.1-0.4,0.3-0.6c0.3-0.4,0.9,0,1.1-0.4c0.2-0.4-0.3-0.8-0.4-1.1c-0.1-0.4-0.1-1.2,0.2-1.5c0.3-0.4,0.5-1,1-0.4
		c0.3,0.4,0.5,0.9,1,1c0.6,0.1,0.7-0.1,0.7-0.6c0-0.6,0-1.1,0-1.7c0-0.3-0.2-1.5,0-1.6c0.2-0.1,0.5,0,0.7,0c0.6,0,1.1,0,1.6,0.3
		c0.2,0.1,0.4,0.5,0.7,0.5c0.5,0,0.4-1,0.5-1.3c0.2-0.7,0.4-1.4,0.6-2.2c0.1-0.6,0-1-0.3-1.5c-0.2-0.3-0.3-0.6-0.6-0.7
		c-0.1,0-0.3,0-0.4,0c-0.2-0.2-0.1-0.3-0.2-0.4c-0.2-0.3-0.8-0.3-0.9-0.6c-0.1-0.2,0-0.7,0-0.9c0-0.5-0.1-1-0.2-1.5
		c0-0.3,0-0.6-0.1-0.9c-0.2-0.8-0.1-1.6-0.1-2.5c0-0.9-0.2-1.8,0-2.6c0.5-0.1,1,1.3,1.5,0.7c0.2-0.2,0.2-0.7,0.2-1
		c0.1-0.3,0.2-0.6,0.2-0.9c-0.1-0.5-0.6-1.2-0.9-1.5c-0.4-0.4-0.7-0.5-0.8-1.1c0-0.3-0.1-0.4-0.2-0.7c-0.1-0.6,0-1.3,0-1.9
		c0-1.3-0.1-2.5,0-3.8c0-0.8,0.4-1.5,0.6-2.3c0.3-0.8,0.9-1.4,1.3-2.1c0.2-0.3,0.1-0.5,0.2-0.8c0.3,0.2,0.3,0.8,0.5,1.1
		c0.3,0.7,0.7,1.3,1.1,1.9c0.1,0.1,0.2,0.3,0.3,0.4c0.1,0,0.2,0.1,0.3,0.1c0.2,0.2,0.3,0.4,0.5,0.6c0.1,0.1,0.4,0.5,0.6,0.5
		c0.3,0,0.3-0.3,0.5-0.5c0.5-0.4,1,0,1.3,0.4c0.9,1.1,0.2,2.9,0.2,4.2c0,0.2,0,0.5,0,0.7c0.1,0.5,0.2,0.5,0.5,0.8
		c0.4,0.3,0.8,0.6,1,1c0.1-0.6,0-1.4,0.2-2c0.1-0.3,0.5-0.7,0.7-0.9c0.3-0.3,0.7,0,1-0.2c0.1-0.1,0.3-0.7,0.3-0.9
		c0.1-0.3,0-0.5,0.1-0.7c0.2-0.3,0.7-0.6,1-0.8c0.6-0.5,0.8-1,1.1-1.7c0.2-0.7,0.1-1.4,0.3-2.1c0.4-0.1,0.5,0.3,0.7,0.5
		c0.2,0.1,0.4,0.1,0.7,0.1c0.3,0,0.5,0,0.7,0.1c0.3,0.2,0.8,0.7,1,0.9c0.3,0.4,0.1,1.1,0.1,1.6c0,0.6,0,1.1,0,1.7
		c0,0.6,0,1.9-0.9,1.9c-0.1,0.5-0.1,1-0.2,1.5c-0.1,0.6-0.6,1.5-0.4,2.1c0.3-0.1,0.7-0.3,0.9-0.2c0.6,0.4,0.4,1.9,0.4,2.4
		c0,1.1-0.1,2.2-0.2,3.3c-0.1,0.7-0.2,1.8-0.5,2.4c-0.6,1.1-1.5,2-2.1,3c-0.4,0.6-0.2,1.3-0.2,2c0.1-0.5,0.7-0.7,1.2-0.5
		c0.5,0.2,0.3,1.2,0.3,1.6c0,1.1,0,1.8-0.5,2.8c-0.4,0.7-0.3,1.4-0.6,2c-0.2,0.5-0.4,1.1-0.7,1.5c-0.3,0.3-0.6,0.6-0.9,0.9
		c-0.3,0.4-0.6,0.7-0.8,1.1c-0.3,0.5-0.7,0.7-1,1.1c-0.3,0.3-0.5,0.6-0.6,1c-0.1,0.4,0,0.7-0.2,1c-0.4,0.7-1.3,0.8-1.4,1.6
		c-0.1,0.6-0.2,2.5,0.7,2.5c0.4,0,1-1.1,1.3-1.4c0.2-0.2,0.4-0.5,0.6-0.7c0.3-0.3,0.3-0.3,0.7-0.4c0.5-0.1,1.1-0.2,1.6-0.2
		c1.3,0,2.7-0.2,3.8,0.4c2.2,1.3,3.8,3.5,6.3,4.3c0.8,0.3,1.7,0.2,2.5,0.2c0.4,0,0.6,0,0.9,0.2c0.7,0.6,1.4,1.3,2.3,1.8
		c0.2,0.1,0.5,0.2,0.7,0.2c0.2,0,0.6-0.1,0.8,0c0.3,0.1,0.6,0.7,0.8,1c0.3,0.4,0.8,1.5,1.4,1.1c0.5-1.2-0.4-1.8-0.9-2.7
		c0.5-0.4,1.8,0.3,1.9-0.6c0-0.5-0.6-0.8-0.6-1.3c0.7-0.1,1.5-0.4,1.5-1.2c0-1-0.5-1-1.3-1.2c-0.5-0.2-1.1-0.5-1.5-0.8
		c-0.4-0.3-0.7-0.7-1.2-1c-1.1-0.6-2.5-0.7-3.7-0.4c-0.7,0.2-1.5,0.5-2.2,0.7c-1.5,0.3-2.3-2.1-2.8-3.1c-0.3-0.7-0.7-1.3-1-2
		c-0.4-0.7-0.5-1.6-0.6-2.4c-0.1-0.8-0.2-1.4-0.4-2.2c-0.2-0.7-0.5-2-0.2-2.8c0.2,0.4,0.5,0.8,0.8,1.2c0.3,0.5,0.6,0.4,1.2,0.4
		c0.3,0,0.5,0.1,0.8-0.2c0.4-0.4,0.2-1,0.3-1.5c0.6-0.1,1.3,0,1.9,0.1c0.1-0.3,0-0.8,0-1.1c0-0.6,0.2-1.6,0-2.1
		c-0.1-0.2-0.2-0.3-0.4-0.4c-0.2-0.1-0.6-0.1-0.8-0.3c-0.3-0.3-0.2-1.4-0.1-1.7c0.1-0.6,0.2-0.7,0.4-1.1c0.4-1,0.7-2.1,1-3.1
		c0.3-1.1,0.5-2.3,0.8-3.4c0.1-0.3,0.4-1.4,0.8-1.6c0.6-0.3,0.9,0.8,1.3,0.9c0.5,0.2,0.6-0.9,0.8-1.2c0.1-0.1,0.2-0.1,0.3-0.3
		c0.1-0.2-0.1-0.8-0.2-0.9c-0.3-1.1-0.3-1.9-0.4-3c0-0.4-0.2-0.7-0.2-1.1c0-0.3-0.1-1.2,0-1.4c0.2-0.4,0.5-0.2,0.9-0.4
		c0.2-0.1,0.4-0.3,0.6-0.5c0.5-0.5,0.7-0.8,0.7-1.5c0-0.5,0-1.1-0.3-1.5c-0.1-0.1-0.2-0.1-0.3-0.3c-0.1-0.3,0.2-1.5,0.2-1.6
		c0.1-0.4,0.3-0.7,0.3-1.1c0-0.2,0-0.3,0-0.5c0.3-0.1,0.6,0.1,0.9-0.1c0.2-0.6,0.1-1.5,0.1-2.2c0-0.5,0-0.9,0-1.4c0-0.4,0-0.7,0-1.1
		c0-0.6,0.1-1.3,0-1.9c-0.1-0.4-0.2-0.3-0.6-0.4c-0.2-0.1-0.3-0.3-0.5-0.3c-0.3-0.1-0.7,0.1-1,0c-0.5-0.1-0.2-0.4-0.4-0.7
		c-0.2-0.4-0.8-0.4-1.2-0.6c-0.3-0.1-0.6-0.4-1-0.4c-0.3-0.1-0.5,0-0.8-0.1c-0.5-0.2-0.8-0.6-1.3-0.7c-0.7-0.1-0.6,0.4-1.1,0.6
		c-0.3,0.1-0.9,0-1.2,0c-0.6,0-0.7,0.1-1.2,0.4c-0.2,0.1-0.9,0.4-1.1,0.3c-0.1-0.8,0.1-1.3,0.2-2.1c0.1-0.6,0.1-1.6-0.2-2
		c-0.2-0.2-0.5-0.2-0.6-0.4c0-0.1,0-0.5,0-0.6c0.1-0.3,0.2-0.2,0.4-0.3c0.5-0.3,0.9-0.7,1.4-1.1c0.2,0.1,0.4,0.3,0.5,0.5
		c0.9-0.2,1.8-1.2,2.4-1.8c0.8-1,1.8-2,2.3-3.1c0.3-0.7,0.4-1.6,0.6-2.3c0.1-0.5,0.3-1,0.4-1.5"/>
	<path id="XMLID_760_" class="st0" d="M75.1,89c0.6,0,1.3-0.1,1.9,0c0.6,0.1,1.2,0.5,1.9,0.6c0.3,0.1,0.7,0,0.9,0c0.1,0,0.3,0,0.4,0
		c0.2,0,0.3-0.1,0.4-0.2c0.7-0.1,1,0,1.5,0.4c0.4,0.5,0.7,0.5,1.3,0.5c0.5,0,0.6-0.2,0.9-0.5c0-0.1,0.1-0.1,0.1-0.2
		c0.1,0,0.2-0.1,0.3,0c0.1-0.1,0.2-0.1,0.4-0.2c0.2-0.2,0.3-0.4,0.6-0.5c0.1,0,0.4,0,0.5,0c0.5,0,1.1,0,1.6,0c0.8,0,1.5,0,2.3,0
		c0.4,0,0.6-0.2,1-0.2c0.3,0,0.6,0,0.9-0.1c0.4-0.1,0.7-0.4,1.1-0.5c0.9-0.2,1.6-0.9,2.5-1.2c0.7-0.2,1.3-0.5,1.9-0.9
		c0.7-0.4,1.5-0.4,2.1-0.8c0.4-0.2,0.7-0.7,0.9-1c0.3-0.5,0.6-1.2,0.8-1.8c0.1-0.3,0.2-0.6,0.2-0.9c0-0.4,0.1-0.4,0.2-0.7
		c0.1-0.5,0-1,0.2-1.5c0.1-0.1,0.1-0.2,0.2-0.3c0.1-0.3,0-0.6,0-0.8c0.1-0.5,0.2-0.7,0.2-1.2c0-0.3-0.1-0.8,0-1
		c0-0.1,0.1-0.2,0.2-0.2c0-0.2,0-0.3,0-0.5c0.1-0.3,0.2-0.6,0.2-0.9c0.1-0.3,0.3-0.6,0.3-0.9c0.1-0.3,0-0.7,0-1
		c0-0.5,0.2-0.9,0.2-1.3c0-0.4,0-0.9,0-1.3c0-0.4,0-0.8,0-1.1c0-0.1,0-0.3,0-0.4c0-0.2-0.1-0.3-0.2-0.4c-0.1-0.3-0.2-0.5-0.2-0.7
		c0-0.1,0-0.3,0-0.4c-0.1-0.2-0.3-0.2-0.4-0.4c-0.2-0.3-0.1-0.5-0.6-0.6c-0.5-0.1-0.4,0.1-0.5,0.5c0,0.4,0,0.5-0.4,0.5
		c-0.3,0-0.6-0.2-0.8-0.3c-0.3-0.2-0.3-0.2-0.7-0.2c-0.3,0-0.7-0.1-0.9,0.2c-0.3,0.5,0.2,1.4-0.2,2c-0.3,0.4-0.9,0.3-1.3,0.5
		c-0.2,0.1-0.7,0.2-0.8,0.5c-0.1,0.2-0.1,0.6-0.3,0.8c-0.4,0.5-0.6,0.9-0.9,1.4c-0.2,0.3-0.4,0.5-0.5,0.8c-0.2,0.4-0.1,0.6-0.2,1
		c-0.1,0.3-0.2,0.5-0.3,0.8c-0.1,0.3-0.1,0.6-0.2,1c-0.1,0.3-0.2,0.4-0.2,0.7c0,0.3,0.1,0.6,0,0.9c-0.1,0.4-0.4,0.8-0.6,1.1
		c-0.2,0.3-0.2,0.5-0.2,0.9c0,0.6,0,1,0.2,1.5c0.1,0.1,0.4,0.5,0.4,0.6c-0.1,0.3-0.9,0.2-1.2,0.3c-0.4,0.2-0.6,0.4-1.1,0.4
		c-1,0-1.9-0.3-2.8-0.6c-1-0.3-2.3-0.2-3.4-0.2c-0.5,0-0.8,0.2-1.3,0.2c-0.4,0-0.8,0-1.3,0c-0.5,0-0.9,0-1.4,0c-0.3,0-1,0.1-1.3-0.2
		c-0.1-0.1-0.1-0.2-0.1-0.3c-0.1-0.2-0.3-0.3-0.4-0.4c-0.2-0.2-0.5-0.4-0.4-0.7c0.4-0.1,0.9,0,1.4-0.1c0.5-0.1,1-0.3,1.5-0.5
		c0.3-0.1,0.6-0.2,0.7-0.5c0.1-0.3-0.1-0.6,0-0.8c0-0.1,0.3-0.2,0.4-0.3c0.1-0.1,0.2-0.4,0.3-0.5c0.2-0.3,0.7-0.8,1-1.1
		c0.5-0.3,1.1-0.4,1.6-0.6c0.9-0.5,1.8-1,2.6-1.5c0.3-0.2,0.6-0.2,0.8-0.4c0.4-0.2,1-0.7,1.4-1.1c1-0.9,2.3-1.8,2.7-3.1
		c0.1-0.4,0.2-0.8,0.3-1.1c0.1-0.3,0.3-0.5,0.4-0.8c0.2-0.6,0.3-1.2,0.4-1.8c0.1-0.5,0.1-0.9,0.3-1.4c0.1-0.4,0.3-1.1,0.6-1.5
		c0.2-0.2,0.3-0.3,0.5-0.5c0.2-0.3,0.2-0.6,0.4-0.9c0.2-0.3,0.4-0.4,0.5-0.6c0.3-0.4,0.2-1,0.5-1.4c0.2-0.2,0.4-0.3,0.6-0.5
		c0.2-0.2,0.4-0.5,0.6-0.7c0.4-0.6,0.8-1.2,0.9-2c0-0.2,0.1-0.4-0.2-0.5c-0.2-0.1-0.8,0-1,0c-0.3,0.1-0.5,0.4-0.8,0.7
		c-0.3,0.3-0.7,0.5-1.1,0.6c-0.4,0.1-0.7,0.1-0.9-0.2c-0.1-0.3-0.1-1.4,0.1-1.6c0.1-0.1,0.3-0.2,0.4-0.3c0.1-0.1,0.1-0.3,0.2-0.5
		c0.1-0.3,0.4-0.6,0.5-1c0.1-0.5,0-0.6-0.4-0.7c-0.4-0.1-0.8,0.1-0.8-0.5c0-0.4,0.9-1.3,1.3-1.4c0.2-0.1,0.7,0,1,0c0.5,0,1,0,1.4,0
		c0.3,0,0.8,0.1,1,0c0.5-0.2,0.3-1.1,0.3-1.5c0-0.2-0.1-0.6,0-0.8c0.1-0.3,0.4-0.1,0.7-0.2c0.3-0.1,1-0.4,1.1-0.7
		c0.1-0.5,0-1.1-0.6-1.3c-0.5-0.1-1,0-1.5,0c-0.7,0-1.4-0.1-1.9,0.6c-0.4,0.5-0.6,1.3-0.8,1.9c-0.1,0.3-0.2,0.5-0.5,0.6
		c-0.4,0.1-0.9,0-1.3,0c-0.5,0-0.8-0.1-1.1,0.2c-0.3,0.2-0.6,0.4-1,0.6c-0.7,0.4-1.1,1.2-1.9,1.5c-0.3,0.1-0.8,0.1-0.9,0.5
		c-0.1,0.2,0,0.6,0,0.8c0,1.1-0.4,2.2-0.4,3.4c0,2.5,0.2,5.1-0.1,7.6c-0.1,0.7-0.3,1.9-0.9,2.3c-0.3,0.2-0.6,0.3-1,0.4
		c-0.2,0-0.5-0.1-0.6,0c-0.3,0.1-0.3,0.2-0.5,0.3c-1,0.4-1.7,1-2.8,1.3c-0.6,0.1-1.6,0.4-2.3,0.2c-0.1-0.4-0.2-1-0.2-1.5
		c-0.5-0.1-1.2,0.1-1.7,0.2c-0.6,0.1-1.2,0.4-1.8,0.8c-0.3,0.2-0.7,0.3-1,0.6c-0.4,0.4-0.2,1.1-0.7,1.2c-0.5,0.1-1.1-0.1-1.6,0
		c-0.3,0-0.6,0.2-0.9,0.4c-0.3,0.1-0.6,0.2-0.9,0.2c-0.6,0.2-1.4,0.5-1.9,0.9c-0.4,0.3-1,0.5-1.5,0.7c-0.4,0.2-0.8,0.1-1.2,0.5"/>
	<path id="XMLID_761_" class="st0" d="M87.8,91.3c0-0.6,0-1.1,0-1.7c0-0.3-0.1-0.5-0.1-0.8c-0.1-0.3,0-0.6,0-0.9
		c0-0.4-0.2-0.7-0.2-1.1c0-0.3,0-0.6,0-0.9c0-0.5-0.1-1.2,0-1.7c0.1-0.8,0.5-2.4,1.3-2.9C89,80.9,89.6,81,90,81c0.5,0,1.1-0.1,1.6,0
		c1.3,0.2,1.2,1.6,1.5,2.6c0.1,0.7,0.1,1.3,0.1,2c0,0.7,0.1,1.5,0,2.2c-0.1,0.4-0.3,0.8-0.5,1.2c-0.1,0.2-0.2,0.5-0.3,0.7
		c-0.1,0.2-0.3,0.3-0.4,0.5c-0.3,0.4-0.5,0.9-0.9,1.2C90.9,91.6,90.5,91.9,87.8,91.3z"/>
	<path id="XMLID_762_" class="st0" d="M87.6,91.3c-0.5,0-0.9-0.1-1.3,0.2c-0.1,0.1-0.3,0.3-0.4,0.4c-0.2,0.2-0.3,0.2-0.5,0.3
		c-0.7,0.3-0.9,1.4-1.2,2c-0.2,0.4-0.4,0.7-0.4,1.1c0,0.5,0,1.1,0,1.6c0,0.5,0,0.9,0,1.4c0,0.4,0.2,0.8,0.4,1.2
		c0.2,0.5,0.5,0.7,0.5,1.4c0,1.4,0,2.7,0,4.1c0,1.3-0.1,2.6-0.2,3.9c0,0.3-0.2,0.6-0.2,1c0,0.4,0,0.8,0,1.3c-0.1,0.5-0.2,1-0.3,1.5
		c-0.1,0.6,0,1.3,0,1.9c0,1.1,0,2.2,0,3.4c0,0.8-0.2,1.5-0.2,2.4c0,0.7,0,1.4,0,2c0,0.6,0,1.3,0,1.9c0,0.9-0.4,1.8-0.4,2.8
		c0,0.8,0,1.6-0.2,2.3c-0.1,0.5-0.4,1-0.4,1.5c0,0.5,0,1.1,0,1.6c0,0.5-0.1,0.9-0.3,1.3c-0.1,0.3-0.1,0.5-0.1,0.8
		c-0.2,0.9-0.4,1.9-0.4,2.9c0,1.4,0,2.8,0,4.1c0,0.8-0.1,1.7,0,2.5c0,0.3,0.1,0.4,0.2,0.6c0.1,0.3,0,0.7,0,1c0,2.8,0,5.6,0,8.4
		c0,0.6,0,1.1,0,1.7c0,0.3,0,0.7,0,1.1c0,0.3,0.1,0.5,0.2,0.8c0,0.3,0,0.6,0,0.8c0,0.4,0.2,0.7,0.2,1.1c0,0.6,0,1.3,0,1.9
		c0,1.4,0,2.7,0,4.1c0,0.6,0,1.2,0,1.9c0,0.5-0.1,1.3,0,1.8c0.3,0,0.1-0.2,0.1-0.4c0-0.1,0.1-0.4,0.1-0.5c0.1-0.3,0-0.7,0-1
		c0-0.8-0.1-1.7,0-2.4c0.2-0.8,0.5-1.3,0.5-2.1c0-1,0.2-2,0.2-3c0-0.5,0-0.9,0-1.4c0.1-0.6,0.3-1.1,0.3-1.7c0-0.3,0-0.7,0-1
		c0.1-0.3,0.1-0.5,0.2-0.9c0-0.4-0.1-0.9,0.1-1.2c0.2-0.3,0.6-0.2,0.9-0.2c0.4,0,0.4,0.1,0.7,0.3c0.3,0.2,0.6,0.2,0.9,0.3
		c0.5,0.1,1,0.3,1.5,0.3c0.3,0,0.6,0.2,0.9,0.2c0.4,0,0.8-0.1,1.1,0c0.7,0.1,1.9,0.5,2.5,0c0.3-0.2,0.4-0.6,0.5-0.9
		c0.2-0.6,0.5-1,0.8-1.5c0.6-1,0.5-2.2,0.5-3.3c0-1.2,0-2.3-0.8-3.3c-0.1-0.1-0.1-0.1-0.2-0.2c-0.1-0.1-0.2-0.1-0.3-0.2
		c-0.1-0.2-0.2-0.3-0.3-0.5c-0.1-0.1-0.6-0.5-0.7-0.4c-0.5,0.1-0.1,1.6,0,1.9c0.3,0.8,0.6,1.9,0.6,2.8c0,0.6,0,1.3,0,1.9
		c0,0.5-0.2,0.6-0.6,0.9c-0.2,0.1-0.3,0.1-0.6,0.2c-0.3,0.1-0.5,0.3-0.8,0.4c-0.4,0.2-1,0.4-1.4,0.4c-0.8,0-2.2,0.1-2.5-0.9
		c-0.1-0.4,0.1-0.8,0-1.1c-0.1-0.5-0.3-1.2-0.5-1.7c0.2,0.5,0.5,1,0.9,1.3c0.2,0.2,0.2,0.2,0.6,0.2c0.4,0,0.7,0.2,1,0.2
		c1.1,0.1,2.2,0,3.3,0c0.6,0,1.2,0.1,1.7-0.2c0.5-0.3,1-0.8,1.5-1.2c0.3-0.2,0.7-0.4,0.8-0.7c0.3-0.4,0.3-1,0.3-1.5
		c0-0.5,0.1-1.1,0-1.6c-0.1-0.7-0.6-0.5-0.9-0.1c-0.1,0.2,0,0.4-0.1,0.6c-0.1,0.1-0.2,0.3-0.3,0.4c-0.2,0.3-0.1,0.3-0.4,0.5
		c-0.3,0.2-0.6,0.5-1,0.7c-0.4,0.3-0.9,0.7-1.4,0.8c-0.6,0.1-1.4,0-2,0c-0.4,0-0.9,0.1-1.2-0.1c-0.6-0.3-1.1-0.8-1.6-1.2
		c-0.3-0.2-0.7-0.2-0.9-0.6c-0.2-0.4-0.1-0.8-0.1-1.2c0-0.3,0-0.6,0-0.9c0-0.3-0.1-0.4-0.2-0.6c-0.1-0.3-0.1-0.8-0.2-1.1
		c-0.1-0.3-0.1-0.7-0.2-1c-0.1-0.3-0.2-0.5-0.2-0.8c0-0.4,0.1-0.8,0-1.1c-0.4-1.7-0.2-3.8-0.1-5.5c0-0.5-0.1-1-0.2-1.5
		c-0.1-0.7,0-1.4,0-2.1c0-1.1,0-2.1,0-3.2c0-2.5,0-4.9,0-7.4c0-0.9,0-1.8,0-2.7c0-0.7-0.1-1.4,0-2.2c0.1-0.7,0.4-1.3,0.5-2
		c0.1-0.5,0-1,0.1-1.5c0.2-1.1,0.1-2.3,0.1-3.5c0-0.9,0.1-1.8,0.3-2.7c0.1-0.7,0.1-1.4,0.2-2c0.1-0.4-0.1-1,0.1-1.4
		c0.2-0.6,1.1-0.4,1.6-0.7c0.3-0.2,0.4-0.4,0.6-0.7c0.2-0.2,0.3-0.2,0.4-0.4c0.1-0.1,0-0.3,0.1-0.4c0.1-0.3,0.2-0.2,0.4-0.4
		c0.2-0.2,0.6-0.5,0.7-0.8c0.1-0.1,0.1-0.3,0.1-0.5c0.1-0.3,0.3-0.5,0.5-0.7c0.1-0.3,0.1-0.6,0.1-0.9c0-0.8,0-1.7,0-2.5
		c0-0.7-0.6-0.8-1-1.3c-0.3-0.3-0.6-0.4-1-0.6c-0.2-0.1-0.3-0.2-0.5-0.3C89.1,91.4,88.8,91.4,87.6,91.3z"/>
	<path id="XMLID_763_" class="st0" d="M103,65.1c0.4,0,0.5,0,0.8-0.3c0.2-0.3,0.2-0.5,0.3-0.8c0.3-0.5,0.9-0.8,1.3-1
		c0.3-0.2,0.5-0.3,0.8-0.4c0.2-0.1,0.4-0.1,0.7-0.2c0.5-0.2,0.8-0.7,1.4-0.8c0.6-0.1,1.1,0.1,1.6,0.4c0.4,0.2,0.7,0.5,1,0.7
		c0.4,0.2,0.8,0.2,1.2,0.5c1.2,0.8,2.1,1.8,3,2.9c0.3,0.4,0.8,0.7,1.2,1c0.2,0.2,0.4,0.2,0.7,0.4c0.2,0.2,0.4,0.4,0.5,0.7
		c0.2,0.3,0.2,0.4,0.3,0.7c0.1,0.3,0.5,0.4,0.6,0.7c0.1,0.2,0.1,0.5,0.1,0.7c0.1,0.2,0.2,0.3,0.3,0.5c0.3,0.4,0.5,0.9,0.7,1.4
		c0.1,0.3,0.2,0.6,0.3,0.9c0.1,0.3,0.1,0.7,0.3,1c0.2,0.3,0.6,0.4,0.8,0.7c0.1,0.2,0.2,0.3,0.3,0.5c0.1,0.2,0.3,0.3,0.5,0.5
		c0.4,0.5,0.4,1.3,0.6,1.9c0.2,0.4,0.4,0.8,0.6,1.2c0.3,0.6,0.4,1.2,0.8,1.7c0.7,0.9,0.9,1.5,0.9,2.6c0,0.5,0,0.9,0,1.4
		c0,0.5,0.1,0.6,0.2,1c0.1,0.3,0.2,0.6,0.2,0.9c0,0.2-0.1,0.5,0,0.7c0,0.1,0.2,0.2,0.2,0.3c0.2,0.8,0,1.6,0,2.3
		c0,0.6,0.2,1.1,0.2,1.7c0,0.5,0,0.9,0,1.4c0,1.4,0,2.7,0,4.1c0,0.3,0,0.6,0,0.9c0,0.8-0.2,1.6-0.2,2.4c0,0.5-0.1,0.8-0.2,1.3
		c0,0.3,0,0.6,0,0.9c-0.1,0.5-0.2,1.2-0.3,1.7c-0.2,0.7-0.5,1.5-0.5,2.3c0,0.9,0.2,2,0,2.8c-0.1,0.6-0.4,1-0.7,1.5
		c-0.2,0.4-0.2,0.9-0.4,1.3c-0.3,0.6-0.5,1.1-0.7,1.8c-0.2,0.6-0.1,1.3-0.4,1.9c-0.3,0.7-0.7,1.3-0.9,2.1c-0.2,1.3-0.5,2.5-0.7,3.8
		c-0.2,1.3-0.9,2.6-0.8,4c0,1.5-0.2,3.1-0.2,4.6c0,1,0,2,0,3c0,0.9-0.1,1.8,0,2.7c0,0.6,0.2,1,0.2,1.5c0,0.9,0,1.5,0.2,2.4
		c0.2,1.1,0.4,2.2,0.6,3.3c0.2,0.8,0.3,1.8,0.7,2.5c0.5,1.1,1,2,1.5,3.1c0.1,0.3,0.2,0.6,0.4,0.9c0.2,0.4,0.4,0.5,0.7,0.9
		c0.6,0.9,1,2,1.6,2.8c0.9,1.2,2,2.3,3,3.4c0.2,0.2,0.5,0.5,0.7,0.7c0.7,0.7,1.1,1.7,1.9,2.4c0.6,0.6,1.2,1,1.7,1.6
		c0.3,0.3,0.5,0.8,0.8,1.1c0.3,0.3,0.6,0.4,1,0.5c0.5,0.2,1.1,0.6,1.5,0.9c0.4,0.3,0.8,0.6,1.2,1c0.5,0.5,1.1,0.7,1.6,1
		c0.3,0.2,0.6,0.5,1,0.7c0.9,0.5,1.8,0.9,2.8,1.3c0.7,0.3,1.7,0.6,2.4,0.7c0.8,0.1,1.7-0.2,2.4,0c1.5,0.4,1.7,2.5,1.7,3.8
		c0,1.3-0.8,2.2-1.3,3.4c-0.2,0.6-0.6,1.1-0.9,1.6c-0.4,0.6-0.6,1.1-0.8,1.8c-0.4,1.1-0.6,2.2-1,3.3c-0.2,0.6-0.3,1.4-0.6,2
		c-0.3,0.7-0.8,1.3-1,2.1c-0.2,0.6-0.3,1.1-0.5,1.6c-0.2,0.5-0.3,1.1-0.6,1.7c-0.2,0.4-0.4,0.7-0.6,1c-0.1,0.3-0.1,0.5-0.4,0.6
		c-0.4,0.2-1.1,0-1.4-0.2c-0.6-0.4-1-0.7-1.8-0.7c-0.9,0-1.6-0.1-2.5-0.3c-0.5-0.1-0.9-0.3-1.3-0.4c-0.4-0.1-0.8-0.2-1.2-0.4
		c-0.7-0.2-1.3-0.4-2-0.5c-0.4-0.1-0.6-0.3-0.9-0.4c-0.5-0.2-1.1-0.2-1.6-0.4c-0.7-0.3-1.3-0.6-2-0.9c-0.3-0.1-0.7-0.2-1.1-0.4
		c-0.4-0.2-0.7-0.5-1.1-0.8c-0.6-0.3-1.4-0.4-2-0.7c-1.1-0.6-2.1-1.1-3.3-1.6c-0.8-0.4-1.5-0.9-2.2-1.6c-0.5-0.6-1.4-0.9-2.2-1.3
		c-0.5-0.3-1.2-0.4-1.7-0.7c-0.6-0.4-1.2-0.9-1.8-1.4c-1.3-1.2-2.7-2.5-3.5-4.1c-0.3-0.5-0.5-1.1-0.8-1.6c-0.3-0.5-0.5-0.9-0.9-1.4
		c-0.8-1.2-1.1-2.7-2-3.9c-0.8-1.1-1.2-2.2-1.7-3.5c-0.3-0.7-0.7-1.3-0.9-2c-0.4-1.5-0.9-2.9-1.3-4.3c-0.3-1-0.8-1.9-1.1-2.8
		c-0.4-1-0.5-2.1-0.7-3.1c-0.3-1.6-0.6-3.3-1.1-4.8c-0.2-0.5-0.2-1-0.3-1.5c-0.1-0.7-0.3-1.2-0.4-1.9c-0.1-1.4-0.7-2.8-0.6-4.2
		c0-3.1,0-6.3,0-9.4c0-1.4,0.2-2.7,0.4-4.1c0.1-1.1,0-2,0.3-3c0.3-0.7,0.3-1.4,0.6-2.1c0.1-0.4,0.3-0.7,0.4-1.1
		c0.1-0.8,0.1-1.6,0.3-2.3c0.7-3,0.9-6.2,1.7-9.2c0.3-1,0.3-1.8,0.3-2.8c0-0.9,0.1-1.4,0.3-2.2c0.4-1.5,0.1-3.6,0.1-5.2
		c0-1.2,0-2.4,0-3.6c0-1.8-0.3-3.7-0.6-5.5c-0.1-0.5,0-0.7-0.3-1.1c-0.2-0.3-0.3-0.2-0.4-0.6c-0.1-0.4,0-1.1-0.4-1.4"/>
	<path id="XMLID_764_" class="st0" d="M146.4,169.3c0.1,0,0.1,0,0.2,0c0.1,0.5,0.3,0.8,0.3,1.4c0,0.7,0,0.7-0.5,1
		c-0.5,0.3-0.7,0.8-1.2,1c-0.4,0.2-0.9,0.4-1.4,0.5c-1,0.1-2,0-3,0c-0.7,0-0.7-0.1-0.7-0.8c0-0.4,0.2-1.1-0.3-1.2
		c-0.2,0-0.5,0.1-0.7,0.2c-0.1,0.1,0,0.3-0.1,0.4c-0.1,0.1-0.3,0.3-0.3,0.3c-0.2,0.3-0.2,0.7-0.4,1c-0.3,0.4-0.5,0.9-0.8,1.4
		c-0.2,0.4-0.3,0.6-0.5,1c-0.1,0.5-0.3,0.5-0.5,0.9c-0.5,0.6-0.7,1.6-1,2.3c-0.1,0.2-0.1,0.5-0.2,0.7c-0.1,0.3-0.3,0.4-0.4,0.6
		c-0.2,0.4-0.3,0.9-0.4,1.3c-0.2,0.5-0.4,1-0.5,1.5c0,0.3,0.1,0.6,0,0.9c-0.1,0.3-0.2,0.5-0.3,0.8c-0.1,0.4-0.2,0.8-0.3,1.2
		c0,0.2,0,0.3-0.1,0.4c-0.1,0.2-0.3,0.1-0.4,0.3c-0.2,0.3-0.3,0.9-0.4,1.2c-0.2,0.5-0.2,1-0.5,1.5"/>
	<path id="XMLID_765_" class="st0" d="M108.9,62.2c-0.8-0.2-1.2,1.2-1.1,1.9c0.2,0.8,0.9,1.4,1.5,1.9c0.6,0.6,1.4,0.4,1.6-0.5
		c0.1-0.4,0-1.1,0.6-0.5c0.4,0.3,0.3,0.7,0.3,1.2c0,0.8-0.4,1.2-1.2,1.6c-0.3,0.1-0.5,0.3-0.8,0.5c-0.4,0.3-0.9,0.3-1.3,0.5
		c-1.1,0.6-2.2,1.4-3.3,1.9c-0.4,0.2-0.7,0.4-1.1,0.7c-0.2,0.2-0.6,0.6-0.9,0.7"/>
	<path id="XMLID_766_" class="st0" d="M108.3,68.8c-0.2,0.5,0.7,1,1,1.3c0.4,0.4,0.4,0.9,0.8,1.3c0.5,0.5,0.8,1.2,1.1,1.9
		c0.3,0.7,0.7,1.2,1.2,1.9c0.5,0.7,0.7,1.6,1,2.3c0.2,0.4,0.1,0.6,0.2,1c0.1,0.2,0.3,0.2,0.4,0.4c0.1,0.3,0.1,0.4,0.1,0.7
		c0,0.9,0.5,1.8,0.6,2.7c0.1,0.4,0.1,0.8,0.2,1.2c0.1,0.4,0,0.7,0.1,1.1c0.1,0.4,0.2,0.6,0.2,1.1c0,0.4,0.1,0.6,0.2,1
		c0.1,0.4,0,0.8,0,1.2c0,0.4,0.2,0.7,0.2,1.1c0,0.5,0.1,0.8,0.2,1.2c0.1,0.6,0,1.2,0.1,1.7c0.2,1,0.2,2,0.2,3c0,1.6,0,3.2,0,4.9
		c0,0.8,0.1,1.7-0.1,2.4c-0.1,0.3-0.4,0.6-0.5,1c-0.1,0.2,0,0.4-0.1,0.7c-0.1,0.5-0.4,0.9-0.6,1.3c-0.2,0.6-0.5,1.1-0.8,1.7
		c-0.3,0.7-0.4,1.5-0.5,2.3c-0.3,1.6-0.4,3.2-0.7,4.7c-0.2,0.8-0.3,1.6-0.5,2.4c-0.2,0.8-0.2,1.5-0.2,2.4c0,4.5,0,9,0,13.6
		c0,0.9,0,1.7,0.2,2.6c0.1,0.6,0.2,1.2,0.3,1.8c0.1,0.7,0.4,1.4,0.4,2.1c0,0.2-0.1,0.4,0,0.6c0,0.1,0.1,0.3,0.2,0.4
		c0.1,0.3,0.1,0.6,0,1c0,0.8-0.1,1.7,0,2.5c0.2,1.2,0.2,2.5,0.5,3.7c0.2,0.7,0.5,1.3,0.7,2c0.1,0.6,0.2,1.1,0.4,1.8
		c0.2,0.6,0.3,1.1,0.5,1.7c0.1,0.5,0.3,0.7,0.5,1.1c0.2,0.5,0.1,0.4,0.1,0.8c0.1,1.1,0.7,2.1,1,3.2c0.2,0.6,0.5,1,0.7,1.6
		c0.2,0.6,0.4,1.2,0.7,1.8c0.5,1.2,1,2.4,1.8,3.3c0.2,0.2,0.4,0.6,0.7,0.8c0.2,0.2,0.3,0.2,0.4,0.3c0.4,0.2,0.4,0.3,0.7,0.6
		c0.3,0.4,0.7,1,1,1.3c0.2,0.2,0.4,0.3,0.6,0.5c0.2,0.3,0.2,0.5,0.5,0.7c0.4,0.4,0.8,0.9,1.3,1.2c0.5,0.4,1.1,0.6,1.6,0.9
		c0.9,0.6,1.9,0.9,2.9,1.5c0.5,0.3,1,0.5,1.5,0.8c0.4,0.2,0.7,0.5,1.1,0.7c0.3,0.1,0.6,0.1,1,0.1c1,0.2,1.9,0.6,2.9,0.7"/>
	<path id="XMLID_767_" class="st0" d="M102.6,74.7c0,1.1,0,2.1,0.4,3.2c0.3,0.7,0.8,1.1,1.1,1.7c0.3,0.6,0.4,1.1,0.9,1.6
		c0.5,0.5,0.6,1.2,1,1.8c0.1,0.2,0.3,0.4,0.4,0.6c0.1,0.3,0.1,0.6,0.2,0.8c0.2,0.3,0.6,0.3,0.6,0.8c0,0.2,0,0.3,0,0.5
		c0,0.4,0.1,0.6,0.2,0.9c0.1,0.8,0.2,1.6,0.3,2.4c0.1,0.5,0.1,0.9,0.1,1.4c0,0.6,0.2,1.1,0.2,1.7c0,1.2-0.1,2.4,0,3.6
		c0,0.5,0.2,1,0.2,1.6c0,0.5,0,1.1,0,1.6c0,2.1,0.2,4.4-0.2,6.4c-0.4,2-0.8,4-1.1,6c-0.2,1-0.3,2.1-0.4,3.1c0,0.4-0.1,0.8-0.2,1.3
		c-0.2,0.8-0.1,1.7-0.3,2.5c-0.8,4.3-0.8,8.7-0.8,13.2c0,0.9,0,1.9,0,2.8c0,0.9-0.2,1.6-0.2,2.5c0,1.8,0,3.6,0,5.4c0,2,0,3.9,0,5.9
		c0,1.1,0,2.2,0.2,3.3c0.2,0.7,0.5,1.4,0.7,2.1c0.1,0.6,0.2,1.1,0.4,1.6c0.3,0.8,0.8,1.6,1.2,2.4c0.1,0.3,0.3,0.5,0.4,0.7
		c0.1,0.2,0.1,0.5,0.2,0.7c0.1,0.2,0.5,0.6,0.6,0.7c0.3,0.3,0.5,0.7,0.7,1.1c0.5,1,1,1.9,1.5,2.8c0.3,0.5,0.6,0.7,0.9,1.1
		c0.4,0.4,0.5,1.1,0.9,1.5c0.2,0.2,0.4,0.2,0.6,0.4c0.3,0.2,0.4,0.6,0.6,1c0.4,0.8,0.9,1,1.4,1.6c0.5,0.6,0.7,1.1,1.3,1.6
		c0.5,0.4,0.8,0.9,1.3,1.3c0.3,0.4,0.7,0.8,1.2,1.1c0.4,0.3,0.8,0.4,1.3,0.6c0.5,0.3,0.8,0.6,1.4,0.9c0.7,0.3,1.2,0.7,1.8,1.1
		c0.7,0.4,1.3,0.7,2,1.1c0.4,0.3,0.7,0.5,1.1,0.6c0.4,0.1,0.8,0.1,1.1,0.4c0.3,0.2,0.4,0.5,0.7,0.7c0.2,0.1,0.5,0.2,0.7,0.3
		c0.3,0.1,0.6,0.3,0.9,0.4c0.4,0.1,0.8,0.1,1.2,0.2c0.4,0.1,0.8,0.3,1.2,0.5c0.3,0.1,0.6,0.2,0.9,0.2c0.4,0.1,0.9,0.4,1.3,0.4"/>
	<path id="XMLID_768_" class="st0" d="M34.2,97.1c0,0.7,0,1.2-0.3,1.9c-0.2,0.6-0.5,1.3-0.6,2c-0.1,0.4,0,0.7-0.2,1.1
		c-0.1,0.5,0,1.1,0,1.6c0,0.6,0,0.8-0.2,1.3c-0.1,0.4,0,0.7-0.1,1.1c-0.1,0.4-0.3,0.7-0.4,1.1c-0.1,0.3,0,0.6-0.1,0.9
		c-0.2,0.6-0.3,1.2-0.6,1.7c-0.3,0.5-0.3,0.9-0.3,1.5c0,0.7-0.2,1.1-0.7,1.5c-0.5,0.5-1,0.5-1.7,0.5c-1.1,0-2.2,0-3.3,0
		c-0.5,0-0.8,0.2-1.3,0.2c-0.5,0.1-1.1-0.2-1.6,0.1c-0.2,0.1-0.4,0.7-0.2,0.9c0.2,0.2,0.6,0,0.9,0c0.7,0.2,0.5,1.1-0.1,1.3
		c-0.7,0.2-1.8,0.1-2.4-0.2c-0.5-0.2-0.8-0.5-1.3-0.6c-0.4-0.1-0.9-0.1-1.3,0c-0.3,0-0.7,0.1-1,0c-0.4-0.1-0.8-0.5-1.2-0.7
		c-1.2-0.5-2.4-0.4-3.7-0.4c-0.7,0-1.4,0-2.1,0c-0.4,0-0.7,0-1,0.1c-0.4,0.1-1.1,0.2-1.4,0.4c-0.4,0.3-0.6,0.9-0.9,1.3
		c-0.4,0.6-0.8,1.3-1.1,2c-0.3,0.6-0.7,1.4-1,2c-0.2,0.6-0.6,1.1-0.8,1.6c-0.3,0.7-0.9,1.5-1.1,2.2c-0.6,0.1-0.7,0.1-1,0.7
		c0.3-0.2,0.6-0.3,0.8-0.5c0.4-0.3,0.5-0.8,0.9-1.1c0.3-0.4,0.7-0.6,1.1-0.9c0.5-0.4,0.7-1.1,1.1-1.6c0.5-0.6,1-1,1.5-1.5
		c0.4-0.4,0.6-0.8,1-1.2c0.4-0.5,0.9-0.8,1.3-1.4c0.2-0.4,0.3-0.7,0.8-0.9c0.3-0.1,0.7,0,1,0c0.7,0,1.5,0,2.2,0c0.5,0,1,0,1.5,0
		c0.3,0,0.5,0.2,0.9,0.2c0.3,0.1,0.7-0.1,1,0c0.6,0.1,1.1,0.7,1,1.3c-0.8,0.4-1.8,0.1-2.7,0.3c-0.7,0.2-1.4,0.4-2,0.8
		c-0.8,0.5-1.6,1-2.2,1.6c-0.6,0.6-1.4,1.2-1.7,2c-0.3,0.8-0.2,1.7-0.2,2.6c0,0.6-0.1,1.1,0.1,1.7c0.2,0.5,0.7,1,0.9,1.6
		c0.1,0.4,0,0.8,0,1.2c0,0.7,0.2,1.6,0,2.3c-0.3,1-1.2,1.8-1.8,2.6c-0.2,0.2-0.3,0.4-0.5,0.6c-0.2,0.1-0.4,0.1-0.5,0.4
		c-0.1,0.2,0,0.9,0.1,1.1c0.5,0,0.5-0.7,0.6-1c0.4-0.9,1.2-1.4,1.6-2.2c0.4-0.8,0.6-1.8,1.4-2.3c0.6-0.4,1.4-0.1,1.4-1
		c0-0.5-0.2-1-0.3-1.5c-0.1-0.6-0.1-1.2-0.1-1.8c0-1-0.2-2.3,0.3-3.1c1-1.7,3.6-2,5.3-2.1c-0.8-0.1-1.8,1.2-2.1,1.8
		c-0.3,0.7-0.2,1.5-0.2,2.2c0,0.7-0.2,1.8,0,2.5c0.3,0.9,1.4,1.4,1.9,2.1c0.5,0.7,0.7,2,0.7,2.8c0,0.9-0.6,1.5-1.3,2.1
		c-0.7,0.5-1.1,0.5-1.1,1.5c0,0.8,0,1.6,0,2.4c0.1-0.8,0.3-1.4,0.9-1.8c0.5-0.3,1-0.6,1.5-0.9c0.3-0.1,0.6-0.1,0.9-0.2
		c0.6-0.1,0.8-0.5,1.2-1c0.2-0.4,0.8-0.8,1-1.2c0.1-0.3,0-0.6,0-0.9c0-0.4,0.1-1,0-1.3c-0.2-0.4-0.9-0.7-1.2-1.1
		c-0.3-0.3-0.5-0.6-0.8-0.8c-0.5-0.5-0.8-1-0.8-1.8c0-0.3,0-0.7,0-1.1c0-0.8,0.2-0.9,0.8-1.5c0.8-0.9,1.3-2.2,2.5-2.7
		c0.3-0.1,0.7-0.1,1-0.2c0.3-0.1,1.1-0.4,1.3-0.2c-0.3,0.4-0.8,1-1,1.5c-0.1,0.4,0,1,0,1.4c0,0.5-0.1,1,0.2,1.4
		c0.3,0.3,0.5,0.4,0.7,0.9c0.4,0.9,0.1,1.8-0.7,2.4c-0.5,0.4-0.6,0.3-0.7,0.9c-0.1,0.5-0.2,1.8,0.1,2.1c0.4-0.5,0.7-1.1,0.9-1.7
		c0.1-0.3,0-0.7,0.1-1c0.5,0,0.6-0.4,1-0.6c0.4-0.2,0.7-0.2,0.9-0.6c0.2-0.4,0.3-0.8,0.2-1.2c-0.2-0.5-0.7-0.9-0.8-1.4
		c0-0.1,0.1-0.3,0-0.4c0-0.9,0.9-1.5,1.8-1.5c0.7,0,1.1-0.1,1.7-0.5c0.4-0.3,0.7-0.6,1-1c0.2-0.3,0.5-0.6,0.8-0.9
		c0.4-0.5,0.6-1.1,1.1-1.6c0.4-0.4,0.8-0.5,1.2-0.8c0.4-0.3,0.6-0.8,0.9-1.2c0.4-0.6,0.9-1.3,1.2-1.8c0.2-0.3,0.6-0.9,0.7-1.3
		c0.1-0.4,0-0.5,0.2-0.9"/>
	<path id="XMLID_769_" class="st0" d="M58.7,16c-0.6,0-1.6-0.2-2.2,0c-0.3,0.1-1.1,0.7-1.3,1.1c-0.3,0.6,0.1,1.7-0.1,2.4
		c-0.1,0.6-0.5,1.2-0.7,1.7c-0.2,0.5-0.4,1.1-0.7,1.7c-0.2,0.5-0.5,0.9-0.6,1.5c-0.1,0.4-0.1,0.9-0.2,1.3c-0.2,0.8-0.5,1.5-0.4,2.3
		c0,0.6-0.2,1-0.5,1.6c-0.1,0.2-0.2,0.5-0.4,0.7c-0.3,0.4-0.4,0.3-0.9,0.5c-0.3,0.2-0.5,0.3-0.9,0.3c-0.4,0-0.7,0.2-1.1,0.4
		c-0.7,0.5-1.3,0.9-2.1,1.3c-0.7,0.3-1.6,0.8-2.1,1.3c-0.3,0.2-0.5,0.5-0.9,0.7c-0.7,0.4-1.5,0.4-2.2,0.8c-0.5,0.3-1,0.6-1.5,0.8
		c-0.4,0.2-0.7,0.6-1.1,0.8c-0.8,0.5-1.4,1.2-2.3,1.6c-0.7,0.4-1.5,0.7-2.1,1c-0.3,0.1-0.5,0.2-0.8,0.3c-0.1,0-0.4,0-0.6,0
		c-0.4-0.1-0.3-0.2-0.6-0.4c-0.3-0.3-0.7-0.4-1.1-0.5c-0.4-0.2-0.7-0.5-1-0.7c-0.3-0.1-0.6-0.2-0.8-0.4c-0.2-0.2-0.4-0.5-0.6-0.6
		c-0.3-0.2-0.8-0.3-1.1-0.6c-0.1-0.1-0.1-0.3-0.2-0.4c-0.1-0.1-0.3-0.1-0.5-0.3C27,36,27,35.7,26.8,35.4c-0.2-0.2-0.4-0.4-0.6-0.6
		c0.2,0,0.6-0.1,0.8-0.2c0.3-0.1,0.6-0.3,0.8-0.5c0.4-0.4,0.8-0.8,1.1-1.2c0.5-0.4,1.1-0.6,1.5-1c0.5-0.4,1-0.7,1.5-1"/>
	<path id="XMLID_770_" class="st0" d="M26,34.8c0,1.2,0,2.4,0,3.5c0,2.6,1.2,4.9,2,7.3c0.1,0.4,0.2,0.7,0.2,1.2
		c0,0.5,0.2,0.9,0.2,1.3c0.1,1.1,0.3,2.1,0.5,3.2c0.3,1,0.4,2.2,0.9,3.1c0.5,0.9,0.7,2,0.7,3c0,0.5,0.3,0.8,0.5,1.3
		c0.2,0.5,0.2,0.9,0.3,1.4c0.2,0.8,0.1,1.5,0.1,2.3c0,0.5,0.2,0.9,0.2,1.3c0,0.4,0,0.8,0,1.2c0,1.1,0.2,2.1,0.2,3.2
		c0,1.4,0.2,2.8,0.5,4.2c0.1,0.5,0.1,1.1,0.3,1.6c0.1,0.5,0.5,0.9,0.6,1.4c0.3,2.1,0.6,4.2,0.9,6.4c0.1,0.6,0.4,1.1,0.4,1.7
		c0,0.5-0.1,1.1,0,1.6c0,0.1-0.1,0.3,0,0.4c0.1,0.3,0.3,0.2,0.5,0.5c0.1,0.3,0,1.2,0,1.5c0,0.5,0.2,0.9,0.2,1.3c0,0.4,0,0.6,0.1,1
		c0.2,0.7,0.1,1.5,0.1,2.3"/>
	<path id="XMLID_771_" class="st0" d="M33.3,40.1c0,1.7,0,3.3,0,5c0,1.5,0.5,2.9,0.9,4.4c0.5,1.8,0.6,3.6,0.9,5.4
		c0.2,0.8,0.4,1.5,0.4,2.3c0,1.2,0.6,2.3,0.7,3.5c0.1,1.9,0.6,3.7,0.8,5.6c0.1,1,0.3,2,0.5,3c0.2,0.9,0.1,1.7,0.2,2.5
		c0.1,0.6,0.2,1.2,0.2,1.8c0,0.4,0,0.9,0,1.3c0,0.5,0.2,0.8,0.2,1.3c0,0.6,0.2,1.1,0.3,1.6c0.2,1.1,0.6,2.1,0.6,3.2
		c0,0.4,0,0.7,0,1.1c0.1,0.2,0.2,0.4,0.2,0.7"/>
	<path id="XMLID_772_" class="st0" d="M40.1,55.2c0,0.8,0.1,1,0.7,1.5c0.4,0.4,0.9,0.7,1.4,1.1c0.4,0.4,0.8,0.8,1.3,1.1
		c0.5,0.3,1,0.8,1.6,1c0.6,0.3,1.3,0.4,1.8,0.7c0.4,0.2,0.8,0.4,1.2,0.5c0.5,0.1,1.2,0,1.7,0c0.3,0,0.6,0.1,0.9,0
		c0.3,0,0.4-0.2,0.7-0.3c0-0.1,0.1-0.2,0.1-0.4c0.1-0.1,0.3-0.1,0.4,0"/>
	<path id="XMLID_773_" class="st0" d="M38.1,60.5c1,0.1,1.5,1.2,2.2,1.7c0.6,0.5,1.2,0.9,1.9,1.2c0.4,0.2,0.5,0.4,1,0.4
		c0.5,0,0.9,0.1,1.4,0.2c0.7,0.1,1.5,0,2.3,0c0.8,0,1.7,0,2.5,0c0.8,0,1.2-0.4,1.9-0.7c0.6-0.3,1.1-0.7,1.7-1.1
		c0.3-0.2,1-1.3,1.4-1.3"/>
	<path id="XMLID_774_" class="st0" d="M54.3,58.5c0,0.8,0.3,1.3,0.6,2.1c0.3,0.7,0.5,1.5,0.8,2.2c0.2,0.6,0.5,1,0.6,1.6
		c0.1,0.7-0.1,1.4,0,2c0.1,0.3,0.2,0.6,0.2,0.9c0.1,0.4,0.3,0.5,0.5,0.9c0.2,0.3,0.2,0.7,0.3,1c0.2,0.4,0.4,0.7,0.5,1.1
		c0.2,0.6,0.4,1.2,0.4,1.7c0.1,0.7,0,1.2,0.4,1.8c0.6,1.1,1.1,2.3,1.8,3.4c0.3,0.6,0.7,0.9,1.2,1.3c0.3,0.3,0.2,0.3,0.4,0.7
		c0.2,0.4,0.2,0.3,0.5,0.5c1,0.4,2.5,0.2,3.6,0.2c1.3,0,2.4-0.4,3.6-0.8c0.7-0.3,1.4-0.2,2.1-0.2c0.4,0,0.8,0.1,1.2,0
		c0.4-0.1,0.6-0.2,1-0.2c1.2,0,2.9-0.3,3.9,0.2"/>
	<path id="XMLID_775_" class="st0" d="M61.8,80c0,0.2-0.1,0.9,0,1.1c0.1,0.3,0.5,0.3,0.7,0.5c0.2,0.2,0.3,0.4,0.4,0.6
		c0.2,0.3,0.4,0.3,0.7,0.5c0.4,0.3,0.7,0.8,1,1.3c0.3,0.5,0.6,0.5,1.1,0.8c0.2,0.2,0.4,0.4,0.6,0.5c0.3,0.1,0.5,0.1,0.8,0.2
		c0.7,0.2,1.4,0.3,2.2,0.4c0.7,0.1,1.2,0.7,1.9,0.8c0.3,0.1,0.6,0,0.9,0.1c0.5,0.2,0.9,0.6,1.4,0.7c0.3,0.1,0.5,0.1,0.8,0.3
		c0.2,0.1,0.6,0.2,0.8,0.3c0,0.1,0,0.1,0,0.2"/>
	<path id="XMLID_776_" class="st0" d="M52.6,24.7c0-0.4,0-0.9,0-1.3c0-0.1,0-0.3,0-0.4c0-0.2-0.1-0.3-0.1-0.5c-0.2,0-0.7-0.8-0.8-1
		c-0.2-0.4-0.3-0.8-0.8-0.8c0-0.3-0.5-0.5-0.7-0.7c-0.3-0.3-0.8-0.3-1.3-0.4c-0.8-0.2-1.8,0-2.6-0.2c-0.3-0.1-0.8-0.1-1.1,0
		c-0.2,0.1-0.4,0.3-0.6,0.4c-0.2,0.1-0.4,0.1-0.6,0.2c-0.3,0.1-0.5,0.4-0.8,0.5c-0.1,0.1-0.3,0.2-0.4,0.3c-0.2,0.1-0.4,0.3-0.6,0.4
		c-0.3,0.2-0.7,0.2-1,0.5c-0.3,0.3-0.2,0.6-0.2,1c0,0.7,0,1.5,0,2.2c0,0.9-0.1,1.7-0.1,2.6c0,0.8,0,1.6,0,2.4c0,0.2,0,0.5,0,0.7
		c0,0.3,0.1,0.6,0.2,0.9c0,0.2,0,0.4,0.1,0.5c0.1,0.1,0.2,0.2,0.3,0.3c0.1,0.2,0.1,0.4,0.2,0.5c0.1,0.2,0.2,0.4,0.3,0.6
		c0.1,0.1,0.1,0.2,0.1,0.3c0.1,0.1,0.3,0.2,0.4,0.2c0.4,0.3,0.7,0.3,1.2,0.3"/>
	<path id="XMLID_777_" class="st0" d="M41.6,26.6c0.3,0,0.6,0,0.9,0c0.3,0,0.5-0.1,0.8-0.1c0.2,0,0.2,0,0.3,0.2
		c0.1,0.1,0.1,0.2,0.1,0.3c0,0.3,0,0.6,0,1c0,0.5-0.1,1.2,0.2,1.7c0.1,0.2,0.2,0.5,0.5,0.5c0.3,0,0.5-0.1,0.8-0.1"/>
	<path id="XMLID_778_" class="st0" d="M45.2,28c0-0.2-0.1-0.6,0-0.7c0-0.1,0.3-0.7,0.4-0.7c0.1-0.1,0.3,0,0.5,0
		c0.1,0,0.2-0.1,0.3-0.1c0.3-0.1,0.6,0.2,0.8,0.2c0.3-0.1,0.7,0,1-0.1c0.5-0.1,1-0.1,1.5-0.1"/>
	<path id="XMLID_779_" class="st0" d="M42.1,27.5c0,0-0.1,0.1,0,0.2c0,0,0.1,0,0.1,0.1c0.1,0.1,0.2,0,0.2-0.1c0-0.1,0-0.2-0.1-0.2
		C42.2,27.4,42,27.3,42.1,27.5"/>
	<path id="XMLID_780_" class="st0" d="M46.3,27.8C46.3,27.8,46.3,27.9,46.3,27.8c0,0.1,0,0.1,0.1,0.1c0,0,0,0.1,0.1,0.1
		c0.1,0.1,0.2,0,0.2-0.1c0-0.1,0.1-0.3,0-0.3c0,0-0.1,0-0.2,0c-0.1,0-0.1,0-0.1,0C46.4,27.7,46.3,27.8,46.3,27.8"/>
	<path id="XMLID_781_" class="st0" d="M44.1,31.6c0.2,0,0.4,0,0.7,0c0.1,0,0.2,0,0.3,0c0.1,0,0.2,0.1,0.3,0.1c0,0,0,0,0,0"/>
	<path id="XMLID_782_" class="st0" d="M41.2,22.4c0,0.1,0,0.2,0,0.3c0.1,0.2,0.2,0.3,0.2,0.4c0,0.1,0,0.1,0.1,0.1
		c0.1,0,0.1-0.1,0.1-0.2c0.1-0.1,0.1-0.2,0.2-0.3c0,0,0.1-0.1,0.2-0.1c0.1,0,0.2,0.3,0.3,0.4c0.1,0.2,0.3,0.3,0.5,0.3
		c0.1,0,0.1,0,0.2,0c0.2,0,0.3-0.1,0.4-0.2c0.1,0,0.3,0,0.4,0.1c0.1,0.2,0.2,0.3,0.3,0.4c0.1,0,0.2,0.1,0.2,0.1c0.1,0,0.3,0,0.4,0
		c0.1,0,0.2,0,0.3-0.1c0.1,0,0.2-0.1,0.3-0.1c0.1,0,0.1,0,0.2,0.1c0.1,0.1,0.2,0.2,0.3,0.4c0.2,0.3,0.4,0.5,0.7,0.6
		c0.2,0.1,0.4,0,0.5,0c0.2,0,0.3-0.1,0.5-0.2c0.1,0,0.2,0,0.3,0.1c0.1,0.1,0.2,0.1,0.3,0.2c0.1,0.1,0.2,0.1,0.3,0.2c0,0,0,0,0,0
		c0.4,0,0.9,0,1.2-0.2c0.1-0.1,0.2-0.2,0.3-0.2c0,0,0.1,0,0.1,0c0.2,0,0.3,0.2,0.5,0.3c0.2,0.1,0.3,0.2,0.5,0.3c0.1,0.1,0.3,0,0.4,0
		c0.1,0,0.3,0,0.4,0c0,0,0-0.1,0.1-0.1c0,0,0.1,0,0.1,0c0.1,0,0.1-0.1,0.1-0.1c0.1,0,0.1-0.1,0.2-0.2"/>
	<path id="XMLID_783_" class="st0" d="M42.8,21.1c0,0.3,0,0.6,0.2,0.7c0.1,0.1,0.3,0,0.4,0.1c0.1,0,0.2,0.1,0.3,0.1
		c0.1,0,0.3,0.1,0.4,0.1c0.3,0,0.7-0.1,0.9,0.1c0,0,0.1,0.1,0.1,0.1c0.1,0,0.1,0,0.2,0.1c0.1,0,0.1,0.1,0.1,0.1c0.1,0.1,0.2,0,0.4,0
		c0.1,0,0.2-0.1,0.3-0.1c0.1,0,0.2,0,0.2,0c0.1,0,0.2,0,0.3,0.1c0.1,0.1,0.2,0.2,0.2,0.3c0,0.1,0,0.1,0.1,0.2c0,0,0.1,0.1,0.2,0.1
		c0.1,0,0.2,0.1,0.3,0.1c0.1,0,0.2,0,0.3,0c0.2,0,0.3,0,0.5,0c0.2,0,0.4,0.1,0.6,0.3c0.2,0.2,0.4,0.3,0.6,0.5c0.1,0.1,0.3,0,0.5,0
		c0.4,0,0.9,0,1.3,0c0.1,0,0.1,0,0.2,0c0.1,0,0.1,0.1,0.1,0.1c0.1,0,0.1,0,0.2,0.1c0,0,0,0.1,0.1,0.1c0.1-0.1,0.3,0,0.4,0.1
		c0,0,0.1,0.1,0.1,0.1c0,0,0,0.1,0,0.1c0,0.1,0,0.1,0.1,0.2c0,0,0,0,0.1,0.1c0,0,0,0.1,0.1,0.1"/>
	<path id="XMLID_784_" class="st0" d="M40.8,24.5c-0.5,0-1.1-0.2-1.7,0c-0.3,0.1-0.6,0.1-0.9,0.2c-0.2,0.1-0.4,0.2-0.7,0.4
		c-0.1,0.1-0.3,0.1-0.4,0.2c-0.2,0-0.3,0-0.5,0.1c-0.1,0-0.2,0.1-0.3,0.2c-0.1,0-0.2,0.1-0.3,0.1c-0.2,0.1-0.2,0.2-0.4,0.3
		c0,0-0.1,0-0.1,0c0,0-0.1,0.1-0.2,0.1c-0.1,0.1-0.3,0.3-0.3,0.4C35,26.5,35,26.6,35,26.8c-0.1,0.2-0.1,0.3-0.2,0.5
		c-0.1,0.4,0,0.8,0,1.2c0,0.2,0,0.4,0,0.5c0,0.1,0,0.1,0,0.2c0,0.1,0.1,0.2,0.1,0.3c0,0.3,0,0.6,0,0.9c0,0.1,0,0.2-0.1,0.3
		c0,0.1,0,0.1,0,0.2c0,0-0.1,0.1-0.1,0.2c0,0.1,0,0.2,0,0.3c0,0.2-0.1,0.2-0.1,0.4c0,0.2,0,0.3,0,0.4c0,0.1-0.1,0.2-0.2,0.3
		c0,0,0,0.1,0,0.1c0,0.1-0.1,0.1-0.1,0.2c0,0.1,0,0.2,0,0.3c0,0.3,0,0.6-0.1,0.8c0,0.1-0.1,0.3-0.1,0.4c0,0.2,0,0.3,0,0.5
		c0,0.1,0,0.3,0,0.4c0,0.2,0,0.4,0.1,0.6c0.1,0.1,0.2,0.2,0.2,0.4c0.1,0.2,0.2,0.5,0.3,0.7c0,0,0.1,0.1,0.1,0.1
		c0,0.1,0.1,0.2,0.1,0.3c0,0.1,0.1,0.1,0.1,0.2c0.1,0.2,0.3,0.3,0.4,0.6c0.1,0.2,0.2,0.3,0.4,0.4c0.2,0.1,0.3,0.3,0.5,0.3
		c0,0,0,0,0,0.1"/>
	<path id="XMLID_785_" class="st0" d="M35.5,26.7c0.1,0,0.2,0,0.3,0c0.2,0.1,0.3,0.3,0.4,0.4c0.2,0.1,0.5,0.1,0.8,0.1
		c0.1,0,0.3,0,0.4,0c0.1,0,0.1-0.1,0.2-0.1c0.2,0,0.6-0.1,0.8,0c0.1,0,0.1,0.1,0.2,0.2c0.2,0.1,0.3,0.2,0.5,0.2c0.1,0,0.1,0,0.2,0.1
		c0.1,0,0.3,0,0.4,0.1c0.1,0,0.1,0.1,0.2,0.1c0.1,0,0.2,0,0.3,0c0.1,0,0.1,0.1,0.2,0.1c0.1,0,0.2,0,0.3,0"/>
	<path id="XMLID_786_" class="st0" d="M36.6,25.1c0.3,0,0.7-0.1,1,0.1c0.3,0.1,0.5,0.3,0.9,0.3c0.1,0,0.3,0,0.4,0
		c0.2,0,0.3-0.1,0.5-0.1c0.3,0,0.6,0,0.9,0.2c0.2,0.1,0.4,0.3,0.7,0.3"/>
	<path id="XMLID_787_" class="st0" d="M35,30.3c0.5,0,1-0.1,1.4,0.2c0.1,0.1,0.1,0.1,0.2,0.2c0.1,0.1,0.2,0.1,0.2,0.2
		c0,0.1,0,0.3,0,0.4c0,0.2-0.1,0.2-0.2,0.4c-0.1,0.2-0.3,0.4-0.3,0.7c0,0.2,0,0.4,0,0.6c0,0.1,0,0.2,0.1,0.3c0.1,0.1,0.2,0,0.2,0.1
		c0,0,0,0.1,0.1,0.1c0,0,0.1,0,0.1,0c0.1,0,0.2,0.1,0.3,0.1"/>
	<path id="XMLID_788_" class="st0" d="M38.3,31.2c0-0.2,0-0.4,0.3-0.5c0.2-0.1,0.5,0,0.8,0c0.2-0.1,0.5-0.1,0.7-0.1
		c0.3,0,0.6-0.1,0.8,0.1"/>
	<path id="XMLID_789_" class="st0" d="M39,32.1C39,32.1,39,32.1,39,32.1c0,0.1,0,0.1,0.1,0.1c0,0,0,0.1,0.1,0.1
		c0.1,0.1,0.2,0,0.2-0.1c0-0.1,0.1-0.3,0-0.3c0,0-0.1,0-0.2,0c-0.1,0-0.1,0-0.1,0C39,32,39,32.1,39,32.1"/>
	<path id="XMLID_790_" class="st0" d="M35.3,31.8C35.3,31.8,35.3,31.8,35.3,31.8c0,0.1,0,0.1,0.1,0.1c0,0,0,0.1,0.1,0.1
		c0.1,0.1,0.2,0,0.2-0.1c0-0.1,0.1-0.3,0-0.3c0,0-0.1,0-0.2,0c-0.1,0-0.1,0-0.1,0C35.3,31.7,35.3,31.8,35.3,31.8"/>
	<path id="XMLID_791_" class="st0" d="M36.2,35.6c0.3,0,0.5,0,0.8,0c0.2,0,0.6,0,0.7,0.1"/>
</g>
</svg>
