<?xml version="1.0" encoding="utf-8"?>
<!-- Generator: Adobe Illustrator 19.0.0, SVG Export Plug-In . SVG Version: 6.00 Build 0)  -->
<svg version="1.1" id="Layer_1" xmlns="http://www.w3.org/2000/svg" xmlns:xlink="http://www.w3.org/1999/xlink" x="0px" y="0px"
	 viewBox="0 0 200 100" style="enable-background:new 0 0 200 100;" xml:space="preserve">
<style type="text/css">
	.st0{fill:none;stroke:#000000;stroke-width:0.9921;stroke-miterlimit:10;}
</style>
<g id="XMLID_1181_">
	<g id="XMLID_1180_">
		<path id="XMLID_1225_" class="st0" d="M37.5,80.6c0,0.1,0,0.2-0.1,0.3c0,0.1,0,0.1,0,0.2c0,0.1,0,0.1,0,0.1c0,0.1-0.1,0.2-0.2,0.2
			c-0.1,0-0.1,0.1-0.2,0.2c-0.1,0.1-0.2,0.2-0.3,0.3c-0.1,0.1-0.1,0.1-0.2,0.1c-0.1,0-0.2,0-0.3,0.1c-0.2,0.1-0.5,0.1-0.8,0.1
			c-0.1,0-0.1,0-0.2-0.1c-0.1,0-0.2,0-0.3,0c-0.1,0-0.3-0.1-0.5-0.2c-0.1-0.1-0.1-0.1-0.2-0.2c-0.1-0.1-0.1-0.1-0.2-0.1
			c-0.1-0.1-0.2-0.1-0.3-0.2c-0.2-0.1-0.4-0.2-0.6-0.3c-0.1,0-0.2,0-0.2-0.1c0,0,0-0.1-0.1-0.1c0,0-0.1,0-0.1-0.1"/>
		<path id="XMLID_1226_" class="st0" d="M34,81.3c0,0.1,0,0.3,0,0.4c0,0.1,0.1,0.2,0.1,0.4c0,0.1,0,0.3,0,0.4c0,0.1-0.1,0.2-0.2,0.3
			c-0.1,0.1-0.1,0.2-0.2,0.3c0,0,0,0-0.1,0c0,0,0,0.1,0,0.1c0,0,0,0-0.1,0c0,0-0.1,0-0.1,0.1c0,0-0.1,0-0.1,0
			c-0.1,0-0.1,0.1-0.2,0.1c-0.1,0-0.2,0-0.3,0c-0.2,0-0.5,0-0.7,0c-0.1,0-0.2,0-0.3,0c-0.1,0-0.2-0.1-0.3-0.2
			c-0.1-0.1-0.1-0.1-0.2-0.2c0,0-0.1,0-0.1-0.1c0,0,0-0.1,0-0.1c-0.1-0.1-0.2-0.1-0.2-0.2c0,0-0.1-0.1-0.1-0.1c0,0,0,0-0.1,0
			c0,0,0,0-0.1-0.1c0,0-0.1-0.1-0.1-0.1c-0.1-0.1-0.1-0.2-0.2-0.3c-0.1-0.1-0.1-0.2-0.1-0.3"/>
		<path id="XMLID_1227_" class="st0" d="M30.8,82.9c0,0-0.1,0.2-0.1,0.2c0,0-0.1,0.1-0.1,0.1c-0.1,0.1-0.2,0.1-0.3,0.2
			c-0.1,0.1-0.1,0.1-0.2,0.1c-0.1,0-0.2,0.1-0.3,0.2c-0.1,0.1-0.4,0.1-0.6,0.1c-0.2,0-0.4,0-0.6,0c-0.1,0-0.2-0.1-0.2-0.2
			c0-0.1-0.1-0.2-0.2-0.3c-0.1-0.1-0.1-0.2-0.1-0.3c0-0.1-0.1-0.2-0.1-0.2c0-0.1,0-0.1,0-0.2c0-0.1,0-0.2,0-0.3c0-0.1,0-0.2,0-0.4
			c0-0.1,0-0.1,0-0.2c0-0.1,0-0.1,0-0.1c0-0.1,0-0.2,0-0.3"/>
		<path id="XMLID_1228_" class="st0" d="M25.1,81.1c0,0.5,0,0.9,0,1.4c0,0.1,0,0.2,0,0.4c0,0.1,0.1,0.2,0.1,0.3
			c0,0.1,0.1,0.2,0.1,0.3c0,0.1,0,0.1,0.1,0.2c0,0.1,0.1,0.1,0.2,0.2c0.1,0.1,0.1,0.1,0.2,0.1c0.1,0,0.2,0,0.3,0
			c0.1,0,0.2,0.1,0.3,0.1c0.2,0.1,0.4,0.1,0.6,0.1c0.2,0,0.3,0,0.5,0c0.1,0,0.3,0,0.4,0c0.1,0,0.3-0.1,0.3-0.2c0,0,0-0.1,0.1-0.1"/>
		<g id="XMLID_1172_">
			<path id="XMLID_685_" class="st0" d="M36.6,70c-0.2-0.1-0.4-0.3-0.6-0.4c-0.2-0.1-1.3-1.1-1.5-1.3c-0.3-0.2-0.5-0.4-0.8-0.5
				c-0.1-0.1-0.9-0.4-1-0.4c-0.2-0.1-0.4-0.2-0.6-0.4c-0.8-0.4-1.8-0.3-2.7-0.3c-0.2,0-0.4,0-0.7,0c-0.3,0-1,0.4-1.1,0.5
				c-0.2,0.2-1.3,1.4-1.4,1.6C26.2,69,26.1,69,26,69.1c-0.1,0.1-0.4,0.7-0.5,0.9c-0.3,0.4-1.1,2-1.1,2.5c0,0.4-0.6,1.7-0.6,2
				c0,0.2-0.1,0.6,0.2,0.5c0.2,0,0.3-0.2,0.5-0.3c0.3-0.2,0.4,0.8,0.4,1c0,0.2,0,0.1,0.2,0.2c0.1,0,0.2,0.2,0.3,0.2
				c0.2,0,0.2-0.2,0.3-0.3c0.1-0.2,0.6-0.8,0.8-0.8c0.1,0,0.6,0.2,0.7,0.2c0.1,0.1,0.9,0.8,1.1,0.9c0.3,0.1,0.5,0,0.5-0.3
				c0.1-0.2,0.2-0.7,0.2-0.9c0-0.4,0-0.5,0.4-0.5c0.3,0,0.3,0.1,0.5,0.3c0.1,0.1,0.3,0.4,0.5,0.5c0.1,0.1,0.5,0.2,0.6,0.1
				c0.1-0.1,0.2-0.5,0.2-0.6c0-0.2-0.1-1.2,0.1-1.4c0.2-0.2,0.5-0.2,0.7-0.1c0.2,0,0.6,0.3,0.8,0.5c0.2,0.2,0.4,0.4,0.7,0.3
				c0.2,0,0.2-0.1,0.2-0.3c0-0.2,0.1-1.6,0.3-1.7c0.1-0.1,0.6-0.1,0.7,0c0.2,0.1,1,0.4,1.1,0.3c0.1-0.1,0.1-0.3,0.2-0.5
				c0.1-0.2,0.1-0.7,0-0.9C35.6,70.8,36,70.5,36.6,70z"/>
			<path id="XMLID_686_" class="st0" d="M29,66.5c0-0.2,0-0.5,0-0.7c0-0.1,0-0.2,0-0.2c0-0.1,0.1-0.2,0.1-0.4c0-0.2,0.1-0.3,0.2-0.5
				c0-0.1,0.1-0.3,0.1-0.4c0-0.1,0.1-0.3,0.1-0.4c0-0.1,0-0.1,0-0.2c0.1-0.1,0.1-0.1,0.1-0.3c0-0.2,0.1-0.3,0.2-0.4
				c0.1-0.2,0.1-0.3,0.1-0.5c0-0.1,0.1-0.2,0.2-0.3c0-0.1,0.1-0.1,0.1-0.1c0.1-0.1,0.1-0.2,0.2-0.3c0.1-0.1,0.1-0.1,0.1-0.2
				c0.1-0.1,0.1-0.2,0.2-0.3c0.1-0.1,0.1-0.2,0.2-0.3c0-0.1,0.1-0.4,0.2-0.4"/>
			<path id="XMLID_1216_" class="st0" d="M24,75.2c0,0.1-0.1,0.2-0.1,0.3c-0.1,0.1-0.1,0.3-0.2,0.5c0,0.1-0.1,0.1-0.1,0.2
				c0,0-0.1,0.1-0.1,0.1c0,0.1,0,0.1-0.1,0.2c0,0.1-0.1,0.1-0.1,0.2c0,0.1-0.1,0.2-0.2,0.3C23,77,23,77.1,22.9,77.2
				c0,0.1-0.1,0.1-0.1,0.1c-0.1,0.1-0.1,0.1-0.1,0.2c-0.1,0.1-0.1,0.2-0.2,0.3c0,0-0.1,0.1-0.1,0.1c0,0.1,0,0.1-0.1,0.2
				c0,0.1-0.1,0.1-0.1,0.2c0,0.1,0,0.1-0.1,0.2c0,0.1,0,0.2-0.1,0.2c0,0.1-0.1,0.2-0.1,0.4c0,0.1-0.1,0.3,0,0.4
				c0,0.2,0.1,0.2,0.3,0.2c0.1,0,0.1,0,0.2,0c0.1,0.1,0.1,0.1,0.1,0.2c0,0.1,0,0.2,0.1,0.3c0,0.1,0.1,0.2,0.2,0.2
				c0.1,0.1,0.1,0.1,0.2,0.2c0,0,0.1,0,0.1,0.1c0,0,0.1,0.1,0.1,0.1c0,0,0.1,0,0.1,0c0.1,0,0.1-0.2,0.1-0.3c0-0.1,0.1-0.1,0.1-0.2
				c0-0.1,0.1-0.2,0.1-0.3c0,0,0.1-0.1,0.1-0.1c0-0.1,0.1-0.1,0.1-0.2c0-0.1,0.1-0.1,0.1-0.2c0.1-0.1,0.1-0.2,0.1-0.3
				c0-0.1,0.1-0.2,0.2-0.2c0,0,0.1,0,0.1-0.1c0,0,0-0.1,0-0.1c0-0.1,0.1-0.1,0.1-0.1c0-0.1,0.1-0.2,0.1-0.3c0-0.1,0-0.2,0.1-0.3
				c0-0.3,0.1-0.5,0.2-0.8c0-0.1,0.1-0.2,0.1-0.3c0-0.1,0-0.2,0.1-0.3c0-0.1,0.1-0.2,0.1-0.3c0,0,0-0.1,0-0.1c0,0,0-0.1,0-0.1"/>
			<path id="XMLID_1217_" class="st0" d="M24.4,79.6c0,0.1,0,0.2,0.1,0.4c0,0.1,0.1,0.2,0.1,0.3c0,0.1,0,0.2,0.1,0.2
				c0,0,0.1,0.1,0.1,0.1c0,0,0.1,0.1,0.1,0.1c0,0.1,0,0.1,0.1,0.1c0.1,0,0.1,0,0.1,0c0.1,0,0.3,0,0.4,0c0.1,0,0.2,0.2,0.2,0.2
				c0,0.1,0.1,0.1,0.1,0.2c0,0.1,0.1,0.1,0.2,0.1c0.1,0,0.1,0,0.2,0c0.1,0,0.1,0,0.2-0.1c0,0,0.1-0.1,0.1-0.1c0-0.1,0.1-0.1,0.1-0.2
				c0.1-0.1,0.2,0,0.3,0c0.1,0,0.1-0.1,0.1-0.1c0,0,0.1-0.1,0.1-0.1c0.1-0.1,0.2-0.3,0.3-0.4c0.1-0.1,0-0.3,0.1-0.4
				c0-0.2,0-0.4,0-0.5c0-0.2,0.1-0.4,0.1-0.6c0-0.1,0-0.2,0-0.3c0-0.4,0-0.7,0-1.1c0-0.2,0-0.4,0-0.6c0-0.1,0-0.2,0-0.2
				c0-0.1-0.1-0.2-0.1-0.3c0-0.1,0-0.1,0-0.2c0-0.1-0.1-0.2-0.1-0.3"/>
			<path id="XMLID_1218_" class="st0" d="M29.7,75c0,0.1,0,0.2,0,0.3c0,0.1,0,0.2,0,0.3c0,0.2,0,0.5,0,0.7c0,0.5,0,1,0,1.5
				c0,0.2,0,0.4,0,0.6c0,0.2,0,0.4,0,0.6c0,0.1,0,0.1,0,0.2c0,0.1,0,0.3,0,0.4c0,0.2,0,0.4,0,0.5c0,0.1,0,0.1,0,0.2
				c0,0.1,0.1,0.2,0.1,0.2c0,0.1,0,0.2,0,0.3c0,0.1,0,0.2,0,0.3c0,0.1,0,0.1,0,0.2c0,0,0,0.1,0,0.1c0,0,0,0-0.1,0.1
				c0,0.1,0,0.1,0,0.1c0,0-0.1,0.1-0.1,0.1c-0.1,0-0.1,0-0.1,0c0,0-0.1-0.1-0.1-0.1c0,0-0.1,0-0.1,0c-0.1,0-0.1-0.1-0.1-0.1
				c0,0-0.1,0-0.1-0.1c0,0,0-0.1-0.1-0.1c0-0.1-0.1-0.1-0.1-0.2c0,0-0.1-0.1-0.1-0.1c-0.1,0-0.3,0-0.3,0c-0.1,0-0.2,0.1-0.3,0.1
				c-0.1,0.1-0.2,0.2-0.4,0.1c-0.1,0-0.1-0.1-0.2-0.1c0,0-0.1-0.1-0.1-0.1c-0.1-0.1-0.2-0.3-0.2-0.5"/>
			<path id="XMLID_1219_" class="st0" d="M31.3,74.3c0,0.3,0.2,0.6,0.3,0.9c0,0.2,0.1,0.3,0.1,0.5c0.1,0.1,0.1,0.2,0.2,0.4
				c0,0.2,0.1,0.3,0.1,0.5c0,0.1,0.1,0.3,0.1,0.4c0.1,0.3,0.1,0.6,0.1,0.9c0,0.1,0,0.2,0,0.3c0,0.1,0,0.1,0.1,0.2
				c0.1,0.1,0.1,0.3,0.1,0.4c0.1,0.1,0,0.3,0,0.4c0,0.2,0.1,0.3,0.1,0.5c0,0,0,0,0,0.1c0,0,0,0,0.1,0c0,0,0,0.1,0,0.1
				c0,0.1,0.1,0.2,0.1,0.3c0.1,0.1,0,0.3,0,0.4c0,0.1,0,0.1-0.1,0.1c0,0-0.1,0-0.1,0c-0.1,0-0.1-0.1-0.1-0.2c0,0-0.1-0.1-0.2-0.1
				c-0.1,0-0.1,0-0.2-0.1c0,0-0.1,0-0.1-0.1c-0.1,0-0.1-0.1-0.2-0.1c-0.1,0-0.2,0-0.3,0c0,0-0.1,0.2-0.1,0.2c0,0.1,0,0.1,0,0.2
				c0,0,0,0,0,0.1c0,0.1-0.1,0.1-0.1,0.2c0,0-0.1,0.1-0.1,0.1c0,0,0,0.1-0.1,0.1c0,0-0.1,0-0.2,0c0,0-0.1,0-0.2,0
				c0,0-0.1-0.1-0.1-0.1c-0.1,0-0.1-0.1-0.2-0.1c0,0-0.1,0-0.1,0c0,0,0-0.1-0.1-0.1"/>
			<path id="XMLID_1220_" class="st0" d="M32.9,79.9C32.9,79.9,32.9,79.9,32.9,79.9c0.2,0,0.6-0.1,0.8,0c0,0,0.1,0.1,0.1,0.1
				c0.1,0,0.2,0,0.2,0.1c0.1,0,0.1,0,0.2,0.1c0.1,0,0.1,0.1,0.1,0.1c0.1,0,0.2,0,0.3-0.1c0,0,0-0.1,0.1-0.1c0,0,0.1,0,0.1-0.1
				c0-0.1,0-0.1,0.1-0.2c0,0,0.1-0.1,0.1-0.1c0,0,0-0.1,0-0.1c0-0.1,0.1-0.1,0.1-0.1c0.1-0.1,0.1-0.1,0.1-0.2
				c0.1-0.1,0.1-0.2,0.1-0.3c0-0.2,0-0.3,0-0.4c0-0.1-0.1-0.3-0.2-0.4c-0.1-0.1-0.1-0.2-0.2-0.3c-0.1-0.2-0.2-0.3-0.2-0.5
				c-0.1-0.2-0.2-0.4-0.3-0.6c-0.1-0.2-0.2-0.4-0.3-0.6c-0.1-0.1-0.2-0.2-0.3-0.4c-0.2-0.3-0.2-0.6-0.4-0.8c0-0.1-0.1-0.2-0.1-0.3
				c0-0.1-0.1-0.1-0.1-0.2c0-0.1,0-0.1,0-0.1"/>
			<path id="XMLID_1221_" class="st0" d="M35.6,78.8c0.1,0,0.2,0,0.2,0c0.1,0,0.2,0,0.3,0.1c0.1,0.1,0.3,0.1,0.5,0.1
				c0.3,0.1,0.6,0.1,0.8-0.1c0.1-0.1,0.2-0.2,0.3-0.2c0,0,0.1,0,0.2-0.1c0,0,0,0,0-0.1c0,0,0-0.1,0.1-0.1c0.2-0.2,0.3-0.5,0.3-0.8
				c0-0.1,0-0.2,0-0.3c0-0.1-0.1-0.2-0.1-0.3c0-0.1,0-0.1,0-0.2c0-0.1-0.1-0.1-0.1-0.2c-0.1-0.1-0.1-0.1-0.2-0.2
				c-0.1-0.1-0.1-0.3-0.2-0.5c-0.1-0.1-0.1-0.2-0.2-0.3c-0.1-0.1-0.1-0.1-0.2-0.2c-0.1-0.1-0.1-0.1-0.2-0.2c0,0-0.1,0-0.1-0.1
				c0,0,0-0.1-0.1-0.1c0,0-0.1-0.1-0.2-0.1c-0.1,0-0.1-0.1-0.1-0.1c-0.1-0.1-0.2-0.1-0.3-0.2c-0.1-0.1-0.1-0.1-0.2-0.2
				c-0.1-0.1-0.2-0.1-0.2-0.2c-0.1-0.1-0.1-0.2-0.2-0.2c-0.1-0.1-0.1-0.1-0.2-0.2c0,0,0-0.1,0-0.1c0-0.1-0.1-0.1-0.1-0.1
				c-0.1-0.1-0.1-0.2-0.1-0.2c0,0,0,0,0-0.1c0-0.1-0.1-0.1-0.1-0.1c0-0.1-0.1-0.2-0.1-0.3c0-0.1-0.1-0.2-0.1-0.2
				c0-0.1,0-0.1-0.1-0.2c0-0.1,0-0.1,0-0.1c0-0.1-0.2-0.1-0.2-0.2"/>
			<path id="XMLID_1222_" class="st0" d="M36.1,71.6C36.1,71.6,36.2,71.7,36.1,71.6c0.2,0.1,0.3,0.2,0.4,0.2
				c0.2,0.1,0.4,0.3,0.6,0.5c0.1,0.1,0.2,0.2,0.4,0.3c0.1,0,0.1,0,0.2,0.1c0.1,0,0.1,0.1,0.2,0.1c0.2,0.1,0.4,0.2,0.5,0.4
				c0.1,0.1,0.1,0.2,0.2,0.2c0.1,0.1,0.1,0.2,0.2,0.2c0.1,0.1,0.3,0.2,0.5,0.3c0.2,0.1,0.3,0.2,0.5,0.3c0.1,0.1,0.2,0.2,0.4,0.3
				c0,0,0,0,0.1,0c0.1,0,0.1,0,0.1,0c0.1,0.1,0.1,0.1,0.2,0.2c0.1,0.1,0.2,0.2,0.2,0.3c0.1,0.1,0.1,0.2,0.2,0.3
				c0.1,0.2,0.1,0.4,0.2,0.6c0.1,0.1,0.1,0.2,0.1,0.4c0,0.1,0,0.1,0,0.2c0,0.1-0.1,0.1-0.1,0.2c-0.1,0.2-0.3,0.4-0.3,0.7
				c0,0.1-0.1,0.2-0.1,0.3c0,0,0,0.1-0.1,0.1c-0.1,0-0.1,0-0.2,0c-0.1,0-0.1,0-0.2,0.1c-0.1,0-0.1,0-0.2,0c-0.1,0-0.1,0-0.2,0
				c-0.1,0-0.3-0.1-0.4-0.1c-0.1,0-0.3-0.1-0.4-0.1c-0.1,0-0.1,0-0.2-0.1c-0.1,0-0.2-0.1-0.3-0.1"/>
			<path id="XMLID_1223_" class="st0" d="M36.4,70.3c0.5,0,0.8,0.5,1.2,0.7c0.2,0.1,0.5,0.3,0.7,0.4c0.1,0,0.2,0.1,0.3,0.1
				c0.1,0,0.2,0.1,0.3,0.2c0.1,0.1,0.2,0.1,0.3,0.1c0.1,0,0.2,0,0.3,0c0.1,0,0.3,0,0.4,0c0.1,0,0.2,0.1,0.4,0.1c0.1,0,0.2,0,0.4,0.1
				c0.1,0.1,0.2,0.1,0.3,0.1c0.1,0,0.2,0.1,0.3,0.1c0.1,0,0.2,0.1,0.4,0.1c0.1,0,0.2,0,0.2,0.1c0,0,0.1,0.1,0.1,0.1
				c0.1,0,0.1,0,0.2,0.1c0.1,0,0.1,0.1,0.1,0.1c0,0,0.1,0.1,0.1,0.1c0,0,0.1,0.1,0.1,0.2c0.1,0.1,0.1,0.2,0.2,0.3c0,0.1,0,0.1,0,0.2
				c0,0.1,0,0.2,0,0.2c0,0.1-0.1,0-0.1,0.1c-0.1,0-0.1,0.1-0.2,0.1c-0.1,0-0.2,0-0.3,0c-0.1,0-0.1,0.1-0.2,0.2c0,0-0.1,0.1-0.1,0.1
				c0,0.1-0.1,0.1-0.1,0.1c-0.1,0,0,0.1-0.1,0.2c0,0.1-0.1,0.1-0.1,0.1c-0.1,0.1-0.1,0.2-0.1,0.3c0,0.1,0,0.1-0.1,0.2
				c0,0-0.1,0-0.1,0.1"/>
			<path id="XMLID_1224_" class="st0" d="M39.7,78.1c0,0.1,0,0.3,0,0.4c0,0.2-0.1,0.4-0.1,0.5c0,0.2,0,0.4-0.1,0.5
				c0,0.1,0,0.1-0.1,0.1c0,0,0,0.1-0.1,0.1c0,0-0.1,0.1-0.1,0.1c0,0,0,0,0,0c0,0-0.1,0-0.1,0c0,0-0.1,0-0.1,0.1c0,0-0.1,0-0.1,0.1
				c0,0-0.1,0.1-0.1,0.1c0,0.1-0.1,0.1-0.1,0.1c-0.1,0.1-0.3,0.1-0.5,0.1c-0.2,0-0.5,0-0.7,0c-0.1,0-0.2,0-0.3-0.1
				c-0.2-0.1-0.4-0.2-0.5-0.3c-0.2-0.2-0.4-0.4-0.7-0.5c-0.1,0-0.3-0.1-0.4-0.1c-0.1,0-0.1,0-0.1,0c0,0-0.1,0-0.1,0"/>
			<path id="XMLID_1229_" class="st0" d="M22.2,80.2c0,0.2,0,0.4-0.1,0.5c0,0.1-0.1,0.1-0.1,0.2c0,0.1,0,0.1,0,0.2
				c0,0.1-0.1,0.3-0.1,0.4c0,0.1,0,0.2-0.1,0.3c0,0.1-0.1,0.1-0.1,0.2c-0.1,0.2-0.1,0.5,0,0.7c0,0,0,0.1,0.1,0.1c0,0,0,0,0.1,0
				c0,0,0.1,0.1,0.1,0.1c0.1,0.1,0.2,0.1,0.4,0.1c0.1,0,0.1,0,0.2,0c0,0,0.1,0,0.1,0c0.1,0,0.2,0,0.3,0.1c0.1,0.1,0.2,0.2,0.3,0.3
				c0.1,0.1,0.3,0.1,0.4,0.2c0.2,0.1,0.5,0.1,0.7,0c0.1-0.1,0.2-0.1,0.2-0.2c0,0,0-0.1,0.1-0.1c0,0,0.1-0.1,0.1-0.2"/>
		</g>
	</g>
	<g id="XMLID_1173_">
		<path id="XMLID_1230_" class="st0" d="M108.7,32.5c-0.2,0.1-0.6,0.5-0.8,0.7c-0.2,0.2-0.4,0.3-0.6,0.5c-0.1,0.1-0.1,0.3-0.2,0.4
			c-0.1,0.1-0.2,0.1-0.3,0.2c-0.1,0.1-0.1,0.2-0.3,0.3c-0.2,0.1-0.3,0.2-0.5,0.3c-0.3,0.3-0.6,0.5-1,0.8c-0.3,0.2-0.6,0.5-0.8,0.6
			c-0.1,0.1-0.3,0.1-0.4,0.2c-0.2,0.2-0.2,0.5-0.4,0.6c-0.3,0.3-0.7,0.7-1,1.2c-0.1,0.2-0.1,0.4-0.2,0.5c-0.2,0.3-0.4,0.6-0.7,0.8
			c-0.2,0.2-0.4,0.2-0.5,0.4c-0.1,0.2-0.1,0.4-0.2,0.6c-0.2,0.2-0.3,0.3-0.4,0.6c-0.1,0.4-0.2,0.8-0.5,1.2c-0.3,0.4-0.5,0.6-0.7,1
			c-0.1,0.4-0.2,0.7-0.5,1c-0.1,0.2-0.3,0.3-0.4,0.4c-0.2,0.2-0.2,0.6-0.4,0.8c-0.1,0.1-0.1,0-0.2,0.2c-0.1,0.1-0.1,0.3-0.1,0.4
			c-0.1,0.4-0.3,0.7-0.5,1.1c-0.1,0.3-0.2,0.5-0.3,0.8c-0.1,0.3-0.4,0.6-0.5,0.9C96,49,96,49.2,95.8,49.4c-0.2,0.2-0.5,0.4-0.6,0.7
			c0,0.1,0,0.2,0,0.3c0,0.2-0.1,0.3-0.2,0.5c-0.2,0.4-0.4,0.7-0.5,1.1c-0.1,0.3-0.1,0.6-0.2,0.9C94.2,53,94,53.3,94,53.5
			c-0.1,0.4-0.1,0.8-0.1,1.2c0,0.2-0.1,0.4-0.2,0.6c-0.1,0.2,0,0.5-0.1,0.7c0,0.2-0.1,0.2-0.1,0.4c0,0.2,0,0.5,0,0.7"/>
		<path id="XMLID_1231_" class="st0" d="M114,22.9c0,0.1-0.2,0.3-0.3,0.4c-0.1,0.1-0.1,0.3-0.2,0.4c-0.1,0.1-0.3,0.3-0.4,0.3
			c-0.2,0.1-0.3,0.1-0.5,0.2c-0.2,0.2-0.4,0.3-0.6,0.4c-0.2,0.1-0.2,0.2-0.3,0.4c0,0.1-0.1,0.2-0.2,0.3c0,0.1,0,0.2-0.1,0.3
			c0,0.2-0.2,0.3-0.2,0.5c-0.1,0.3-0.1,0.7,0,1c0,0.2,0,0.3,0,0.5c0,0.1,0.2,0.2,0.2,0.3c0.1,0.1,0.2,0.2,0.3,0.2
			c0.1,0.1,0.1,0.2,0.2,0.3c0.1,0.2,0.2,0.5,0.3,0.7c0.1,0.3,0.3,0.5,0.6,0.6c0.3,0.1,0.6,0.3,0.8,0.6c0.1,0.1,0.1,0.2,0.2,0.2
			c0.1,0,0.2,0,0.3,0.1c0.1,0,0.1,0.1,0.2,0.1c0.1,0,0.1,0.1,0.1,0.2c0.1,0.1,0.3,0.2,0.5,0.2c0.3,0,0.4,0,0.6-0.2
			c0.1-0.2,0.2-0.3,0.4-0.3c0.2,0,0.4,0,0.6,0c0.2,0,0.4,0,0.6,0c0.2,0,0.4-0.1,0.5-0.2c0.3-0.1,0.7,0.1,1-0.2
			c0.1-0.1,0.2-0.3,0.3-0.4c0.1-0.1,0.1-0.1,0.2-0.2c0,0,0.1-0.1,0.1-0.2c0.1-0.1,0.2-0.2,0.2-0.3c0.1-0.2,0.2-0.4,0.3-0.6
			c0-0.2-0.1-0.4,0-0.6c0-0.1,0.1-0.1,0.1-0.1c0.1-0.1,0.1-0.2,0.2-0.3c0.1-0.1,0.2-0.1,0.2-0.2c0.1-0.1,0.1-0.2,0.1-0.2
			c0.1-0.2,0.3-0.2,0.3-0.4c0.1-0.1,0.1-0.3,0.1-0.5c0-0.2,0-0.5,0-0.7c0-0.1-0.1-0.4-0.2-0.5c-0.1-0.1-0.2-0.1-0.2-0.3
			c-0.2-0.1-0.6,0.1-0.7-0.1c-0.1-0.1-0.1-0.2-0.2-0.3c0-0.1-0.1-0.1-0.2-0.2c-0.1,0-0.1,0-0.2-0.1c-0.1-0.1-0.1-0.2-0.1-0.3
			c-0.1-0.1-0.2-0.2-0.2-0.3c-0.1-0.1-0.2-0.1-0.3-0.2c0-0.1,0-0.1-0.1-0.2c-0.1-0.1-0.1-0.1-0.2-0.1c0,0-0.1-0.1-0.1-0.1
			c-0.1-0.1-0.2-0.1-0.3-0.1c-0.2-0.1-0.4-0.1-0.6-0.1c-0.1,0-0.2,0-0.4,0c-0.3,0-0.5-0.2-0.8-0.2c-0.3,0-0.7,0-1,0
			C114.9,22.6,114.4,22.5,114,22.9z"/>
		<path id="XMLID_1232_" class="st0" d="M112.7,24c-0.2-0.1-0.3-0.2-0.4-0.4c-0.1-0.2-0.3-0.3-0.4-0.4c-0.1-0.1-0.3-0.2-0.4-0.3
			c-0.1-0.1-0.2-0.1-0.3-0.2c-0.1-0.1-0.1-0.1-0.1-0.2c-0.1-0.1-0.1-0.1-0.2-0.1c-0.1-0.1-0.3-0.3-0.4-0.4c-0.1-0.1-0.1-0.2-0.2-0.3
			c0-0.1-0.1-0.1-0.2-0.1c-0.1-0.1-0.1-0.1-0.1-0.2c-0.1-0.1-0.2-0.2-0.3-0.3c-0.1-0.1-0.1-0.2-0.2-0.3c-0.1-0.1-0.2-0.1-0.3-0.2
			c-0.1-0.1-0.1-0.3-0.2-0.4c-0.1-0.3-0.3-0.5-0.4-0.8c-0.1-0.3-0.4-0.5-0.5-0.8c0-0.1,0-0.2-0.1-0.2c0-0.1-0.1-0.1-0.2-0.2
			c0-0.1-0.1-0.2-0.1-0.3c0-0.3-0.1-0.5-0.2-0.7c-0.1-0.1-0.1-0.3-0.2-0.4c-0.1-0.1-0.1-0.2-0.1-0.3c-0.1-0.3-0.2-0.5-0.3-0.8
			c0-0.1,0-0.2-0.1-0.3c0-0.1-0.1,0-0.1-0.1c0-0.1,0-0.1,0-0.2c0-0.1,0-0.1-0.1-0.2c0-0.1,0-0.3,0-0.4c0-0.2,0-0.4,0-0.6
			c0-0.3,0-0.5-0.1-0.8c-0.1-0.5-0.1-0.9-0.1-1.3c0-0.1,0-0.3,0-0.4c0-0.2,0-0.4-0.1-0.6c0-0.3-0.1-0.7,0-1c0.1-0.3,0.4-0.4,0.6-0.6
			c0.2-0.2,0.4-0.3,0.6-0.4c0.2-0.1,0.5-0.3,0.8-0.3c0.3,0,0.5,0,0.8,0c0.4,0,0.8,0,1.1,0c0.1,0,0.4,0.1,0.5,0c0,0,0-0.1,0.1-0.1
			c0,0,0.1,0,0.1-0.1c0.1-0.1,0.1-0.1,0.2-0.1c0.1,0,0.2,0,0.3,0c0.2,0,0.4,0,0.6,0.2c0.1,0.1,0.4,0.4,0.4,0.5c0,0.1,0,0.1,0.1,0.2
			c0.2,0.1,0.2,0.2,0.3,0.3c0.1,0.1,0.2,0.2,0.2,0.4c0,0.1,0,0.1,0,0.2c0,0.1,0.1,0.1,0.1,0.1c0.1,0.1,0.1,0.1,0.1,0.3
			c0,0.1,0,0.2,0,0.3c0,0.1,0,0.2,0.1,0.3c0.1,0.1,0.1,0.2,0.2,0.4c0,0.1,0,0.2,0,0.3c0,0.1,0.1,0.1,0.2,0.2c0,0.1,0,0.2,0,0.3
			c0,0.6,0,1.2,0,1.8c0,0.3,0,0.5,0.1,0.8c0,0.2,0.1,0.3,0.2,0.5c0,0.1,0,0.1,0,0.2c0,0,0,0.1,0,0.1c0,0.2,0,0.5,0,0.7
			c0,0.3,0,0.6,0,0.8c0,0.2,0.1,0.4,0.1,0.6c0-0.8,0-1.6,0-2.4c0-0.2-0.1-0.2-0.1-0.4c0-0.1,0-0.2,0-0.3c0-0.3,0-0.6,0-0.9
			c0-0.2,0-0.5,0-0.7c0-0.3,0-0.5,0.1-0.7c0.1-0.2,0.1-0.3,0.2-0.4c0-0.3,0.2-0.6,0.3-1c0.1-0.3,0-0.7,0.2-1
			c0.1-0.2,0.3-0.4,0.4-0.6c0.1-0.1,0.1-0.2,0.2-0.3c0.1-0.1,0.1-0.3,0.2-0.4c0.1-0.4,0.4-0.7,0.7-0.9c0.1-0.1,0.1-0.2,0.2-0.2
			c0.1-0.1,0.3-0.1,0.4-0.2c0.1-0.1,0.3-0.2,0.5-0.2c0.1,0,0.3,0,0.4,0c0.2,0,0.4-0.1,0.5-0.2c0.3-0.1,0.6-0.2,0.9-0.3
			c0.2-0.1,0.6-0.1,0.8,0c0.1,0,0.1,0.1,0.2,0.1c0.1,0.1,0.2,0.1,0.3,0.1c0.2,0.1,0.3,0.2,0.4,0.4c0.1,0.1,0.3,0.2,0.4,0.3
			c0.2,0.1,0.2,0.4,0.3,0.6c0.1,0.2,0.3,0.5,0.4,0.7c0.1,0.2,0,0.4,0.1,0.6c0,0.2,0,0.3,0,0.5c0,0.2,0.1,0.3,0.1,0.5
			c0,0.4,0.1,0.8,0,1.1c-0.1,0.2-0.2,0.4-0.3,0.7c-0.1,0.3-0.1,0.5-0.2,0.8c0,0.2-0.1,0.3-0.1,0.5c0,0.1-0.1,0.1-0.1,0.2
			c-0.2,0.2-0.2,0.6-0.2,0.8c0,0.2-0.1,0.4-0.1,0.6c0,0.2,0,0.3-0.1,0.4c-0.2,0.3-0.4,0.6-0.4,0.9c0,0.4-0.1,0.7-0.2,1.1
			c-0.1,0.3-0.2,0.6-0.3,0.9c-0.1,0.2-0.3,0.4-0.3,0.7c0,0.2-0.1,0.3-0.2,0.5c0,0.1,0,0.1,0,0.2c0,0.1-0.1,0.2-0.1,0.3
			c0,0.1-0.1,0.2-0.1,0.2c-0.1,0.1-0.2,0.1-0.2,0.2c0,0,0,0.1,0,0.1c0,0.1-0.1,0.1-0.1,0.2c-0.1,0.2-0.2,0.5-0.3,0.7
			c0,0-0.1,0-0.1,0.1c0,0,0,0.1,0,0.1c0,0-0.1,0-0.1,0.1c0,0,0,0.1,0,0.1c0,0.1-0.1,0.2-0.1,0.3c0,0.1-0.1,0.2-0.2,0.3
			c0,0.1,0,0.1-0.1,0.2c0,0.1-0.1,0.2-0.1,0.3c-0.1,0.2-0.2,0.3-0.2,0.5"/>
		<path id="XMLID_1233_" class="st0" d="M117.8,22.6c0-0.2,0.1-0.3,0.2-0.5c0.1-0.1,0.1-0.3,0.2-0.4c0-0.1,0.1-0.1,0.2-0.2
			c0,0,0-0.1,0-0.1c0-0.1,0.1-0.1,0.2-0.2c0.1-0.1,0.1-0.2,0.1-0.3c0.1-0.1,0.2-0.3,0.3-0.4c0.1-0.2,0.2-0.4,0.3-0.6
			c0.1-0.3,0.1-0.6,0.3-0.9c0.1-0.1,0.2-0.3,0.2-0.4c0.1-0.1,0.1-0.2,0.1-0.3c0-0.1,0.1-0.2,0.1-0.3c0.1-0.2,0.1-0.3,0.2-0.4
			c0.1-0.2,0.1-0.4,0.2-0.6c0.1-0.2,0.3-0.4,0.4-0.7c0-0.1,0.1-0.1,0.1-0.2c0.1-0.1,0.1-0.3,0.2-0.4c0-0.1,0.1-0.2,0.2-0.3
			c0-0.1,0-0.1,0-0.2c0-0.1,0.1-0.1,0.1-0.2c0.2-0.4,0.3-0.8,0.5-1.1c0.1-0.2,0.2-0.5,0.3-0.7c0.1-0.3,0.3-0.4,0.5-0.6
			c0.1-0.1,0.2-0.2,0.3-0.3c0.1-0.1,0.2-0.1,0.3-0.2c0.2-0.2,0.5-0.4,0.7-0.5c0.4-0.2,0.7-0.5,1.1-0.6c0.2-0.1,0.3-0.1,0.5-0.2
			c0.3-0.1,0.6-0.1,0.8-0.1c0.2,0,0.4-0.1,0.5-0.1c0.2,0,0.3,0,0.5,0c0.1,0,0.3,0,0.4,0c0.1,0,0.3-0.1,0.4-0.1c0.2,0,0.4,0,0.7,0
			c0.2,0,0.4,0.2,0.5,0.3c0.2,0.2,0.3,0.3,0.2,0.6c0,0.3,0.1,0.6,0.1,1c0,0.2,0,0.4,0,0.6c0,0.1,0,0.2,0,0.3c0,0.1-0.1,0.2-0.1,0.3
			c-0.1,0.2-0.2,0.3-0.3,0.5c-0.1,0.2-0.3,0.3-0.3,0.5c0,0.2-0.1,0.4-0.1,0.5c0,0.1-0.1,0.1-0.2,0.2c-0.1,0.1-0.1,0.2-0.1,0.3
			c0,0.1,0,0.2-0.1,0.3c-0.1,0.2-0.2,0.4-0.3,0.6c-0.1,0.2-0.2,0.3-0.3,0.5c-0.1,0.1-0.2,0.2-0.3,0.2c-0.1,0.1-0.2,0.2-0.3,0.2
			c0,0,0,0.1-0.1,0.1c-0.1,0.1-0.2,0-0.3,0.1c-0.1,0.1-0.2,0.2-0.3,0.2c-0.1,0.1-0.2,0.1-0.4,0.2c-0.3,0.1-0.5,0.4-0.7,0.6
			c-0.1,0.1-0.2,0.3-0.3,0.4c-0.1,0.1-0.3,0.2-0.3,0.4c0.2,0.1,0.4-0.2,0.6-0.3c0.2-0.1,0.5-0.1,0.7-0.2c0.2-0.1,0.2-0.2,0.4-0.3
			c0.3-0.1,0.5-0.2,0.7-0.4c0.2-0.2,0.5-0.3,0.7-0.3c0.2-0.1,0.4-0.1,0.6-0.1c0.2-0.1,0.3-0.1,0.5-0.1c0.1,0,0.2,0,0.3-0.1
			c0.1,0,0.3,0,0.4,0c0.3-0.1,0.7,0,1,0c0.2,0,0.4,0,0.6,0.1c0.2,0.1,0.3,0.1,0.5,0.2c0.2,0.2,0.4,0.4,0.4,0.7
			c0,0.1,0.1,0.2,0.1,0.4c0,0,0,0.1,0,0.1c0,0.1,0,0.1,0.1,0.1c0.1,0.1,0,0.2,0,0.3c0.1,0.4,0.1,0.8,0.1,1.2c0,0.2,0,0.3,0,0.5
			c-0.1,0.3-0.3,0.6-0.5,0.8c-0.1,0.2-0.2,0.3-0.4,0.4c-0.1,0.1-0.3,0.2-0.4,0.4c-0.1,0.1-0.3,0.1-0.4,0.2c-0.3,0.1-0.6,0.2-0.9,0.3
			c-1.6,0.3-3.2,0.2-4.8,0.2c-0.1,0-0.2,0-0.3,0c-0.2,0-0.4,0.1-0.6,0.2c-0.2,0.1-0.4,0.1-0.7,0.2c-0.2,0.1-0.4,0.2-0.6,0.3
			c-0.2,0.2-0.4,0.3-0.6,0.3c-0.3,0.1-0.6,0.3-0.8,0.4c-0.2,0.1-0.3,0.3-0.4,0.4c-0.1,0.1-0.3,0.3-0.5,0.3c-0.2,0.1-0.3,0.1-0.4,0.2
			"/>
		<path id="XMLID_1234_" class="st0" d="M118.5,30.4c0,0.1,0.1,0.3,0.2,0.4c0.1,0.1,0.2,0.2,0.2,0.3c0.1,0.1,0.1,0.3,0.2,0.3
			c0.1,0.1,0.2,0.2,0.4,0.3c0.1,0.1,0.2,0.3,0.3,0.4c0.1,0.1,0.2,0.3,0.3,0.4c0.1,0.2,0.3,0.3,0.5,0.5c0.2,0.1,0.2,0.3,0.4,0.4
			c0.1,0.1,0.2,0.2,0.3,0.3c0.1,0.1,0.2,0.1,0.3,0.1c0.1,0.1,0.2,0.1,0.3,0.1c0.4,0.1,0.9,0.2,1.3,0.3c0.1,0,0.1,0.1,0.2,0.1
			c0.1,0,0.3,0,0.4,0c0.2,0,0.3,0,0.5,0c0.2,0,0.3,0.1,0.5,0.1c0.1,0,0.2,0,0.4,0c0.3,0,0.5,0.1,0.8,0.2c0.1,0,0.2,0,0.4,0.1
			c0.1,0,0.2,0.1,0.4,0.1c0.2,0.1,0.5,0,0.7,0c0.4,0,0.8,0,1.3,0c0.2,0,0.4,0.1,0.7,0.1c0.2,0,0.3,0,0.5,0c0.4,0,0.9,0.1,1.3-0.1
			c0.1-0.1,0.3-0.2,0.4-0.3c0,0,0.1-0.1,0.1-0.1c0.1-0.1,0.1-0.1,0.2-0.1c0.1-0.1,0.2-0.2,0.4-0.2c0.2-0.1,0.2-0.1,0.3-0.2
			c0.1-0.1,0.1-0.2,0.2-0.4c0.1-0.3,0.2-0.6,0.3-0.9c0-0.2,0-0.4,0-0.5c0,0,0-0.1,0-0.2c0-0.1-0.1-0.1-0.2-0.2
			c-0.1-0.1,0-0.2-0.1-0.2c0,0-0.1-0.1-0.2-0.1c-0.1-0.1-0.2-0.2-0.3-0.2c-0.2-0.2-0.4-0.3-0.6-0.5c-0.1-0.1-0.2-0.3-0.4-0.4
			c-0.1-0.1-0.3-0.1-0.4-0.2c-0.2-0.1-0.4-0.2-0.6-0.3c-0.1-0.1-0.3-0.2-0.4-0.2c0.1,0.1,0.3,0.1,0.4,0.1c0.1,0,0.2,0.1,0.3,0.1
			c0.1,0,0.1,0,0.2,0c0.1,0,0.1,0.1,0.1,0.1c0.1,0.1,0.3,0.1,0.4,0.2c0.5,0.3,1.2,0.1,1.8,0.1c0.3,0,0.6,0,0.8,0
			c0.3,0,0.6-0.3,0.7-0.5c0.2-0.2,0.3-0.4,0.3-0.7c0-0.3,0-0.7,0-1c0-0.2-0.1-0.2-0.2-0.4c-0.2-0.2-0.2-0.4-0.3-0.6
			c-0.2-0.2-0.4-0.5-0.6-0.7c-0.2-0.1-0.2-0.2-0.4-0.3c-0.4-0.2-0.6-0.5-1-0.8c-0.1-0.1-0.2-0.2-0.3-0.3c-0.1-0.1-0.3-0.2-0.4-0.2
			c-0.3-0.2-0.6-0.4-0.9-0.7c-0.1-0.1-0.1-0.1-0.2-0.2c-0.1,0-0.2,0-0.4-0.1c-0.1,0-0.2-0.1-0.4-0.1c-0.1,0-0.1,0-0.2-0.1
			c-0.2-0.2-0.5-0.2-0.8-0.2c-0.5,0-1.1-0.1-1.6-0.1c-0.4,0-0.8-0.1-1.3-0.1c-0.3,0-0.6,0-0.9,0c-0.3,0-0.5,0.1-0.8,0.2
			c-0.3,0.1-0.6,0.2-0.8,0.4c0,0-0.1,0.1-0.1,0.1c-0.1,0.1-0.3,0.1-0.4,0.2c-0.2,0.1-0.4,0.3-0.7,0.4c-0.1,0-0.1,0.1-0.2,0.2
			c-0.1,0.1-0.2,0.1-0.3,0.1c-0.1,0.1-0.2,0.1-0.3,0.2c-0.1,0-0.2,0.1-0.3,0.1c-0.1,0.1-0.2,0.2-0.3,0.3c-0.1,0-0.1,0-0.2,0.1"/>
		<path id="XMLID_1235_" class="st0" d="M113.3,30c-0.1,0-0.1,0.1-0.2,0.2c-0.1,0.1-0.2,0.1-0.3,0.2c-0.1,0.1-0.1,0.2-0.2,0.3
			c-0.1,0.1-0.2,0.1-0.2,0.2c-0.1,0-0.2,0.1-0.2,0.1c-0.1,0.1-0.1,0.1-0.1,0.2c-0.1,0-0.1,0.1-0.2,0.1c-0.1,0.1-0.1,0.1-0.2,0.2
			c-0.1,0.1-0.3,0.2-0.4,0.3c-0.1,0.1-0.3,0.1-0.5,0.2c-0.1,0.1-0.2,0.3-0.3,0.4c-0.1,0.1-0.2,0.2-0.3,0.3c-0.3,0.3-0.5,0.6-0.8,0.9
			c-0.1,0.1-0.2,0.2-0.4,0.4c-0.1,0.2-0.1,0.4-0.3,0.5c-0.1,0.1-0.2,0.1-0.2,0.2c-0.1,0.1-0.1,0.2-0.1,0.3c-0.1,0.1-0.2,0.2-0.3,0.3
			c0,0.1,0,0.1-0.1,0.2c0,0-0.1,0.1-0.1,0.1c-0.1,0.1-0.1,0.4-0.2,0.5c-0.1,0.4-0.2,0.7-0.3,1.1c-0.1,0.1-0.2,0.2-0.2,0.4
			c0,0.1,0,0.2-0.1,0.3c0,0.1-0.1,0.2-0.1,0.4c0,0.1,0,0.2,0,0.3c0,0.1-0.1,0.2-0.1,0.3c0,0.1,0,0.3,0,0.4c0,0.3,0,0.5,0,0.8
			c0,0.4,0,0.8,0,1.1c0,0.2,0,0.3,0,0.5c0,0.2,0,0.3,0.1,0.5c0.1,0.1,0.1,0.1,0.2,0.2c0,0.1,0.1,0.2,0.1,0.3c0,0.1,0.1,0.1,0.1,0.2
			c0,0,0,0.1,0,0.1c0,0.1,0.1,0.1,0.2,0.1c0.1,0.2,0.1,0.2,0.2,0.3c0.1,0,0.1,0.1,0.1,0.1c0,0,0.1,0.1,0.2,0.1
			c0.2,0.1,0.4,0.1,0.5,0.1c0.3,0.1,0.6,0,0.8,0c0.4,0,0.7-0.1,1.1-0.3c0.1,0,0.1-0.1,0.2-0.2c0.1-0.1,0.2-0.1,0.3-0.2
			c0-0.1,0.1-0.2,0.1-0.2c0-0.1,0-0.1,0.1-0.2c0-0.1,0.2-0.3,0.3-0.4c0,0,0.2,0,0.2-0.1c0,0,0-0.2,0-0.2c0,0.2,0,0.4,0,0.6
			c0,0.1,0,0.2,0,0.3c0,0.2,0.1,0.3,0.2,0.5c0,0.1,0.1,0.2,0.2,0.3c0.1,0.1,0.2,0.1,0.3,0.1c0.1,0,0.2,0.1,0.3,0.1
			c0.2,0.1,0.3,0.2,0.5,0.3c0.1,0.1,0.4,0.2,0.6,0.2c0.2,0.1,0.4,0.1,0.5,0.1c0.1,0,0.3,0,0.4,0.1c0.1,0,0.2,0,0.3,0
			c0.1,0,0.2,0.1,0.3,0.1c0.3,0.1,0.6,0,0.9,0c0.4,0,0.8,0.1,1.2,0c0.3,0,0.6-0.1,0.8-0.3c0.2-0.1,0.2-0.3,0.4-0.4
			c0.1-0.1,0.2-0.1,0.2-0.2c0,0,0-0.1,0.1-0.1c0.1,0,0.1-0.1,0.1-0.1c0-0.1,0.1-0.1,0.1-0.2c0.1-0.1,0.3-0.2,0.4-0.4
			c0.1-0.1,0.2-0.3,0.3-0.4c0.1-0.2,0.3-0.4,0.4-0.6c0-0.2,0-0.4,0-0.6c0.1-0.3,0.1-0.6,0.3-0.8c0.1-0.2,0.2-0.4,0.2-0.7
			c0-0.2,0-0.5,0-0.7c0-1,0.2-2,0-3c0-0.2-0.1-0.5-0.2-0.6c-0.1-0.2-0.3-0.3-0.4-0.5c-0.2-0.4-0.3-0.8-0.5-1.3
			c-0.1-0.3-0.2-0.5-0.4-0.7c-0.2-0.4-0.3-0.8-0.5-1.3c-0.1-0.2-0.1-0.3-0.2-0.5c-0.1-0.1-0.3-0.3-0.3-0.5"/>
		<path id="XMLID_1236_" class="st0" d="M112.6,23.8c-0.1,0-0.2-0.1-0.2-0.1c-0.1-0.1-0.2-0.2-0.3-0.3c-0.2-0.1-0.3-0.3-0.4-0.4
			c-0.2-0.3-0.6-0.5-0.9-0.7c-0.2-0.1-0.4-0.2-0.6-0.3c-0.2-0.1-0.3-0.2-0.5-0.3c-0.2-0.1-0.4-0.2-0.5-0.3c-0.1-0.1-0.4-0.3-0.5-0.4
			c-0.1,0-0.3,0-0.4,0c-0.2,0-0.3-0.1-0.4-0.2c-0.1,0-0.2,0-0.3-0.1c-0.3-0.1-0.7-0.3-1-0.4c-0.5-0.2-1-0.3-1.5-0.5
			c-0.3-0.1-0.6-0.3-0.9-0.5c-0.2-0.1-0.4-0.3-0.6-0.3c-0.2,0-0.4,0-0.6,0c-0.2,0-0.4-0.1-0.5-0.1c-0.4,0-0.7,0-1.1,0
			c-0.3,0-0.6,0-0.9,0c-0.3,0-0.7,0-1,0.1c-0.2,0.1-0.4,0.2-0.6,0.3c-0.2,0.1-0.5,0.2-0.7,0.3c-0.1,0.1-0.2,0.2-0.3,0.3
			c-0.1,0.1-0.2,0.2-0.2,0.4c-0.1,0.4-0.2,0.7-0.1,1c0,0.2,0.1,0.3,0.2,0.5c0.1,0.2,0.2,0.4,0.3,0.6c0.1,0.1,0.2,0.2,0.3,0.4
			c0.1,0.1,0.3,0.2,0.4,0.4c0.4,0.5,0.7,1,1.1,1.5c0.2,0.2,0.4,0.3,0.6,0.4c0.2,0.1,0.3,0.2,0.4,0.3c0.1,0.1,0.2,0.2,0.4,0.3
			c0.2,0.1,0.4,0.1,0.5,0.2c-0.1,0-0.3,0-0.4,0c-0.1,0-0.2,0.1-0.3,0.2c-0.2,0.1-0.3,0.2-0.5,0.3c-0.3,0.1-0.6,0.3-0.9,0.5
			c-0.2,0.1-0.4,0.1-0.5,0.3c-0.2,0.1-0.2,0.3-0.4,0.4c-0.1,0.1-0.2,0.1-0.3,0.1c-0.1,0.1-0.1,0.2-0.2,0.3c-0.1,0.1-0.2,0.1-0.3,0.1
			c-0.1,0.1-0.2,0.2-0.3,0.2c-0.1,0.1-0.2,0.1-0.4,0.2c-0.1,0.1-0.2,0.2-0.3,0.3c-0.3,0.2-0.6,0.5-0.8,0.8c-0.2,0.3-0.1,0.5-0.1,0.8
			c0,0.4,0,0.8,0,1.1c0,0.4,0.2,0.6,0.5,0.8c0.1,0.1,0.2,0.2,0.3,0.3c0.1,0.1,0.2,0.2,0.4,0.3c0.2,0.1,0.4,0.3,0.7,0.4
			c0.5,0.2,1,0.5,1.4,0.8c0.3,0.2,0.6,0.3,0.9,0.3c0.2,0,0.2,0.1,0.4,0.1c0.2,0.1,0.4,0.1,0.6,0.1c0.8,0,1.6,0,2.3,0
			c0.2,0,0.2,0,0.3-0.1c0.2-0.1,0.3-0.1,0.5-0.1c0.3,0,0.6-0.2,1-0.3c0.2,0,0.3-0.1,0.4-0.1c0.1,0,0.1,0,0.1-0.1
			c0.2-0.1,0.4,0,0.6-0.1c0.3-0.1,0.6-0.2,0.9-0.4c0.2-0.1,0.4-0.2,0.6-0.3c0.1,0,0.1,0,0.1-0.1c0.1,0,0.1-0.1,0.2-0.1
			c0.1-0.1,0.2-0.1,0.3-0.2c0.1-0.1,0.3-0.1,0.4-0.2c0.3-0.1,0.6-0.2,0.9-0.3c0.1-0.1,0.3-0.1,0.4-0.2c0.2-0.1,0.3-0.3,0.5-0.4
			c0.1,0,0.2,0,0.2,0c0.1-0.1,0.2-0.1,0.3-0.3c0.2-0.2,0.3-0.2,0.5-0.4c0.2-0.1,0.2-0.2,0.4-0.3c0,0,0.2,0,0.2-0.1
			c0.1-0.1,0.1-0.2,0.2-0.1"/>
	</g>
	<g id="XMLID_1176_">
		<path id="XMLID_1237_" class="st0" d="M77.5,60.4c0.6,0,3.9-0.1,4.6-0.1c0.2,0,0.8,0.2,0.9,0.1c0.3,0,2.4,0.5,2.6,0.5
			c0.3,0,1,0.3,1.2,0.4c0.1,0.1,1,0.5,1.2,0.7c0.2,0.2,1,0.7,1.3,0.9c0.4,0.2,2.4,1.6,2.5,1.8c0.1,0.1,1.1,0.9,1.3,1
			c0.3,0.2,1,1.2,1.1,1.4c0.1,0.1,0.1,0.2,0.1,0.3c0.1,0.1,0.2,0.2,0.2,0.3c0,0.1,0,0.2,0.1,0.4c0.1,0.2,0.3,0.4,0.4,0.6
			c0.1,0.2,0.3,0.6,0.4,0.6"/>
		<path id="XMLID_1246_" class="st0" d="M74.9,61.1c0.2,0,1.1,0,1.2,0c0.2,0,1.3-0.6,1.5-0.7c0.4-0.3,0.8-0.6,1.1-1
			c0.2-0.2,0.3-0.4,0.4-0.6c0.1-0.1,0.2-0.4,0.3-0.5c0.1-0.2,0.2-1,0.3-1.2c0.1-0.2,0.6-1.1,0.8-1.3c0.1-0.1,0.5-1,0.6-1.2
			c0.1-0.1,0.1-0.3,0.2-0.4c0-0.1,0.1-0.1,0.2-0.2c0.1-0.2,0.2-0.5,0.3-0.8c0.1-0.2,0.3-0.5,0.3-0.7c0-0.1,0-0.1,0.1-0.2
			c0,0,0.1-0.1,0.1-0.1c0.1-0.1,0.2-0.3,0.4-0.4c0.1-0.1,0.2-0.2,0.2-0.3c0-0.1,0-0.1,0.1-0.2c0.1-0.1,0.2-0.3,0.3-0.4
			c-0.1,0-0.2,0.1-0.4,0.2c-0.1,0-0.2,0.1-0.3,0.1c-0.3,0.1-0.7,0.3-0.9,0.5c-0.1,0.1-0.1,0.2-0.1,0.3c0,0.1-0.1,0.1-0.2,0.2
			c-0.1,0.1-0.3,0.3-0.5,0.3c-0.3,0.1-0.6,0.2-0.9,0.3c-0.2,0.1-0.5,0.2-0.7,0.2c-0.3,0-0.6,0-0.8,0c-0.3,0-1-0.1-1.2-0.2
			c-0.1,0-0.3,0-0.4,0c-0.3,0-2.1,0.3-2.2,0.4c-0.1,0-0.7,0.2-0.9,0.3c-0.2,0.1-0.3,0.2-0.5,0.3c-0.3,0.2-0.5,0.4-0.7,0.7
			c-0.1,0.1-0.5,0.4-0.6,0.6c-0.1,0.2-0.2,0.4-0.4,0.6c-0.2,0.3-0.2,0.5-0.2,0.8c0,0.4,0,0.8,0,1.2c0,0.2,0,0.5,0,0.8
			c0,0.2,0.2,0.5,0.3,0.7"/>
		<path id="XMLID_1239_" class="st0" d="M71.6,55.5c-0.3-0.2-0.5-0.4-0.8-0.6c-0.1,0-0.2-0.1-0.3-0.1c-0.1,0-0.1,0-0.2,0
			c0,0,0-0.1-0.1-0.1c-0.1,0-0.2,0-0.2,0c-0.2,0-0.2-0.1-0.4-0.1c-0.2-0.1-0.4-0.1-0.6-0.1c-0.4,0-0.9,0-1.3,0c-0.1,0-0.2,0-0.2,0
			c-0.2,0-0.3,0.1-0.4,0.1c-0.1,0-0.2,0-0.3,0c-0.1,0.1-0.1,0.1-0.2,0.1c-0.1,0-0.2,0-0.3,0c-0.2,0-0.4,0.1-0.7,0.1
			c-0.2,0-0.5,0-0.7,0c-0.1,0-0.3,0-0.4,0c-0.1,0-0.2,0.1-0.3,0.1c-0.3,0-0.5,0-0.8,0c-0.5,0-0.9,0-1.4,0c-0.1,0-0.2-0.1-0.3-0.1
			c-0.1,0-0.2,0-0.3-0.1c-0.1,0-0.1-0.1-0.2-0.1c-0.1,0-0.2-0.1-0.3-0.1c0.2,0.1,0.3,0.3,0.4,0.5c0,0.1,0,0.2,0.1,0.3
			c0.1,0.1,0.2,0.1,0.3,0.2c0.2,0.2,0.2,0.5,0.3,0.7c0.1,0.2,0.2,0.4,0.3,0.6c0.2,0.5,0.5,0.9,0.7,1.4c0.1,0.3,0.3,0.4,0.5,0.7
			c0.1,0.2,0.3,0.3,0.4,0.5c0.1,0.1,0.1,0.1,0.2,0.2c0.1,0.1,0.2,0.2,0.3,0.4c0.1,0.2,0.3,0.3,0.4,0.4c0.1,0.1,0.3,0.2,0.5,0.3
			c0.2,0.1,0.4,0.3,0.7,0.4c0.1,0,0.2,0,0.3,0.1c0.1,0.1,0.1,0.1,0.2,0.2c0.2,0.1,0.4,0.2,0.7,0.2c0.2,0.1,0.4,0.2,0.7,0.2
			c0.3,0.1,1,0.1,1.2,0.2"/>
		<path id="XMLID_1240_" class="st0" d="M65.5,60.9c-0.4,0-0.8,0.2-1.2,0.3c-0.3,0.1-0.6,0.4-0.8,0.6c-0.1,0.1-0.3,0.2-0.4,0.4
			c-0.1,0.1-0.1,0.3-0.2,0.5c-0.2,0.2-0.4,0.4-0.7,0.6c-0.1,0.1-0.2,0.1-0.2,0.2c0,0.1,0,0.1,0,0.2c-0.1,0-0.1,0.1-0.2,0.1
			c-0.2,0.2-0.4,0.5-0.6,0.6c-0.1,0.1-0.2,0.1-0.2,0.1c-0.1,0.1-0.2,0.1-0.3,0.2c-0.2,0.1-0.4,0.2-0.5,0.4c-0.1,0.1-0.2,0.4-0.4,0.5
			c-0.1,0-0.1,0-0.2,0c-0.1,0-0.1,0.1-0.1,0.1c0,0-0.1,0.1-0.2,0.1c-0.2,0.1-0.4,0.2-0.6,0.3c-0.1,0.1-0.2,0.1-0.2,0.2
			c-0.1,0.1-0.2,0.1-0.3,0.1c-0.3,0.1-0.5,0.3-0.8,0.3c0,0.2,0.4,0.1,0.6,0.2c0.3,0.1,0.6,0.2,0.9,0.2c0.3,0,0.5,0.1,0.8,0.2
			c0.1,0,0.2,0,0.2,0.1c0.1,0,0.2,0.1,0.2,0.1c0.1,0,0.2,0,0.3,0c0.7,0.1,1.4,0.5,2.1,0.6c0.3,0.1,0.7,0.1,1,0.2
			c0.3,0.1,0.6,0.2,0.9,0.2c0.7,0,1.5,0,2.2,0c0.3,0,0.8-0.1,1-0.4c0.2-0.2,0.3-0.3,0.5-0.4c0.2-0.2,0.3-0.3,0.6-0.4
			c0.2-0.1,0.3-0.4,0.5-0.6c0.1-0.1,0.2-0.1,0.2-0.2c0-0.1,0.1-0.1,0.1-0.2c0.1-0.1,0.3-0.3,0.2-0.4"/>
		<path id="XMLID_1241_" class="st0" d="M69.6,66.4c0,0.1,0,0.3-0.1,0.5c-0.1,0.2-0.2,0.3-0.3,0.5c-0.1,0.1-0.2,0.2-0.3,0.2
			c-0.1,0.1-0.1,0.2-0.2,0.3c-0.2,0.3-0.2,0.6-0.3,0.9c0,0.2,0,0.4,0,0.6c-0.1,0.3-0.2,0.9,0,1.3c0.1,0.2,0.2,0.4,0.3,0.5
			c0.1,0.2,0.3,0.4,0.4,0.5c0.2,0.2,0.3,0.5,0.5,0.7c0.1,0.2,0.4,0.5,0.6,0.7c0.3,0.2,0.5,0.4,0.8,0.6c0.3,0.1,0.4,0.4,0.6,0.5
			c0.1,0.1,0.3,0.1,0.4,0.2c0.1,0.1,0.1,0.1,0.2,0.2c0.1,0.1,0.2,0.1,0.3,0.2c0,0,0.1,0,0.1,0c0.1,0.1,0.1,0.1,0.2,0.2
			c0.2,0.1,0.5,0,0.6,0.2c-0.1-0.3-0.3-0.6-0.4-0.9c0-0.2,0-0.4,0-0.7c0-0.3-0.1-0.6,0.1-0.8c0.2-0.3,0.3-0.6,0.6-0.9
			c0.3-0.3,0.5-0.6,0.9-0.8c0.1,0,0.2,0,0.3-0.1c0.1-0.1,0.1-0.1,0.2-0.2c0.1-0.1,0.2-0.1,0.3-0.2c0.1,0,0.1-0.1,0.2-0.2
			c0.1-0.1,0.2-0.1,0.2-0.2c0-0.1,0.1-0.2,0.1-0.2c0.1-0.2,0.3-0.3,0.3-0.4c0.1-0.2,0-0.4,0.1-0.7c0-0.1,0.1-0.2,0.1-0.4
			c0-0.1,0-0.3,0-0.4c0-0.4,0-0.7-0.2-1c-0.1-0.2-0.1-0.2-0.2-0.4c0-0.1-0.1-0.2-0.1-0.2c-0.1-0.2-0.1-0.3-0.3-0.4
			c-0.1-0.1-0.2-0.2-0.3-0.3c-0.1-0.1-0.2-0.1-0.2-0.2c0,0-0.1-0.1-0.1-0.1c-0.1,0-0.1,0-0.2-0.1"/>
		<path id="XMLID_1242_" class="st0" d="M75.9,61.1c0.6,0,1.3,0,1.9,0c0.3,0,0.6,0.1,0.9,0.2c0.1,0,0.3,0,0.3,0
			c0.1,0,0.2,0.2,0.3,0.2c0.2,0.1,0.4,0.2,0.6,0.3c0.2,0.1,0.3,0.2,0.4,0.3c0.2,0.1,0.4,0.1,0.6,0.3c0.1,0.1,0.1,0.1,0.2,0.2
			c0.1,0,0.2,0,0.2,0.1c0,0,0.1,0.1,0.1,0.1c0.1,0.1,0.4,0.2,0.5,0.4c0.1,0.1,0.1,0.2,0.2,0.3c0.1,0.1,0.2,0.2,0.3,0.3
			c0.1,0.1,0.2,0.2,0.3,0.4c0.1,0.1,0.2,0.1,0.2,0.2c0.2,0.2,0.2,0.4,0.4,0.5c0.1,0.1,0.2,0.2,0.3,0.3c0.1,0.1,0.2,0.1,0.3,0.2
			c0.1,0.2,0.3,0.3,0.5,0.4c0.1,0.1,0.1,0.1,0.1,0.1c0.1,0.1,0.1,0.1,0.2,0.2c0.1,0.1,0.3,0.3,0.4,0.4c0.1,0.1,0.5,0.1,0.5,0.2
			c-0.2,0.1-0.6,0-0.8,0c-0.2,0-0.3,0.1-0.4,0.1c-0.2,0-0.4,0-0.6,0c-0.5,0.1-0.9,0.3-1.4,0.4c-0.3,0-0.6,0.1-0.9,0.1
			c-0.3,0-0.6,0.1-0.8,0.1c-0.3,0-0.7,0.1-1,0.2c-0.2,0.1-0.4,0.1-0.5,0.1c-0.3,0-0.6,0-0.9,0c-0.2,0-0.3,0.1-0.5,0.1
			c-0.1,0-0.3,0-0.4,0c-0.2,0-1,0.1-0.9-0.2"/>
		<path id="XMLID_1243_" class="st0" d="M70.7,60.3c0,0.1,0,0.1,0,0.2c0,0.1,0,0.1,0,0.2c0,0.1,0,0.2-0.1,0.3c0,0.1-0.1,0.1-0.1,0.2
			c-0.1,0.1-0.1,0.2-0.1,0.3c0,0.1,0,0.2,0,0.2c0,0.1-0.1,0.1-0.1,0.2c0,0.1-0.1,0.2-0.1,0.2C70,62.2,70,62.3,70,62.4
			c0,0.1-0.1,0.2-0.1,0.3c0,0,0,0.1-0.1,0.1c0,0-0.1,0.1-0.1,0.1c-0.1,0.2-0.2,0.4-0.2,0.6c0,0.1,0,0.2-0.1,0.3c0,0.1,0,0.2-0.1,0.3
			c0,0,0,0.1,0,0.2c0,0.1,0,0.1-0.1,0.2c0,0.1,0,0.1,0,0.2c0,0.1,0,0.2,0,0.2c0,0.1,0,0.1,0,0.2c0,0.1,0,0.1-0.1,0.2
			c0,0.1-0.1,0.2-0.1,0.3c0,0.1-0.1,0.2-0.1,0.2c0,0,0,0.1,0,0.1c0,0.1-0.1,0.1-0.1,0.2c0.1-0.1,0.2-0.2,0.3-0.2c0,0,0.1,0,0.1-0.1
			c0.1,0,0.1-0.1,0.1-0.2c0,0,0.1-0.1,0.1-0.1c0.1-0.1,0.3-0.2,0.4-0.3c0.1-0.1,0.1-0.1,0.2-0.2c0.1-0.1,0.2-0.2,0.4-0.3
			c0.1-0.1,0.1-0.1,0.2-0.1c0,0,0.1-0.1,0.1-0.1c0,0,0.1,0,0.1,0c0,0,0.1-0.1,0.1-0.1c0.1-0.1,0.3-0.2,0.4-0.2
			c0.1-0.1,0.2-0.1,0.4-0.1c0.1,0,0.2,0,0.3-0.1c0.1-0.1,0.2-0.2,0.3-0.3c0.1,0,0.2-0.1,0.2-0.1c0,0,0.1,0,0.1,0c0,0,0,0,0,0
			c0,0,0.1,0,0.1,0c0.1,0,0.2-0.1,0.3-0.1c0.1,0,0.1,0,0.2-0.1c0,0,0.1,0,0.1,0c0,0,0.1,0,0.1-0.1"/>
		<path id="XMLID_1244_" class="st0" d="M71.8,61.8c0,0.2-0.1,0.3-0.2,0.4c-0.1,0.1-0.1,0.2-0.2,0.3c-0.1,0.1-0.2,0.1-0.3,0.2
			c-0.1,0.1-0.1,0.1-0.2,0.2c-0.1,0.1-0.1,0.2-0.2,0.2c0,0.1-0.1,0.1-0.1,0.2c0,0,0,0.1,0,0.1c0,0.1-0.1,0.1-0.2,0.1
			c0,0-0.1,0.1-0.1,0.1c-0.1,0.2-0.3,0.3-0.4,0.5c-0.1,0.1-0.2,0.3-0.3,0.5c-0.1,0.1-0.1,0.2-0.2,0.4c-0.1,0.1-0.2,0.3-0.2,0.4"/>
		<path id="XMLID_1245_" class="st0" d="M68.7,62.4c0-0.2,0.2-1,0.2-1.2c0-0.1,0-0.2,0.1-0.3c0.1-0.1,0.2-0.1,0.3-0.2
			c0,0,0.1-0.1,0.1-0.2c0,0,0-0.1,0-0.2c0-0.1,0.1-0.1,0.1-0.2c0.3-0.3,0.6-0.2,1-0.2c0.2,0,0.2-0.1,0.3-0.2c0,0,0.1-0.1,0.1-0.1
			c0,0,0.1-0.1,0.1-0.1c0.1-0.1,0.2-0.1,0.3-0.2c0.1-0.1,0.1-0.1,0.3-0.1c0.1,0,0.3,0,0.4,0c0.2,0,0.3,0.1,0.5,0.2
			c0.1,0.1,0.3,0.1,0.3,0.2c0,0,0,0.1,0.1,0.1c0,0,0.1,0.1,0.1,0.1c0.1,0.1,0.2,0.1,0.2,0.2c0.1,0.1,0.1,0.2,0.2,0.2
			c0.1,0.1,0.2,0.2,0.3,0.3c0,0,0.1,0.1,0.1,0.1c0.1,0,0.1,0.1,0.2,0.1c0,0,0.1,0,0.1,0.1c0.1,0,0.1,0.1,0.2,0.1c0,0,0.1,0,0.1,0.1
			c0,0,0.1,0.1,0.1,0.2c0,0.1,0.1,0.2,0.1,0.3c0,0.1,0,0.1,0,0.2c0,0.1,0,0.1,0,0.1c0.1,0.2,0.1,0.4,0.1,0.6c0,0.1,0.1,0.2,0.1,0.2
			c0,0.1,0,0.1,0,0.2c0,0.1,0,0.2-0.1,0.3c-0.1,0.1-0.1,0.2-0.1,0.4c0,0.1-0.1,0.2-0.1,0.3c0,0,0,0.1-0.1,0.1
			c-0.1,0.1-0.1,0.1-0.2,0.2c-0.1,0.1-0.1,0.2-0.1,0.2c0,0.1-0.1,0.1-0.1,0.2c0,0-0.1,0.1-0.1,0.1c0,0.1-0.1,0.1-0.1,0.1
			c-0.1,0-0.1,0.1-0.2,0.1c-0.1,0.1-0.2,0.1-0.4,0.1c-0.2,0.1-0.3,0.1-0.4,0.2c-0.1,0.1-0.2,0.1-0.3,0.1c-0.1,0-0.1,0.1-0.2,0.1
			c0,0-0.1,0-0.1,0c0,0-0.1,0-0.1,0c-0.1,0-0.2,0-0.3,0c-0.1,0-0.2,0-0.4,0c-0.1,0-0.2,0-0.2,0c-0.1,0-0.2,0-0.2,0"/>
	</g>
	<g id="XMLID_1175_">
		<path id="XMLID_651_" class="st0" d="M29.4,21c-0.3,0-0.7,0-1,0c-0.2,0-0.2,0.1-0.4,0.3c-0.1,0.1-0.2,0.2-0.3,0.3
			c-0.1,0.1-0.2,0.4-0.2,0.5c0,0.1-0.1,0.4,0,0.6c0,0.1,0.1,0.4,0.2,0.5c0.1,0.1,0.1,0,0.2,0.2c0,0.1,0.1,0.2,0.2,0.2
			c0,0,0.1,0,0.2,0.1c0.1,0.1,0.1,0.2,0.2,0.3c0.1,0,0.2,0.1,0.3,0.1c0.1,0,0.1,0.1,0.2,0.1c0.4,0.1,0.7-0.2,0.9-0.5
			c0.1-0.3,0.3-0.6,0.4-0.8c0.1-0.2,0.1-0.6,0.1-0.8C30.2,21.6,29.9,21.4,29.4,21z"/>
		<path id="XMLID_687_" class="st0" d="M33.2,23c0-0.1-0.2-0.1-0.3-0.2c-0.1,0-0.1-0.1-0.2-0.1c0,0-0.1-0.1-0.1-0.1
			c-0.1,0-0.1,0-0.2,0c-0.1,0-0.1,0-0.2,0c-0.1,0-0.1,0-0.2,0c-0.1,0-0.1,0-0.2-0.1c-0.1,0-0.3,0-0.4,0c-0.1,0-0.1,0-0.2,0
			c-0.1,0-0.2,0-0.2,0.1c0,0,0,0.1-0.1,0.1c-0.1,0-0.1,0.1-0.1,0.1c0,0.1-0.1,0.1-0.2,0.1c0,0.1-0.1,0.1-0.1,0.2
			c-0.1,0.1-0.1,0.2-0.1,0.3c0,0.2,0,0.4,0,0.5c0,0.2,0.1,0.3,0.2,0.4c0.1,0,0.1,0.1,0.2,0.1c0,0,0.1,0,0.1,0c0.1,0,0.1,0.1,0.2,0.1
			c0.4,0.1,0.8,0,1.1,0c0.3,0,0.5,0,0.7-0.2c0,0,0,0,0,0c0,0,0.1-0.1,0.1-0.1c0,0,0.1-0.1,0.1-0.1c0-0.1,0-0.1,0.1-0.2
			c0-0.1,0-0.1,0-0.2c0-0.1,0-0.2-0.1-0.3C33.4,23.4,33.4,23.3,33.2,23z"/>
		<path id="XMLID_688_" class="st0" d="M30,25.4c-0.1,0-0.2,0-0.4,0c-0.1,0-0.1,0-0.2,0c-0.1,0-0.1,0-0.2,0.1c0,0-0.1,0.1-0.1,0.1
			c0,0-0.1,0-0.1,0c0,0,0,0-0.1,0.1c0,0-0.1,0-0.1,0.1c-0.1,0.1-0.1,0.1-0.2,0.2c-0.1,0.1-0.1,0.3-0.2,0.4c0,0.1,0,0.1,0,0.2
			c0,0.1-0.1,0.1-0.1,0.2c0,0.4,0.3,0.5,0.6,0.6c0.1,0,0.1,0,0.2,0.1c0.1,0,0.1,0,0.2,0c0.1,0,0.1,0,0.2,0.1c0,0,0.1,0,0.1,0.1
			c0.1,0,0.1,0.1,0.1,0.1c0.1,0,0.1,0,0.1,0.1c0.1,0,0.2,0,0.3,0c0.1,0,0.1,0.1,0.1,0.1c0.1,0,0.2,0,0.2,0c0.1,0,0.2,0,0.3,0
			c0,0,0.1,0,0.1,0c0,0,0,0,0,0c0,0,0,0,0.1,0c0.1,0,0.1-0.1,0.2-0.2c0-0.1,0-0.2,0-0.3c0-0.1,0.1-0.3,0.2-0.4
			c0.1-0.1,0.2-0.2,0.2-0.4c0-0.2,0-0.3-0.1-0.5c-0.1-0.1-0.1-0.1-0.2-0.2c0-0.1-0.1-0.1-0.2-0.1c0,0-0.1-0.1-0.1-0.1
			c-0.1,0-0.1-0.1-0.2-0.1c-0.1,0-0.1,0-0.2-0.1C30.7,25.4,30.6,25.4,30,25.4z"/>
		<path id="XMLID_689_" class="st0" d="M27.7,24c0-0.1-0.1-0.1-0.2-0.1c0,0-0.1,0-0.1-0.1c0,0-0.1-0.1-0.1-0.1c0,0-0.1,0-0.2-0.1
			c-0.1,0-0.1,0-0.2,0c-0.1,0-0.1,0-0.2,0c-0.1,0-0.3,0-0.4,0c-0.1,0-0.2,0-0.4,0c-0.1,0-0.1,0-0.2,0.1c-0.1,0-0.1,0.1-0.1,0.1
			c0,0.1-0.1,0.2-0.1,0.3c0,0,0,0.1,0,0.1c0,0,0,0.1,0,0.1c0,0,0,0.1,0,0.1c0,0.1,0,0.1,0,0.2c0,0.1,0,0.3,0,0.4
			c0,0.1,0,0.1,0.1,0.2c0,0.1,0,0.1,0,0.2c0,0.1,0.1,0.1,0.1,0.1c0.1,0.1,0.1,0.1,0.1,0.2c0,0,0,0,0.1,0c0.1,0,0.1,0,0.1,0.1
			c0.1,0.1,0.3,0.1,0.5,0.2c0.1,0.1,0.3,0.1,0.4,0.1c0.2,0,0.2,0,0.4-0.1c0,0,0.1-0.1,0.1-0.1c0,0,0.1-0.1,0.1-0.1
			c0,0,0.1-0.1,0.1-0.1c0.1,0,0.1-0.1,0.1-0.1c0,0,0-0.1,0-0.1c0,0,0.1-0.1,0.1-0.1c0,0,0,0,0-0.1c0,0,0-0.1,0.1-0.1
			c0-0.1,0-0.1,0-0.2c0-0.1,0-0.1,0-0.2c0-0.1,0-0.1,0-0.2c0,0,0,0,0,0c0,0,0-0.1,0-0.1c0,0-0.1-0.1-0.1-0.1
			C28,24.4,27.9,24.3,27.7,24z"/>
		<path id="XMLID_690_" class="st0" d="M33.6,23c0.1,0,0.3,0,0.4,0c0.1,0,0.2-0.1,0.3-0.2c0.1-0.1,0.3-0.2,0.5-0.3
			c0.1-0.1,0.1-0.1,0.2-0.2c0.1,0,0.1-0.1,0.1-0.1c0.1-0.1,0.3-0.2,0.4-0.3c0.1,0,0.1,0,0.2-0.1c0.1-0.1,0.2-0.2,0.3-0.2
			c0.2-0.1,0.3-0.1,0.5-0.3c0,0,0.1-0.1,0.1-0.2c0,0,0.1,0,0.2,0c0.2-0.1,0.3-0.3,0.5-0.4c0.5-0.2,0.9-0.5,1.4-0.8
			c0.3-0.2,0.6-0.3,0.9-0.4c0.3-0.1,0.5-0.3,0.7-0.5c0.3-0.3,0.7-0.4,1-0.6c0.1-0.1,0.2-0.2,0.3-0.3c0.1-0.1,0.3-0.1,0.4-0.2
			c0.2-0.2,0.4-0.1,0.6-0.3c0.2-0.1,0.2-0.3,0.4-0.4c0.2-0.1,0.4,0,0.6-0.1c0.2-0.1,0.5,0,0.7-0.1c0.1,0,0.1-0.1,0.1-0.2
			c0.1-0.1,0.3-0.1,0.4-0.2c0.2-0.1,0.4-0.2,0.5-0.3c0.1,0,0.2,0,0.3-0.1c0.1,0,0.2-0.1,0.3-0.2c0.2-0.1,0.4-0.2,0.6-0.1
			c0.1,0.2-0.2,0.5-0.3,0.6c-0.1,0.1-0.3,0.3-0.4,0.5c-0.1,0.1-0.3,0.3-0.3,0.5c0,0.1,0,0.2-0.1,0.3c0,0.1-0.1,0.2-0.2,0.3
			c0.1,0.1,0.3-0.1,0.5-0.1c0.1,0,0.2-0.1,0.4-0.1c0.3-0.1,0.6-0.2,0.8-0.3c0.2-0.1,0.5-0.3,0.7-0.4c0.2-0.1,0.3-0.1,0.5-0.1
			c0.2,0,0.4-0.1,0.6-0.1c-0.2,0.5-0.9,0.6-1,1.2c-0.2,0.1-0.6,0.4-0.6,0.6c0.4,0,0.7-0.3,1.1-0.3c0.3,0,0.7-0.2,1-0.3
			c0.1,0,0.2-0.1,0.2-0.2c0.1,0,0.1,0,0.2,0c0.1,0,0.1-0.1,0.2-0.1c0.2-0.1,0.5-0.1,0.7-0.1c0,0.1-0.4,0.4-0.5,0.5
			c-0.2,0.2-0.3,0.3-0.5,0.5c-0.2,0.2-0.6,0.5-0.5,0.8c0.2,0.1,0.5,0,0.7,0c0.2,0,0.4,0,0.6,0c0.2,0,0.5,0,0.7,0
			c0.2,0,0.4-0.1,0.6-0.2c0.1,0,0.2-0.1,0.2-0.1c0.1,0,0.2,0,0.3,0c-0.3,0.3-0.5,0.5-0.8,0.7c-0.1,0.1-0.2,0.1-0.4,0.1
			c-0.2,0.1-0.2,0.3-0.3,0.4c-0.1,0.1-0.2,0.2-0.3,0.2c0.3,0.1,0.7,0,1.1,0c0.2,0,0.4,0,0.5,0c0.2,0,0.3,0,0.5,0
			c0.2,0,0.3,0.1,0.5,0.1c0,0.2-0.6,0.3-0.8,0.4c-0.1,0.1-0.2,0.3-0.3,0.5c-0.2,0.2-0.4,0.4-0.6,0.5c-0.1,0.1-0.5,0.4-0.5,0.5
			c0.6,0.1,1.2,0.2,1.9,0.2c0.4,0,0.7-0.1,1.1-0.1c0.2,0,0.4,0,0.6,0c0.1,0.2-0.4,0.3-0.5,0.5c-0.2,0.2-0.3,0.3-0.5,0.4
			c-0.1,0.1-0.3,0.1-0.4,0.1c-0.1,0.1-0.3,0.2-0.4,0.2c-0.2,0.1-0.4,0.1-0.5,0.3c0,0.2,0.3,0.3,0.4,0.4c0.1,0.1,0.2,0.2,0.3,0.2
			c0.2,0.1,0.3,0.2,0.5,0.2c-0.2,0.2-0.6,0.3-0.9,0.4c-0.3,0.1-0.6,0.2-0.8,0.2c-0.2,0-0.4,0.1-0.6,0.1c-0.2,0-0.6-0.1-0.8,0.1
			c0.1,0.4,0.4,0.6,0.7,0.9c0.1,0.1,0.2,0.2,0.3,0.3c0.1,0.1,0.2,0.1,0.3,0.3c0.1,0.2,0.3,0.3,0.4,0.5c0.1,0.2-0.1,0.2-0.4,0.2
			c-0.7,0-1.4,0-2.1,0.1c-0.3,0.1-0.7,0-1,0c-0.3,0-0.5,0-0.8,0c0.1,0.1,0.2,0.2,0.3,0.3c0.2,0.2,0.4,0.4,0.6,0.6
			c0.1,0.1,0.2,0.2,0.3,0.3c0.2,0.1,0.3,0.2,0.5,0.2c-0.1,0.1-0.5,0.1-0.6,0.1c-0.3,0-0.5,0.1-0.8,0.1c-0.5,0-0.9,0-1.4,0
			c-0.5,0-1.1,0-1.6,0c0.2,0.1,0.3,0.3,0.5,0.5c0.1,0.1,0.2,0.1,0.2,0.1c0,0,0.1,0.2,0.1,0.2c0.1,0.1,0.2,0.3,0.3,0.4
			c0.1,0.1,0.1,0.1,0.1,0.2c0.1,0.1,0,0.2,0.1,0.3c-0.2,0.3-0.7,0.1-1,0.1c-0.2,0-0.3,0-0.5-0.1c-0.3-0.2-0.6-0.3-0.9-0.5
			c-0.3-0.2-0.7-0.3-1-0.5c-0.4-0.2-0.6-0.4-1.1-0.5c-0.4-0.1-0.7-0.1-1-0.1c-0.3,0-0.7,0.1-1-0.1c-0.3-0.1-0.6-0.4-0.9-0.5
			c-0.3,0-0.5-0.2-0.7-0.4c-0.2-0.3-0.5-0.4-0.8-0.6c-0.2-0.1-0.3-0.2-0.4-0.2c-0.2-0.1-0.4-0.1-0.6-0.3c-0.1-0.1-0.1-0.1-0.3-0.2
			c-0.1-0.1-0.3-0.2-0.4-0.2c-0.2-0.1-0.5-0.1-0.7-0.2c-0.2-0.1-0.4-0.2-0.6-0.2c-0.2,0-0.4-0.1-0.6-0.1c-0.5-0.1-0.9-0.2-1.4-0.4
			c0,0,0,0,0-0.1"/>
		<path id="XMLID_691_" class="st0" d="M34.6,24.4C34.6,24.4,34.6,24.4,34.6,24.4c0.3,0,0.6,0,0.9-0.1c0.3,0,0.5-0.3,0.7-0.3
			c0.1,0,0.3,0,0.4,0c0.1,0,0.2-0.1,0.3-0.1c0.2-0.1,0.5-0.1,0.7-0.1c0.6,0,1.2,0,1.9,0c0.6,0,1.1,0.2,1.7,0.2c0.1,0,0.3,0,0.4,0
			c0.2,0,0.3,0.1,0.4,0.2c0.4,0.1,0.7,0.1,1.1,0.1c0.5,0,1.1,0.1,1.6,0c0.2,0,0.4-0.1,0.6-0.1c0.2,0,0.4,0,0.6,0c0.4,0,0.8,0,1.2,0"
			/>
		<path id="XMLID_692_" class="st0" d="M39.2,29.7c0,0.1,0.2,0.2,0.3,0.3c0.1,0.1,0.1,0.2,0.2,0.3c0.1,0.1,0.3,0.2,0.3,0.3
			c0.1,0.1,0.1,0.2,0.1,0.3c0.1,0.1,0.1,0.1,0.2,0.2c0.1,0.1,0.1,0.2,0.3,0.2c0.5,0.3,0.9,0.9,1.3,1.3c0.2,0.2,0.4,0.3,0.7,0.5
			c0.1,0,0.2,0.1,0.2,0.1c0.1,0,0.1,0.1,0.1,0.1c0.1,0.1,0.2,0,0.2,0.1c0.1,0.1,0.1,0.1,0.1,0.2c0.1,0.1,0.2,0.1,0.3,0.2
			c0.1,0.1,0.2,0.1,0.2,0.2c0.2,0.2,0.4,0.4,0.5,0.6c-0.1,0.1-0.1,0.1-0.2,0.1c-0.1,0-0.3,0.1-0.4,0.2c-0.1,0-0.2,0.1-0.3,0.1
			c-0.2,0-0.4,0.1-0.6,0.1c-0.2,0-0.1,0-0.2,0.2c0,0.2,0.1,0.3,0.2,0.4c0.1,0.1,0.1,0.3,0.2,0.4c0.1,0.1,0.2,0.1,0.2,0.2
			c-0.3,0.1-0.8,0-1.2,0c-0.2,0-0.8-0.1-0.7,0.2c0.1,0.3,0.5,0.5,0.7,0.8c0.1,0.2,0.2,0.5,0.3,0.6c-0.1,0.2-0.8,0.1-1,0.1
			c-0.2,0-0.3,0-0.5,0c-0.1,0-0.2-0.1-0.3-0.1c0.1,0.1,0.2,0.3,0.3,0.5c0.1,0.2,0.2,0.4,0.2,0.6c0.1,0.2,0.1,0.4,0.2,0.6
			c0.1,0.2,0.1,0.4,0.2,0.6c-0.2,0.2-0.7-0.3-0.9-0.4c-0.3-0.1-0.5-0.3-0.8-0.4c-0.3-0.1-0.5-0.2-0.8-0.4c-0.2-0.1-0.4-0.1-0.6-0.2
			c-0.1,0-0.3-0.3-0.4-0.1c0,0,0.1,0.1,0.1,0.1c0,0.1,0,0.2,0,0.2c0,0.2,0.1,0.4,0.1,0.6c0,0.3,0,0.5,0.1,0.8c0,0.1,0.1,0.3,0.2,0.4
			c0,0.1,0,0.2,0.1,0.3c0.1,0.1,0.1,0.1,0.1,0.3c0,0.1,0.1,0.3,0.1,0.4c-0.1,0-0.2-0.1-0.3-0.2c-0.1,0-0.1,0-0.2-0.1
			c-0.2-0.1-0.3-0.3-0.5-0.4c-0.3-0.1-0.6-0.1-0.9-0.3c-0.2,0.2-0.1,0.7-0.1,1c0,0.2,0,0.3-0.1,0.5c0,0.2,0,0.3,0,0.5
			c0,0.2,0,0.3-0.2,0.3c-0.1,0-0.2-0.2-0.3-0.2c-0.1,0-0.2-0.1-0.3-0.1c-0.1,0-0.1-0.1-0.2-0.2c-0.1-0.1-0.2-0.1-0.3-0.2
			c-0.2-0.1-0.4-0.2-0.6-0.2c-0.2-0.1-0.3-0.2-0.5-0.3c-0.1,0.2,0,0.7,0,0.9c0,0.3,0,0.7,0,1c0,0.3,0,0.6,0,0.9c0,0.3,0,0.7,0.1,0.9
			c-0.1-0.2-0.3-0.4-0.5-0.6c-0.1-0.1-0.2-0.2-0.3-0.3c-0.2-0.3-0.5-0.4-0.8-0.7c-0.1-0.2-0.3-0.3-0.4-0.5c-0.2-0.2-0.3-0.4-0.4-0.6
			c-0.1-0.1-0.1-0.2-0.2-0.2c-0.1,0.2,0,0.4,0,0.6c0,0.1-0.1,0.2-0.1,0.4c0,0.2,0,0.3,0,0.5c0,0.2-0.2,0.4-0.2,0.6
			c-0.2,0.5-0.3,1-0.5,1.4c-0.1-0.3-0.3-0.5-0.4-0.7c-0.1-0.2-0.2-0.3-0.3-0.5c-0.1-0.2-0.2-0.2-0.3-0.4c-0.2-0.4-0.4-0.9-0.7-1.2
			c-0.1-0.1-0.2-0.1-0.2-0.3c0-0.1-0.1-0.1-0.1-0.2c0,0-0.1-0.1-0.1-0.1c0,0.1,0,0.2,0,0.4c0,0.2-0.1,0.3-0.1,0.4
			c-0.1,0.2-0.2,0.3-0.4,0.4c-0.1,0.1-0.2,0.3-0.3,0.4c-0.1,0.1-0.1,0.3-0.3,0.3c-0.1-0.2-0.1-0.5-0.2-0.7c-0.1-0.3-0.1-0.6-0.1-0.9
			c-0.1-0.4-0.2-0.8-0.4-1.1c-0.1-0.2-0.2-0.8-0.6-0.7c-0.2,0.1-0.4,0.4-0.5,0.6c-0.1,0.2-0.2,0.3-0.4,0.4c-0.1,0-0.2,0-0.2,0.1
			c-0.1,0.1-0.1,0.2-0.1,0.2c-0.2,0-0.2-0.5-0.2-0.6c0-0.2,0.1-0.4,0.2-0.6c0-0.2,0.1-0.4,0.2-0.6c0-0.1,0.1-0.2,0.1-0.3
			c0.1-0.2,0-0.3,0.1-0.5c0.2-0.8,0.7-1.5,0.9-2.4c0.1-0.4,0.1-0.8,0.2-1.3c0.1-0.4,0.1-0.7,0.2-1.1c0.1-0.3,0.3-0.5,0.4-0.8
			c0.1-0.4,0.3-0.8,0.4-1.2c0.2-0.4,0.2-0.9,0.4-1.3c0.1-0.2,0.1-0.3,0.2-0.6c0-0.2,0.1-0.3,0.1-0.5c0.1-0.3,0.2-0.6,0.2-0.9
			c0-0.3,0.2-0.5,0.2-0.8c0-0.2,0-0.5,0-0.7c0-0.2,0.1-0.3,0.1-0.5"/>
		<path id="XMLID_693_" class="st0" d="M25.8,25.8c-0.4,0-0.9,0-1.3,0c-0.2,0-0.5,0-0.7,0c-0.2,0.1-0.4,0.1-0.5,0.2
			c-0.1,0-0.3,0-0.4,0.1c-0.1,0-0.2,0.1-0.3,0.1c-0.2,0.1-0.6,0-0.8,0c-0.3,0-0.6,0-0.9,0c-0.7,0-1.3,0-2,0c-0.6,0-0.9,0.4-1.4,0.5
			c-0.2,0-0.3,0-0.5,0.1c-0.1,0.1-0.3,0.2-0.4,0.3c-0.2,0.1-0.3,0.2-0.5,0.2c-0.2,0-0.3,0.1-0.5,0.2c-0.2,0.1-0.5,0.1-0.7,0.2
			c-0.3,0.1-0.5,0.1-0.8,0.2c-0.4,0.1-0.9-0.1-1.2,0.1c-0.1,0.1-0.3,0.1-0.4,0.2c-0.1,0-0.1,0.1-0.2,0.1c-0.1,0.1-0.4,0.1-0.5,0.2
			c0.2,0.1,0.4,0.1,0.5,0.2c0.2,0.1,0.4,0.1,0.5,0.1c-0.2,0.2-0.5,0.4-0.8,0.5c-0.1,0.1-0.3,0.2-0.4,0.3c-0.1,0.1-0.3,0.1-0.4,0.2
			c-0.1,0.1-0.2,0.2-0.3,0.3c-0.1,0.1-0.3,0.2-0.5,0.3c-0.2,0.1-0.3,0.2-0.4,0.3c0.2,0,0.4,0.1,0.6,0.2c0.1,0.1,0.3,0.1,0.5,0.2
			c0.2,0.1,0.6,0.1,0.3,0.3c-0.2,0.1-0.3,0.1-0.4,0.3c-0.1,0.1-0.2,0.2-0.3,0.3c-0.1,0.1-0.3,0.2-0.4,0.3c-0.1,0.1-0.2,0.1-0.3,0.2
			c-0.1,0.1-0.1,0.2-0.2,0.3c0,0-0.1,0.1-0.2,0.1c0,0-0.1,0.1-0.1,0.1c0,0-0.1,0-0.1,0c0,0-0.1,0.1-0.1,0.1c-0.1,0-0.2,0.1-0.2,0.1
			c0,0-0.1,0.1-0.1,0.1c-0.1,0.1-0.1,0-0.2,0.1c0.1,0.3,0.5,0.2,0.7,0.3c0.1,0.1,0.2,0.2,0.4,0.2c0.1,0,0.2,0,0.3,0
			c0.1,0,0.2,0.1,0.4,0.2c0.1,0,0.2,0.1,0.3,0.1c0.1,0,0.2,0,0.2,0c0,0.2-0.2,0.5-0.3,0.6c-0.1,0.2-0.3,0.2-0.5,0.5
			c-0.2,0.3-0.5,0.5-0.7,0.8c-0.2,0.2-0.4,0.3-0.6,0.5c-0.1,0.1-0.3,0.4-0.4,0.6C8.7,37.1,9,37,9.2,37c0.2,0,0.5,0,0.7,0
			c-0.3,0.3-0.6,0.5-1,0.7c-0.3,0.2-0.5,0.4-0.8,0.5c-0.2,0.1-0.3,0.2-0.4,0.3c-0.1,0.1-0.2,0.2-0.3,0.3c-0.1,0.1-0.2,0-0.2,0.2
			c0.2,0.1,0.5,0,0.7,0c0.3,0,0.6-0.1,0.8-0.2c0.2-0.1,0.4-0.2,0.6-0.2c0.1,0,0.2-0.2,0.3,0c0,0.1-0.1,0.2-0.2,0.3
			c-0.1,0.1-0.2,0.2-0.3,0.3c-0.1,0.1-0.2,0.3-0.3,0.4c-0.1,0.1-0.2,0.1-0.2,0.2c0,0.1,0,0.2-0.1,0.2c-0.1,0.2-0.2,0.4-0.4,0.6
			c0.1,0,0.2-0.1,0.3-0.1c0.1-0.1,0.2-0.1,0.4-0.1C9,40.2,9.2,40.1,9.5,40c0.5-0.2,0.9-0.4,1.5-0.5c0.4-0.1,0.8-0.2,1.2-0.3
			c0.2-0.1,0.3-0.1,0.5-0.1c0.1,0,0.3-0.1,0.4-0.1c0.1,0.2-0.1,0.6-0.2,0.9c-0.1,0.3-0.2,0.5-0.3,0.7c0,0.3-0.1,0.4-0.2,0.7
			c0,0.1,0,0.2-0.1,0.3c0,0.1-0.2,0.2-0.1,0.3c0.2,0,0.3-0.2,0.4-0.3c0.1,0,0.2-0.1,0.3-0.1c0.2-0.1,0.4-0.2,0.7-0.2
			c0.2,0,0.3-0.1,0.4-0.2c0.1-0.1,0.2-0.1,0.3-0.1c0.1,0,0.1-0.1,0.2-0.2c0.1,0,0.2,0,0.2-0.1c0.2-0.1,0.3-0.3,0.4-0.4
			c0.1,0,0.2,0,0.3,0c0.2,0,0.2-0.1,0.2,0.2c0,0.2,0,0.4,0,0.6c0,0.2-0.1,0.2-0.1,0.4c0,0.1,0,0.2,0,0.4c0,0.2-0.1,0.3-0.1,0.4
			c0.4,0,0.7-0.1,1-0.3c0.1-0.1,0.2-0.1,0.3-0.2c0.1-0.1,0.1-0.2,0.2-0.3c0.1-0.1,0.3-0.1,0.5-0.2c0.2-0.1,0.4-0.2,0.5-0.4
			c0.2-0.1,0.4-0.2,0.5-0.3c0.1-0.1,0.4-0.5,0.5-0.5c0.1,0.5,0,1,0,1.5c0,0.1-0.1,0.6,0,0.7c0.3,0,0.8-0.2,1-0.4
			c0.3-0.1,0.4-0.3,0.6-0.6c0.1-0.1,0.2-0.2,0.2-0.3c0-0.1,0.1-0.2,0.2-0.2c0.1-0.1,0.1-0.1,0.2-0.1c0.1-0.1,0.1-0.2,0.2-0.2
			c0,0.1,0,0.2,0,0.3c0,0.4,0,0.8,0,1.1c0,0.1,0,0.9,0.2,0.9c0.4-0.4,0.8-0.9,1.2-1.4c0.2-0.3,0.3-0.5,0.6-0.8
			c0.1-0.1,0.2-0.2,0.3-0.4c0.1-0.2,0.2-0.3,0.4-0.4c0.3-0.3,0.5-0.7,0.7-1.1c0.4-0.5,0.7-1.1,1.1-1.7c0.1-0.2,0.3-0.4,0.4-0.6
			c0.1-0.2,0.5-0.3,0.4-0.6"/>
		<path id="XMLID_694_" class="st0" d="M16.2,26.7c-0.4,0-0.8,0-1.2,0c-0.2,0-0.4-0.1-0.6-0.2c-0.1-0.1-0.5-0.1-0.5-0.3
			c-0.2-0.1-0.5,0-0.6-0.1c-0.2,0-0.3,0-0.4,0c-0.2,0-0.3,0-0.5-0.1c-0.2-0.1-0.4,0-0.6-0.1c-0.5-0.3-1.3,0.1-1.9-0.1
			c-0.1-0.3,0-0.5,0.3-0.6c0.2-0.1,0.3-0.2,0.5-0.3c0.4-0.2,0.5-0.6,0.8-0.9c-0.3-0.1-0.6-0.1-0.9-0.2c-0.1,0-0.2,0-0.3,0
			c-0.1,0-0.2-0.1-0.3-0.1c-0.2-0.1-0.3-0.1-0.5-0.1c-0.2-0.1-0.7-0.1-0.8-0.3c-0.2-0.2-0.2-0.7-0.1-0.9c0.2,0,0.2-0.1,0.3-0.2
			C9,22,9.2,21.9,9.3,21.9c0.1-0.1,0.3-0.1,0.4-0.2c0.1,0,0.3-0.1,0.4-0.1c0.2-0.1,0.2-0.3,0.1-0.4c-0.1-0.2-0.1-0.5-0.3-0.6
			c-0.1-0.1-0.2-0.1-0.2-0.2c-0.1-0.1-0.1-0.2-0.2-0.2c-0.1-0.1-0.1-0.3-0.2-0.4c0.1-0.1,0.2-0.1,0.4-0.2c0.1,0,0.2,0,0.4-0.1
			c0.1-0.1,0.3-0.2,0.4-0.2c0.1,0,0.2-0.1,0.2-0.1c0.1-0.1,0.1-0.1,0.2-0.2c0.1-0.1,0.3-0.1,0.4-0.2c0.3-0.5-0.6-0.9-0.9-1.2
			c-0.2-0.3-0.5-0.5-0.6-0.7c0.2-0.1,0.6,0,0.9,0c0.4,0,0.8,0,1.2,0c0.2,0,0.4,0,0.6-0.1c0.2-0.1,0.4-0.1,0.6-0.1
			c0-0.1-0.3-0.4-0.3-0.5c-0.1-0.2-0.2-0.4-0.4-0.6c-0.1-0.1-0.2-0.2-0.3-0.3c-0.1-0.1-0.3-0.2-0.3-0.4c0.3-0.1,0.7,0.1,0.9,0.1
			c0.2,0,0.5,0,0.7,0c0.2,0,0.4,0,0.6,0c0.2,0,0.4,0.2,0.6,0.2c-0.1-0.1-0.2-0.2-0.3-0.3c-0.1-0.1-0.1-0.1-0.2-0.1
			C14,14.3,14,14.2,13.8,14c-0.2-0.2-0.7-0.6-0.6-0.9c0.2-0.1,0.5,0.1,0.7,0.2c0.3,0,0.6,0,0.8,0.2c0.3-0.2-0.1-1-0.1-1.3
			c0-0.3-0.2-0.6-0.1-0.9c0.2,0.1,0.3,0.3,0.4,0.4c0.2,0.2,0.5,0.4,0.8,0.6c0.3,0.2,0.5,0.4,0.8,0.6c0.3,0.2,0.5,0.5,0.8,0.7
			c0.1,0.1,0.2,0.1,0.2,0.2c0.1,0.1,0.1,0.4,0.3,0.4c0.2-0.5-0.2-1.2-0.3-1.7c-0.1-0.3-0.1-0.5-0.1-0.8c0-0.2-0.1-0.4-0.1-0.6
			c0.2,0.1,0.3,0.2,0.5,0.3c0.1,0.1,0.1,0.2,0.2,0.2c0.1,0,0.2,0.1,0.3,0.1c0.1,0,0.1,0.1,0.1,0.1c0.1,0.1,0.2,0.1,0.3,0.2
			c0.1,0.1,0.1,0.1,0.3,0.2c0.1,0.1,0.1,0.1,0.2,0.2c0.2,0.2,0.3,0.3,0.4,0.5c0-0.1-0.1-1,0.2-0.7c0,0,0.1,0.2,0.1,0.2
			c0.1,0.1,0.1,0.1,0.2,0.2c0.1,0.2,0.2,0.5,0.3,0.7c0.1-0.2,0.3-0.3,0.5-0.5c0.1-0.1,0.1-0.3,0.2-0.4c0.2-0.1,0.4,0.4,0.5,0.5
			c0.1,0.1,0.2,0.2,0.3,0.3c0.1,0.2,0.2,0.3,0.3,0.5c0.2,0.3,0.4,0.7,0.6,1c0.1,0.2,0.3,0.4,0.5,0.5c0.1,0.1,0.3,0.2,0.4,0.3
			c0.1,0.1,0.2,0.3,0.3,0.4c0.1,0.1,0.2,0.2,0.2,0.4"/>
		<path id="XMLID_695_" class="st0" d="M27.4,21.2c0-0.1-0.2-0.2-0.2-0.3c-0.1-0.1-0.2-0.2-0.3-0.4c0,0-0.1-0.1-0.1-0.1
			c0,0-0.1,0-0.1,0c-0.2-0.1-0.3-0.4-0.4-0.6c-0.1-0.1-0.2-0.3-0.3-0.4c-0.1-0.2-0.1-0.4-0.2-0.5c-0.1-0.1-0.2-0.2-0.3-0.4
			c-0.1-0.2-0.2-0.4-0.3-0.6c-0.1-0.2-0.1-0.4-0.2-0.5c-0.1-0.2,0-0.3-0.1-0.5c0-0.2-0.1-0.3-0.1-0.5c0-0.2,0-0.3,0-0.5
			C25,15.7,25,15.5,25,15.2c0-0.2,0-0.3-0.1-0.4c-0.1-0.3,0-0.7,0-1c0-0.3,0.1-0.6,0.1-0.9c0-0.3,0-0.7,0-1c0-0.2,0-0.4,0.1-0.6
			c0.2-0.1,0.4,0,0.5,0.1c0.1,0,0.2,0,0.3,0.1c0.1,0,0.1,0.1,0.2,0.1c0.1,0.1,0.5,0.2,0.7,0.1c0.1,0,0.1-0.3,0.1-0.4
			c0-0.2,0-0.4,0.1-0.5c0-0.2,0.1-0.3,0.1-0.5c0-0.3,0-0.5,0-0.8c0-0.2,0-0.3,0-0.5c0-0.2,0.1-0.5,0.4-0.4c0.2,0.1,0.3,0.3,0.5,0.4
			c0.1,0.1,0.3,0.2,0.5,0.3c0.1,0.1,0.3,0.1,0.4,0.2c0.1,0,0.1,0.1,0.2,0.1c0.1,0,0.2,0.1,0.2,0.1c0.1,0.1,0.2,0.2,0.3,0.1
			c0.1-0.1,0.1-0.3,0.1-0.4c0.1-0.2,0.1-0.5,0.1-0.8c0.1-0.4,0.1-0.8,0.1-1.2c0.1,0.1,0.2,0.2,0.3,0.3c0.1,0.1,0.2,0.2,0.2,0.3
			c0.1,0.2,0.3,0.3,0.4,0.4c0.1,0.1,0.1,0.2,0.2,0.3C30.9,8.9,31,9,31,9.1c0.1,0.1,0.1,0.4,0.3,0.4c0.2,0,0.1-0.3,0.1-0.4
			c0-0.1,0.1-0.3,0.1-0.4c0.1-0.2,0.1-0.4,0.2-0.5C31.9,8.1,31.9,8,32,7.9c0.1-0.1,0-0.2,0.1-0.3c0-0.1,0.1-0.1,0.1-0.2
			c0-0.1,0-0.2,0.1-0.3c0.3,0,0.6,0.4,0.7,0.6c0.2,0.3,0.3,0.5,0.4,0.8c0,0.2,0.1,0.4,0.2,0.7c0,0.2,0.1,0.4,0.2,0.6
			c0.1,0.1,0.2,0.2,0.1,0.4c0.1-0.1,0.2-0.3,0.3-0.5c0-0.1,0.1-0.2,0.2-0.2c0,0,0,0,0.1,0c0,0,0-0.1,0-0.2c0.1-0.2,0.1-0.1,0.2-0.2
			c0.3-0.3,0.4-0.7,0.8-0.8c0.1,0.2,0.2,0.5,0.2,0.7c0.1,0.2,0.1,0.4,0.1,0.6c0,0.3-0.1,1,0.1,1.2c0.5-0.1,0.9-0.7,1.2-1
			c0.1-0.2,0.2-0.3,0.4-0.5c0.4,0,0.2,1.6,0.2,1.8c0,0.3,0,0.6,0.1,0.9c0.3,0.1,0.4,0,0.6-0.2c0.3-0.2,0.5-0.3,0.7-0.5
			c0.2-0.1,0.3-0.2,0.5-0.3c0.1,0,0.2-0.1,0.3-0.1c0.2,0,0.1,0.1,0.1,0.3c0,0.3,0,0.7-0.1,1c0,0.5,0,0.9,0,1.4
			c0.2,0.1,0.3-0.1,0.5-0.1c0.1-0.1,0.3-0.1,0.4-0.2c0.1-0.1,0.3-0.2,0.4-0.3c0.2,0.1,0,0.5,0,0.7c-0.1,0.2,0,0.5-0.2,0.7
			c0.1,0,0.3-0.1,0.5-0.1c0.1,0,0.3,0,0.4-0.1c0-0.1,0-0.2,0.1-0.2c-0.2,0.4-0.5,0.8-0.7,1.2c-0.2,0.5-0.4,0.9-0.6,1.4
			c-0.1,0.3-0.2,0.6-0.3,0.9c-0.1,0.2-0.3,0.3-0.3,0.5C40,18.4,39.9,19,39.6,19"/>
		<path id="XMLID_696_" class="st0" d="M33.8,12.8c0,0.2,0,0.4,0,0.6c0,0.3-0.2,0.5-0.3,0.8c0,0.2,0,0.4,0,0.6
			c0,0.2-0.1,0.5-0.2,0.8c-0.1,0.5-0.2,1-0.5,1.4c-0.1,0.2-0.3,0.4-0.4,0.6c-0.1,0.2-0.2,0.5-0.4,0.7c-0.1,0.1-0.2,0.2-0.3,0.4
			c-0.1,0.1-0.1,0.2-0.2,0.3c0,0.1,0,0.2-0.1,0.3c0,0-0.1,0.1-0.1,0.1c-0.2,0.3-0.3,0.7-0.5,1c0,0,0,0.1,0,0.1c0,0-0.1,0.1-0.1,0.1
			c-0.1,0.1,0,0.2,0,0.3c0,0.1-0.1,0.1-0.1,0.1c0,0.1,0,0.2,0,0.3c0,0.1-0.1,0.2-0.1,0.3c0,0.2,0,0.3,0,0.5"/>
		<path id="XMLID_723_" class="st0" d="M16.3,19.8c0.6,0,1.3-0.1,2,0.1c0.4,0.1,0.7,0.3,1.1,0.4c0.2,0.1,0.5,0.2,0.7,0.3
			c0.2,0.1,0.5,0.2,0.7,0.3c0.2,0.1,0.5,0.1,0.7,0.2c0.5,0.2,1,0.4,1.4,0.7c0.4,0.2,0.7,0.5,1,0.7c0.2,0.1,0.3,0.2,0.5,0.3
			c0.1,0.1,0.2,0.2,0.3,0.2c0.3,0.1,0.5,0.3,0.8,0.3c0.2,0.1,0.5,0.2,0.7,0.2"/>
		<path id="XMLID_724_" class="st0" d="M18.4,34.1c0.2,0,0.4-0.3,0.5-0.4c0.2-0.3,0.4-0.5,0.7-0.7c0.6-0.4,1.2-0.7,1.7-1.2
			c0.1-0.1,0.2-0.1,0.3-0.2c0.1-0.1,0.2-0.2,0.3-0.2c0.3-0.2,0.7-0.4,1.1-0.6c0.5-0.4,1.1-0.9,1.6-1.3c0.3-0.3,0.7-0.3,1-0.5
			c0.2-0.2,0.3-0.4,0.6-0.5c0.2-0.1,0.3-0.3,0.4-0.4c0.1-0.1,0.2-0.1,0.2-0.2c0.1-0.1,0.1-0.3,0.2-0.4c0.2-0.1,0.3-0.2,0.5-0.4
			c0.1-0.1,0.1-0.2,0.2-0.3c0.2-0.3,0.4-0.5,0.6-0.8"/>
		<path id="XMLID_897_" class="st0" d="M31.6,27.9c0.1,0.2,0.3,0.3,0.4,0.5c0.1,0.2,0.3,0.3,0.4,0.5c0.1,0.2,0.1,0.3,0.2,0.5
			c0.1,0.1,0.2,0.2,0.2,0.4c0.2,0.3,0.2,0.6,0.4,0.9c0.1,0.3,0.4,0.7,0.4,1c0.1,0.5,0,1,0,1.4c0,0.3,0,0.6,0,0.9c0,0.8,0,1.5,0,2.3"
			/>
		<path id="XMLID_898_" class="st0" d="M41.2,40c0,0.2,0.1,0.4,0.2,0.6c0.2,0.2,0.3,0.4,0.4,0.6c0.3,0.5,0.5,1,0.9,1.4
			c0.2,0.2,0.2,0.4,0.4,0.7c0.3,0.3,0.4,0.7,0.7,1.1c0.1,0.2,0.3,0.4,0.4,0.5c0.1,0.2,0.2,0.4,0.3,0.7c0.1,0.3,0.3,0.6,0.4,1
			c0.1,0.3,0.2,0.7,0.3,1.1c0.1,0.2,0.2,0.4,0.2,0.6c0,0.2,0,0.5,0,0.7c0,0.1,0,0.2,0,0.3c0,0.2,0.1,0.3,0.1,0.5c0,0.2,0,0.4,0,0.6
			c0,0.2,0.1,0.4,0.1,0.6c0,0.4,0.1,0.9-0.1,1.3c-0.1,0.2-0.2,0.2-0.3,0.4c-0.1,0.2,0,0.2-0.2,0.4c-0.2,0.2-0.6,0.3-0.8,0.5
			c-0.3,0.2-0.6,0.3-1,0.3c-0.2,0-0.3,0-0.5-0.1c-0.2-0.2-0.4-0.4-0.6-0.6c-0.2-0.2-0.4-0.3-0.6-0.4c-0.2-0.1-0.3-0.2-0.5-0.4
			c-0.2-0.2-0.4-0.3-0.6-0.4c-0.2-0.1-0.3-0.2-0.5-0.3c-0.1-0.1-0.3-0.1-0.3-0.2c-0.1-0.1-0.1-0.1-0.1-0.2c-0.2-0.2-0.4-0.4-0.5-0.6
			c-0.2-0.2-0.3-0.5-0.4-0.7c-0.4-0.5-0.8-1.2-1-1.8c-0.1-0.1-0.1-0.3-0.1-0.4c-0.1-0.1-0.2-0.2-0.2-0.3c-0.4-0.5-0.6-1.3-0.8-2
			c-0.1-0.3-0.2-0.5-0.3-0.8c-0.1-0.2-0.1-0.3-0.2-0.4c-0.1-0.1-0.1-0.3-0.2-0.4c0-0.1-0.1-0.1-0.2-0.2c-0.1-0.1-0.1-0.3-0.1-0.4
			c-0.1-0.2-0.3-0.4-0.2-0.6"/>
		<path id="XMLID_932_" class="st0" d="M44.4,53.3c0,0.2,0.2,0.2,0.2,0.4c0.1,0.1,0.1,0.2,0.2,0.4c0.1,0.1,0.2,0.2,0.3,0.4
			c0.1,0.1,0.1,0.3,0.2,0.4c0.2,0.3,0.2,0.7,0.3,1c0,0.2,0.1,0.3,0.1,0.5c0,0.1,0,0.1,0.1,0.2c0,0.1,0.1,0.1,0.1,0.2
			c0,0.1,0.1,0.2,0.1,0.3c0,0.1,0.1,0.3,0.2,0.4c0,0.1,0,0.1,0,0.2c0,0.1,0.1,0.1,0.1,0.2c0,0.1,0,0.3,0,0.4c0,0.2,0.1,0.4,0.1,0.7
			c0,0.2,0,0.3,0,0.5c0,0,0.1,0.1,0.1,0.1c0,0.1,0,0.1,0,0.2c0,0.2,0.1,0.3,0.1,0.4"/>
	</g>
	<g id="XMLID_1174_">
		<path id="XMLID_942_" class="st0" d="M146.1,60.3c-1,0-2,0-3,0c-1,0-2.1-0.1-3.1,0.1c-0.4,0.1-0.8,0.2-1.2,0.2
			c-0.4,0-0.9-0.1-1.3,0c-0.2,0.1-0.6,0.1-0.7,0.2c-0.1,0.1-0.2,0.2-0.3,0.2c-0.1,0-0.3,0-0.5,0c-0.1,0-0.3,0.2-0.4,0.3
			c-0.1,0-0.2,0-0.3,0c-0.2,0.1-0.3,0.2-0.5,0.2c-0.3,0.1-0.2,0.2-0.4,0.5c-0.1,0.2-0.5,1-0.5,1.1c-0.1,0.2-0.2,0.5-0.4,0.7
			c-0.1,0.2-1.2,1.4-1.3,1.5c-0.1,0.2-0.2,0.2-0.3,0.3c-0.2,0.1-0.3,0.2-0.5,0.3c-0.2,0.2-1.6,1.2-1.8,1.4c-0.3,0.2-0.6,0.3-1,0.5
			c-0.3,0.1-1.7,0.6-2.1,0.9c0,0.4,1.7,0.5,2.2,0.7c0.6,0.2,1.1,0.5,1.7,0.8c0.3,0.2,0.7,0.5,1,0.7c0.2,0.2,1.5,1.7,1.7,2.1
			c0.1,0.2,0.2,0.3,0.3,0.5c0.1,0.3,0.2,0.5,0.3,0.8c0.1,0.3,0.3,0.4,0.3,0.7c0,0.3,0,0.5,0.1,0.7c0.2,0.4,0.1,0.9,0.1,1.3
			c0,0.4,0.1,0.8-0.1,1.2c-0.2,0.3-0.5,0.7-0.7,1c-0.1,0.1-0.2,0.3-0.3,0.4c-0.1,0.1-0.2,0.2-0.4,0.3c-0.4,0.3-0.8,0.5-1.3,0.7
			c-0.1,0-0.2,0.1-0.3,0.1c-0.2,0-0.5,0-0.7,0c-0.2,0.1-0.4,0.1-0.7,0.1c-0.3,0-0.4,0-0.6,0.1c-0.3,0.1-0.6,0-0.9,0
			c-0.6,0-1.1,0.1-1.7-0.3c-0.6-0.3-1.1-0.7-1.6-1.1c-0.4-0.3-0.8-0.6-1.1-0.9c-0.3-0.3-1.3-1.9-1.4-2.1c-0.3-0.4-0.4-0.9-0.6-1.3
			c-0.4-0.8-0.5-1.6-0.9-2.4c-0.1-0.4-0.1-0.3-0.2-0.7c-0.1-0.2-0.1-0.3-0.3-0.7c0,0.8-0.1,1.3-0.1,2.1c0,1,0.2,2.1-0.3,3.1
			c-0.2,0.4-0.4,0.7-0.6,1c-0.1,0.2-2.1,1.3-2.3,1.5c-0.1,0.1-0.2,0.2-0.4,0.4c-0.2,0.2-0.4,0.3-0.6,0.4c-0.2,0.1-1.9,1-2.4,1.1
			c-0.5,0.1-2.5,0.2-3,0.2c-0.3,0-0.5,0-0.8-0.1c-0.2-0.1-0.4-0.3-0.6-0.3c-0.3-0.1-1.1-1.2-1.3-1.6c-0.1-0.3-0.4-0.5-0.4-0.8
			c0,0,0-0.7-0.1-1c-0.1-0.6-0.1-1.4,0.1-2c0.4-1,1.1-1.6,1.8-2.3c0.2-0.3,0.4-0.6,0.6-0.8c0.4-0.3,0.6-0.5,1.1-0.6
			c0.6-0.2,1.2-0.4,1.7-0.5c0.4-0.1,0.8-0.3,1.2-0.5c0.4-0.2,0.7-0.3,1.1-0.4c0.4-0.1,0.8-0.2,1.2-0.3c-0.2-0.2-0.9-0.1-1.2-0.1
			c-0.3,0-0.5,0-0.8,0c-0.3-0.1-1.3-0.3-1.5-0.3c-0.4-0.1-0.9-0.3-1.3-0.4c-0.2-0.1-0.5-0.1-0.7-0.2c-0.2-0.1-1.8-1-2-1.1
			c-0.3-0.2-0.7-0.4-0.9-0.7c-0.3-0.3-0.6-0.6-0.8-1c-0.2-0.4-0.4-0.9-0.5-1.3c-0.2-0.7-0.5-1.4-0.5-2.1c0-0.6-0.1-1.3-0.1-1.9
			c0.1-0.7,0.4-1.2,0.9-1.7c0.4-0.4,0.7-0.9,1.1-1.3c0.2-0.2,1.3-1.1,1.5-1.1c0.6-0.3,1.5-0.4,2.2-0.5c0.7,0,1.5-0.1,2.1,0.2
			c0.4,0.2,0.7,0.5,1,0.8c0.5,0.4,0.9,0.8,1.3,1.1c0.4,0.3,0.7,0.6,1,1c0.2,0.3,0.4,0.8,0.6,1.1c0.2,0.4,1.6,3.2,1.8,3.5
			c0.2,0.3,0.6,0.8,0.9,1.1c0-0.1,0.7-1.6,0.8-1.8c0.1-0.2,0.7-0.9,0.8-1c0.2-0.2,1.2-1.1,1.6-1.4c0.4-0.3,1.5-1.4,1.7-1.6
			c0.5-0.4,1-0.7,1.6-0.8c0.5-0.1,1.1-0.4,1.7-0.4c0.1,0,1.3-0.1,1.6-0.1c0.5,0,1,0,1.4,0c0.1,0,0.5,0.2,0.7,0.2
			c0.2,0.1,0.5,0.2,0.8,0.2c0.4,0,0.4,0,0.6,0.3c0.1,0.2,0.7,1.2,0.8,1.4c0.1,0.3,0.1,1.2,0,1.7"/>
		<path id="XMLID_943_" class="st0" d="M119.5,68.1c0-0.2-0.1-0.2-0.2-0.2c-0.1,0-0.1-0.1-0.2-0.1c0,0-0.1,0-0.1,0
			c-0.1,0-0.1-0.1-0.2,0c-0.1,0-0.2,0.1-0.3,0.2c0,0.1,0,0.2-0.1,0.3c-0.1,0.1-0.1,0.2-0.1,0.4c0,0.3,0,0.6,0.1,0.8
			c0.1,0.1,0.1,0.3,0.2,0.4c0,0.1,0.1,0.1,0.2,0.2c0,0,0.1,0.1,0.1,0.1c0,0,0.1,0.1,0.1,0.1c0.1,0,0.2,0.1,0.3,0.1
			c0.2,0,0.4-0.1,0.5-0.3c0-0.1,0.1-0.1,0.1-0.2c0,0,0-0.1,0-0.1c0-0.1,0-0.1,0-0.2c0-0.2,0-0.4,0-0.6c0,0-0.1-0.1-0.1-0.1
			c0,0,0-0.1,0-0.1c0,0,0-0.1,0-0.1c0,0,0,0,0,0C119.7,68.4,119.7,68.4,119.5,68.1z"/>
		<path id="XMLID_975_" class="st0" d="M120.4,66.9c-0.1,0-0.1,0.2-0.2,0.2c0,0.1,0,0.1-0.1,0.2c0,0,0,0-0.1,0.1c0,0.1,0,0.1,0,0.2
			c0,0.2-0.1,0.5-0.1,0.7c0,0.1,0,0.2,0,0.3c0,0.1,0,0.1,0,0.2c0,0,0,0.1,0.1,0.1c0.1,0.1,0.1,0.2,0.2,0.2c0,0.1,0.1,0.1,0.2,0.2
			c0.1,0.2,0.4,0.3,0.6,0.4c0.1,0,0.2,0,0.3-0.1c0.1,0,0.1-0.1,0.2-0.1c0.1,0,0.1,0,0.1-0.1c0.1-0.1,0.2-0.2,0.3-0.3
			c0-0.1,0.1-0.2,0.1-0.2c0-0.1,0.1-0.2,0.1-0.3c0-0.1,0-0.3,0-0.4c0-0.1,0-0.2,0-0.3c0-0.1-0.1-0.2-0.1-0.2
			c-0.1-0.1-0.1-0.1-0.1-0.2c-0.1-0.1-0.1-0.1-0.2-0.2c-0.1-0.1-0.2-0.1-0.2-0.2c-0.1-0.1-0.2-0.1-0.3-0.2
			C121,66.8,120.9,66.8,120.4,66.9z"/>
		<path id="XMLID_976_" class="st0" d="M122.1,67c0.2-0.2,0.4-0.4,0.6-0.6c0.2-0.2,0.4-0.3,0.6-0.5c0.1-0.1,0.2-0.1,0.2-0.2
			c0.1-0.1,0.1-0.2,0.2-0.3c0.1-0.1,0.2-0.2,0.3-0.3c0.1,0,0.2-0.1,0.2-0.1c0.1-0.1,0.2-0.1,0.3-0.2c0.2-0.1,0.4-0.3,0.6-0.3
			c0.2-0.1,0.4-0.3,0.5-0.5c0.2-0.2,0.4-0.4,0.6-0.6c0.1-0.1,0.2-0.2,0.3-0.3c0.1-0.1,0.2-0.2,0.3-0.3c0.2-0.2,0.4-0.4,0.6-0.5
			c0.1-0.1,0.2-0.2,0.3-0.2c0.1-0.1,0.2-0.1,0.4-0.2c0.3-0.1,0.5-0.4,0.8-0.6c0.1-0.1,0.3-0.2,0.4-0.3c0.1-0.1,0.3-0.2,0.4-0.3
			c0.1-0.1,0.3-0.1,0.4-0.2c0.2-0.1,0.3-0.2,0.5-0.3c0.1-0.1,0.2-0.2,0.3-0.3c0.1-0.1,0.3-0.2,0.4-0.3c0.2-0.1,0.4-0.4,0.6-0.5
			c0.1-0.1,0.2-0.1,0.3-0.1c0.1,0,0.2,0,0.2-0.1c0.1,0,0.2-0.1,0.3-0.1c0,0,0.1,0,0.1-0.1c0.1-0.1,0.2-0.1,0.3-0.2
			c0.1,0,0.2-0.1,0.3-0.1"/>
		<path id="XMLID_978_" class="st0" d="M121.7,69.9c0.2,0.1,0.4,0.2,0.6,0.3c0.1,0.1,0.2,0.2,0.4,0.3c0.2,0.1,0.4,0.2,0.5,0.3
			c0.1,0.1,0.2,0.1,0.3,0.2c0.1,0.1,0.2,0.1,0.3,0.1c0.1,0.1,0.2,0.2,0.3,0.2c0.5,0.3,1.1,0.7,1.6,1.1c0.2,0.2,0.4,0.4,0.5,0.5
			c0.2,0.1,0.4,0.3,0.5,0.4c0.1,0.1,0.1,0.2,0.2,0.2c0.1,0.1,0.1,0.1,0.2,0.2c0.1,0.1,0.3,0.2,0.4,0.4c0.1,0.1,0.3,0.2,0.4,0.4
			c0.1,0.1,0.3,0.3,0.4,0.4c0.2,0.1,0.3,0.3,0.4,0.4c0.1,0.1,0.2,0.2,0.3,0.3c0.1,0.1,0.2,0.3,0.3,0.4c0.1,0.1,0.3,0.2,0.4,0.4
			c0.1,0.1,0.2,0.2,0.3,0.4c0.1,0.1,0.2,0.2,0.3,0.3c0.2,0.2,0.4,0.5,0.6,0.7c0.1,0.2,0.2,0.4,0.4,0.5c0.1,0.1,0.2,0.1,0.2,0.2
			c0.1,0.1,0.1,0.2,0.2,0.3c0.2,0.1,0.2,0.3,0.4,0.5c0,0.1,0.1,0.1,0.1,0.2c0,0.1,0.1,0.1,0.1,0.2c0,0,0,0.1,0.1,0.1
			c0,0,0.1,0.1,0.1,0.1"/>
		<path id="XMLID_979_" class="st0" d="M118.7,70.5c-0.1,0.3-0.4,0.5-0.6,0.7c-0.2,0.2-0.3,0.3-0.5,0.5c-0.2,0.2-0.3,0.3-0.5,0.5
			c-0.1,0.1-0.3,0.2-0.4,0.4c-0.2,0.2-0.4,0.5-0.6,0.7c-0.3,0.2-0.6,0.4-0.9,0.7c-0.2,0.2-0.4,0.3-0.6,0.5c-0.1,0.1-0.2,0.3-0.4,0.4
			c-0.4,0.3-0.8,0.6-1.1,0.9c-0.3,0.3-0.6,0.6-0.9,0.8c-0.2,0.2-0.4,0.2-0.6,0.4c-0.2,0.1-0.3,0.2-0.4,0.3c-0.1,0.2-0.3,0.3-0.5,0.4
			c-0.2,0.2-0.4,0.4-0.6,0.6c-0.1,0.1-0.2,0.2-0.3,0.3c-0.1,0.1-0.3,0.2-0.4,0.3c-0.1,0.1-0.1,0.3-0.3,0.4c-0.1,0.1-0.1,0.1-0.2,0.2
			c0,0,0,0,0,0.1c0,0,0,0-0.1,0c0,0,0,0,0,0c0,0,0,0.1,0,0.1c0,0.1-0.1,0.1-0.1,0.2c0,0,0,0,0,0.1c0,0-0.1,0.1-0.1,0.2"/>
		<path id="XMLID_981_" class="st0" d="M107.6,58.8c0.3,0.3,0.7,0.5,1,0.8c0.2,0.2,0.5,0.4,0.7,0.5c0.2,0.1,0.4,0.3,0.6,0.4
			c0.1,0.1,0.2,0.3,0.4,0.4c0.1,0.1,0.3,0.2,0.4,0.3c0.2,0.2,0.4,0.3,0.6,0.5c0.1,0.1,0.1,0.2,0.2,0.3c0.2,0.4,0.5,0.6,0.8,0.9
			c0.1,0.1,0.2,0.2,0.3,0.3c0.1,0.1,0.2,0.2,0.4,0.3c0.1,0.1,0.2,0.2,0.3,0.2c0.1,0.1,0.2,0.2,0.3,0.3c0.1,0.1,0.2,0.2,0.3,0.2
			c0.1,0.1,0.3,0.2,0.4,0.3c0.2,0.1,0.3,0.2,0.4,0.4c0.1,0.1,0.3,0.2,0.4,0.3c0.1,0.1,0.2,0.2,0.3,0.3c0.1,0.1,0.2,0.1,0.3,0.2
			c0.1,0.1,0.2,0.1,0.3,0.2c0.1,0,0.1,0.1,0.2,0.1c0.1,0.1,0.2,0.2,0.3,0.3c0.1,0.1,0.2,0.2,0.3,0.2c0.2,0.2,0.4,0.4,0.6,0.6
			c0.1,0.1,0.2,0.2,0.3,0.3c0.1,0.1,0.1,0.1,0.2,0.2"/>
	</g>
	<g id="XMLID_1177_">
		<path id="XMLID_982_" class="st0" d="M154.2,34.7c0,0.2-0.1,0.5-0.1,0.7c-0.1,0.3-0.1,0.5-0.1,0.8c0,0.4,0.2,0.6,0.4,0.9
			c0.1,0.1,0.1,0.2,0.2,0.3c0.1,0.1,0.2,0.2,0.4,0.4c0.1,0.1,0.3,0.1,0.5,0.3c0.2,0.2,0.2,0.4,0.4,0.6c0.2,0.1,0.4,0.2,0.5,0.3
			c0.2,0.2,0.2,0.5,0.3,0.8c0.3,1.2-0.2,2.2-0.9,3.2c-0.2,0.3-0.5,0.7-0.7,1c-0.1,0.2-0.2,0.3-0.3,0.5c-0.1,0.1-0.1,0.3-0.1,0.4
			c-0.1,0.2-0.2,0.2-0.3,0.4c-0.1,0.2-0.1,0.4-0.2,0.6c-0.1,0.4-0.3,0.8-0.3,1.3c0,0.2-0.1,0.5,0,0.7c0.1,0.3,0.2,0.5,0.4,0.7
			c0.3,0.6,0.6,1.1,1,1.6c0.1,0.1,0.2,0.2,0.3,0.4c0,0.1,0,0.2,0,0.2c0.1,0.2,0.4,0.4,0.6,0.5c0.5,0.4,0.8,0.5,1.4,0.5
			c0.5,0,1.4,0.1,1.8-0.2c0.1-0.1,0-0.2,0.1-0.3c0.1-0.2,0.2-0.3,0.4-0.4c0.2-0.2,0.4-0.5,0.5-0.7c0-0.1,0-0.3,0-0.4
			c0-0.2,0.1-0.3,0.2-0.4c0.1-0.2,0.2-0.5,0.2-0.7c0.1-0.4,0.3-0.8,0.5-1.1c0.1-0.1,0.2-0.1,0.3-0.2c0.2-0.2,0.2-0.5,0.4-0.7
			c0.1-0.1,0.2-0.2,0.4-0.3c0.2-0.2,0.3-0.6,0.5-0.8c0.3-0.4,0.7-0.9,1.1-1.1c0.4-0.2,0.8-0.4,1.2-0.6c0.1,0,0.2-0.1,0.4-0.1
			c0.3-0.1,0.5-0.3,0.7-0.3c0.6-0.1,1.3,0.1,1.9,0c-0.1-0.3-0.4-0.6-0.6-0.9c-0.1-0.1-0.2-0.2-0.3-0.3c-0.1-0.1-0.1-0.2-0.2-0.3
			c-0.1-0.1-0.2-0.1-0.3-0.2c-0.1-0.1-0.2-0.2-0.4-0.3c-0.2-0.1-0.4,0-0.5-0.1c-0.1,0-0.3-0.1-0.4-0.1c-0.3-0.1-0.4-0.1-0.7-0.1
			c-0.5,0-0.9,0-1.4,0c-0.2,0-0.5-0.1-0.7,0c-0.1,0-0.1,0.1-0.2,0.1c-0.2,0-0.3,0-0.5,0c-0.3,0-0.7,0.1-1-0.1
			c-0.4-0.2-0.5-0.7-0.6-1.2c0-0.4-0.2-0.6-0.4-1c-0.2-0.2-0.2-0.7-0.5-0.6c0-0.3-0.4-0.5-0.6-0.7c-0.2-0.2-0.3-0.5-0.5-0.7
			c-0.3-0.3-0.8-0.6-1.1-0.9c-0.2-0.1-0.3-0.4-0.6-0.5c-0.2-0.1-0.5,0-0.7-0.2c-0.3-0.2-0.3-0.2-0.7-0.2
			C154.9,35,154.7,35,154.2,34.7z"/>
		<path id="XMLID_1082_" class="st0" d="M159,36.3c0-0.2-0.2-0.2-0.3-0.4c0-0.1-0.1-0.2-0.1-0.2c-0.2-0.2-0.4-0.4-0.6-0.5
			c-0.3-0.3-0.3-0.4-0.4-0.7c-0.1-0.1-0.2-0.2-0.2-0.3c-0.4-0.5-0.5-1.2-0.6-1.8c-0.1-0.3-0.4-0.6-0.5-0.9c-0.2-0.4-0.4-0.9-0.5-1.3
			c-0.1-1-0.1-2-0.1-3c0-1,0-2,0-2.9c0-0.7,0-1.4,0.2-2.1c0.2-0.6,0.4-1.1,0.8-1.6c0.2-0.2,0.3-0.5,0.5-0.6c0.1-0.1,0.3-0.2,0.4-0.2
			c0.1-0.1,0.1-0.1,0.1-0.2c0.1-0.1,0.3-0.1,0.5-0.1c0.2-0.1,0.3-0.1,0.5-0.2c0.2-0.1,0.4,0,0.6-0.1c0-0.1,0.1-0.2,0.1-0.2
			c0.1,0,0.2,0,0.3,0c0.3,0,0.7-0.3,1-0.2"/>
		<path id="XMLID_1161_" class="st0" d="M161.3,32.5c-0.2,0-0.4,0.2-0.5,0.3c-0.2,0.2-0.4,0.5-0.5,0.8c-0.1,0.5-0.4,1.1-0.5,1.6
			c-0.1,0.5-0.2,1.2-0.1,1.7c0,0.1,0.1,0.2,0.1,0.3c0,0.1,0,0.2,0,0.4c0.1,0.2,0.3,0.3,0.4,0.5c0.1,0.2,0,0.4,0.1,0.6
			c0.2,0.4,0,1,0.3,1.3c0.3,0.3,0.7,0.7,1.1,0.6c0.2-0.1,0.1,0,0.2-0.2c0-0.2,0.1-0.3,0.2-0.5c0.1-0.3,0.1-0.8,0.1-1.2
			c0-0.6-0.1-1.3,0.1-1.9c0.1-0.4,0.3-0.8,0.3-1.2c0-0.4,0-0.7,0-1.1c0-0.2,0.1-0.7,0-0.9C162.4,33.4,162,33.3,161.3,32.5z"/>
		<path id="XMLID_1162_" class="st0" d="M161.1,32.2c0-0.4-0.2-0.5-0.3-0.9c-0.1-0.4-0.2-0.7-0.3-1.1c-0.1-0.2-0.3-0.3-0.4-0.5
			c-0.1-0.1-0.1-0.3-0.1-0.5c0-0.4,0-0.7,0-1.1c0-0.5,0-0.9,0-1.4c0-0.2,0-0.4,0-0.5c-0.1-0.2-0.2-0.2-0.3-0.4
			c-0.3-0.4-0.2-0.8-0.2-1.3c0-0.5,0-1.1,0-1.6c0-0.3,0-0.7,0-1.1c0-0.5,0.2-0.9,0.3-1.4c0.1-0.5,0.1-0.8,0.3-1.2
			c0.1-0.2,0.1-0.4,0.3-0.5c0.2-0.1,0.2-0.1,0.4-0.1c0.3-0.1,0.5-0.4,0.8-0.6c0.1-0.1,0.2-0.1,0.3-0.2c0.2-0.1,0.2-0.2,0.4-0.3
			c0.3-0.1,0.7-0.1,1.1-0.1c0.4,0,0.9-0.1,1.2,0c0.1,0,0.2,0.2,0.4,0.2c0.1,0,0.2,0,0.4,0c0.3,0.1,0.6,0.4,0.9,0.6
			c0.6,0.5,1,1,1.5,1.6c0.3,0.3,0.5,0.6,0.7,0.9c0.3,0.5,0.3,0.7,0.4,1.3c0,0.3,0.1,0.5,0.1,0.8c0,0.2,0,0.3,0,0.5
			c0,0.1,0.1,0.2,0.1,0.4c0,0.1,0,0.3,0,0.3c0.1,0.1,0.2,0.2,0.3,0.3c0.3,0.3,0.3,0.8,0.4,1.2c0.1,0.4,0.1,0.8,0.1,1.2
			c0,1,0.1,1.9-0.1,2.8c-0.1,0.5-0.3,0.9-0.5,1.3c-0.1,0.3-0.3,0.6-0.5,0.9c-0.1,0.3-0.2,0.7-0.3,1c-0.1,0.2-0.2,0.3-0.3,0.4
			c-0.1,0.2-0.1,0.3-0.2,0.5c-0.1,0.2-0.2,0.3-0.3,0.5c-0.1,0.2-0.2,0.4-0.3,0.5c-0.1,0.1-0.2,0.1-0.2,0.1c-0.1,0.1,0,0.1,0,0.2
			c-0.1,0.1-0.2,0.2-0.2,0.3c-0.1,0.2-0.1,0.4-0.3,0.5c-0.1,0.1-0.3,0.2-0.4,0.4c-0.1,0.1-0.2,0.2-0.3,0.3c-0.2,0.1-0.3,0.3-0.5,0.4
			c-0.1,0.1-0.3,0.1-0.5,0.3c-0.1,0.1-0.1,0.2-0.3,0.2c-0.3,0.1-0.6,0.4-0.9,0.5c-0.2,0.1-0.3,0-0.4,0.1c-0.1,0.1-0.2,0.2-0.3,0.3
			c-0.2,0.1-0.5,0.2-0.7,0.3"/>
		<path id="XMLID_1163_" class="st0" d="M170.3,29.1c0.3-0.1,0.6-0.4,0.9-0.6c0.2-0.2,0.3-0.5,0.5-0.7c0.2-0.1,0.3-0.2,0.5-0.4
			c0.1-0.1,0.1-0.3,0.2-0.4c0.2-0.2,0.4-0.4,0.6-0.6c0.2-0.2,0.5-0.4,0.7-0.6c0.5-0.5,1.1-0.6,1.7-1c0.5-0.3,0.9-0.6,1.5-0.8
			c0.3-0.1,0.6-0.2,0.8-0.3c0.3-0.1,0.4-0.3,0.7-0.4c0.3-0.1,0.7-0.3,1-0.3c0.2,0,0.5-0.1,0.7-0.2c0.4-0.2,0.8-0.5,1.3-0.5
			c0.4-0.1,0.8-0.2,1.2-0.4c0.4-0.1,0.7-0.1,1.1-0.1c0.4,0,0.8,0.3,1.1,0.6c0.2,0.2,0.2,0.3,0.5,0.4c0.2,0.1,0.3,0.1,0.5,0.1
			c0.4,0,0.8,0,1.2,0c0.4,0,0.7,0.4,0.9,0.7c0.3,0.3,0.4,0.8,0.6,1.2c0.1,0.2,0.2,0.3,0.2,0.5c0.1,0.3,0.1,0.6,0.1,0.9
			c0,0.6,0,1.2,0,1.8c0,0.3-0.1,0.6-0.1,0.9c0,0.5,0,0.9-0.1,1.4c-0.1,0.5-0.3,0.9-0.4,1.3c0,0.2-0.1,0.3-0.2,0.5
			c-0.1,0.2,0,0.5,0,0.7c0,0.4-0.1,0.8-0.1,1.2c0,0.3,0,0.6-0.1,0.9c-0.1,0.4-0.2,0.7-0.4,1.1c-0.2,0.6-0.4,1.2-0.7,1.8
			c-0.1,0.3-0.4,0.5-0.5,0.8c-0.1,0.3-0.1,0.6-0.1,1c-0.1,0.4-0.2,0.7-0.3,1c-0.1,0.3-0.2,0.5-0.3,0.8c-0.1,0.3-0.1,0.6-0.3,0.9
			c-0.2,0.4-0.5,0.7-0.8,1.1c-0.1,0.1-0.1,0.2-0.2,0.3c0,0-0.1,0.1-0.2,0.1c-0.1,0.1-0.2,0.3-0.3,0.5c-0.3,0.4-0.9,0.5-1.2,0.9
			c-0.1,0.1-0.2,0.3-0.4,0.4c-0.2,0.2-0.5,0.2-0.7,0.4c-0.4,0.2-0.7,0.5-1,0.7c-0.3,0.2-0.5,0.4-0.7,0.6c-0.1,0.1-0.3,0.2-0.5,0.2
			c-0.3,0.1-0.5,0.1-0.9,0.2c-0.2,0.1-0.4,0.2-0.5,0.4c-0.3,0.2-0.6,0.4-1,0.4c-0.4,0-0.9-0.1-1.3,0c-0.4,0.1-0.7,0.3-1,0.4
			c-0.1,0-0.2,0-0.3,0c-0.3,0-0.5,0.1-0.7,0.1c-0.4,0-0.7,0-1,0.1c-0.7,0.1-1.3,0.2-1.9,0.2c-0.6,0-1.1,0.1-1.5-0.3
			c-0.5-0.4-0.4-1.2-0.6-1.8c-0.1-0.3-0.2-0.4-0.2-0.6c0-0.4,0-0.7,0-1.1c0-0.3,0-0.6,0-0.9c0-0.4-0.1-0.5-0.2-0.9"/>
		<path id="XMLID_1164_" class="st0" d="M169.9,27.3c0.3-0.1,0.5-0.9,0.8-1.2c0.5-0.5,0.9-1,1.3-1.6c0.5-0.6,0.9-1.1,1.5-1.6
			c0.2-0.2,0.5-0.4,0.7-0.6c0.2-0.3,0.4-0.6,0.6-0.8c0.5-0.4,0.9-1,1.3-1.4c0.3-0.3,0.6-0.6,0.9-1c0.2-0.2,0.4-0.3,0.7-0.5
			c0.3-0.3,0.6-0.7,1-0.9c0.4-0.2,1-0.4,1.5-0.5c0.7-0.2,1.5-0.4,2.2-0.4c0.3,0,0.7,0,1,0c0.6,0,1.3-0.2,1.7,0.2
			c0.3,0.2,0.6,0.8,0.6,1.1c0,0.4,0,0.9,0,1.3c0,0.5-0.1,0.9-0.4,1.3c-0.1,0.2-0.3,0.4-0.4,0.6c-0.1,0.1-0.2,0.1-0.2,0.3
			c0,0-0.1,0-0.1,0"/>
		<path id="XMLID_1165_" class="st0" d="M158.5,52.2c0,0.5,0,1,0,1.4c0,0.4,0.2,0.6,0.3,1c0.1,0.4,0.4,0.8,0.6,1.2
			c0.1,0.3,0.2,0.5,0.4,0.7c0.3,0.3,0.5,0.7,0.8,1.1c0.3,0.3,0.6,0.4,0.9,0.8c0.1,0.2,0.2,0.4,0.4,0.5c0.2,0.2,0.4,0.4,0.7,0.6
			c0.3,0.2,0.4,0.4,0.7,0.5c0.3,0.1,0.5,0.3,0.8,0.4c0.2,0.1,0.5,0.1,0.7,0.2c0.2,0.1,0.5,0.2,0.7,0.2c0.2,0.1,0.4,0.3,0.6,0.2"/>
	</g>
	<g id="XMLID_1179_">
		<g id="XMLID_1178_">
			<path id="XMLID_1166_" class="st0" d="M172.5,79.2c-0.3,0-0.5,0-0.8,0c-0.5,0-0.8,0.3-1.2,0.4c-0.3,0.1-0.5,0.2-0.8,0.4
				c-0.2,0.2-0.5,0.2-0.6,0.5c-0.1,0.1-0.1,0.2-0.1,0.4c-0.1,0.1-0.3,0.3-0.4,0.5c-0.1,0.2-0.2,0.5-0.4,0.7c-0.3,0.6-0.1,1.4-0.1,2
				c0,0.4,0,0.8,0.2,1.2c0.1,0.3,0.3,0.6,0.5,0.9c0.2,0.2,0.4,0.5,0.6,0.7c0.1,0.1,0.3,0.3,0.4,0.4c0.1,0.2,0.1,0.2,0.3,0.3
				c0.2,0.1,0.5,0.2,0.8,0.3c0.3,0.1,0.7,0,1,0c0.3,0,0.6,0,0.8-0.1c0.2-0.1,0.5-0.2,0.7-0.3c0.3-0.1,0.7-0.1,1-0.2
				c0.4-0.1,0.9-0.4,1.2-0.6c0.2-0.2,0.4-0.6,0.6-0.8c0.3-0.4,0.4-0.6,0.6-1.1c0.4,0.1-0.4,1.8-0.5,2.1c-0.3,0.6-0.2,1.4-0.2,2.1
				c0,0.2,0,0.3,0.1,0.5c0.1,0.2,0.3,0.6,0.5,0.7c0.3,0.2,0.9,0.3,1.2,0.5c0.4,0.2,0.7,0.1,1.1,0.3c0.5,0.2,1.1,0.1,1.7,0.1
				c0.2,0,0.5,0.1,0.8,0c0.2,0,0.3-0.2,0.5-0.2c0.3-0.1,0.6-0.2,1-0.3c0.2-0.1,0.4-0.1,0.6-0.2c0.1-0.1,0.2-0.2,0.3-0.3
				c0.1-0.1,0.3-0.2,0.4-0.2c0.1-0.1,0.2-0.2,0.3-0.3c0.1-0.1,0.1-0.1,0.2-0.2c0-0.1,0-0.1,0-0.2c0.2-0.2,0.2-0.1,0.2-0.4
				c0-0.2,0.1-0.4,0.1-0.6c0-0.3,0-0.7,0-1c0-0.4-0.1-0.4-0.3-0.7c-0.2-0.2-0.5-0.3-0.5-0.6"/>
			<path id="XMLID_1167_" class="st0" d="M172.3,79.4c-0.3-0.2-0.6-0.3-0.9-0.5c-0.3-0.2-0.5-0.6-0.8-0.8c-0.7-0.9-1.2-2.1-1.2-3.2
				c0-0.6,0-1.2,0-1.8c0-0.6,0.2-1,0.5-1.5c0.2-0.4,0.6-0.7,1-1c0.2-0.2,0.6-0.3,0.9-0.4c0.4-0.2,0.9-0.1,1.3-0.3
				c0.1-0.1,0.3-0.2,0.4-0.3c0.1,0,0.3-0.1,0.4-0.1c0.3-0.1,0.4-0.1,0.7-0.1c0.3,0,0.4-0.1,0.6-0.1c0.2,0,0.5,0,0.7,0
				c0.9,0,1.7,0.3,2.4,0.8c0.3,0.2,0.4,0.5,0.6,0.7c0.2,0.2,0.4,0.5,0.6,0.7c0.3,0.3,0.7,0.8,0.8,1.2c0.1,0.4,0.2,0.7,0.3,1.1
				c0.1,0.2,0.1,0.3,0.1,0.5c0,0.2,0.1,0.3,0.1,0.5c0-0.8-0.1-1.6,0.1-2.4c0.1-0.6,0.4-1.4,0.9-1.7c0.4-0.3,0.7-0.6,1.1-0.8
				c0.1-0.1,0.4-0.1,0.5-0.2c0.2-0.1,0.2-0.2,0.4-0.3c0.4-0.2,0.9-0.1,1.4-0.1c0.4,0,0.8,0,1.2,0c0.3,0,0.6,0,0.9,0.1
				c0.3,0.1,0.4,0.3,0.7,0.4c0.1,0.1,0.3,0.1,0.4,0.2c0.2,0.2,0.3,0.4,0.5,0.6c0.2,0.2,0.2,0.2,0.3,0.5c0.2,0.4,0.3,0.7,0.5,1.1
				c0.2,0.3,0.2,0.5,0.2,0.9c0,0.5,0,1.1,0,1.6c0,0.6-0.1,1.1-0.4,1.7c-0.2,0.5-0.2,0.8-0.6,1.1"/>
			<path id="XMLID_1168_" class="st0" d="M184.5,85.7c0,0.1,0.1,0.1,0.1,0.1c0.1,0,0.1,0.1,0.1,0.1c0,0.1,0.1,0.1,0.1,0.1
				c0.1,0,0.1,0.1,0.2,0.1c0.1,0,0.2,0.1,0.2,0.1c0.1,0,0.1,0.1,0.2,0.1c0.2,0.1,0.4,0.1,0.7,0.2c0.3,0.1,0.6,0,0.9,0
				c0.3,0,0.5,0,0.8,0c0.2,0,0.3-0.1,0.4-0.1c0.1,0,0.1,0,0.2,0c0.1,0,0.2-0.1,0.2-0.1c0.3-0.1,0.7-0.2,0.9-0.4
				c0.2-0.2,0.4-0.3,0.6-0.5c0.2-0.2,0.3-0.4,0.5-0.5c0.2-0.1,0.3-0.3,0.4-0.5c0.1-0.1,0.2-0.2,0.3-0.3c0.1-0.2,0.2-0.3,0.3-0.5
				c0.1-0.1,0.2-0.3,0.3-0.4c0.1-0.1,0.1-0.3,0.2-0.5c0.1-0.1,0.1-0.3,0.2-0.4c0-0.1,0.1-0.2,0.1-0.3c0-0.1,0-0.2,0-0.3
				c0-0.1,0.1-0.1,0.1-0.2c0-0.1,0-0.1,0-0.2c0-0.2,0.1-0.4,0.1-0.6c0-0.3,0-0.5,0-0.8c0-0.3,0-0.5-0.1-0.7
				c-0.1-0.2-0.2-0.4-0.3-0.5c-0.1-0.2-0.2-0.3-0.3-0.4c-0.1-0.1-0.3-0.2-0.4-0.2c-0.1,0-0.2-0.1-0.3-0.2c-0.2-0.1-0.3-0.2-0.5-0.2
				c-0.2-0.1-0.3-0.2-0.5-0.3c-0.2-0.1-0.4-0.1-0.7-0.1c-0.2,0-0.5,0-0.7,0"/>
			<path id="XMLID_1169_" class="st0" d="M179.9,78.7c-0.1,0-0.2,0-0.3,0c-0.1,0-0.2,0.1-0.3,0.1c-0.1,0.1-0.2,0.1-0.3,0.2
				c-0.1,0-0.2,0.1-0.2,0.2c0,0.1,0,0.2-0.1,0.3c-0.1,0.1-0.1,0.2-0.1,0.3c0,0.2,0,0.4,0,0.6c0.1,0.3,0.2,0.5,0.4,0.7
				c0.2,0.2,0.5,0.2,0.8,0.2c0.1,0,0.3,0,0.4,0c0.1,0,0.2-0.1,0.3-0.2c0.1-0.1,0.2-0.2,0.3-0.3c0.1-0.1,0.2-0.2,0.2-0.3
				c0.1-0.3,0.1-0.6,0.1-0.8c0-0.1-0.1-0.2-0.2-0.2C180.9,79.3,180.8,79.1,179.9,78.7z"/>
			<path id="XMLID_1170_" class="st0" d="M178.2,77.2c-0.1,0-0.1,0-0.2,0.1c-0.1,0.1-0.3,0.2-0.4,0.3c-0.2,0.2-0.4,0.4-0.6,0.6
				c-0.1,0.1-0.1,0.2-0.1,0.4c-0.1,0.1-0.1,0.3-0.2,0.4c-0.1,0.3-0.1,0.6-0.1,0.9c0,0.3,0,0.5,0.1,0.8c0,0.1,0,0.2,0.1,0.2
				c0.1,0.1,0.1,0.3,0.1,0.4c0,0.1,0.2,0.2,0.2,0.4c0,0.1,0,0.2,0.1,0.3c0,0.1,0.1,0.2,0.2,0.3c0.1,0.1,0.1,0.2,0.3,0.3
				c0.2,0.1,0.4,0.2,0.5,0.3c0.2,0.1,0.4,0.2,0.6,0.3c0.1,0,0.2,0.1,0.3,0.1c0.1,0,0.2,0,0.3,0c0.4,0.1,0.9,0.1,1.4,0
				c0.2,0,0.3-0.1,0.5-0.2c0.2-0.1,0.4-0.2,0.6-0.3c0.1-0.1,0.2-0.2,0.3-0.3c0.1-0.1,0.2-0.2,0.3-0.3c0.1-0.3,0.3-0.5,0.5-0.7
				c0.1-0.1,0.2-0.1,0.2-0.2c0.1-0.1,0.1-0.2,0.1-0.3c0-0.1,0.1-0.1,0.1-0.2c0-0.1,0.1-0.2,0.1-0.3c0.1-0.2,0-0.5,0-0.7
				c0-0.2,0-0.5,0-0.7c0-0.1,0-0.2-0.1-0.3c-0.1-0.2-0.2-0.3-0.2-0.5c0-0.1-0.1-0.2-0.1-0.3c-0.2-0.3-0.4-0.7-0.7-1
				c-0.1-0.1-0.1-0.1-0.2-0.1c0,0-0.1-0.1-0.1-0.1c-0.1-0.1-0.2-0.1-0.4-0.2c-0.4-0.3-1-0.2-1.5-0.2c-0.1,0-0.3,0-0.4,0
				c-0.1,0-0.1,0-0.2,0.1c-0.1,0-0.1,0.1-0.2,0.1c-0.1,0-0.3,0.1-0.4,0.2C179,76.8,178.8,76.8,178.2,77.2z"/>
		</g>
		<path id="XMLID_1171_" class="st0" d="M168,83.7c-0.4,0-0.8,0-1.2,0.1c-0.1,0-0.2,0.1-0.2,0.2c-0.1,0.1-0.2,0.1-0.3,0.1
			c-0.1,0.1-0.3,0.2-0.4,0.3c-0.1,0.1-0.1,0.2-0.2,0.3c-0.1,0.1-0.3,0.2-0.4,0.3c-0.1,0.1-0.2,0.3-0.4,0.4c-0.4,0.3-0.6,0.7-0.8,1.2
			c-0.1,0.3-0.3,0.5-0.4,0.7c-0.1,0.3-0.2,0.6-0.3,1c-0.1,0.3-0.2,0.6-0.2,1c-0.1,0.4-0.1,0.8-0.1,1.2c0,0.5,0,1.1,0,1.6
			c0,0.1,0,0.3,0,0.4c0,0.1,0.2,0.2,0.1,0.3"/>
	</g>
</g>
</svg>
