<?xml version="1.0" encoding="utf-8"?>
<!-- Generator: Adobe Illustrator 19.0.0, SVG Export Plug-In . SVG Version: 6.00 Build 0)  -->
<svg version="1.1" id="Layer_1" xmlns="http://www.w3.org/2000/svg" xmlns:xlink="http://www.w3.org/1999/xlink" x="0px" y="0px"
	 viewBox="0 0 150 200" style="enable-background:new 0 0 150 200;" xml:space="preserve">
<style type="text/css">
	.st0{fill:none;stroke:#000000;stroke-width:0.9921;stroke-miterlimit:10;}
	.st1{stroke:#000000;stroke-width:0.9921;stroke-miterlimit:10;}
</style>
<g id="XMLID_218_">
	<path id="XMLID_721_" class="st0" d="M76.1,64c-0.2-0.3-0.3-0.3-0.6-0.5c-0.2-0.1-0.2-0.3-0.3-0.5c-0.2-0.2-0.2-0.3-0.3-0.6
		c-0.2-0.3-0.5-0.4-0.7-0.7c-0.2-0.3-0.5-0.6-0.7-1c-0.2-0.5-0.4-1.1-0.5-1.7c0-0.3-0.1-0.4-0.2-0.6c-0.1-0.2,0-0.5-0.1-0.7
		c0-0.1-0.1-0.2-0.2-0.2c-0.1-0.3-0.1-0.7-0.2-1c-0.1-0.2-0.2-0.4-0.3-0.6c-0.1-0.3-0.3-0.6-0.4-0.9c0-0.2,0-0.6,0-0.8
		c0-0.9,0-1.8,0-2.8c0-0.7,0-1.4,0-2.1c0-0.4,0-0.8,0-1.2c0-0.4,0.2-0.8,0.3-1.2c0.2-0.6,0.5-1.2,0.8-1.7c0.4-0.8,0.8-1.5,1.4-2.2
		c0.5-0.5,0.9-1.1,1.3-1.6c0.5-0.7,1.3-1.4,2.1-1.8c0.5-0.2,0.7-0.4,1.1-0.8c0.5-0.4,1-0.4,1.6-0.5c0.6-0.1,1.2-0.4,1.8-0.6
		c0.2-0.1,0.4-0.3,0.7-0.4c0.3-0.1,0.6-0.2,0.9-0.4c0.4-0.3,0.7-0.5,1.1-0.7c0.2-0.1,0.5-0.3,0.7-0.4c0.1,0,0.3,0,0.4,0
		c0.2,0,0.5-0.1,0.7-0.2c0.8-0.1,1.5-0.1,2.3-0.1c0.6,0,1.3-0.1,1.8,0.1c1.5,0.7,2.6,2.1,4.1,2.6c0.3,0.1,0.5,0.2,0.8,0.4
		c0.2,0.1,0.4,0,0.7,0.1c0.3,0.1,0.7,0.4,1,0.5c0.2,0.1,0.4,0.2,0.5,0.3c0.2,0.2,0.4,0.5,0.6,0.6c0.2,0.2,0.5,0.3,0.7,0.5
		c0.5,0.5,0.9,1,1.3,1.5c0.8,1.1,1.3,2.4,1.7,3.6c0.4,1.1,1.1,2.2,1.5,3.4c0.4,1.2,0.5,2.4,0.5,3.7c0,0.5,0.1,1-0.2,1.5
		c-0.2,0.3-0.4,0.6-0.5,1c-0.1,0.2-0.2,0.5-0.3,0.7c-0.1,0.2-0.3,0.2-0.4,0.4c-0.1,0.2-0.1,0.5-0.2,0.7c-0.1,0.4-0.2,0.3-0.4,0.5
		c-0.1,0.1,0,0.2-0.1,0.3c-0.1,0.1-0.2,0.3-0.3,0.4c-0.1,0.3,0,0.5-0.1,0.8c-0.1,0.2-0.3,0.4-0.4,0.5c-0.2,0.3-0.4,0.5-0.6,0.9
		c-0.3,0.5-0.6,0.8-0.8,1.4c-0.1,0.2,0,0.2-0.1,0.4c-0.1,0.2-0.3,0.3-0.4,0.5c-0.1,0.2-0.2,0.4-0.3,0.6c-0.1,0.3-0.5,0.5-0.7,0.7
		c-0.3,0.3-0.5,0.4-0.8,0.7c-0.2,0.3-0.4,0.4-0.6,0.6c-0.2,0.2-0.3,0.4-0.5,0.6c-0.2,0.2-0.9,0.6-0.8,0.8"/>
	<path id="XMLID_722_" class="st0" d="M79.9,46.8c0,0.4-0.1,0.8-0.3,1.2c-0.1,0.2-0.2,0.3-0.3,0.5c-0.1,0.2-0.1,0.5-0.1,0.7
		c0,0.5-0.1,1,0,1.5c0.1,0.5,0.2,1.2,0,1.7c-0.1,0.2-0.2,0.5-0.3,0.7c-0.1,0.1,0,0.3-0.1,0.4c-0.1,0.2-0.2,0.3-0.2,0.4
		c-0.1,0.2-0.1,0.5-0.2,0.7c-0.1,0.2-0.2,0.4-0.2,0.6c-0.1,0.2-0.1,0.5-0.1,0.7c0,0.1,0,0.3,0,0.4c0,0.2-0.1,0.3-0.1,0.4
		c0,0.2,0,0.5,0,0.7c0,0.1-0.1,0.2-0.1,0.2c0,0.1,0,0.3,0,0.4c-0.1,0.3-0.4,0.5-0.5,0.7c-0.1,0.2-0.2,0.4-0.3,0.6
		c-0.1,0.2-0.2,0.3-0.4,0.5c-0.2,0.2-0.2,0.4-0.2,0.6c0,0.6,0,1.2,0,1.9c0,0.3,0.1,0.4,0.3,0.6c0.2,0.2,0.4,0.4,0.6,0.6
		c0.2,0.2,0.4,0.3,0.6,0.5c0.2,0.2,0.4,0.4,0.6,0.5c0.3,0.2,0.6,0.3,0.8,0.5c0.2,0.1,0.5,0.3,0.7,0.4c1,0.4,2.4-0.1,3.4,0.2
		c0.6,0.1,1.2,0,1.9-0.1c0.8-0.2,1.7-0.3,2.5-0.4c0.2,0,0.6-0.1,0.7-0.3c0.1-0.1,0.1-0.3,0.3-0.4c0.1-0.1,0.3-0.2,0.4-0.3
		c0.5-0.2,1-0.3,1.5-0.3c0.3,0,0.4,0.1,0.6,0.1c0.2,0,0.5,0,0.7,0c0.3-0.1,0.6-0.3,0.9-0.4c0.3-0.1,0.5-0.2,0.7-0.4
		c0.3-0.2,0.3-0.4,0.5-0.6c0.3-0.4,0.7-0.8,1.1-1.1c0.2-0.1,0.4-0.2,0.6-0.3c0.2-0.1,0.5-0.3,0.7-0.5c0.1-0.2,0.1-0.5,0.2-0.7
		c0.1-0.5,0-1,0-1.5c0-0.3-0.1-0.7,0.1-1c0.1-0.1,0.2-0.2,0.3-0.3c0.3-0.5,0.8-0.9,1.2-1.3c0.4-0.5,0.7-1,0.9-1.6
		c0.1-0.3,0.3-0.6,0.3-0.9c0.1-0.5,0-1,0-1.4c0-0.9-0.1-1.8-0.2-2.7c-0.1-0.8-0.5-1.5-0.9-2.2c-0.1-0.3-0.3-0.6-0.5-0.9
		c-0.2-0.3-0.2-0.4-0.5-0.5c-1.1-0.5-2.2-0.7-3.3-1.2c-0.4-0.2-0.8-0.5-1.2-0.7c-0.5-0.3-0.9-0.6-1.4-0.8c-0.5-0.2-1.1-0.1-1.6-0.1
		c-0.6,0-1.1,0-1.7,0c-0.4,0-0.7-0.1-1,0.1c-0.4,0.2-0.9,0.3-1.3,0.3c-0.4,0-0.8,0-1.2,0c-0.3,0-0.6,0-0.8,0.1
		c-0.3,0.1-0.6,0.1-1,0.1c-0.7,0.1-1.4,0.3-2,0.7c-0.4,0.4-1,0.5-1.3,0.9c-0.4,0.4-0.8,0.8-1.1,1.2c-0.2,0.3-0.5,0.4-0.7,0.8
		c-0.2,0.3-0.4,0.6-0.7,0.8c-0.3,0.2-0.5,0.4-0.7,0.7c-0.2,0.2-0.2,0.5-0.3,0.8c-0.1,0.3-0.1,0.6-0.2,1c-0.1,0.2-0.2,0.3-0.3,0.4
		c-0.1,0.1,0,0.3,0,0.5c-0.1,0.6-0.4,1.2-0.8,1.7c-0.1,0.1-0.2,0.2-0.2,0.2c-0.1,0.1-0.2,0.2-0.3,0.2c-0.1,0.1,0,0.3,0,0.5
		c-0.1,0.3-0.1,0.5-0.2,0.8c0,0.3,0,0.7,0,1c0,0.3-0.1,0.6,0,0.9c0.1,0.4,0.5,0.7,0.8,1c0.3,0.3,0.7,0.6,1.1,0.8
		c0.2,0.1,0.5,0.1,0.8,0.1"/>
	<path id="XMLID_725_" class="st0" d="M79.6,50.3c0.3,0,0.7,0,1,0c0.1,0,0.3,0,0.4,0c0.2,0.1,0.3,0.2,0.5,0.2
		c0.2,0.1,0.3,0.1,0.4,0.2c0.3,0.2,0.3,0.6,0.3,0.9c0,0.2,0,0.4,0,0.6c0,0.2-0.1,0.3-0.2,0.5c-0.1,0.2-0.3,0.4-0.4,0.7
		c0,0.1-0.1,0.1-0.1,0.2c0,0.1,0,0.2-0.1,0.3c-0.1,0.2-0.2,0.3-0.2,0.5c0,0.1-0.1,0.2-0.1,0.3c0,0.1-0.1,0.2-0.1,0.2
		c0,0-0.1,0.1-0.1,0.1c-0.1,0-0.1,0.1-0.1,0.1c-0.1,0.1-0.1,0.1-0.2,0.2c0,0,0,0.1-0.1,0.1c0,0.1-0.1,0.1-0.1,0.1
		c-0.1,0.1,0,0.2,0,0.3c0,0.1,0,0.2,0.1,0.2c0.1,0.1,0.1,0.1,0.1,0.2c0,0.1,0,0.2,0,0.3c0,0.1-0.1,0.2-0.1,0.3c0,0.1,0,0.2,0.1,0.3
		c0.1,0.1,0.3,0.2,0.4,0.2c0.1,0,0.2,0,0.3,0c0.1,0,0.2,0,0.3,0c0.1,0,0.2,0,0.3,0c0.1,0,0.2,0,0.3,0c0.2,0,0.3,0.1,0.5,0.2
		c0.2,0.1,0.5,0.1,0.7,0c0.1,0,0.1-0.1,0.2-0.2c0.1,0,0.1,0,0.2-0.1c0.1-0.1,0.1-0.3,0.2-0.4c0-0.1,0.1-0.1,0.1-0.2
		c0-0.2,0-0.5-0.1-0.6c0,0-0.1-0.1-0.1-0.1c0,0,0-0.1-0.1-0.1c0,0-0.1,0-0.1-0.1c0,0-0.1-0.1-0.1-0.1c-0.1,0-0.2-0.1-0.2-0.1
		c-0.1,0-0.2,0-0.4,0"/>
	<path id="XMLID_726_" class="st0" d="M83.2,54.3c0-0.2,0-0.4,0.1-0.6c0.1-0.1,0.1-0.3,0.1-0.4c0-0.2,0.1-0.3,0.1-0.5
		c0-0.1,0-0.2,0-0.3c0-0.1,0-0.3,0-0.4c0-0.2,0.1-0.4,0.2-0.5c0-0.1,0-0.1,0.1-0.1c0,0,0.1-0.1,0.1-0.1c0.1-0.1,0.4-0.1,0.5-0.1
		c0.1,0,0.3,0,0.4,0c0.2,0,0.4,0.1,0.7,0.2c0.1,0,0.2,0.1,0.3,0.2c0.1,0,0.3,0,0.4,0c0.1,0,0.3,0,0.4,0c0.2,0,0.4,0,0.6,0
		c0.1,0,0.3,0.1,0.4,0.1c0.1,0,0.2,0.1,0.4,0.1c0.1,0,0.1,0,0.1,0.1c0.1,0.1,0.1,0.1,0.2,0.2c0.1,0,0.1,0.1,0.2,0.1
		c0.1,0.1,0.1,0.1,0.2,0.1"/>
	<path id="XMLID_727_" class="st1" d="M79.9,51.7c0,0.1,0,0.2,0,0.2c0,0.1,0,0.1,0,0.2c0,0,0,0.1,0,0.1c0,0,0,0.1,0,0.1
		c0,0.1,0,0.2,0,0.2c0,0.1,0,0.1,0.1,0.1c0.1,0,0.2,0.1,0.2,0.1c0.2,0,0.4-0.2,0.5-0.4c0-0.1,0.1-0.2,0.1-0.3c0-0.1,0.1-0.1,0.1-0.2
		c0-0.2-0.1-0.2-0.2-0.3C80.4,51.5,80,51.3,79.9,51.7"/>
	<path id="XMLID_728_" class="st1" d="M84.7,52.5c-0.1,0-0.2,0.1-0.2,0.1c0,0-0.1,0.1-0.1,0.1c0,0,0,0-0.1,0.1
		c-0.1,0.2-0.1,0.3-0.1,0.5c0,0.1,0,0.2,0,0.3c0,0.1,0.1,0.1,0.1,0.2c0.1,0.1,0.3,0.1,0.5,0.1c0.1,0,0.2,0,0.2,0
		c0-0.1,0.1-0.2,0.1-0.2c0.1-0.2,0.1-0.4,0.1-0.7c0-0.1,0-0.2,0-0.2c0-0.1-0.1-0.1-0.2-0.1c-0.2-0.1-0.4,0-0.6,0"/>
	<path id="XMLID_729_" class="st0" d="M83.7,54.2c0,0.1,0,0.2,0.1,0.2c0.1,0.1,0.1,0.2,0.2,0.2c0.1,0,0.1,0.1,0.2,0.1
		c0.1,0,0.1,0.1,0.2,0.1c0.2,0.1,0.3,0.1,0.5,0.1c0.2,0,0.5,0,0.7,0c0.1,0,0.2-0.1,0.3-0.1c0.1-0.1,0.2-0.1,0.3-0.2c0,0,0.1,0,0.1,0
		c0,0,0.1,0,0.1,0c0,0,0.1-0.1,0.1-0.1c0.1,0,0.2-0.1,0.2-0.1c0.1-0.1,0.1-0.1,0.2-0.2c0,0,0-0.1,0.1-0.1c0.1,0,0.1,0,0.2,0
		c0,0,0,0,0.1-0.1c0.1,0,0.1,0,0.2,0c0,0,0.1,0,0.1,0c0.1,0,0.1,0,0.1,0c0.1,0,0.2,0,0.3-0.1c0.1,0,0.2-0.1,0.3-0.1"/>
	<path id="XMLID_730_" class="st0" d="M78.6,59.2c0-0.1,0.1-0.2,0.2-0.3c0.1-0.1,0.2-0.1,0.3-0.2c0.1,0,0.1-0.1,0.2-0.2
		c0,0,0-0.1,0.1-0.1c0,0,0.1-0.1,0.2-0.1c0.1,0,0.1,0,0.2,0c0.1,0,0.1,0,0.2,0c0.1,0,0.3,0,0.4,0c0.2,0,0.5,0,0.7,0
		c0.1,0,0.2,0,0.4,0c0.1,0,0.1,0,0.2,0c0.1,0,0.1,0,0.1,0.1c0,0.1,0,0.1,0.1,0.2c0,0,0.1,0.1,0.1,0.1c0.1,0.1,0.1,0.1,0.2,0.2
		c0,0,0.1,0.1,0.1,0.1c0.1,0.1,0.1,0.1,0.2,0.1c0.1,0.1,0.1,0.2,0.2,0.3c0.1,0.1,0.2,0.2,0.2,0.3c0,0,0,0.1,0,0.1c0,0,0,0,0,0.1
		c0,0.1,0,0.1,0,0.2c0,0,0,0,0,0"/>
	<path id="XMLID_731_" class="st0" d="M80.7,58.1c0.2,0,0.2-0.1,0.3-0.3c0-0.1,0.1-0.2,0.2-0.3"/>
	<path id="XMLID_732_" class="st0" d="M81.1,46.5C81,46.5,81,46.5,81.1,46.5c0.3-0.1,0.5-0.4,0.9-0.4c0.4-0.1,0.7,0.3,1.1,0.5
		c0.2,0.1,0.3,0.2,0.4,0.3c0.1,0.1,0.2,0.1,0.3,0.1c0,0,0.1,0,0.1,0.1c0,0,0,0.1,0,0.1c0.2,0.2,0.5,0.2,0.7,0
		c0.1-0.1,0.1-0.1,0.1-0.2c0.1-0.1,0.2-0.1,0.2-0.2c0.1-0.1,0.2-0.2,0.4-0.3c0.2-0.1,0.5,0,0.7,0c0.2,0,0.5,0,0.7,0
		c0.2,0,0.3,0.1,0.4,0.2c0.2,0.3,0.5,0.5,0.8,0.8c0.2,0.2,0.3,0.4,0.5,0.6c0,0,0.1,0.1,0.1,0.1c0.1,0.1,0.1,0.2,0.1,0.2
		c0.1,0.1,0.2,0.2,0.2,0.3c0.1,0.2,0.1,0.3,0.2,0.4c0.1,0.1,0.2,0.3,0.3,0.4c0.1,0.1,0.3,0.2,0.4,0.4c0.2,0.1,0.3,0.3,0.4,0.5
		c0,0.1,0.1,0.2,0.1,0.3c0,0.1,0.1,0.1,0.2,0.2c0.1,0.2,0.1,0.5,0.1,0.7c0.1,0.4,0.1,0.7,0.1,1c0,0.2,0,0.4,0,0.6
		c0,0.1,0.1,0.2,0.1,0.3c0.1,0.1,0.1,0.3,0.1,0.4c0,0.1,0.1,0.2,0.1,0.4c0,0.1,0.1,0.3,0.1,0.4c0,0.2,0.1,0.4,0.1,0.6
		c0,0.2,0,0.4,0,0.5c0,0.2-0.1,0.4-0.1,0.5c0,0.1-0.1,0.2-0.1,0.3c0,0.1-0.1,0.2-0.1,0.3c-0.1,0.2-0.2,0.4-0.3,0.6
		c-0.1,0.2-0.2,0.3-0.2,0.5c0,0.1-0.1,0.2-0.1,0.3c0,0.1-0.1,0.2-0.2,0.3c-0.1,0.1-0.1,0.3-0.2,0.4c-0.1,0.1-0.1,0.2-0.2,0.3
		c-0.1,0.1-0.1,0.2-0.1,0.3c0,0-0.1,0.1-0.1,0.1c0,0,0,0.1-0.1,0.1c-0.2,0.4-0.2,0.8-0.2,1.3"/>
	<path id="XMLID_733_" class="st0" d="M79.2,65.5c0,1.2-1.4,2-1.5,3.3c0,0.5-0.1,1.5-0.7,1.6c-0.8,0.1-1.6-0.1-2.4,0.1
		c-0.3,0.1-0.5,0.1-0.7,0.1c-0.2,0.1-0.5,0.1-0.7,0.2c-0.3,0.2-0.5,0.3-0.9,0.3c-0.3,0-0.5,0.2-0.8,0.2c-0.1,0-0.3,0-0.4,0
		c-0.2,0-0.3,0.2-0.4,0.2c-0.2,0.1-0.4,0.2-0.6,0.3c-0.1,0.1-0.3,0.2-0.4,0.4c-0.1,0.1-0.2,0.3-0.3,0.5c0,0.2,0,0.2-0.1,0.3
		c-0.1,0.1-0.2,0.2-0.2,0.3C69,73.6,69,73.7,69,73.9c0,0.2-0.1,0.1-0.2,0.3c-0.1,0.2-0.2,0.3-0.4,0.5c-0.1,0.1-0.4,0.4-0.3,0.6"/>
	<path id="XMLID_734_" class="st0" d="M76.6,70.5c0,0.4,0,0.6,0.3,1c0.3,0.3,0.4,0.6,0.6,0.9c0.2,0.4,0.6,0.7,0.9,1
		c0.1,0.1,0.1,0.2,0.2,0.2c0.1,0.1,0.2,0.1,0.3,0.2c0.2,0.2,0.4,0.4,0.6,0.6c0.2,0.2,0.3,0.2,0.7,0.2c0.3,0,0.6,0,0.8,0
		c0.4,0,0.8,0,1.2,0c0.4,0,0.9,0.1,1.3,0c0.4-0.1,0.8-0.3,1.2-0.3c0.4,0,0.8,0,1.2,0c0.6,0,1.3,0,2,0c0.4,0,0.8,0.1,1.2,0.1
		c0.4,0,0.7,0.1,1.1,0.1c0.6,0,1.3,0.1,1.8-0.1"/>
	<path id="XMLID_735_" class="st0" d="M90.5,64.8c-0.1,1.1,0.6,2.1,0.9,3.2c0,0.2,0,0.4,0,0.5c0,0.2,0.2,0.3,0.2,0.5
		c0,0.2,0,0.4,0,0.6c0,0.3,0.1,0.6,0.2,0.9c0.1,0.4,0.2,0.8,0.2,1.2c0.1,0.4,0,0.8,0,1.2c0,0.7,0,1.3,0,2c0,0.4,0,0.8,0,1.2
		c0,0.3,0,0.4,0.1,0.7c0,0.1,0,0.3,0,0.4c0,0.2,0.1,0.3,0.1,0.4c0,0.1,0,0.3,0,0.4c0,0.2,0.1,0.3,0.1,0.5c0,0.3,0.1,0.6,0.1,0.9
		c0,0.1,0,0.3,0,0.4c0,0.3,0.1,0.5,0.1,0.8c0.1,0.7,0.3,1.3,0.4,2c0.1,0.5,0.5,1,0.6,1.5c0.1,0.7,0.1,1.3,0.2,2
		c0.1,0.3,0.1,0.6,0.1,1c0,0.4,0.1,0.8,0.1,1.2c0,0.5,0,1.1,0.2,1.6c0.2,0.8,0.7,1.6,1,2.4c0.1,0.3,0.1,0.5,0.2,0.8
		c0.1,0.2,0.2,0.4,0.3,0.6c0.1,0.4,0.2,0.8,0.3,1.1c0.1,0.2,0.3,0.5,0.4,0.8c0.1,0.2,0,0.4,0,0.6c0,0.2,0.1,0.4,0.1,0.6
		c0,0.2,0,0.5,0,0.7c0,0.2,0.1,0.4,0,0.6c-0.1,0.1-0.2,0.2-0.2,0.4c-0.2,0.4-0.4,0.6-0.7,1c-0.3,0.5-0.5,1.1-0.7,1.6
		c-0.2,0.4-0.4,0.8-0.5,1.2c-0.5,1.2-0.5,2.5-1.1,3.7c-0.1,0.1-0.2,0.2-0.2,0.3c-0.1,0.2,0,0.4-0.1,0.5c-0.1,0.3-0.2,0.7-0.3,1
		c-0.1,0.6-0.2,1.1-0.3,1.7c-0.1,0.5-0.2,1-0.2,1.5c0,0.2-0.1,0.4-0.1,0.6c0,0.3,0,0.6,0,0.8c0,0.6-0.1,1.2-0.1,1.8
		c0,0.7-0.1,1.3-0.1,2c0,0.6-0.1,1.5-0.1,2.1c0,0.3,0,0.5,0,0.8c0,0.4,0.1,0.6,0.3,0.9c0.1,0.2,0.1,0.4,0.2,0.6
		c0.1,0.2,0.2,0.3,0.3,0.5c0.1,0.2,0.2,0.5,0.4,0.8c0.1,0.2,0.1,0.5,0.2,0.7c0.1,0.4,0.3,0.7,0.4,1.1c0.1,0.4,0.2,1.5-0.2,1.7
		c-0.5,0.2-1.2,0.1-1.8,0.1c-0.4,0-0.8,0-1.2,0.1c-0.2,0.1-0.5,0.1-0.7,0.2c-0.2,0.1-0.3,0.3-0.5,0.5c-0.2,0.1-0.4,0.3-0.5,0.5
		c0,0.2,0,0.5,0,0.7c0,0.3,0,0.3,0.2,0.5c0.3,0.2,0.3,0.5,0.5,0.8c0.3,0.4,0.7,0.6,1,0.9c0.2,0.3,0.4,0.6,0.7,0.9
		c0.2,0.3,0.5,0.6,0.6,0.9c0.1,0.2,0.2,0.4,0.4,0.6c0,0.1,0.2,0.2,0.2,0.3c0.1,0.5,0,1.2-0.1,1.7c-0.1,0.3-0.1,0.6-0.2,0.9
		c-0.2,0.5-0.3,0.9-0.6,1.2c-0.2,0.2-0.3,0.5-0.4,0.7c-0.1,0.2-0.3,0.4-0.5,0.6c-0.2,0.4-0.3,0.8-0.5,1.2c-0.1,0.3-0.2,0.7-0.3,1.1
		c-0.2,0.3-0.4,0.6-0.6,0.9c-0.1,0.2-0.3,0.4-0.4,0.6c-0.1,0.1-0.1,0.1-0.2,0.2c-0.2,0.1-0.2,0.3-0.3,0.4c-0.2,0.2-0.5,0.2-0.7,0.4
		c-0.1,0.1-0.1,0.2-0.2,0.3c-0.1,0.1-0.2,0.1-0.3,0.2c-0.7,0.6-1,1.6-1.7,2.1c-0.2,0.1-0.4,0.2-0.6,0.5c-0.2,0.2-0.3,0.4-0.5,0.5
		c-0.3,0.2-0.5,0.1-0.8,0.1c-0.3,0-0.8,0.1-1.1,0.2c-0.2,0.1-0.3,0.2-0.4,0.3c-0.2,0.1-0.5,0.1-0.7,0.2c-0.3,0.1-0.7,0.2-1,0.4
		c-0.3,0.1-0.5,0.3-0.8,0.5c-0.3,0.2-0.6,0.3-0.9,0.5c-0.1,0.1-0.2,0.3-0.3,0.3c-0.1,0.1-0.3,0.1-0.4,0.1c-0.4,0.2-0.6,0.5-0.9,0.9
		c-0.2,0.3-0.3,0.6-0.4,0.9c-0.1,0.3-0.4,0.6-0.5,0.9c-0.1,0.2-0.2,0.6-0.1,0.9c0.1,0.3,0.4,0.3,0.6,0.5c0.2,0.1,0.4,0.2,0.5,0.4
		c0.1,0.1,0.1,0.2,0.2,0.3c0.3,0.2,0.6,0.4,0.9,0.5c0.2,0.1,0.5,0.2,0.7,0.3c0.3,0.1,0.5,0.3,0.8,0.6c0.3,0.2,0.4,0.4,0.6,0.7
		c0.2,0.3,0.5,0.6,0.6,1c0,0.2,0,0.3,0,0.4c0,0.3,0.1,0.5,0.1,0.8c0.1,0.5,0.1,0.9,0.1,1.4c0,0.8-0.4,1.9-1,2.4
		c-0.1,0.1-0.3,0.1-0.4,0.2c-0.2,0.1-0.4,0.4-0.7,0.5c-0.4,0.3-0.8,0.5-1.2,0.8c-0.2,0.2-0.4,0.3-0.7,0.4c-0.4,0.2-0.6,0.6-1.1,0.8
		c-0.3,0.1-0.4,0.1-0.6,0.3c-0.3,0.3-0.5,0.3-0.9,0.5c-0.5,0.3-0.8,0.7-1.2,1c-0.3,0.2-0.7,0.4-0.9,0.6c-0.2,0.1-0.3,0.3-0.4,0.5
		c-0.2,0.2-0.6,0.4-0.7,0.7c-0.1,0.2,0,0.3-0.2,0.5c-0.1,0.1-0.2,0.1-0.3,0.2c-0.1,0.1-0.3,0.2-0.3,0.3c-0.2,0.2-0.4,0.4-0.6,0.5
		c-0.5,0.4-1,0.8-1.3,1.4c-0.2,0.3-0.5,0.5-0.6,0.8c-0.2,0.3-0.2,0.6-0.4,0.9c-0.1,0.2-0.2,0.4-0.2,0.6c0,0.1-0.1,0.2-0.1,0.2
		c0,0.1-0.1,0.2-0.1,0.3c-0.1,0.3,0.1,0.6,0,0.9c0,0.1-0.1,0.2-0.1,0.3c0,0.1,0,0.3,0,0.4"/>
	<path id="XMLID_736_" class="st0" d="M92.9,64c0.6,0.4,1.3,0.9,1.9,1.3c0.3,0.2,0.7,0.5,0.9,0.8c0.1,0.2,0.2,0.5,0.3,0.7
		c0.1,0.3,0.3,0.5,0.4,0.7c0.1,0.2,0.1,0.4,0.2,0.5c0.1,0.2,0.2,0.4,0.3,0.5c0.2,0.4,0.3,0.8,0.6,1.2c0.2,0.3,0.4,0.7,0.6,1.1
		c0.2,0.2,0.2,0.4,0.3,0.7c0.1,0.3,0.2,0.5,0.3,0.8c0.1,0.3,0.2,0.5,0.2,0.8c0,0.3,0,0.6,0,1c0,0.8,0,1.6,0,2.4c0,1.9,0,3.8,0,5.7
		c0,1,0,1.9,0,2.9c0,0.6,0.1,1.1,0,1.7c0,0.2-0.1,0.5-0.1,0.7c-0.1,0.3,0,0.6-0.1,0.9c-0.1,0.1-0.2,0.2-0.3,0.4
		c-0.1,0.3-0.1,0.6-0.1,0.9c0,0.6,0.1,1.2,0.1,1.8c0,0.8,0,1.6,0,2.3c0,0.5,0,1,0,1.5c0,0.3,0,0.3,0.2,0.6c0.1,0.3,0,0.6,0.1,1
		c0.1,0.8,0.2,1.7,0.1,2.6c0,0.2-0.1,0.4-0.2,0.7c-0.1,0.3-0.1,0.4-0.1,0.6c-0.1,0.5-0.2,1-0.3,1.5c-0.3,1.4-0.7,2.7-1.1,4.1
		c-0.1,0.2-0.1,0.5-0.2,0.7c-0.1,0.2-0.2,0.4-0.3,0.6c-0.1,0.5-0.2,1-0.4,1.5c-0.1,0.4-0.2,0.8-0.3,1.2c-0.1,0.4-0.3,0.9-0.4,1.3
		c0,0.2,0,0.4-0.1,0.5c-0.1,0.1-0.1,0.2-0.2,0.3c0,0.1,0,0.2,0,0.3c-0.1,0.3-0.2,0.2-0.3,0.5c-0.1,0.7-0.1,1.5-0.2,2.2
		c-0.1,0.3-0.1,0.6-0.1,0.9c-0.1,0.3-0.2,0.6-0.2,0.9c0,0.2,0,0.4,0,0.7c-0.2,0.9-0.1,1.8-0.1,2.6c0,0.8-0.1,1.6-0.1,2.4
		c0,0.5,0,1.1,0,1.6c0,0.1,0,0.2,0,0.4c0,0.3-0.2,0.5-0.2,0.8c0,0.3-0.1,0.6-0.1,0.9c-0.1,0.6-0.2,1.2-0.3,1.7
		c-0.1,0.4-0.3,0.8-0.3,1.2c0,0.2,0,1.1-0.3,1c0,0.7,0.4,1.4,0.6,2.1c0.1,0.4,0.3,0.8,0.4,1.3c0.2,0.4,0.2,0.9,0.3,1.3
		c0.1,0.5,0.1,1.1,0.3,1.6c0.1,0.2,0.2,0.3,0.2,0.5c0.1,0.4,0.3,0.8,0.4,1.2c0.1,0.4,0.1,0.9,0.3,1.2c0.1,0.3,0.2,0.6,0.3,1
		c0.2,0.8,0.2,1.5,0.2,2.3c0,1,0.5,2,0.8,3c0.1,0.3,0.1,0.7,0.1,1c0,0.4,0.1,0.7,0.2,1c0.1,0.3,0.2,0.7,0.2,1c0.1,0.3,0,0.7,0,1
		c0.1,0.4,0.2,0.7,0.3,1.1c0.1,0.7,0.1,1.4,0.3,2.1c0.2,0.6,0.4,1.1,0.6,1.8c0.1,0.4,0.2,0.7,0.3,1.1c0.1,0.4,0.3,0.8,0.4,1.2
		c0.1,0.4,0.2,0.9,0.4,1.3c0.3,0.7,0.2,1.5,0.4,2.2c0.1,0.3,0.1,0.6,0.2,0.9c0.1,0.3,0.1,0.5,0.2,0.8c0.1,0.3,0.2,0.5,0.3,0.8
		c0.2,0.6,0.2,1.3,0.5,2c0.1,0.1,0.1,0.2,0.1,0.3c0,0.2,0,0.4,0.1,0.7c0.2,0.5,0.5,1,0.7,1.5c0.2,0.5,0.7,0.9,1,1.4
		c0.4,0.6,0.8,1.2,1.3,1.8c0.4,0.5,0.8,0.8,1.2,1.1c0.3,0.2,0.5,0.5,0.9,0.7c0.1,0.1,0.3,0.1,0.4,0.2c0.2,0.2,0.2,0.4,0.5,0.5
		c0.8,0.3,1.4,0.9,2,1.5c0.2,0.3,0.5,0.5,0.7,0.8c0.1,0.2,0.3,0.3,0.4,0.5c0.2,0.2,0.3,0.4,0.5,0.6c0.2,0.2,0.5,0.2,0.5,0.5
		c0.1,0,0.3,0.1,0.2,0.2c-0.3,0.1-0.8,0-1.1,0c-0.2,0-0.5,0-0.7,0c-0.2,0-0.4,0.2-0.7,0.2c-0.5,0.1-1,0-1.5,0.2
		c-0.4,0.1-0.7,0.3-1.1,0.5c-0.2,0.1-0.5,0.2-0.6,0.3c-0.1,0.1-0.2,0.3-0.3,0.4c-0.1,0.1-0.2,0.1-0.3,0.2c-0.1,0.1-0.2,0.3-0.4,0.4
		c-0.1,0.1-0.3,0.2-0.4,0.3c-0.3,0.2-0.5,0.5-0.7,0.7c-0.1,0.2-0.3,0.3-0.4,0.4c-0.1,0.2-0.2,0.4-0.2,0.6c-0.2,0.4-0.3,0.8-0.5,1.1
		c-0.1,0.2-0.3,0.3-0.4,0.4c-0.2,0.2-0.1,0.3-0.2,0.5c-0.2,0-0.3,0.2-0.5,0.2c-0.2,0-0.4,0-0.6,0c-0.3,0-0.4-0.2-0.6-0.3
		c-0.3-0.1-0.5-0.3-0.8-0.4c-0.7-0.4-1.4,0.4-2.1,0.3c-0.2,0-0.4-0.1-0.6-0.1c-0.4,0-0.5,0.5-0.6,0.8c-0.1,0.5-0.3,1-0.3,1.5
		c0,0.3-0.1,0.6-0.3,0.8c-0.2,0.2-0.3,0.5-0.5,0.7c-0.3,0.4-0.8,0.4-1.3,0.4c-0.4,0-0.8,0.1-1.3,0.3c-0.3,0.1-0.7,0.1-1,0.1
		c-0.5,0-0.8-0.4-1.3-0.5c-0.2,0-0.4,0-0.5,0c-0.2,0.1-0.1,0.1-0.2,0.3c-0.4,0.6-1.1,1-1.7,1.4c-0.4,0.2-0.6,0.4-1,0.4
		c-0.2,0-0.4,0-0.6-0.1c-0.3-0.1-0.5-0.3-0.9-0.4c-0.4-0.1-0.7-0.2-1.1-0.2c-0.2,0-0.5,0-0.7,0c-0.2,0-0.3,0.2-0.5,0.3
		c-0.3,0.2-0.7,0.3-1.1,0.5c-0.4,0.2-0.8,0.5-1.3,0.7c-0.6,0.2-1.4,0.3-1.9-0.2c-0.2-0.3-0.4-1.3,0-1.4c0.1,0,0.2,0,0.2,0
		c0.4-0.1,0.5-0.3,0.7-0.7c0.1-0.3,0.3-0.7,0.4-1.1c0.1-0.4,0.4-0.7,0.7-0.9c0.3-0.2,0.6-0.2,0.9-0.2c0.8,0,1.9,0.1,2.5-0.5
		c0.2-0.2,0.3-0.4,0.6-0.5c0.2-0.1,0.6-0.5,0.4-0.8c-0.3-0.1-0.8,0-1.1,0c-0.4,0-0.7,0-1.1,0c-0.8,0-1.6,0.2-2.3,0.1
		c-0.4-0.1-1.4-0.4-1.2-1c0.1-0.2,0.4-0.3,0.6-0.4c0.2-0.2,0.3-0.1,0.1-0.4c-0.1-0.1-0.2-0.2-0.4-0.3c-0.2-0.1-0.3-0.2-0.5-0.3
		c-0.3-0.2-0.5-0.2-0.9-0.3c-0.3-0.1-0.6-0.1-0.9-0.1c-0.2,0-0.5,0-0.7,0c-0.2,0-0.4,0.1-0.7,0.2c-0.4,0.1-0.8,0.1-1.2,0.2
		c-0.9,0.2-1.8,0.3-2.7,0.4c-0.9,0.1-1.7,0.1-2.6,0.1c-0.4,0-0.7,0.1-0.9-0.3c-0.2-0.4-0.1-0.9-0.1-1.3c0-0.4-0.1-0.7-0.1-1.1
		c-0.1-0.7-0.5-1.3-0.6-2c0-0.4,0.1-0.5-0.3-0.6c-0.2-0.1-0.3-0.1-0.5-0.1c-0.3,0-0.3,0-0.5-0.2c-0.2-0.2-0.3-0.3-0.4-0.6
		c0-0.4,0-0.7-0.1-1.1c-0.1-0.3-0.2-0.6-0.3-0.9c-0.1-0.5-0.1-0.9-0.3-1.4c-0.2-0.5-0.2-1.1-0.3-1.6c-0.2-1.1-0.1-2.3-0.1-3.4
		c0-0.6,0-1.2,0-1.7c0-0.4-0.1-0.8-0.1-1.3c0-0.4,0.1-1,0-1.4c-0.1-0.5-0.5-0.8-0.7-1.2c-0.2-0.3-0.2-0.6-0.5-0.9
		c-0.1-0.1-0.3-0.2-0.4-0.3c-0.7-0.8-0.6-2.1-0.6-3.1c0-0.4,0-0.9,0-1.3c0-0.2-0.1-0.6,0-0.8c0-0.2,0.1-0.3,0.1-0.4
		c0.1-0.6,0-1.2,0-1.7c0-0.6,0-1.2,0-1.8c0-1.3,0.1-2.6,0.1-3.8c0-1.1,0-2.2,0-3.3c0-1.4,0-2.9,0-4.3"/>
	<path id="XMLID_737_" class="st0" d="M90.3,82.6c0,0.4-0.3,0.9-0.4,1.3c-0.1,0.4-0.4,0.7-0.6,1c-0.2,0.4-0.4,0.8-0.6,1.1
		c0,0-0.1,0-0.1,0c0,0.1,0,0.1,0,0.2c0,0-0.1,0.1-0.1,0.1c0,0.2,0,0.5-0.2,0.6c-0.1,0.1-0.2,0.2-0.3,0.4c-0.1,0.2-0.2,0.4-0.5,0.4
		c-0.2,0-0.4-0.2-0.6-0.3c-0.4-0.2-0.6-0.4-0.9-0.6c-0.5-0.3-0.9-0.8-1.3-1.2c-0.2-0.2-0.3-0.2-0.6-0.4c-0.2-0.1-0.4-0.1-0.5-0.2
		c-0.2-0.1-0.3-0.2-0.5-0.3c-0.2-0.1-0.3-0.2-0.4-0.3c-0.2-0.2-0.2-0.4-0.3-0.5c-0.1-0.1-0.3-0.1-0.4-0.2c-0.2-0.1-0.3-0.2-0.5-0.4
		c-0.3-0.3-0.6-0.4-0.9-0.6c-0.3-0.2-0.5-0.3-0.8-0.4c-0.4-0.3-0.7-0.7-1.1-1c-0.3-0.2-0.6-0.2-0.9-0.4c-0.1-0.1,0-0.1-0.1-0.2
		c-0.1,0-0.2,0-0.3,0c-0.1-0.1-0.3-0.2-0.4-0.2c-0.1-0.1-0.1-0.2-0.2-0.2c-0.1-0.1-0.2-0.1-0.3-0.1c-0.2-0.1-0.4-0.4-0.6-0.4
		c-0.2,0.1-0.1,0.9-0.1,1.1c0,0.6,0,1.1,0,1.7c0,0.7,0,1.4,0.1,2.1c0,0.3,0,0.5,0,0.8c0,0.1,0.1,0.4,0,0.5c0,0-0.2,0.1-0.3,0.1
		c-0.1,0.1-0.2,0.3-0.2,0.4c-0.1,0.2-0.2,0.4-0.3,0.6c-0.1,0.1-0.2,0.2-0.2,0.3c-0.1,0.1-0.1,0.3-0.1,0.5c-0.1,0.3-0.3,0.5-0.5,0.7
		c-0.1,0.1-0.2,0.3-0.3,0.3c-0.1,0-0.1-0.3-0.2-0.5c-0.1-0.1-0.1-0.3-0.2-0.3c-0.2,0-0.3,0.2-0.3,0.3c0,0.2,0,0.2-0.1,0.4
		c-0.1,0.1-0.1,0.3-0.1,0.5c0,0.1-0.1,0.1-0.1,0.2c0,0.1,0,0.2,0,0.3c0,0.2-0.1,0.4-0.1,0.6c0,0.2,0,0.4,0,0.6c0,0.3-0.1,0.6,0,0.9
		c0.1,0.4,0.5,0.5,0.7,0.2c0.1-0.1,0.2-0.3,0.3-0.4c0.1-0.1,0-0.1,0.1-0.2c0.2-0.1,0.4,0.1,0.6,0.2c0.2,0.2,0.4,0.3,0.7,0.5
		c0.2,0.1,0.3,0.1,0.4,0.3c0.2,0.2,0.1,0.1,0.3,0.2c0.1,0.1,0.3,0.1,0.4,0.2c0.2,0.1,0.4,0.1,0.7,0.2c0.8,0.3,1.1,0.9,1.5,1.7
		c0.1,0.2,0.2,0.4,0.3,0.5c0.1,0.1,0.2,0.1,0.3,0.2c0.2,0.2,0,0.2,0.3,0.4c0.4,0.2,0.8,0.3,1.1,0.4c0.3,0.2,0.6,0.4,0.9,0.5
		c0.8,0.3,1.5,0.8,2.2,1.2c0.5,0.3,0.9,0.5,1.4,0.7c0.5,0.2,1,0.6,1.4,0.9c0.3,0.3,0.6,0.5,0.8,0.8c0.1,0.1,0.1,0.2,0.2,0.2
		c0.2,0.2,0.3,0.2,0.5,0.4c0.2,0.2,0.3,0.5,0.5,0.6c0.1,0,0.3,0.1,0.4,0.1c0.3,0.1,0.5,0.2,0.7,0.3c0.3,0.2,0.7,0.3,1,0.4
		c0.2,0.1,0.5,0.1,0.7,0.2c0.4,0.2,0.8,0.2,1.3,0.2"/>
	<path id="XMLID_738_" class="st0" d="M64.7,83.2c0,0.8,0.1,1.6-0.4,2.2c-0.2,0.3-0.3,0.7-0.5,1c-0.1,0.2-0.2,0.4-0.3,0.6
		c-0.1,0.1-0.2,0.3-0.2,0.4c0,0.1,0,0.2-0.1,0.3c0,0.1-0.1,0.1-0.2,0.2c-0.1,0.1-0.1,0.3-0.1,0.4c-0.1,0.2-0.3,0.5-0.4,0.7
		c-0.1,0.1-0.1,0.1-0.1,0.2c0,0-0.1,0.1-0.1,0.1c-0.1,0.2-0.3,0.3-0.4,0.5c-0.2,0.2-0.5,0.6-0.6,0.8"/>
	<path id="XMLID_739_" class="st0" d="M74.7,70.4c-0.2,0-0.5-0.1-0.6,0.1c-0.1,0.1-0.1,0.2-0.2,0.3c-0.1,0.1-0.3,0.2-0.4,0.4
		c-0.2,0.2-0.2,0.4-0.4,0.6c-0.2,0.2-0.3,0.6-0.6,0.6c0,0.2-0.2,0.4-0.4,0.6c-0.1,0.2-0.2,0.4-0.3,0.6c-0.1,0.2-0.2,0.3-0.3,0.5
		c0,0.1-0.1,0.2-0.1,0.2c0,0.1,0,0.2,0,0.3c-0.1,0.3-0.3,0.7-0.4,1c-0.1,0.3-0.5,0.7-0.5,1.1c0,0-0.1,0-0.1,0"/>
	<path id="XMLID_740_" class="st0" d="M67.5,84.4c0,0.1,0,0.3,0,0.4c0,0.3-0.1,0.3-0.3,0.5c-0.3,0.4-0.5,1-0.8,1.4
		c-0.2,0.2-0.3,0.4-0.4,0.7c-0.1,0.3-0.1,0.6-0.1,0.9c0,0.4-0.1,0.7-0.1,1.1c0,0.3-0.1,0.4-0.1,0.7c0,0.1,0,0.2,0,0.3
		c0,0.2,0,0.3-0.1,0.4c0,0.2,0,0.3-0.1,0.5c-0.1,0.2-0.2,0.4-0.3,0.6c-0.2,0.4-0.8,0.4-1.2,0.2c-0.3-0.1-0.5-0.2-0.8-0.3
		c-0.2-0.1-0.3-0.1-0.5-0.1c-0.2,0-0.5-0.1-0.6,0c-0.3,0.1-0.2,0.3-0.2,0.6c0,0.6,0,1.1,0.1,1.7c0.2,0.7,0.1,1.4,0.1,2.1
		c0,0.5,0,1-0.2,1.5c-0.3,0.9-0.5,1.8-0.9,2.6c-0.1,0.2-0.1,0.3-0.2,0.5c-0.1,0.2-0.4,0.5-0.5,0.6c-0.2,0.2-0.5,0.2-0.8,0.3
		c-0.1,0-0.6,0.1-0.7,0c-0.1-0.1-0.1-0.3-0.2-0.4c-0.1-0.2-0.1-0.5-0.2-0.8c-0.1-0.7-0.1-1.5-0.1-2.2c0-0.7,0-1.4,0-2.2
		c0-0.2,0.1-0.5,0-0.7c-0.1-0.3-0.3-0.2-0.6-0.2c-0.2,0-0.3,0-0.4,0.1c-0.1,0.2-0.1,0.4-0.1,0.6c0,0.5,0.1,0.9-0.1,1.3
		c-0.1,0.2-0.1,0.4-0.2,0.7c-0.1,0.2-0.1,0.4-0.1,0.7c0,0.2-0.1,0.3-0.1,0.6c0,0.3,0,0.6,0,0.9c0,0.4,0,0.8,0,1.2c0,0.3,0,0.5,0,0.8
		c0,0.2,0.2,0.4,0.2,0.6c0,0.2,0.1,0.3,0.1,0.5c0.1,0.2,0.1,0.4,0.2,0.6c0.1,0.1,0.2,0.2,0.2,0.3c0.1,0.2,0.1,0.4,0.2,0.6
		c0.2,0.4,0.4,0.6,0.7,0.9c0.4,0.4,0.7,0.9,1.2,1.2c0.1,0.1,0.2,0.2,0.3,0.3c0.2,0.1,0.5,0,0.6-0.1c0.1-0.1,0.3-0.4,0.4-0.5
		c0-0.1,0.1-0.1,0.1-0.2c0.1-0.1,0.2-0.1,0.3-0.2c0.2-0.1,0.2-0.3,0.4-0.4c0.2-0.2,0.5-0.2,0.8-0.4c0.1-0.1,0.3-0.3,0.4-0.4
		c0.2-0.2,0.3-0.4,0.5-0.5c0.2-0.2,0.5-0.3,0.7-0.5c0.2-0.2,0.3-0.4,0.4-0.6c0.1-0.1,0.3-0.2,0.5-0.3c0.4-0.2,0.7-0.3,1.2-0.3
		c0.4,0,0.7,0,1.1,0c0.9,0,1.9-0.1,2.8,0.1c0.4,0.1,0.8,0,1.2,0.1c0.4,0.1,0.8,0.1,1.2,0.1c0.8,0,1.6,0.1,2.3-0.2
		c0.2-0.1,0.4-0.2,0.6-0.3c0.2-0.1,0.5-0.2,0.7-0.3c0.3-0.2,0.7-0.6,0.9-0.9c0.2-0.4,0.5-1,0.9-1.2c0.2-0.1,0.6-0.2,0.9-0.3
		c0.6-0.2,1.2-0.2,1.7-0.6c0.4-0.3,0.8-0.6,1-1c0.1-0.2,0.2-0.5,0.4-0.7"/>
	<path id="XMLID_741_" class="st0" d="M83.4,97.7c0,0.3,0,0.7,0,1c0,0.3-0.1,0.5-0.2,0.7c-0.1,0.3-0.1,0.5-0.1,0.8
		c-0.1,1-0.4,1.9-0.9,2.8c-0.2,0.3-0.4,0.7-0.6,1c-0.2,0.3-0.3,0.7-0.4,1c-0.3,0.7-0.6,1.3-1.1,1.9c-0.4,0.4-0.9,0.9-1.3,1.2
		c-0.3,0.2-0.6,0.3-0.8,0.5c-0.2,0.1-0.4,0.2-0.6,0.4c-0.1,0.1-0.2,0.3-0.3,0.3c-0.1,0.1-0.4,0-0.5,0c-0.5,0-1.1,0.1-1.6,0
		c-0.2,0-0.4-0.1-0.6-0.2c-0.3,0-0.5,0-0.8,0c-0.3,0-0.5,0-0.8,0c-0.3,0-0.3-0.1-0.6-0.2c-0.3-0.1-0.9,0-1.2,0c-0.4,0-0.9,0-1.3,0
		c-0.5,0-0.9,0-1.3-0.2c-0.4-0.2-0.8-0.5-1.2-0.7c-0.3-0.2-0.4-0.3-0.6-0.6c-0.2-0.2-0.4-0.6-0.7-0.7c-0.3-0.1-0.6,0-0.9,0
		c-0.4,0-0.7-0.1-1.1-0.1c-0.7,0-1.2-0.3-1.8-0.6c-0.7-0.3-0.7,0.2-0.8,0.7c-0.1,0.3-0.3,0.6-0.3,1c0,0.5,0,1,0,1.5
		c0,0.7-0.1,1.4,0,2c0,0.3,0.1,0.6,0.1,1c0,0.3,0.1,0.4,0.1,0.7c0,0.3,0,0.5,0,0.8c0.1,0.3,0.1,0.6,0.1,1c0,0.4,0,0.8,0,1.2
		c0,0.6-0.1,1.3,0,1.9c0.2,0.8,0.1,1.6,0,2.3c-0.1,0.5,0,1,0,1.5c0,0.3,0.1,0.6,0,0.9c0,0.1-0.1,0.2-0.1,0.3c0,0.1,0,0.2,0,0.3
		c-0.1,0.4-0.5,0.8-0.7,1c-0.2,0.3-0.4,0.6-0.5,0.9c-0.1,0.3-0.3,0.6-0.4,0.9c-0.1,0.4-0.2,0.9-0.3,1.4c-0.1,0.3-0.1,0.7-0.1,1
		c0,0.4-0.2,0.8-0.2,1.2c0,0.4-0.2,0.7-0.2,1.1c-0.2,1.1-0.1,2.2-0.1,3.3c0,0.4,0.2,1,0.4,1.3c0.2,0.4,0.5,0.7,0.8,1
		c0.1,0.1,0.2,0.2,0.3,0.4c0.1,0.1,0.1,0.3,0.2,0.5c0.1,0.1,0.1,0.2,0.2,0.3c0.1,0.2,0.2,0.3,0.3,0.5c0.2,0.3,0.4,0.5,0.7,0.8
		c0.3,0.3,0.7,0.8,1,1.1c0.5,0.4,1.2,0.2,1.8,0.3c0.6,0.1,1.3,0.4,1.9,0.4c0.2,0,0.4,0.1,0.7,0.1c0.4,0,0.8,0,1.1,0
		c0.4,0,0.8,0,1.1-0.1c0.2,0,0.3-0.1,0.4-0.1c0.2-0.1,0.4-0.1,0.7-0.1c0.3-0.1,0.8-0.3,1-0.5c0.1-0.1,0.2-0.2,0.3-0.3
		c0.1-0.1,0.2-0.2,0.3-0.1c0.1,0,0.2,0,0.3-0.1c0.2-0.1,0.3-0.3,0.5-0.4c0.4-0.3,0.7-0.4,1.1-0.6c0.3-0.1,0.5-0.4,0.8-0.5
		c0.1-0.1,0.3-0.1,0.4-0.2c0.3-0.1,0.4-0.3,0.7-0.4c0.2-0.1,0.3-0.2,0.5-0.4c0.2-0.1,0.5-0.1,0.6-0.4"/>
	<path id="XMLID_742_" class="st0" d="M90.3,138.7c0,0.2,0,0.5,0,0.7c0,0.3-0.1,0.6-0.1,0.9c0,0.4,0,0.7,0,1.1c0,0.3,0,0.6,0,0.8
		c0,0.3,0.1,0.5,0.1,0.8c0.2,1.9,0.1,3.8,0.1,5.7c0,1.1,0,2.2,0,3.3c0,0.6,0,1.2,0,1.8c0,0.5,0,1.1,0.1,1.6c0,0.2,0.1,0.3,0.1,0.6
		c0,0.3,0.1,0.6,0.1,0.9c0,0.4,0.2,0.7,0.3,1.1c0.2,0.5,0.4,1.1,0.8,1.6c0.2,0.3,0.3,0.5,0.5,0.8c0.2,0.2,0.3,0.4,0.4,0.7
		c0.3,0.6,0.5,1.3,0.5,2c0,0.5,0,0.8-0.3,1.2c-0.4,0.5-0.9,0.9-1.2,1.3c-0.1,0.1-0.2,0.2-0.3,0.3c-0.1,0.1-0.1,0.2-0.2,0.3
		c-0.2,0.2-0.4,0.2-0.5,0.3c-0.2,0.2-0.2,0.5-0.4,0.8c-0.1,0.1-0.1,0.1-0.2,0.2c0,0.1,0,0.3,0,0.4c0,0.1-0.1,0.2-0.1,0.3
		c0,0.1,0,0.2,0,0.3c0,0.2-0.1,0.3-0.1,0.5c0,0.3,0,0.5,0,0.8c0,0.2,0,0.4,0,0.5c0,0.5,0,0.8,0.3,1.2c0.5,1.1,1.3,1.8,2.4,2.4
		c0.5,0.3,1.1,0.3,1.5,0.6c0.1,0.1,0.2,0.2,0.3,0.2c0.1,0,0.2,0,0.3,0.1c0.2,0.1,0.4,0.3,0.5,0.5c0.2,0.1,0.2,0.2,0.4,0.3
		c0.2,0.1,0.1,0.1,0.2,0.2c0.1,0.2,0.1,0.3,0.2,0.4c0.2,0.2,0.3,0.2,0.5,0.3c0.1,0.1,0.1,0.1,0.2,0.1c0.1,0.1,0.3,0.2,0.5,0.3
		c0.4,0.3,0.3,0.8,0.4,1.2c0,0.4-0.1,0.5-0.4,0.7c-0.5,0.3-1.2,0.4-1.7,0.5c-0.3,0-0.7,0-1,0.2c-0.1,0-0.1,0.2-0.2,0.2
		c-0.1,0.1-0.2,0.1-0.3,0.2c-0.3,0.2-0.6,0.2-0.8,0.4c-0.1,0.1-0.2,0.2-0.3,0.3c-0.1,0.1-0.2,0.1-0.3,0.2c-0.1,0.1-0.1,0.2-0.2,0.3
		c-0.1,0.1-0.2,0.1-0.3,0.2c-0.1,0.1-0.2,0.3-0.3,0.5c-0.1,0.2,0,0.5,0,0.7c0,0.3,0,0.4,0.3,0.4c0.1,0,0.4,0,0.5,0.1
		c0.2,0.1,0.2,0.2,0.4,0.3c0.4,0.2,0.9,0.3,1.3,0.7c0.3,0.2,0.5,0.7,0.6,1c0.1,0.2,0.1,0.3,0.1,0.5c0.1,0.4-0.1,0.3-0.4,0.4
		c-0.1,0-0.1,0.1-0.2,0.1c-0.1,0-0.2,0-0.3,0c-0.2,0-0.4,0.2-0.6,0.2c-0.2,0.1-0.5,0-0.8,0c-0.1,0-0.2,0-0.4,0c-0.1,0-0.2,0-0.3,0
		c-0.1,0-0.1,0-0.1-0.1c-0.2,0-0.3,0-0.5-0.1c-0.2-0.1-0.2-0.3-0.3-0.5c-0.2-0.7-0.1-1.6-0.1-2.4c0-0.4,0-0.8,0-1.2
		c-0.1-0.5-0.2-0.9-0.2-1.3c0-0.2-0.1-0.4-0.1-0.6c0-0.3,0-0.7,0-1c0-0.5,0-1,0-1.4c0-1.7-0.3-3.3-0.3-5"/>
	<path id="XMLID_743_" class="st0" d="M75.6,81.1c-0.3,0-0.6-0.2-0.9-0.3c-0.4-0.2-0.6-0.4-0.9-0.6c-0.2-0.2-0.5-0.3-0.7-0.5
		c-0.3-0.2-0.6-0.4-0.9-0.6c-0.3-0.1-0.4-0.3-0.7-0.4c-0.3-0.1-0.6-0.4-0.8-0.6c-0.2-0.2-0.4-0.4-0.6-0.6c-0.2-0.2-0.4-0.4-0.6-0.6
		c-0.2-0.2-0.4-0.3-0.7-0.5c-0.1-0.1-0.2-0.1-0.2-0.2c-0.1-0.1-0.2-0.1-0.2-0.2C68.2,76.1,68.1,76,68,76c-0.1-0.1-0.2-0.2-0.3-0.3
		c-0.2-0.1-0.3-0.2-0.5-0.3c-0.1-0.1-0.3-0.2-0.4-0.2c-0.1-0.1-0.3-0.3-0.5-0.4c-0.2-0.1-0.4-0.2-0.7-0.2c-0.1-0.1-0.2-0.1-0.3-0.2
		c-0.1,0-0.2,0-0.3,0c-0.2,0-0.5-0.1-0.6,0c0,0-0.1,0.2-0.1,0.2c0,0.1,0,0.2,0.1,0.3c0.1,0.2,0.3,0.4,0.3,0.7c0,0.1,0.1,0.1,0.1,0.2
		c0.1,0.1,0.2,0.2,0.1,0.3c-0.5,0.1-0.9-0.1-1.2-0.4c-0.1,0-0.2-0.1-0.3-0.2c-0.1,0-0.2,0-0.3,0c-0.2,0-0.3-0.1-0.4-0.1
		c-0.1,0-0.1,0-0.2,0c-0.1,0-0.1,0-0.2-0.1c-0.2-0.1-0.4-0.1-0.2-0.4c0.1-0.1,0.2-0.1,0.4-0.1c0.2-0.1,0.4-0.2,0.5-0.3
		c0.1-0.1,0.1-0.2,0.2-0.2c0.1-0.1,0.2-0.1,0.3-0.2c0.2-0.2,0.3-0.4,0.4-0.6c0.1-0.1,0.2-0.4,0.1-0.6c0,0-0.1-0.1-0.2-0.1
		c-0.1-0.1-0.1-0.2-0.2-0.3c-0.3-0.3-0.8,0-1.1,0.2c-0.1,0.1-0.2,0.1-0.4,0.2c-0.1,0.1-0.2,0.2-0.3,0.2c-0.1,0.1-0.3,0.1-0.4,0.1
		c-0.1,0.1-0.1,0.1-0.2,0.2c-0.1,0.1-0.2,0.1-0.3,0.2c0,0-0.1,0.1-0.1,0.1c0,0-0.1,0-0.1,0c-0.2,0.1-0.3,0.3-0.5,0.4
		c-0.1,0.1-0.1,0.2-0.2,0.2c-0.1,0.1-0.1,0.1-0.2,0.1c0,0-0.2,0.1-0.2,0.2c0,0,0,0.1,0,0.1c0,0.1-0.1,0.1-0.1,0.1
		c-0.1,0.3,0.1,0.5,0.3,0.8c0.2,0.3,0.6,0.3,0.8,0.4c0.1,0,0.2,0,0.3,0.1c0.1,0,0.1,0.1,0.1,0.1c0,0,0.1,0,0.1,0
		c0.2,0.1,0.4,0.2,0.6,0.3c0.1,0,0.2,0.1,0.3,0.1c0.1,0.1,0.2,0.1,0.3,0.2c0.1,0,0.1,0.1,0.2,0.1c0.1,0,0.2,0,0.3,0.1
		c0.1,0,0.1,0,0.1,0.1c0,0.1-0.1,0.1-0.1,0.1c-0.2,0-0.5-0.2-0.6-0.3c-0.1-0.1-0.2-0.1-0.3-0.1c-0.3-0.1-0.3-0.1-0.5-0.3
		c-0.1-0.1-0.3-0.1-0.4-0.2c-0.2-0.1-0.4-0.2-0.5-0.3c-0.3-0.2-0.7-0.3-1-0.4c-0.3-0.1-0.7-0.3-1.1-0.4c-0.3,0-0.5,0-0.7-0.1
		c-0.2-0.1-0.4-0.2-0.7-0.2c-0.2-0.1-0.4-0.2-0.6-0.3c-0.2,0-0.3-0.1-0.5-0.1c-0.3-0.1-0.7-0.2-1.1-0.2c-0.1,0-0.2,0-0.3,0
		c-0.2,0-0.2-0.2-0.4-0.2c-0.1-0.1-0.4,0-0.5,0c-0.3,0-0.4,0-0.5,0.3c0,0.1-0.1,0.1-0.1,0.2c0,0.1,0,0.1,0.1,0.1
		c0.2,0.1,0.4,0.2,0.6,0.3c0.3,0.1,0.5,0.3,0.8,0.5c0.3,0.1,0.5,0.2,0.8,0.3c0.4,0.2,0.8,0.2,1.2,0.3c0.5,0.1,0.9,0.3,1.4,0.5
		c0.9,0.3,1.8,0.5,2.6,0.9c0.2,0.1,0.3,0.1,0.5,0.2c0.1,0.1,0.3,0.2,0.4,0.3c0.1,0.1,0.2,0.1,0.2,0.2c0.2,0.1,0.3,0.2,0.5,0.2
		c0.2,0.1,0.4,0.3,0.6,0.4c0.2,0.1,0.3,0.3,0.6,0.2c0-0.1-0.4-0.3-0.6-0.3c-0.2-0.1-0.5-0.2-0.7-0.3c-0.2-0.1-0.5-0.3-0.7-0.4
		c-0.3-0.1-0.6-0.3-0.9-0.4c-0.2-0.1-0.4-0.2-0.7-0.2c-0.2,0-0.3-0.1-0.5-0.2c-0.2,0-0.3-0.1-0.3,0.2c0,0.1,0,0.2,0,0.2
		c0,0-0.1,0.1-0.1,0.1c0,0.2,0,0.2,0.1,0.3c0.1,0.1,0.2,0.2,0.3,0.3c0.2,0.3,0.6,0.5,0.9,0.7c0.3,0.1,0.5,0.1,0.8,0.2
		c0.3,0.1,0.6,0.3,0.9,0.4c0.3,0.1,0.5,0.3,0.8,0.5c0.2,0.1,0.3,0.3,0.5,0.3c0-0.1-0.6-0.3-0.7-0.4c-0.2-0.1-0.3-0.1-0.5-0.1
		c-0.3,0-0.4,0-0.7-0.1c-0.4-0.1-0.8-0.1-1.2-0.1c-0.1,0-0.7-0.1-0.8,0c-0.1,0.2,0.1,0.4,0.2,0.5c0.2,0.1,0.5,0.2,0.7,0.3
		c0.2,0.1,0.4,0.1,0.5,0.3c0.1,0.1,0.2,0.2,0.4,0.3c0.3,0.1,0.7,0,1.1,0c0.4,0,0.8,0.1,1.1,0.4c0.3,0.2,0.7,0.1,1,0.3
		c0.4,0.1,0.8,0.3,1.3,0.4c0.4,0.1,0.8,0.1,1.2,0.2c0.4,0.2,0.8,0.3,1.2,0.5c0.4,0.2,1,0.2,1.4,0.5c0.2,0.1,0.4,0.2,0.7,0.3
		c0.1,0.1,0.2,0.2,0.3,0.2c0.1,0.1,0.2,0.1,0.4,0.2c0.2,0.2,0.5,0.2,0.7,0.4c0.4,0.2,0.7,0.4,1.1,0.6c0.4,0.2,0.9,0.5,1.3,0.8
		c0.1,0.1,0.2,0.2,0.3,0.3c0.1,0.1,0.1,0.2,0.2,0.2c0.1,0,0.2,0.1,0.3,0.2"/>
	<path id="XMLID_744_" class="st0" d="M61.8,92.1c-0.2,0.1-0.4-0.4-0.5-0.5c-0.2-0.2-0.3-0.4-0.3-0.6c0-0.1,0-0.1,0-0.2
		c0-0.1-0.1-0.1-0.1-0.1c0-0.1,0-0.2,0-0.2c0,0-0.1-0.1-0.1-0.1c0-0.1,0-0.2,0-0.4c0-0.2-0.1-0.3-0.2-0.5c-0.1-0.2-0.1-0.3-0.1-0.5
		c0-0.2-0.1-0.3-0.1-0.5c0-0.5-0.1-0.9-0.1-1.4c-0.1-0.4-0.2-0.8-0.3-1.2c-0.1-0.2-0.1-0.4-0.2-0.6c-0.1-0.2-0.1-0.2-0.2-0.4
		c0-0.2-0.1-0.4-0.1-0.5c-0.1-0.2-0.2-0.3-0.3-0.5c-0.1-0.1-0.1-0.3-0.2-0.4c-0.1-0.1-0.2-0.1-0.3-0.3c0,0,0-0.1,0-0.1
		c0-0.1-0.1-0.1-0.2-0.2c-0.4-0.4-0.5-1-0.2-1.5c0-0.1,0-0.1,0.1-0.2c0,0,0.2,0,0.2,0c0.2,0,0.4,0,0.6,0c0.2,0,0.2,0,0.2-0.2
		c0-0.2,0-0.2-0.2-0.4c-0.2-0.2-0.3-0.4-0.6-0.5c-0.2-0.1-0.4-0.3-0.6-0.4c-0.2-0.1-0.6,0.3-0.7,0.4c0,0.1-0.1,0.1-0.1,0.1
		c0,0.1,0,0.2-0.1,0.2c0,0.1-0.1,0.1-0.1,0.1c0,0.1-0.1,0.1-0.1,0.2c-0.2,0.3-0.3,0.8-0.4,1.2c-0.1,0.3,0.1,0.7,0,1
		c-0.3,0-0.1-1.1-0.1-1.3c0.1-0.4,0.2-0.8,0.4-1.2c0-0.1,0.1-0.2,0.1-0.3c0.1-0.1,0.2-0.1,0.3-0.2c0.1-0.2,0.1-0.4,0.2-0.6
		c0.1-0.2,0.1-0.2,0.1-0.4c0-0.1,0-0.2,0-0.3c0-0.2-0.2-0.4-0.4-0.5c-0.1,0-0.1,0-0.2-0.1c-0.1-0.1-0.1-0.1-0.2-0.1
		c-0.1,0-0.2,0-0.4,0c-0.1-0.1-0.1-0.1-0.2-0.1c-0.4,0-0.7,0.2-1,0.4c-0.3,0.3-0.3,0.8-0.4,1.2c0,0.2-0.1,0.3-0.1,0.5
		c0,0.1,0,0.2-0.1,0.3c-0.1,0.1-0.1,0.3-0.2,0.4c-0.1,0.2-0.2,0.5-0.2,0.7c0,0.1-0.2,0.4-0.1,0.5c0-0.3,0.1-0.5,0.1-0.8
		c0-0.2,0-0.4,0.1-0.6c0.1-0.2,0.2-0.4,0.3-0.6c0.2-0.3,0.1-0.7,0.3-1.1c0.1-0.2,0.6-0.8,0.4-1c0-0.1-0.3-0.1-0.4-0.1
		c-0.1,0-0.2,0-0.3-0.1c-0.3-0.1-0.6,0-0.8,0.2c-0.1,0.1-0.3,0.2-0.4,0.4c-0.1,0.2-0.2,0.4-0.3,0.7c-0.1,0.1-0.1,0.2-0.1,0.3
		c0,0.1,0,0.3,0,0.4c0,0.3,0,0.5-0.1,0.8c0,0.3-0.1,0.5-0.1,0.8c0,0.2,0,0.4-0.1,0.6c-0.1-0.1-0.1-0.7-0.1-0.8c0-0.2,0-0.4,0-0.6
		c0-0.3,0-0.6,0-1c0-0.3,0-0.5,0.1-0.7c0-0.1,0.1-0.4,0.1-0.5c-0.1-0.2-0.5-0.3-0.6-0.3c-0.2-0.1-0.4-0.1-0.6,0
		c-0.2,0.1-0.2,0.2-0.3,0.4c-0.1,0.2-0.1,0.5-0.2,0.7c0,0.2-0.1,0.5-0.1,0.7c0,0.2,0,0.5,0,0.7c0,0.4,0,0.9,0,1.3c0,0.4,0,0.8,0,1.2
		c0,0.3,0.2,0.5,0.2,0.8c0.1,0.3,0.2,0.6,0.3,0.9c0.2,0.4,0.3,0.8,0.5,1.2c0.1,0.2,0.2,0.4,0.3,0.6c0.1,0.2,0.1,0.5,0.2,0.8
		c0.1,0.3,0.3,0.6,0.5,0.9c0.2,0.4,0.4,0.8,0.7,1.2c0.2,0.3,0.4,0.7,0.6,1c0.2,0.3,0.3,0.6,0.5,0.9c0.1,0.2,0.3,0.4,0.4,0.6
		c0.1,0.2,0.3,0.4,0.4,0.6c0.2,0.4,0.6,0.8,0.9,1.1c0.2,0.2,0.4,0.4,0.7,0.7c0.3,0.3,0.6,0.5,0.9,0.7c0.4,0.2,0.9,0.2,1.3,0.3
		c0.3,0.1,0.6,0.2,0.9,0.2c0.2,0,0.4,0.1,0.7,0.1c0.2,0,0.5,0,0.7,0.1c0.1,0,0.2,0.1,0.4,0.1c0.1,0,0.1,0,0.1,0
		c0.1,0.1,0,0.2,0.2,0.1"/>
	<path id="XMLID_745_" class="st0" d="M56.5,74.8c0-1.1,0-2.1-0.3-3.2c-0.1-0.4-0.1-0.8-0.2-1.2c-0.1-0.5-0.2-1-0.3-1.6
		c-0.1-0.6-0.3-1.2-0.3-1.8c0-0.6-0.2-1.2-0.2-1.8c0-0.5,0-0.9,0-1.4c0-0.5-0.1-1.1,0-1.6c0.2-0.7,0.1-1.5,0.1-2.2
		c0-0.5,0.1-1,0.2-1.4c0.1-0.5,0.1-1,0.2-1.5c0.4-1.8,0.8-3.5,0.9-5.3c0-0.7,0.2-1.5,0.5-2.2c0.3-0.7,0.5-1.6,0.9-2.2
		c0.2-0.3,0.4-0.6,0.6-0.9c0.2-0.3,0.4-0.5,0.6-0.7c0.1-0.2,0.2-0.3,0.3-0.5c0.2-0.1,0.4-0.2,0.6-0.3c0.2-0.2,0.3-0.5,0.5-0.7
		c0.2-0.2,0.5-0.3,0.6-0.5c0.6-0.6,1-1.4,1.5-2.1c0.4-0.5,1-0.9,1.5-1.3c0.3-0.2,0.6-0.5,1-0.8c0.3-0.3,0.8-0.5,1.1-0.7
		c0.3-0.3,0.4-0.6,0.7-0.9c0.4-0.4,0.9-0.5,1.4-0.8c0.1-0.1,0.3-0.3,0.4-0.4c0.2-0.2,0.4-0.2,0.6-0.3c0.3-0.1,0.5-0.3,0.8-0.4
		c0.3-0.2,0.6-0.3,0.9-0.4c0.4-0.2,0.7-0.5,1-0.8c0.2-0.2,0.5-0.2,0.7-0.4c0.1-0.1,0.1-0.2,0.3-0.3c0.1,0,0.4,0,0.6,0
		c0.2,0,0.3-0.1,0.5-0.1c0.2,0,0.2,0,0.5-0.1c0.3-0.1,0.4-0.2,0.8-0.2c0.2,0,0.5,0,0.7,0c0.8-0.1,1.7-0.3,2.5-0.5
		c0.6-0.1,1.1-0.2,1.6-0.1c0.7,0.2,1.6,0.1,2.3,0.1c0.8,0,1.7,0,2.5,0c1.1,0,2.2,0,3.3,0c1.1,0,2.2,0,3.3,0.3
		c0.6,0.2,1.2,0.5,1.8,0.7c0.5,0.2,0.9,0.5,1.4,0.7c0.3,0.1,0.5,0.3,0.8,0.4c0.4,0.2,0.9,0.4,1.3,0.6c0.3,0.1,0.5,0.3,0.8,0.6
		c0.3,0.3,0.6,0.5,0.9,0.8c0.2,0.2,0.3,0.5,0.6,0.7c0.1,0.1,0.2,0.1,0.3,0.2c0.1,0.2,0.2,0.4,0.3,0.6c0.4,0.4,0.9,0.9,1.3,1.2
		c0.2,0.2,0.4,0.4,0.6,0.6c0.2,0.2,0.4,0.3,0.6,0.5c0.2,0.1,0.3,0.1,0.5,0.2c0.1,0,0.1,0.1,0.3,0.1c0.1,0,0.3-0.1,0.4,0
		c0.2,0.1,0.3,0.3,0.5,0.4c0.2,0.1,0.4,0.1,0.6,0.2c0.3,0.1,1.2,0.1,1.4,0c0.3-0.1,0.3-0.4,0.3-0.6c0-0.4,0.2-0.5,0.5-0.8
		c0.9-1.3,0.2-3,0.6-4.5c0.2-0.7,0.5-1.3,0.8-2c0.1-0.3,0.1-0.6,0.2-0.9c0.1-0.2,0.1-0.4,0.2-0.6c0-0.3-0.1-0.6,0.1-0.9
		c0.1-0.2,0.2-0.3,0.3-0.5c0.1-0.3,0.2-0.5,0.3-0.8c0.1-0.5,0.1-1,0.2-1.6c0.1-0.3,0.2-0.7,0.3-1c0.3-1.7,1-3.3,0.9-5.1
		c0-1.3,0.4-2.5,0.5-3.9c0-0.5,0-0.7-0.4-1.1c-0.2-0.2-0.4-0.3-0.6-0.4c-0.4-0.3-0.6-0.6-1-0.8c-0.4-0.2-0.9-0.4-1.3-0.5
		c-0.6-0.2-1.2-0.4-1.8-0.5c-0.5-0.1-1-0.4-1.5-0.7c-0.7-0.3-1.4-0.2-2-0.6c-0.5-0.3-1.1-0.7-1.7-1c-0.3-0.2-0.7-0.3-1-0.4
		c-0.4-0.2-0.7-0.4-1.1-0.5c-0.9-0.3-1.9,0-2.8-0.2c-0.3,0-0.5-0.1-0.8-0.2c-0.5-0.1-0.9-0.1-1.4-0.1c-0.5,0-0.9-0.2-1.4-0.2
		c-0.6,0-1.2-0.1-1.7-0.2c-1.3,0-2.6,0-4,0c-0.7,0-1.3,0-2,0c-0.7,0-1.3-0.2-2-0.2c-1.9,0-3.7,0-5.6,0c-0.9,0-1.8,0-2.7,0.2
		c-0.7,0.1-1.3,0.2-1.9,0.4c-0.3,0.1-0.7,0.3-1,0.4c-0.5,0.2-1,0.2-1.5,0.2c-0.6,0.1-1.1,0.3-1.6,0.4c-0.7,0.2-1.4,0.3-2.1,0.6
		c-1.2,0.4-2.1,1.1-3.2,1.6c-1,0.5-2,0.7-3,1.1c-0.8,0.4-1.7,0.6-2.6,1c-0.9,0.4-1.8,1-2.7,1.4c-0.8,0.3-1.5,0.7-2.3,0.9
		c-0.7,0.2-1.2,0.6-1.7,1c-0.5,0.4-0.9,0.9-1.4,1.2c-0.5,0.3-0.9,0.7-1.4,1c-0.4,0.3-0.9,0.8-1.3,1.1c-0.4,0.4-0.9,0.8-1.2,1.2
		c-0.5,0.5-0.8,0.9-1.2,1.5c-0.2,0.3-0.4,0.6-0.6,0.9c-0.3,0.4-0.4,0.7-0.6,1.1c-0.2,0.4-0.5,0.7-0.8,1.1c-0.3,0.5-0.6,0.9-0.8,1.4
		c-0.2,0.4-0.4,0.6-0.7,1c-0.2,0.3-0.3,0.2-0.7,0.5c-0.5,0.4-0.4,0.9-0.8,1.4c-0.2,0.3-0.6,0.5-0.8,0.9c-0.1,0.2-0.2,0.4-0.3,0.5
		c-0.3,0.6-0.6,1-0.8,1.6c-0.3,0.9-0.6,1.9-0.9,2.8c-0.3,0.9-0.8,1.7-1.2,2.5c-0.3,0.5-0.3,1-0.5,1.4c-0.2,0.5-0.5,0.9-0.6,1.4
		c-0.1,0.5-0.2,1.1-0.3,1.6c-0.2,1.2-0.6,2.4-0.8,3.6c-0.3,1.6-0.4,3.1-0.7,4.7c-0.1,0.8,0,1.6-0.1,2.4c-0.1,0.8-0.1,1.5-0.1,2.3
		c0,1.4,0,2.8,0,4.3c0,2,0,4,0.3,6.1c0.1,0.7,0.3,1.3,0.5,2c0.1,0.6,0.2,1.2,0.3,1.8c0.1,0.5,0.3,1,0.5,1.6c0.1,0.4,0.2,0.8,0.3,1.2
		c0.2,0.6,0.4,1.1,0.7,1.6c0.3,0.5,0.8,0.9,1.1,1.5c0.3,0.5,0.7,0.6,1.2,0.8c0.3,0.2,0.6,0.4,0.9,0.6c0.5,0.2,1.1,0.4,1.7,0.6
		c0.5,0.1,0.9,0.1,1.3,0.3c0.2,0.1,0.3,0.1,0.5,0.2c0.6,0.2,1,0.6,1.5,0.8c0.4,0.2,0.9,0.4,1.4,0.4c0.4,0,0.7,0.1,1,0.2
		c0.5,0.2,0.9,0.2,1.4,0.4c0.6,0.2,1.2,0.5,1.9,0.7c0.4,0.1,0.9,0.2,1.3,0.3c0.5,0.2,1,0.4,1.5,0.4c0,0,0,0.1,0,0.1"/>
	<path id="XMLID_746_" class="st0" d="M60.2,85.5c0.7,0,1.3,0,2,0c0.3,0,0.8,0.1,0.9-0.1c0.1-0.1-0.1-0.3,0-0.5
		c0-0.1,0.1-0.1,0.2-0.3c0.1-0.6,0-1.4-0.3-1.8c-0.4-0.5-1-0.5-1.5-0.4c-0.7,0-1.2-0.2-1.9-0.6c-0.3-0.2-0.3-0.2-0.4-0.5
		c-0.1-0.3-0.1-0.5-0.3-0.8c-0.3-0.5-0.5-0.9-0.6-1.5c0-0.2-0.1-0.4-0.2-0.6c0-0.1,0-0.3,0-0.4c-0.1-0.4-0.3-0.5-0.3-0.9"/>
	<path id="XMLID_747_" class="st0" d="M50.3,79.5c-0.6,0-1-0.2-1.5-0.3c-0.6-0.1-1.1-0.4-1.6-0.7c-0.4-0.2-0.7-0.4-1.1-0.5
		c-0.4-0.1-0.8-0.3-1.2-0.4c-0.2-0.1-0.4-0.3-0.7-0.4c-0.3-0.1-0.4-0.3-0.7-0.4c-0.2-0.1-0.5-0.1-0.8-0.2c-0.2-0.1-0.5-0.2-0.7-0.3
		c-0.5-0.2-0.9-0.4-1.4-0.5c-0.4-0.1-0.9-0.3-1.3-0.3c-0.4,0-0.8,0.1-0.4,0.5c0.4,0.3,0.9,0.2,0.9,0.9c0,0.5,0,1,0,1.5
		c0,0.4,0,0.6-0.3,0.9c-0.3,0.2-0.6,0.3-0.9,0.5c-0.1,0.1-0.3,0.2-0.4,0.2c-0.1,0-0.2,0-0.3,0c-0.1,0-0.1,0.1-0.2,0.1
		c-0.4,0.1-0.8,0-1.2,0c-0.4,0-0.6-0.2-0.9-0.5"/>
	<path id="XMLID_748_" class="st0" d="M110.4,18.2c0,0.4,0.1,0.8-0.1,1.2c-0.1,0.3-0.7,0.9-1.1,0.8c-0.3-0.1-0.4-0.8-0.6-1
		c-0.2-0.3-0.6-0.4-0.9-0.6c-0.2-0.2-0.3-0.5-0.6-0.7c-0.1-0.1-0.4-0.4-0.6-0.2c-0.1,0.1,0,0.6,0,0.7c-0.1,0.4-0.2,0.9-0.3,1.3
		c-0.1,0.4-0.2,0.9-0.3,1.3c0,0.6-0.2,1-0.3,1.6c-0.1,0.5-0.3,1.1-0.3,1.7c0,0.3,0,0.5-0.1,0.8c-0.2,0.4-0.2,0.6-0.2,1
		c0,0.4-0.2,0.7-0.2,1.1c0,0.4,0,0.7,0,1.1c0,0.3,0,0.6,0,0.9c0,0.3,0.1,0.7,0,0.9c0,0.1-0.2,0.2-0.3,0.3c-0.1,0.2,0,0.3-0.1,0.5
		c0,0.2-0.1,0.5-0.2,0.7c-0.1,0.7-0.2,1.3-0.4,2c-0.1,0.5-0.3,1-0.5,1.5c-0.1,0.2-0.2,0.4-0.3,0.6c-0.1,0.4-0.3,0.9-0.5,1.3
		c-0.1,0.2-0.1,0.3-0.1,0.6c0,0.2-0.1,0.4-0.2,0.6c0,0.5-0.2,0.8-0.1,1.3c0,0.4,0.2,0.8,0.4,1.2c0.1,0.2,0.4,0.8,0.6,0.9"/>
	<path id="XMLID_214_" class="st0" d="M105.1,24.1c-0.6,0-1.2-0.3-1.7-0.5c-0.2-0.1-0.3-0.2-0.5-0.3c-0.3-0.2-0.7-0.3-1-0.4
		c-0.9-0.3-1.7-0.2-2.6-0.3c-0.5,0-0.9-0.2-1.4-0.2c-0.6,0-1.2-0.1-1.8-0.1c-0.5,0-1-0.3-1.5-0.4c-0.4-0.1-0.7-0.1-1.1-0.2
		c-0.4-0.1-0.9-0.2-1.3-0.3c-0.4-0.1-0.7-0.1-1.1-0.2c-0.9-0.2-1.8-0.4-2.7-0.6c-0.5-0.1-0.9-0.2-1.4-0.3C86.4,20.2,86,20,85.6,20
		c-0.4,0-0.9-0.1-1.3-0.2c-0.3,0-0.6,0.1-0.9,0c-0.4-0.1-0.6-0.3-1-0.4c-0.4-0.1-0.8-0.2-1.2-0.3c-0.7-0.2-1.6,0-2.2,0
		c-0.8,0-1.6,0-2.3,0c-0.5,0-1.1,0-1.6,0c-0.3,0-0.5,0.1-0.8,0.2c-0.3,0.1-0.6,0-0.9,0c0,0-0.1,0.1-0.2,0.1
		c-0.2,0.1-0.4,0.1-0.6,0.1c-0.4,0.1-0.7,0.3-1.1,0.3c-0.5,0-0.9,0-1.4,0c-0.5,0-0.9,0.2-1.4,0.3c-0.8,0.2-1.7,0.4-2.4,0.7
		c-0.4,0.2-0.8,0.4-1.2,0.5c-0.5,0.2-1.1,0.3-1.6,0.5c-0.7,0.2-1.4,0.7-2.1,1C61.2,23,61,23,60.8,23.1c-0.3,0.1-0.4,0.4-0.7,0.5
		c-0.6,0.2-1.1,0.5-1.7,0.7c-0.8,0.3-1.6,0.6-2.3,1.3c-0.2,0.2-0.5,0.4-0.8,0.6c-0.1,0.1-0.2,0.4-0.4,0.5c-0.2,0.2-0.6,0.4-0.8,0.6
		c-0.7,0.7-1.4,1.4-2.2,2c-0.7,0.5-1.3,1-1.9,1.7c-0.5,0.6-0.8,1.2-1.3,1.8c-0.2,0.3-0.3,0.6-0.6,0.9c-0.2,0.2-0.2,0.3-0.3,0.6
		c-0.1,0.2-0.3,0.3-0.4,0.5c-0.3,0.4-0.5,1-0.8,1.4c-0.4,0.9-0.6,1.6-1.2,2.4c-0.8,1-1.6,1.9-2.2,3c-0.2,0.3-0.3,0.6-0.5,0.9
		c-0.1,0.3-0.4,0.6-0.6,0.9c-0.2,0.3-0.2,0.7-0.3,1.1c-0.1,0.2-0.2,0.4-0.3,0.6c-0.1,0.3-0.2,0.7-0.3,1c-0.1,0.4-0.1,0.6-0.1,0.9
		c-0.1,0.2-0.2,0.4-0.3,0.6c-0.1,0.1-0.1,0.5-0.1,0.6c-0.1,0.5-0.1,1-0.2,1.4c-0.1,0.5-0.1,1-0.1,1.5c0,0.5-0.2,0.9-0.2,1.4
		c0,0.5-0.2,0.9-0.2,1.5c0,0.6,0,1.2,0,1.8c0,1.2,0,2.3,0,3.5c0,0.6-0.2,1.2-0.2,1.8c0,0.5,0,0.9,0,1.4c0,0.9,0,1.9,0,2.8
		c0,1.1,0,2.1,0,3.2c0,0.9,0.3,1.7,0.5,2.5c0.1,0.4,0,0.8,0.1,1.3c0.1,0.3,0.2,0.6,0.3,0.8c0,0.1,0,0.3,0,0.4c0,0.2,0.1,0.3,0.2,0.4
		c0.1,0.3-0.1,0.6,0,0.9c0,0,0.1,0,0.1,0"/>
	<path id="XMLID_215_" class="st0" d="M48.3,77.8c0.1-0.4-0.4-1-0.5-1.4c-0.1-0.5-0.3-0.9-0.3-1.4c0-0.3-0.1-0.6-0.2-0.9
		c0-0.1,0-0.3,0-0.4c0-0.1-0.1-0.2-0.1-0.2c-0.1-0.9-0.1-1.8-0.3-2.6c-0.1-0.4-0.2-0.8-0.2-1.2c0-0.5-0.1-0.8-0.1-1.2
		c-0.1-0.6,0-1.4,0-2c0-0.3-0.1-0.6-0.2-0.9c0-0.3,0-0.7,0-1.1c0-0.6,0-1.1,0-1.7c0-3.2-0.2-6.5,0.2-9.7c0.1-0.5,0.2-0.9,0.3-1.4
		c0-0.4,0.1-0.9,0.2-1.2c0.1-0.3,0.3-0.4,0.4-0.6c0.1-0.2,0-0.5,0.1-0.7c0.1-0.4,0.2-0.9,0.4-1.3c0.5-1.4,1.1-2.7,1.7-4.1
		c0.5-1.1,1.4-2,2-3.2c0.1-0.3,0.2-0.5,0.4-0.8c0.1-0.1,0.3-0.1,0.3-0.2c0.1-0.1,0.2-0.3,0.3-0.5c0.3-0.3,0.5-0.6,0.8-1
		c0.3-0.6,0.7-0.9,1.1-1.4c0.3-0.3,0.8-0.8,1-1.2c0.2-0.4,0.5-0.6,0.9-0.8c1.2-0.9,2.4-1.9,3.5-2.9c0.3-0.3,0.4-0.6,0.7-0.8
		c0.2-0.1,0.5-0.3,0.8-0.3c0.6-0.2,1.1-0.5,1.7-0.8c0.5-0.2,1.1-0.3,1.6-0.5c1-0.4,1.9-0.8,3-0.9c0.3-0.1,0.6-0.2,0.9-0.3
		c0.6-0.2,1.3-0.3,1.9-0.6c0.3-0.1,0.5-0.3,0.8-0.3c0.3,0,0.6,0,0.9,0c0.3,0,0.5-0.1,0.7-0.2c0.3,0,0.7,0,1,0c0.4,0,0.8-0.1,1.3-0.2
		c0.6,0,1.1,0,1.7,0c1.1,0,2.3,0.2,3.3-0.1c0.4-0.1,0.7-0.1,1-0.1c0.5,0,1-0.1,1.6-0.2c1.3,0,2.7,0,4,0c0.9,0,1.8,0,2.7,0.2
		c1.1,0.2,2.1,0.7,3.2,0.7c0.5,0,0.8,0,1.3,0.2c0.3,0.1,0.7,0.1,1,0.1c0.5,0.1,0.9,0.2,1.3,0.4c0.4,0.1,0.8,0.2,1.2,0.3
		c0.7,0.2,1.4,0.2,2.1,0.5c0.4,0.2,0.8,0.4,1.2,0.6c0.5,0.2,1.1,0.3,1.6,0.5c0.5,0.2,0.9,0.7,1.4,0.7"/>
	<path id="XMLID_216_" class="st0" d="M103,183c0.1,0,0.3,0.1,0.4,0.2c0.1,0.1,0.1,0.2,0.2,0.3c0.1,0,0.2,0,0.2,0.1
		c0.3,0.2,0.5,0.6,0.9,0.8c0.1,0.1,0.2,0.2,0.3,0.3c0.1,0.1,0.3,0.2,0.4,0.3c0.1,0.2,0.2,0.4,0.3,0.5c0.2,0.2,0.4,0.4,0.6,0.5
		c0.4,0.4,0.7,0.8,0.9,1.3c0.1,0.2,0.3,0.3,0.4,0.5c0.1,0.1,0.1,0.2,0.2,0.3c0.2,0.2,0.5,0.4,0.7,0.6c0.2,0.1,0.2,0.2,0.5,0.2
		c0.2,0,0.5,0.1,0.7,0c0-0.3,0.2-0.2,0.3-0.3c0.1-0.1,0-0.2,0-0.3c0-0.2,0-0.5,0-0.7c0-0.1,0-0.3,0-0.4c0,0-0.1,0-0.1,0
		c-0.1-0.1-0.1-0.1,0-0.2c-0.1-0.1-0.1-0.4-0.2-0.5c-0.2-0.2-0.4-0.4-0.6-0.7c-0.2-0.3-0.4-0.4-0.7-0.6c-0.3-0.1-0.4-0.3-0.6-0.5
		c-0.2-0.1-0.6-0.4-0.7-0.6c0.2,0.1,0.2,0.5,0.4,0.7c0.1,0.1,0.3,0.3,0.4,0.3c0.2,0.1,0.3,0.2,0.5,0.3c0.2,0.1,0.5,0.2,0.6,0.4
		c0.1,0.1,0.2,0.2,0.2,0.3c0.1,0.1,0.1,0.2,0.2,0.3c0,0,0.1,0,0.2,0c0.1,0,0.1,0.1,0.2,0.2c0.1,0.1,0.1,0.1,0.2,0.2
		c0.2,0.2,0.2,0.2,0.5,0.2c0.3,0,0.3,0,0.6-0.2c0.1-0.1,0.1,0,0.2-0.1c0-0.1,0-0.3,0-0.4c0-0.2-0.2-0.4-0.3-0.6
		c-0.2-0.2-0.2-0.5-0.4-0.7c-0.1-0.1-0.3-0.2-0.4-0.3c0-0.1,0-0.2,0-0.3c-0.2-0.5-0.5-0.8-0.9-0.9c-0.2,0-0.4-0.1-0.6-0.2
		c-0.1-0.1-0.5-0.2-0.5-0.4c0.2-0.1,0.8,0.6,0.9,0.7c0.2,0.2,0.2,0.4,0.4,0.6c0.2,0.2,0.4,0.3,0.5,0.5c0.2,0.3,0.6,0.8,1,0.8
		c0.2,0,0.4,0,0.5,0.1c0.2,0.1,0.3,0.2,0.5,0.1c0.1-0.1,0-0.1,0.1-0.2c0.2-0.2,0.1,0,0.2-0.2c0-0.2,0-0.5,0-0.6
		c0-0.2-0.2-0.4-0.4-0.5c-0.2-0.1-0.4-0.2-0.6-0.4c-0.2-0.3-0.5-0.6-0.7-0.9c-0.1-0.2-0.3-0.5-0.5-0.6c-0.2-0.1-0.4,0-0.6-0.1
		c-0.1,0-0.5-0.3-0.5-0.4c0.2,0,0.4,0.3,0.5,0.4c0.2,0.2,0.3,0.5,0.5,0.6c0.3,0.2,0.4,0.3,0.6,0.5c0.1,0.2,0.3,0.2,0.5,0.3
		c0.2,0.1,0.3,0.3,0.5,0.5c0.2,0.2,0.2,0.5,0.5,0.4c0.3,0,0.7-0.4,0.9-0.7c0.2-0.3,0.2-1,0.1-1.4c0-0.3-0.3-0.4-0.5-0.6
		c-0.2-0.1-0.2-0.3-0.3-0.4c-0.1-0.2-0.3-0.4-0.5-0.6c-0.1-0.1-0.2-0.1-0.3-0.2c-0.1-0.1-0.1-0.2-0.2-0.3c-0.1,0-0.3,0-0.4,0
		c0,0-0.1-0.1-0.1-0.1c-0.3-0.1-0.5,0.1-0.8-0.1c0.1-0.1,0.4-0.1,0.5-0.1c0.1,0,0.1,0.1,0.2,0.2c0.2,0.2,0.5,0.4,0.7,0.6
		c0.2,0.3,0.2,0.5,0.5,0.6c0.2,0.1,0.4,0.3,0.6,0.4c0.2,0.1,1.1,0.6,1.3,0.3c0.1-0.1,0.1-0.4,0.2-0.6c0.1-0.5,0.1-0.9,0.1-1.4
		c0-0.1,0.1-0.4,0-0.5c-0.1-0.2-0.6-0.2-0.8-0.3c-0.2-0.1-0.3-0.2-0.5-0.3c-0.2-0.1-0.4-0.2-0.7-0.3c-0.5-0.2-1.1-0.4-1.6-0.7
		c-0.2-0.1-0.2-0.3-0.4-0.4c-0.2-0.2-0.3-0.2-0.4-0.4"/>
	<path id="XMLID_217_" class="st0" d="M87.4,101.2c-0.3,0.4-0.5,0.8-0.9,1.2c-0.3,0.3-0.5,0.6-0.7,1c-0.1,0.3-0.2,0.5-0.3,0.7
		c-0.1,0.2-0.3,0.3-0.4,0.5c-0.2,0.4-0.2,0.8-0.3,1.2c-0.1,0.5-0.4,0.8-0.6,1.1c-0.2,0.3-0.3,0.4-0.6,0.6c-0.2,0.1-0.4,0.2-0.5,0.4
		c-0.2,0.2-0.3,0.4-0.4,0.6c-0.2,0.2-0.5,0.1-0.7,0.3c-0.2,0.1-0.3,0.3-0.5,0.5c-0.2,0.2-0.5,0.4-0.7,0.5c-0.2,0.1-0.4,0.2-0.6,0.3
		c-0.2,0.1-0.3,0.2-0.4,0.3c-0.6,0.3-1.2,0.4-1.8,0.5c-0.3,0-0.5,0.1-0.8,0.1c-0.3,0-0.7,0-1,0c-0.8,0-1.5,0-2.3,0
		c-1.8,0-3.6,0-5.3,0c-0.3,0-0.7,0.1-1,0c-0.1,0-0.3-0.1-0.4-0.1c-0.3-0.1-0.3-0.2-0.5-0.4c-0.3-0.3-0.8-0.6-1.2-0.8
		c-0.2-0.2-0.8-0.6-0.8,0c0,0.3,0.1,0.2,0.3,0.4c0.1,0.1,0.1,0.3,0.2,0.4c0.1,0.2,0.3,0.4,0.5,0.6c0.5,0.5,0.9,1,1.4,1.4
		c0.3,0.2,0.5,0.5,0.8,0.7c0.4,0.3,0.8,0.6,1.2,0.9c0.4,0.3,0.7,0.7,1.2,1.1c0.5,0.4,0.8,1,1.4,1.3c0.5,0.2,0.9,0.6,1.4,0.9
		c0.4,0.3,0.9,0.5,1.3,0.8c0.3,0.2,0.6,0.5,1,0.7c0.6,0.4,1.3,0.9,2,1c0.4,0,0.8,0,1.1,0c0.4,0,0.7-0.2,0.8-0.6
		c0.1-0.4,0.3-0.8-0.1-1c-0.3-0.2-0.6-0.3-0.8-0.4c-0.2-0.1-0.5-0.1-0.6-0.3c-0.2-0.3-0.1-0.8-0.1-1.1c0-0.6,0-1.1,0.3-1.6
		c0.1-0.3,0.3-0.4,0.5-0.6c0.2-0.3,0.4-0.7,0.6-1c0.4-0.5,0.8-0.9,1.2-1.4c0.2-0.3,0.4-0.6,0.6-0.9c0.2-0.2,0.3-0.3,0.5-0.4
		c0.4-0.2,0.5-0.3,0.7-0.6c0.2-0.3,1-0.7,0.9-1.2c0,0.6,0,1.2,0,1.8c0,0.4,0,0.7,0,1.1c0,0.8,0.1,1.5,0.1,2.3c0,0.8,0,1.6,0.2,2.4
		c0.2,0.7,0.6,1.3,0.7,2.1c0.1,0.6,0.2,1.1,0.1,1.8c0,0.9-0.5,1.4-1.2,1.9c-0.2,0.2-0.3,0.3-0.5,0.5c-0.1,0.1-0.1,0.3-0.2,0.4
		c0,0.1-0.2,0.1-0.2,0.1c-0.1,0.2-0.1,0.3-0.3,0.4c-0.1,0.1-0.3,0.1-0.4,0.3c-0.2,0.2-0.3,0.2-0.5,0.3c-0.6,0.1-1,0.7-1.5,1
		c-0.2,0.1-0.4,0.3-0.6,0.4c-0.3,0.2-0.6,0.2-1,0.3c-0.6,0.1-1.2,0.1-1.9,0.1c-0.4,0-0.7,0.1-1,0.1c-0.4,0.1-0.8,0-1.2,0
		c-0.7,0-1.3,0.2-1.9,0.4c-0.4,0.1-0.7,0.3-1.1,0.4c-0.5,0-1,0-1.5,0c-0.4,0-0.3,0-0.5,0.2c0,0-0.2,0.1-0.2,0.1
		c-0.1,0.1-0.1,0.2-0.2,0.3c-0.3,0.5,0.2,0.4,0.7,0.4c0.4,0,0.8,0,1.2,0.2c0.2,0.1,0.4,0.3,0.7,0.3c0.3,0.1,0.8,0,1.1,0
		c0.5,0,1.1,0.1,1.6,0c0.8-0.1,1.5-0.9,2.3-0.6c0.2,0.7-0.5,1.2-0.9,1.6c-0.3,0.2-0.5,0.5-0.7,0.7c-0.3,0.3-0.7,0.4-1.1,0.6
		c-0.5,0.4-1.2,0.5-1.8,0.8c-0.5,0.2-0.9,0.7-1.3,1c-0.5,0.4-1.1,0.6-1.6,1c-0.3,0.2-0.4,0.4-0.8,0.4c-0.4,0-0.6,0.2-0.9,0.3
		c-0.7,0.3-1.4,0.2-2.2,0.2c-0.3,0-0.6,0-0.8,0c-0.2,0-0.3-0.2-0.5-0.2c-0.2,0-0.3-0.1-0.5-0.1c-0.1-0.1-0.1-0.1-0.2-0.2"/>
</g>
</svg>
