<?xml version="1.0" encoding="utf-8"?>
<!-- Generator: Adobe Illustrator 19.0.0, SVG Export Plug-In . SVG Version: 6.00 Build 0)  -->
<svg version="1.1" id="Layer_1" xmlns="http://www.w3.org/2000/svg" xmlns:xlink="http://www.w3.org/1999/xlink" x="0px" y="0px"
	 viewBox="0 0 250 200" style="enable-background:new 0 0 250 200;" xml:space="preserve">
<style type="text/css">
	.st0{fill:none;stroke:#000000;stroke-width:0.9921;stroke-miterlimit:10;}
	.st1{stroke:#000000;stroke-width:0.9921;stroke-miterlimit:10;}
</style>
<g id="XMLID_2_">
	<g id="XMLID_326_">
		<path id="XMLID_221_" class="st0" d="M42.1,131.1c0-2.7,0-5.4,0-8.1c0-0.9,0-1.8,0-2.7c0-0.4-0.1-0.9,0-1.3
			c0.1-0.4,0.2-0.7,0.3-1.1c0.1,0,0.3-0.1,0.4-0.1c0.1-0.5,0.2-1.2,0.7-1.5c0.3-0.1,0.8,0,1.1,0c0.9,0,1.8,0,2.7,0
			c2.4,0,4.8,0,7.2,0c2,0,4.1,0,6.1,0c0.4,0,0.7,0,1,0.1c0.3,0.1,0.6,0.5,1,0.6c0.4,0.1,1,0,1.4,0c1.1,0,2.2,0,3.3,0
			c2.4,0,4.8,0,7.2,0c1.1,0,2-0.3,3.1-0.3c1.2,0,2.3,0,3.5,0c1.8,0,3.5,0,5.3,0c2.2,0,4.5-0.2,6.7,0c0.7,0.1,1,0.5,1.9,0.5
			c0.7,0,1.3-0.1,2,0c0.5,0.1,0.9,0.3,1.4,0.4c0.9,0.2,1.8,0.6,2.7,0.6c1.4,0,2.7,0,4.1,0c4.1,0,8.2,0,12.2,0c3,0,6,0,9,0
			c1.1,0,2.1-0.2,3.2-0.6c1.5-0.5,3.5-0.4,5.1-0.4c1,0,2,0,3,0c0.7,0,1.5,0,2.2,0c0.6,0,1.7-0.3,2,0.2c0.2,0.3,0.1,1.1,0.1,1.4
			c0,0.7,0,1.4,0,2.1c0,1.4-0.2,2.9,0.1,4.2c0.1,0.6,0.1,1.2,0.2,1.8c0.2,0.5,0.3,1.1,0.4,1.7c0.2,0.8,0.4,1.6,0.5,2.5
			c0,0.9,0,1.7,0,2.6c0,1,0.1,2,0,3.1c0,0.6-0.1,1.3-0.3,1.8c-0.2,0.9-0.3,1.6-0.3,2.6c0,3.7,0,7.5,0,11.2c0,3.4,0.3,6.7,0.3,10.1
			c0,4.4,0,8.9,0,13.3"/>
		<path id="XMLID_222_" class="st0" d="M13,108.1c0.9,0,1.4,0,2.1,0.4c0.7,0.4,1.3,0.5,1.9,1c0.9,0.8,1.7,1.7,2.5,2.7
			c0.9,1.1,1.1,2.4,1.3,3.8c0.1,0.8,0,1.8,0,2.6c0,0.7-0.3,1.2-0.6,1.8c-0.8,1.1-1.9,2.4-2.2,3.7c-0.2,0.6-0.4,1.2-0.4,1.7
			c-0.1,0.7,0,1.4,0,2c0,1,0.2,1.6,0.9,2.3c0.4,0.4,0.9,0.7,1.4,0.9c0.9,0.3,2.1,0.1,3.1,0.3c0.9,0.2,1.9,0.6,2.8,0.8
			c3.5,0.5,7.1,0.3,10.7,0.3c0.8,0,1.6,0.1,2.4,0c0.8-0.1,1.5-0.4,2.4-0.5c0.6,0,1-0.1,1.6-0.2c0.7-0.2,1.5-0.5,2.2-0.5
			c0.3,0,0.6,0,0.9,0c0.7,0,0.6-0.1,1.2-0.4c0.5-0.2,1.4-0.4,2-0.4c0.8,0,1.8-0.2,2.5,0c0.6,0.2,0.8,0.8,1.4,1
			c0.3,0.1,0.4,0,0.7,0.2c0.2,0.2,0.5,0.6,0.7,0.8c0.5,0.7,0.2,1.7,0.2,2.5c0,0.9,0,1.9,0,2.8c0,0.7,0,1.4,0,2.1
			c0,1.1-0.3,2.2-0.3,3.4c0,1.6,0,3.2,0,4.8c0,0.8,0,1.7,0.2,2.4c0.1,0.2,0.3,0.4,0.4,0.6c0.1,0.2,0.1,0.4,0.1,0.5
			c0.2,0.3,0.3,0.2,0.5,0.4c0.4,0.4,0.5,1,0.9,1.3c0.5,0.3,1.2,0.2,1.8,0.2c1.2,0,2.7,0.3,3.7-0.2c0.5-0.2,1-0.5,1.5-0.8
			c0.5-0.3,0.6-0.6,1-1c0.5-0.5,1.3-0.9,1.9-1.3c0.2-0.1,0.5-0.3,0.7-0.4c0.9-0.5,1.9-0.7,2.9-1.1c1.5-0.6,2.7-1.5,4.2-2.1
			c0.6-0.2,1.1-0.5,1.7-0.7c0.6-0.3,1.4-0.7,2.1-0.8c0.8-0.1,1.7,0,2.5,0c0.8,0,1.7-0.2,2.4,0c0.8,0.2,1.6,0.8,2.3,1.2
			c0.8,0.5,1.7,0.9,2.4,1.5c0.6,0.6,1.4,1,2,1.7c0.5,0.6,0.7,1.6,1,2.3c0.1,0.4,0.5,0.7,0.6,1.1c0.1,0.5,0,1.3,0,1.8
			c0,1.7-0.3,4.1,0.4,5.6c0.4,0.9,0.9,0.7,2,0.7c1.9,0,3.7,0,5.5,0.2c2.1,0.3,4.3,0.8,6.5,0.8c1.1,0,2.2,0.1,3.3,0
			c1-0.1,2-0.4,2.9-0.6c1.8-0.5,4-0.1,5.9-0.1c2.1,0,4.4-0.3,6.5,0c0.5,0.1,0.9,0.4,1.4,0.6c0.3,0.1,0.6,0.1,0.9,0.2
			c0.3,0.1,0.7,0.1,0.9,0.2c0.5,0.2,0.8,0.8,1.3,1c0.6,0.3,1,0.5,1.4,1.1c0.5,0.7,0.7,1.6,1.2,2.3c0.4,0.7,1,1.3,1.5,1.9
			c0.1,0.2,0.2,0.3,0.3,0.5c0.2,0.2,0.5,0.3,0.8,0.5c0.4,0.3,0.7,1.1,0.9,1.5c0.4,0.7,0.8,1.3,1.3,2c0.4,0.5,0.4,0.6,0.8,1
			c0.5,0.5,1.1,1.1,1.7,1.4c0.5,0.3,1.2,0.4,1.8,0.6c0.7,0.3,1.4,0.4,2.2,0.5c0.6,0.1,1.7,0.2,2.2-0.1c0.3-0.2,0.6-0.4,0.9-0.6
			c0.6-0.4,1.4-0.7,2-1.1c0.7-0.4,1.1-0.6,1.9-0.7c0.6-0.1,1.4-0.1,2-0.3c2.6-0.5,5.6-0.2,8.3-0.2c1.2,0,2.1,0.2,3,1
			c1,1,2.3,2.1,3,3.4c0.4,0.8,0.8,1.8,1.5,2.4c0.2,0.2,0.5,0.3,0.7,0.6c0.1,0.2,0,0.3,0.1,0.5c0.1,0.1,0.5,0.4,0.6,0.4
			c0.8,0.4,1.8,0.4,2.6,0.7c0.5,0.2,1,0.5,1.5,0.6c0.9,0.1,2,0,2.8-0.3"/>
		<path id="XMLID_223_" class="st0" d="M46.1,115.7c0-2.1,0-4.2,0-6.3c0-1.2,0-2.3,0-3.5c0-0.7-0.1-1.6,0-2.3c0.1-0.6,0.2-1,0.2-1.6
			c0-0.6,0-1.2,0-1.8c0-1.9,0-3.7,0.3-5.5c0.2-0.9,0.2-1.8,0.2-2.7c0-0.8-0.1-1.7,0-2.4c0.1-0.4,0.2-0.6,0.3-1
			c0-0.4,0.1-0.8,0.2-1.2c0.2-1,0.1-2.2,0.1-3.3c0-0.4,0.1-0.6,0.2-1c0.1-0.3,0-0.6,0.1-1c0-0.1,0.2-0.1,0.2-0.3c0-0.2,0-0.7,0-0.8
			c0-0.7,0.4-1.3,0.5-2c0.1-0.5,0-1,0-1.5c0-0.5,0.2-0.9,0.3-1.4c0.2-1.2,0-2.5,0-3.7c0-2.4,0-4.7,0-7.1c0-1,0-2.1,0-3.1
			c0-0.6,0-1.3,0-1.9c0-0.7,0.1-1.1,0.3-1.8c0.2-0.9-0.2-1.8,0.2-2.6c0.1-0.3,0.2-0.6,0.4-0.9c0.2-0.4,0.1-0.6,0.2-1
			c0.5-0.1,0.8-0.3,1.3-0.3c0.8,0,1.7,0,2.5,0c1.5,0,3.1,0,4.6,0c2.2,0,4.4-0.3,6.7-0.3c0.6,0,1.2,0,1.9,0c0.8,0,1.5,0.1,2.3,0.2
			c0.7,0.1,1.4,0,2.1,0c0.5,0,0.9,0.2,1.4,0.3c1.1,0.1,2,0.2,3.1,0.2c3,0,6,0,8.9,0c4.2,0,8.5,0,12.7,0c2.3,0,4.6-0.2,6.9,0.1
			c1,0.2,2,0.1,2.9,0.3c0.3,0.1,0.6,0,0.9,0.1c0.5,0.1,0.9,0.3,1.4,0.5c0.4,0.2,0.9,0.2,1.4,0.2c0.6,0,1.2-0.2,1.4,0.4
			c0.2,0.8,0,1.9,0,2.7c0,1.4,0,2.9,0,4.3c0,1.9,0,3.8,0,5.7c0,0.9,0.2,2.1,0,2.9c-0.1,0.2-0.2,0.4-0.2,0.6c-0.1,0.6,0,1.4,0,2
			c0,4.3-0.2,8.7,0.2,12.9c0.2,1.4,0.3,2.9,0.3,4.4c0,0.8,0.2,1.5,0.2,2.3c0.1,0.8,0,1.6,0,2.4c0,1.4-0.2,2.6-0.3,4
			c-0.1,1.3,0,2.6,0,3.9c0,1.3,0,2.6,0,3.9c0,0.5,0.1,1,0,1.5c-0.1,0.6-0.3,1.1-0.3,1.7c0,2.2,0,4.4,0,6.7"/>
		<path id="XMLID_229_" class="st0" d="M53,115.5c0-3.4-0.4-7,0.3-10.3c0.1-0.4,0.2-0.7,0.3-1.1c0.2-0.6,0.2-0.9,0.2-1.5
			c0-2.1,0-4.2,0-6.3c0-0.9,0.2-1.7,0.3-2.5c0.1-1.1,0-2.2,0-3.3c0-2,0.3-3.9,0.3-5.8c0-0.8-0.1-1.6,0.1-2.4
			c0.1-0.7,0.4-1.3,0.5-2.1c0.1-2.4,0.2-4.7,0.2-7.1c0-4-0.1-8,0-12c0,0.9,0,0,0-0.2c0.1-0.3,0.4-0.4,0.4-0.7
			c0.6,0.3,1.6,0.2,2.2,0.2c0.7,0,1.3,0,2,0c0.7,0,1.4,0,2.1,0c1.5,0,3,0,4.4,0c1,0,1.9,0.3,2.9,0.3c0.9,0,1.7,0,2.6,0
			c1.8,0,3.6,0,5.3,0.3c2.2,0.4,4.4,0,6.6,0.2c0.8,0.1,1.5,0.3,2.4,0.3c0.9,0,1.7,0.3,2.6,0.3c1.3,0,2.7,0,4,0c0.5,0,0.9,0,1.4,0
			c0.5,0,0.8,0.2,1.3,0.3c0.7,0.1,1.5,0,2.2,0c1,0,2-0.1,3,0.2c0.3,0.1,0.5,0.1,0.7,0.1c0.5,0,0.8,0.1,1.2,0.2c0.5,0.1,1,0,1.5,0.1
			c0.4,0.1,0.7,0.2,1.2,0.2c0.3,0,0.6-0.1,0.8,0.1c0.2,0.2,0,1,0,1.2c0,0.6,0,1.2,0,1.8c0,0.9,0,1.7,0,2.6c0,1.5,0,2.9,0,4.4
			c0,0.9-0.3,1.7-0.3,2.6c0,0.8,0,1.6,0,2.4c0,1.7,0,3.4,0,5.1c0,1.1,0,2.2,0,3.3c0,1.4,0.3,2.7,0.3,4.1c0,0.8,0.3,1.6,0.3,2.4
			c0,1,0,2.1,0,3.1c0,4,0,8,0,12.1c0,1.9,0.1,10.3-0.3,10.4"/>
		<path id="XMLID_254_" class="st0" d="M60.9,20.9c-0.7,0-1.4,0-2,0.3c-0.2,0.1-0.4,0.2-0.6,0.3c-0.3,0.2-0.6,0.3-0.9,0.4
			c-0.3,0.2-0.4,0.4-0.7,0.5c-0.3,0-0.6,0.1-0.8,0.3c-0.1,0.1-0.2,0.3-0.4,0.4c-0.2,0.1-0.4,0.3-0.6,0.5c-0.2,0.2-0.2,0.6-0.4,0.8
			c-0.2,0.3-0.5,0.6-0.7,0.8c-0.4,0.5-0.6,1.2-1,1.7c-0.1,0.2-0.2,0.4-0.3,0.6c-0.1,0.2-0.2,0.3-0.4,0.5c-0.2,0.2-0.2,0.6-0.3,0.8
			c-0.1,0.3-0.2,0.6-0.3,0.8c-0.2,0.4-0.2,0.6-0.2,1c0,0.6,0,1.3,0,1.9c0,0.3,0,0.6,0.2,0.9c0.2,0.3,0.5,0.2,0.8,0.2
			c0.7,0,1.1-0.6,1.5-1.2c0.1,0.2,0,0.3,0,0.5c0,0.2,0.1,0.4,0.2,0.6c0.1,0.1,0.1,0.2,0.2,0.3c0,0.1,0,0.2,0.1,0.3
			c0.1,0.2,0.2,0.2,0.3,0.4c0.1,0.1,0.2,0.3,0.4,0.4c0.2,0.2,0.4,0.2,0.6,0.3c0.4,0.2,0.7,0.3,1.1,0.3c0.3,0,0.7,0.1,0.9,0
			c0.2-0.1,0.3-0.4,0.5-0.6c0-0.1,0-0.2,0.1-0.2c0.1,0,0.2-0.1,0.3-0.1c0.1-0.1,0.2-0.4,0.3-0.5c0.1-0.2,0.2-0.4,0.2-0.6
			c0.1-0.3,0.1-0.6,0.2-1c0-0.2-0.1-0.6,0.1-0.7c0.4,0.2,0.5,0.5,0.7,0.9c0.2,0.3,0.5,0.6,0.7,0.8c0.2,0.3,0.6,0.5,1,0.6
			c0.2,0.1,0.4,0,0.6,0.1c0.2,0,0.3,0.1,0.5,0.1c0.7,0,1.3,0.1,1.9-0.2c0.3-0.2,0.6-0.5,0.7-0.8c0.1-0.4,0.2-0.8,0.4-1.2
			c0.4-0.5,0.2-1.4,0.2-2c0-0.2,0-0.4,0-0.6c0-0.5-0.2-0.7-0.4-1.2c0-0.1,0-0.3-0.1-0.4c-0.1-0.3-0.4-0.7-0.6-1
			c-0.2-0.3-0.5-0.6-0.7-1c-0.2-0.2-0.1-0.4-0.2-0.7c-0.1-0.2-0.2-0.3-0.3-0.5c-0.1-0.2-0.1-0.3-0.2-0.5c-0.1-0.2-0.3-0.5-0.4-0.7
			c-0.2-0.5-0.4-1.1-0.7-1.5c-0.1-0.1-0.2-0.2-0.3-0.4C61.7,21.7,61.5,21.5,60.9,20.9z"/>
		<path id="XMLID_255_" class="st0" d="M85.3,20.7c-0.3,0-0.6,0-0.9,0.1c-0.4,0.2-0.7,0.3-1,0.6c-0.3,0.3-0.7,0.4-1,0.6
			c-0.3,0.2-0.7,0.4-1,0.7c-0.3,0.3-0.5,0.6-0.8,0.9c-0.2,0.3-0.4,0.6-0.5,0.9c-0.1,0.3-0.2,0.5-0.4,0.8c-0.2,0.3-0.3,0.7-0.6,1
			c-0.2,0.3-0.5,0.6-0.7,1c-0.1,0.2-0.1,0.4-0.2,0.6c-0.1,0.1-0.2,0.2-0.2,0.4c-0.4,0.7-0.4,1.3-0.4,2c0,0.5-0.1,0.9,0,1.4
			c0,0.3,0.2,0.6,0.3,0.8c0.2,0.6,0.7,0.9,1.3,0.9c0.7,0,1.4,0.1,1.9-0.3c0.2-0.2,0.3-0.3,0.4-0.5c0.1-0.2,0.3-0.3,0.4-0.4
			c0.2-0.3,0.4-0.9,0.7-1c0.1,0.3,0,0.7,0,1.1c0,0.2,0.1,0.5,0.1,0.7c0.1,0.2,0.3,0.4,0.4,0.7c0.1,0.2,0.3,0.4,0.5,0.5
			c0.1,0.1,0.1,0.2,0.2,0.3c0.3,0.3,0.5,0.5,0.9,0.5c0.6,0,1.5,0.2,1.9-0.3c0.3-0.3,0.2-0.6,0.3-1c0-0.3,0.1-0.5,0.1-0.8
			c0-0.3-0.1-0.8,0-1.1c0.2,0.1,0.3,0.3,0.4,0.5c0.2,0.3,0.4,0.6,0.6,0.8c0.3,0.4,0.8,0.8,1.3,1c0.1,0,0.2,0,0.3,0
			c0.1,0,0.2,0.1,0.3,0.2c0.3,0.1,0.6,0.1,0.8,0.1c0.4,0,0.9,0.1,1.4,0c0.3,0,0.2,0,0.4-0.2c0.1-0.1,0.2-0.1,0.3-0.3
			c0.1-0.1,0.1-0.3,0.1-0.4c0-0.2,0.2-0.4,0.2-0.6c0.1-0.3,0-0.7,0-1c0-0.3,0-0.7,0-1c0-0.4-0.2-0.9-0.4-1.3
			c-0.1-0.2-0.2-0.4-0.3-0.6c-0.1-0.3-0.2-0.6-0.3-0.9c-0.2-0.4-0.4-0.9-0.6-1.3c-0.3-0.4-0.5-0.9-0.8-1.3c-0.2-0.3-0.4-0.6-0.6-1
			c-0.2-0.3-0.4-0.5-0.7-0.8c-0.2-0.2-0.3-0.2-0.4-0.4c-0.1-0.2-0.2-0.2-0.4-0.3c-0.3-0.2-0.6-0.4-0.8-0.7c-0.2-0.3-0.3-0.1-0.5-0.3
			c-0.1-0.1-0.2-0.2-0.3-0.3c-0.2-0.1-0.4-0.1-0.5-0.3C86.3,21.1,86.1,20.8,85.3,20.7z"/>
		<path id="XMLID_256_" class="st0" d="M108.5,21.3c-0.1,0.5-0.8,0.8-1.2,1.1c-0.3,0.2-0.6,0.3-0.8,0.5c-0.2,0.1-0.3,0.3-0.5,0.5
			c-0.1,0.1-0.3,0.2-0.5,0.3c-0.3,0.2-0.4,0.5-0.7,0.8c-0.3,0.2-0.4,0.6-0.7,0.8c-0.4,0.3-0.6,0.8-1,1.1c-0.4,0.3-0.7,0.6-1,1.1
			c-0.3,0.4-0.6,0.7-0.8,1.2c-0.3,0.7-0.6,1.5-0.6,2.3c0,1-0.3,2.4,0.6,3.2c0.3,0.3,0.6,0.2,1,0.3c0.5,0,0.7,0,1-0.4
			c0.3-0.3,0.6-0.3,0.8-0.6c0.3-0.4,0.5-0.8,0.8-1.1c0.2-0.2,0.4-0.4,0.6-0.7c0,0.3,0,0.6,0.1,0.9c0.2,0.4,0.5,0.7,0.8,1
			c0.6,0.6,1.3,1,2.1,1.1c0.8,0.1,1.5-0.2,1.9-1c0.1-0.2,0.1-0.4,0.2-0.6c0.1-0.2,0.3-0.4,0.4-0.7c0.1-0.3,0.2-0.7,0.2-1
			c0.2,0,0.3,0.3,0.4,0.4c0.1,0.2,0.2,0.4,0.3,0.6c0.1,0.1,0.2,0.2,0.3,0.3c0.3,0.3,0.5,0.6,0.9,0.8c0.2,0.1,0.4,0.2,0.6,0.2
			c0.2,0,0.4,0,0.6,0c0.4,0.1,0.7,0.1,1,0.1c0.2,0,0.3,0,0.5,0c0.3,0,0.3,0,0.5-0.2c0.4-0.4,1-0.7,1.1-1.3c0.1-0.4,0-0.8,0-1.2
			c0-0.6,0.1-1.3-0.1-1.9c-0.2-0.5-0.4-1-0.6-1.5c-0.1-0.2-0.2-0.3-0.3-0.5c-0.2-0.3-0.2-0.6-0.5-0.9c-0.3-0.3-0.4-0.7-0.7-0.9
			c-0.3-0.2-0.6-0.6-0.9-0.8c-0.2-0.1-0.3-0.1-0.5-0.2c-0.2-0.1-0.3-0.3-0.4-0.4c-0.2-0.2-0.5-0.3-0.8-0.4
			C111.5,23,110.5,22.4,108.5,21.3z"/>
		<path id="XMLID_257_" class="st0" d="M139.4,42.3c-0.3,0.1-0.6,0.5-0.8,0.8c-0.3,0.3-0.6,0.7-1,0.9c-0.2,0.1-0.4,0.2-0.6,0.3
			c-0.2,0.1-0.4,0.3-0.5,0.5c-0.1,0.1-0.3,0.3-0.4,0.4c-0.2,0.2-0.5,0.4-0.7,0.6c-0.1,0.2-0.2,0.3-0.4,0.5c-0.2,0.2-0.4,0.2-0.6,0.5
			c-0.1,0.2-0.1,0.2-0.4,0.3c-0.3,0.1-0.3,0.3-0.5,0.5c-0.3,0.4-0.7,0.7-1,1.1c-0.1,0.2-0.1,0.4-0.1,0.6c0,0.1-0.2,0.5-0.2,0.5
			c-0.1,0.2-0.2,0.4-0.3,0.6c-0.1,0.2-0.2,0.3-0.3,0.4c-0.1,0.2-0.1,0.3-0.2,0.5c-0.5,0.8-0.3,2-0.3,2.9c0,0.4,0,0.8,0.1,1.2
			c0.1,0.3,0.2,0.7,0.3,1c0.1,0.2,0.1,0.5,0.3,0.6c0.1,0.1,0.2,0.2,0.3,0.3c0.2,0.2,0.1,0.2,0.4,0.2c0.2,0,0.3,0,0.5,0
			c0.2,0,0.4,0,0.6,0c0.1-0.1,0.2-0.2,0.4-0.3c0.1,0,0.2-0.1,0.3-0.1c0.5-0.3,0.7-1.2,0.7-1.7c0.1,0.2,0.2,0.4,0.3,0.7
			c0.1,0.4,0.4,0.8,0.6,1.2c0.2,0.5,0.5,0.7,0.9,1c0.2,0.1,0.3,0.3,0.4,0.5c0.2,0.2,0.6,0.1,0.8,0.1c0.4,0,0.8,0.2,1.2,0.1
			c0.3-0.1,0.6-0.3,0.8-0.4c0.2-0.1,0.4-0.1,0.5-0.2c0.4-0.3,0.8-0.8,1-1.3c0.1-0.2,0-0.4,0.1-0.6c0-0.3,0.1-0.6,0.2-0.9
			c0.1-0.2,0-0.5,0.1-0.7c0-0.3,0.1-0.5,0.1-0.8c0.1,0.3,0.4,0.6,0.5,0.9c0.2,0.3,0.3,0.7,0.4,1c0.2,0.4,0.5,0.7,0.7,1.1
			c0.1,0.2,0.2,0.3,0.4,0.4c0.1,0,0.2,0.2,0.2,0.2c0.1,0,0.2,0,0.2,0c0.2,0,0.2,0.1,0.4,0.1c0.2,0,0.3,0,0.4,0.1
			c0.4,0.1,0.8,0.1,1.2,0.1c0.3,0,0.7,0.1,1-0.1c0.3-0.1,0.7-0.4,1-0.6c0.4-0.3,0.9-1,0.9-1.5c0-0.5,0-1,0-1.5
			c0-0.3-0.2-0.6-0.3-0.9c-0.1-0.3-0.1-0.6-0.2-0.8c-0.1-0.3,0-0.4-0.2-0.7c-0.2-0.3-0.3-0.7-0.5-1c-0.3-0.5-0.8-1-1-1.5
			c-0.3-0.5-0.7-0.9-1-1.4c-0.5-0.6-1.2-1-1.7-1.5c-0.8-0.8-2-1.1-2.7-2c-0.2-0.3-0.5-0.5-0.7-0.8c-0.1-0.1-0.2-0.2-0.4-0.3
			C140.6,43.1,140.3,42.8,139.4,42.3z"/>
		<path id="XMLID_258_" class="st0" d="M52.3,34.1c0,0.9,0.1,1.9-0.1,2.8c-0.1,0.7-0.3,1.4-0.4,2.2c-0.2,2.1-0.1,4.1-0.1,6.2
			c0,0.2,0,0.5,0,0.7c0,0.2-0.1,0.3-0.1,0.5c0,0.3,0,0.7,0,1.1c0,0.8-0.1,1.6,0,2.3c0,0.3,0.1,0.4,0.1,0.7c0,0.3,0,0.6,0,0.9
			c0,0.5,0,1.1,0,1.6"/>
		<path id="XMLID_259_" class="st0" d="M64,34.6c0,1.9,0,3.8,0,5.7c0,0.9-0.2,1.8-0.3,2.7c-0.1,0.9-0.2,1.9-0.4,2.8
			c-0.1,0.3-0.1,0.5-0.2,0.8c-0.1,0.4-0.1,0.7-0.1,1.1c0,0.6,0,1.2,0,1.8c0,1.3,0,2.6,0,3.9"/>
		<path id="XMLID_260_" class="st0" d="M79.2,33.6c0,2.8,0,5.6,0,8.4c0,1-0.2,1.9-0.4,2.8c0,0.2,0,0.4,0,0.5c0,0.2-0.2,0.3-0.2,0.5
			c-0.1,0.2,0,0.5,0,0.7c0,0.8-0.1,1.8,0,2.5c0.1,0.6,0.2,1.2,0.2,1.8c0,0.8,0,1.6,0,2.4"/>
		<path id="XMLID_261_" class="st0" d="M90.7,34.6c0,0.7,0,1.5,0,2.2c0,0.7-0.1,1.5-0.2,2.2c-0.1,0.4,0,0.9-0.1,1.3
			c-0.1,0.4-0.2,0.7-0.2,1.1c0,0.8,0,1.7,0,2.5c0,0.9-0.1,1.9,0,2.8c0.1,0.8,0.1,1.6,0.1,2.4c0,0.8,0.1,1.7,0,2.5
			c0,0.4-0.1,0.7-0.1,1.1c0,0.3-0.1,0.4-0.1,0.7"/>
		<path id="XMLID_262_" class="st0" d="M103.2,34.8c0,0.9,0,1.9,0,2.8c0,0.4,0,0.8,0,1.2c0,0.3-0.1,0.5-0.1,0.8c-0.1,1,0,2,0,2.9
			c0,0.7,0,1.5,0,2.2c0,0.5-0.1,1,0,1.5c0,0.2,0.1,0.3,0.2,0.5c0.1,0.3,0.1,0.5,0.1,0.8c0,0.7,0,1.5,0,2.2c0,0.3,0.1,0.6,0.1,0.9
			c0.1,0.3,0,0.7,0,1c0,0.3,0.1,0.5,0.1,0.8c0,0.2,0,0.4,0,0.7"/>
		<path id="XMLID_263_" class="st0" d="M114.5,34.3c0,1.2,0,2.3,0,3.5c0,0.8,0,1.6,0,2.3c0,0.4,0,0.7,0,1.1c0,0.3-0.1,0.6-0.1,0.9
			c0,0.6,0,1.2,0,1.9c0,0.8-0.2,1.5-0.3,2.2c-0.1,0.5-0.1,1.1-0.1,1.6c0,0.2-0.1,0.4-0.1,0.7c0,0.2,0,0.4,0,0.6
			c-0.3,1.5,0.1,3-0.1,4.5c-0.1,0.6-0.2,1-0.2,1.6c0,0.3,0,0.5-0.1,0.7c0,0.1-0.1,0.2-0.1,0.3c0,0.1,0,0.2-0.1,0.3
			c0,0.2-0.2,0.2-0.2,0.4c-0.1,0.1,0,0.3,0,0.4"/>
		<path id="XMLID_264_" class="st0" d="M145.4,58.5c0,1.4,0.1,2.8-0.2,4.1c-0.2,0.9-0.2,1.8-0.4,2.7c-0.2,0.9-0.4,1.9-0.4,2.9
			c0,1.9-0.4,3.9-0.4,5.8c0,2.4,0,4.8,0,7.2c0,2.2,0.2,4.4,0.6,6.6c0.5,3.5,0.4,7,0.4,10.5c0,1,0.1,2.1-0.1,3.1
			c-0.2,1.3-0.5,2.6-0.5,3.8c0,0.5-0.1,0.9-0.2,1.4c-0.1,0.8-0.1,1.6-0.3,2.4c-0.2,0.7,0,1.4-0.1,2.2c-0.1,0.8-0.3,1.6-0.3,2.3
			c-0.1,0.6-0.3,1.2-0.4,1.8c-0.1,0.3,0,0.6,0,0.9c-0.1,0.3-1.5,0.6-1.5,0.9"/>
		<path id="XMLID_265_" class="st0" d="M113,67.8c0.4,0,1-0.4,1.5-0.6c0.5-0.2,1-0.4,1.4-0.5c0.2,0,0.5,0,0.7,0
			c0.3-0.1,0.4-0.1,0.7-0.2c0.5,0,0.9,0,1.4,0c1,0,2.1-0.1,3.2,0c0.6,0.1,1.1,0.4,1.7,0.6c0.6,0.2,1.4,0.4,2,0.8
			c0.4,0.3,0.9,0.6,1.3,0.9c0.4,0.3,0.9,0.7,1.3,0.9c0.2,0.1,0.3,0.1,0.5,0.2c0.2,0.2,0.3,0.4,0.5,0.6c0.4,0.3,0.6,0.6,0.9,0.9
			c0.5,0.6,1,1.2,1.4,1.9c0.2,0.3,0.2,0.6,0.4,0.9c0.1,0.2,0.5,0.8,0.7,0.8c0-0.5,0.4-0.3,0.6-0.6c0.1-0.2,0-0.7,0-0.9
			c0-0.6-0.1-1.3,0-1.9c0.1-0.4,0.1-0.6,0.1-1c0-0.4,0.1-0.6,0.2-0.9c0.1-0.6,0-1.4,0-2c0-0.9,0-1.8,0-2.6c0-0.4,0-0.9,0-1.3
			c0-0.4-0.1-0.7-0.2-1c-0.1-0.8,0-1.6-0.2-2.3c-0.2-0.8,0-1.8,0-2.6"/>
		<path id="XMLID_266_" class="st0" d="M112,82.1c0.4,0,0.7,0.1,1.1-0.1c0.2-0.1,0.4-0.3,0.7-0.4c0.2-0.1,0.3-0.1,0.5-0.2
			c0.2-0.2,0.1-0.2,0.4-0.4c0.1,0,0.3-0.1,0.4-0.1c0.2-0.1,0.4,0,0.7-0.1c0.3-0.1,0.4-0.4,0.7-0.5c0.4-0.1,1.1,0,1.5,0
			c0.4,0,0.8,0,1.1,0c0.6,0,1.3,0,1.9,0c1,0,1.9,0.5,2.8,0.9c0.4,0.1,0.8,0.3,1.1,0.5c0.5,0.2,0.7,0.5,1.2,0.7
			c0.8,0.3,1.3,0.8,1.9,1.3c0.2,0.1,0.4,0.2,0.5,0.4c0.2,0.2,0.2,0.4,0.4,0.6c0.3,0.3,0.7,0.3,1,0.6c0.2,0.2,0.4,0.6,0.6,0.9
			c0.4,0.4,0.9,0.6,1.1,1.1c0.3,0.5,0.4,0.9,0.7,1.3c0.4,0.6,0.5,1.2,0.7,1.8c0.2,0.5,0.2,0.8,0.2,1.3c0,0.4,0.2,0.7,0.2,1
			c0,0.7,0,1.5,0,2.2c0,0.9,0,1.7,0,2.6c0,0.4,0,0.8,0,1.2c0,0.5,0.2,1,0.2,1.5c0,1.1,0,2.1,0,3.2c0,1.1,0.2,2.2,0.2,3.3
			c0,0.5,0.1,0.9,0.2,1.4c0.1,0.5,0,1.1,0,1.6c0,0.9,0,1.7,0,2.6c0,0.8,0.1,1.7-0.2,2.4c-0.2,0.6-0.4,2.7-0.4,3.4"/>
		<path id="XMLID_291_" class="st0" d="M112.2,84.9c0.6,0,1.3-0.4,1.8-0.6c0.5-0.2,0.9-0.6,1.5-0.7c0.6-0.1,1.2,0,1.8,0
			c0.7,0,1.3-0.1,2,0.3c0.3,0.2,0.7,0.4,1,0.6c0.4,0.2,0.9,0.3,1.3,0.5c0.4,0.2,0.6,0.4,1,0.6c0.4,0.2,0.8,0.4,1.2,0.7
			c0.5,0.3,1.1,0.7,1.6,1c0.3,0.2,0.2,0.4,0.4,0.6c0.1,0.1,0.3,0.1,0.4,0.2c0.2,0.1,0.2,0.3,0.3,0.5c0.3,0.6,0.5,1.1,0.8,1.7
			c0.1,0.3,0.2,0.7,0.3,1c0.2,0.4,0.1,0.6,0.2,1c0.1,0.6,0.3,1.2,0.4,1.8c0,0.9,0.2,1.9,0.3,2.8c0.1,0.7,0,1.5,0,2.2
			c0,1,0,1.9,0,2.9c0,1.7,0,3.3,0,5c0,3.6,0,7.1,0,10.7"/>
		<path id="XMLID_292_" class="st0" d="M84.1,116.6c-0.3,0-0.1-0.7-0.2-0.9c-0.1-0.4-0.2-0.9-0.2-1.4c-0.1-0.3,0-0.6-0.1-0.9
			c-0.1-0.3-0.1-0.6-0.1-0.9"/>
		<path id="XMLID_317_" class="st0" d="M72.2,92.5c-0.5,0-1,0-1.5,0c-0.6,0-1,0-1.3,0.6c-0.1,0.3-0.3,0.5-0.4,0.8
			c-0.1,0.2-0.1,0.5-0.1,0.7c-0.1,0.5-0.2,1.2-0.1,1.7c0,0.4,0.2,0.4,0.5,0.6c0.2,0.2,0.3,0.5,0.5,0.7c0.3,0.3,1,0.5,1.4,0.6
			c0.3,0,0.6,0,0.9,0.1c0.2,0.1,0.5,0,0.7,0c0.2,0,0.5,0,0.7,0c0.2,0,0.4,0.2,0.6,0.2c0,0.4,0.4,0.4,0.6,0.8
			c0.2,0.4,0.2,0.9,0.4,1.3c0.1,0.3,0.2,0.7,0.3,1c0.1,0.3,0.4,0.4,0.6,0.6c0.2,0.2,0.2,0.5,0.3,0.7c0.2,0.3,0.3,0.6,0.5,0.9
			c0.3,0.5,0.4,1.1,0.5,1.7c0,0.4,0,0.7,0.2,1c0.2,0.3,0.4,0.5,0.6,0.7c0.1,0.1,0.1,0.2,0.2,0.3c0.1,0,0.1,0,0.2,0
			c0.1,0,0.2,0.1,0.2,0.2c0.3,0.3,0.3,0.5,0.7,0.6c0.4,0.2,0.6,0.4,0.8,0.7c0.1,0.1,0.1,0.2,0.2,0.3c0.2,0.2,0.4,0.2,0.5,0.3
			c0.2,0.1,0.3,0.4,0.4,0.6c0.1,0.1,0.3,0.3,0.4,0.4c0.4,0.4,0.8,1.1,1.4,1.3c0.5,0.2,1.1,0.3,1.7,0.3c0.8,0,1.6,0,2.5,0
			c0.5,0,1,0,1.5,0c0.3,0,0.5-0.1,0.8-0.2c0.5-0.1,0.7-0.5,1.1-0.8c0.5-0.4,1.1-1,1.5-1.6c0.1-0.1,0.1-0.3,0.1-0.4
			c0.2-0.3,0.1-0.1,0.4-0.2c0.3-0.2,0.5-0.5,0.6-0.9c0.2-0.6,0.3-1.3,0.3-2c0-0.9,0-1.7,0-2.6c0-0.4,0.1-0.6,0.2-0.9
			c0.1-0.2,0.3-0.4,0.4-0.6c0.1-0.3,0.1-0.5,0.4-0.8c0.1-0.2,0.3-0.3,0.5-0.5c0.1-0.2,0.1-0.5,0.2-0.7c0.1-0.1,0.2-0.2,0.3-0.4
			c0.2-0.3,0.1-0.7,0.3-1c0.3-0.4,0.7-0.4,0.8-0.9c0.1-0.5,0.2-0.9,0.2-1.3c0-0.9,0.1-1.7-0.3-2.5c-0.2-0.3-0.3-0.6-0.4-0.9
			c-0.1-0.2-0.3-0.4-0.3-0.6c-0.2-0.4,0-1,0-1.4c0-0.5,0-1,0-1.5c0-0.5-0.1-1.1,0-1.5c0.1-0.6,0.5-1.1,0.8-1.5
			c0.4-0.5,0-0.7,0.1-1.3c0.1-0.3,0-1,0-1.3c0-0.5-0.3-1-0.6-1.3c-0.4-0.5,0.5-0.9,0.1-1.4c-0.2-0.2-0.5-0.4-0.7-0.6
			c-0.2-0.2-0.3-0.2-0.6-0.3c-0.3-0.1-0.6-0.2-0.9-0.3c-0.5-0.2-1-0.7-1.5-0.7c-0.5-0.1-0.9-0.2-1.4-0.2c-0.6,0-1.1-0.2-1.6-0.5
			c-0.9-0.5-1.8-0.8-2.7-1.4c-0.7-0.4-1.5-0.5-2.3-0.8c-0.5-0.2-0.9-0.2-1.5-0.2c-0.5,0-1-0.1-1.4,0.1c-0.5,0.2-1.1,0.3-1.5,0.7
			c-0.3,0.3-0.6,0.7-0.9,1c-0.3,0.3-0.6,0.6-0.8,1c-0.1,0.1-0.1,0.3-0.1,0.4c-0.1,0.4-0.3,0.4-0.6,0.6c-0.3,0.2-0.5,0.4-0.8,0.5
			c-0.4,0.2-0.5,0.6-0.9,0.8c-0.8,0.5-2,0.4-2.4,1.5c-0.1,0.3-0.1,0.6-0.2,0.9c0,0.1-0.2,0.3-0.3,0.4c-0.2,0.4-0.2,0.7-0.3,1.1
			c-0.1,0.5-0.3,0.8-0.3,1.3c0,0.6,0,1.1,0,1.7C72.1,89.4,72.1,90.3,72.2,92.5z"/>
		<path id="XMLID_318_" class="st0" d="M92.3,79c0.3,0,0.5,0,0.8-0.1c0.3-0.2,0.6-0.5,0.8-0.8c0.3-0.4,0.5-1,0.7-1.4
			c0.1-0.3,0.2-0.6,0.3-0.9c0.1-0.3,0.3-0.5,0.3-0.8c0.1-0.5,0.1-1.7-0.3-2.1c-0.1-0.1-0.2,0-0.3-0.1c-0.1-0.1-0.1-0.2-0.2-0.3
			c-0.2-0.2-0.8-0.3-1-0.3c-0.7,0-1.5-0.2-2.2-0.3c-0.5-0.1-0.9-0.1-1.3-0.2c-0.5,0-0.9-0.1-1.3-0.2c-0.4-0.1-0.9-0.2-1.2-0.3
			c-0.7-0.3-1-1.2-1.8-1.3c-0.4-0.1-0.7-0.2-1-0.3c-0.3-0.1-0.6,0-0.9,0c-0.4,0-0.7-0.2-1-0.2c-0.4,0-0.7,0-1.1,0
			c-0.4,0-0.7,0-1,0.1c-0.2,0-0.5,0-0.7,0.1c-0.2,0.1-0.4,0.2-0.6,0.3c-0.6,0.2-1.1,0.4-1.8,0.5c-0.6,0-1.3,0-1.9,0
			c-0.5,0-1,0.1-1.5,0.2c-0.5,0-0.8,0.4-1.3,0.5c-0.6,0.1-1.4,0-2,0c-0.7,0-1.3,0-2,0c-0.5,0-1.2-0.2-1.5,0.3
			c-0.2,0.3-0.2,0.5-0.5,0.7c-0.3,0.2-0.5,0.3-0.8,0.6c-0.2,0.3-0.4,0.7-0.6,1c-0.2,0.2-0.3,0.4-0.3,0.6c-0.1,0.5-0.3,0.9-0.4,1.4
			c-0.1,0.4,0,1,0,1.4c-0.1,1.2-0.1,2.4-0.3,3.6c-0.1,0.4-0.1,0.7-0.1,1.1c0,0.8,0,1.7,0,2.5c0,0.7,0.2,1.2,0.2,1.9
			c0,0.2,0,0.5,0,0.8c-0.1,0.4-0.4,0.7-0.5,1c-0.1,0.2-0.1,0.5-0.2,0.8c-0.1,0.4-0.3,0.7-0.4,1.1c-0.2,0.5-0.5,0.8-0.7,1.3
			c-0.4,0.8-0.8,1.6-1.2,2.4c-0.4,0.9-0.5,1.8-0.4,2.8c0.1,0.5,0.4,0.7,0.6,1.1c0.2,0.4,0.4,0.8,0.7,1.2c0.4,0.7,0.4,1.6,0.5,2.3
			c0,1,0,1.9,0,2.9c0,0.2,0,0.5,0,0.8c-0.1,0.3-0.2,0.5-0.3,0.8c-0.1,0.5,0.1,1,0,1.5c-0.2,0.9-0.1,1.9-0.1,2.8
			c0,0.7-0.2,1.4,0.3,1.9c0.6,0.6,1.4,1.1,2.2,1.4c0.4,0.1,0.6,0.3,1,0.4c0.4,0.1,0.9,0.2,1.3,0.3c0.6,0.1,1.2,0,1.8,0
			c0.5,0,1,0,1.4-0.2c0.5-0.3,1.1-0.7,1.5-1.1c0.8-0.5,1.1-1.5,1.8-2.1c0.6-0.5,1.4-0.8,1.8-1.5c0.1-0.1,0.2-0.4,0.2-0.5
			c0.2-0.4,0.5-0.8,0.6-1.3c0.1-0.3,0.2-0.6,0.2-0.9c0-0.7,0-1.4,0-2.1"/>
		<path id="XMLID_319_" class="st0" d="M70.1,113.4c0,1.2,0,2.5,0,3.7"/>
		<path id="XMLID_320_" class="st0" d="M83.7,86.1c-0.2-0.2-0.4-0.3-0.7-0.5c-0.1-0.1-0.3-0.1-0.4-0.2c-0.1,0-0.1-0.1-0.2-0.2
			c-0.1-0.1-0.2-0.1-0.3-0.2c-0.3-0.1-0.5-0.4-0.8-0.6c-0.2-0.1-0.4-0.1-0.5-0.2c-0.2-0.1-0.3-0.3-0.6-0.4c-0.4-0.1-0.8-0.1-1.2-0.1
			c-0.5,0-1,0-1.5,0c-0.3,0-0.6,0.1-0.9,0.2c-0.2,0.1-0.3,0.2-0.5,0.3c-0.4,0.1-0.7,0.5-0.9,0.9c-0.4,0.7-0.6,1.3-0.6,2.1
			c0,0.4-0.1,0.8,0,1.2c0.1,0.4,0.3,0.6,0.4,0.9c0.2,0.5,0.4,1.2,0.9,1.5c0.3,0.2,0.8,0.3,1.1,0.5c0.2,0.1,0.3,0.1,0.5,0.2
			c0.2,0.1,0.3,0.2,0.6,0.3c0.2,0.1,0.4,0.2,0.6,0.3c0.2,0.1,0.6,0.1,0.8,0.1c0.5,0,1,0.1,1.4-0.2c0.2-0.2,0.5-0.3,0.7-0.5
			c0.2-0.3,0.3-0.6,0.7-0.7c0-0.3,0.2-0.6,0.3-0.8c0.1-0.1,0.1-0.1,0.2-0.3c0-0.1,0-0.2,0-0.4c0-0.4,0.1-0.7,0.1-1.1
			C83,87.8,83,87.3,83.7,86.1z"/>
		<path id="XMLID_322_" class="st1" d="M76.5,86.7c0.5,0,1,0,1.5,0c0.1,0,0.5-0.1,0.6,0c0,0,0.1,0.2,0.2,0.2
			c0.1,0.1,0.1,0.1,0.2,0.2c0.1,0.1,0.1,0.2,0.2,0.3c0.1,0.2,0.1,0.3,0.1,0.5c0,0.2,0,0.4,0,0.6c-0.1,0.1-0.1,0.1-0.2,0.2
			c0,0.1-0.1,0.1-0.1,0.2c-0.1,0.2-0.2,0.3-0.4,0.4c-0.2,0.1-0.4,0.2-0.7,0.2c-0.3,0-0.8,0.1-1-0.1c-0.1-0.1-0.1-0.2-0.2-0.3
			c-0.1-0.1-0.2-0.2-0.2-0.4c-0.1-0.1-0.1-0.3-0.2-0.5c0-0.1,0-0.1,0-0.2c0,0,0-0.1,0-0.1c0-0.1,0-0.1,0-0.2
			C76.1,87.6,76.1,86.8,76.5,86.7z"/>
		<path id="XMLID_323_" class="st1" d="M88.4,85.4c0.5,0,1,0,1.6,0c0.1,0,0.5-0.1,0.6,0c0,0,0.1,0.2,0.2,0.2
			c0.1,0.1,0.1,0.1,0.2,0.2c0.1,0.1,0.1,0.2,0.2,0.3c0.1,0.2,0.1,0.3,0.1,0.5c0,0.2,0.1,0.5,0,0.6c-0.1,0.1-0.2,0.1-0.2,0.2
			c0,0.1-0.1,0.1-0.1,0.2c-0.1,0.2-0.2,0.3-0.5,0.4c-0.2,0.1-0.4,0.2-0.7,0.2c-0.3,0-0.8,0.1-1-0.1c-0.1-0.1-0.1-0.2-0.2-0.3
			c-0.1-0.1-0.2-0.2-0.2-0.4C88.1,87.3,88,87.2,88,87c0-0.1,0-0.1,0-0.2c0,0,0-0.1,0-0.1c0-0.1,0-0.1,0-0.2
			C87.9,86.4,88,85.6,88.4,85.4z"/>
		<path id="XMLID_324_" class="st0" d="M86.3,89.2c0,0.4-0.1,0.9,0,1.4c0.1,0.2,0.2,0.4,0.3,0.6c0.1,0.2,0.1,0.3,0.2,0.5
			c0.1,0.1,0.1,0.2,0.1,0.3c0.1,0.1,0.2,0.2,0.2,0.3c0.1,0.2,0.2,0.5,0.2,0.7c0,0.2,0,0.4,0.1,0.6c0,0.1,0.1,0.1,0.1,0.2
			c0.1,0.2,0.2,0.3,0.3,0.5c0.2,0.3,0.4,0.6,0.5,1c0.1,0.4,0,0.8,0.2,1.1c0.1,0.3,0.1,0.5,0.3,0.8c0.1,0.2,0.1,0.1,0.1,0.3
			c0,0.1,0,0.2,0,0.3c0.1,0.3,0.1,0.6,0.1,0.9c0,0.2-0.2,0.3-0.3,0.5c-0.1,0.1-0.1,0.2-0.3,0.3c-0.2,0.1-0.4,0.1-0.6,0.1
			c-0.3,0-0.7,0.1-1,0c-0.3-0.1-0.8-0.4-1-0.7c-0.1-0.1-0.1-0.2-0.3-0.2c-0.2,0-0.4,0-0.6,0c-0.1,0-0.3,0-0.5,0
			c-0.2,0.1-0.3,0.2-0.5,0.3c-0.2,0.1-0.4,0.1-0.6,0.2c-0.1,0-0.1,0-0.2,0c-0.1,0-0.2,0.1-0.3,0.1c-0.3,0.1-0.7,0-1-0.2
			c-0.1-0.1-0.1-0.1-0.1-0.3c0-0.1-0.1-0.2-0.1-0.3c-0.1-0.2-0.2-0.5-0.2-0.7c-0.1-0.5-0.1-1.5,0.4-1.8c0,0,0.1,0,0.1-0.1
			c0.1,0,0.2-0.1,0.3-0.1c0.1-0.1,0.2-0.1,0.3-0.2c0.1,0,0.3,0,0.5,0c0.3,0,0.6-0.1,0.9,0.2c0.1,0.1,0.1,0.2,0.1,0.4
			c0,0.2,0,0.4-0.2,0.4"/>
		<path id="XMLID_325_" class="st0" d="M83.3,105.6c0.4,0,0.8,0,1.3,0c0.5,0,0.9,0.1,1.4,0.2c0.2,0,0.4,0.1,0.6,0.1
			c0.2,0,0.4,0,0.5,0c0.4,0,0.8-0.2,1.2-0.2"/>
		<path id="XMLID_321_" class="st0" d="M89.4,82.2c-0.1,0-0.4,0-0.5,0c-0.1,0.1-0.2,0.2-0.3,0.3c-0.1,0.1-0.2,0.1-0.3,0.1
			c-0.2,0.1-0.3,0.3-0.5,0.4c-0.1,0-0.2,0.1-0.2,0.1c-0.1,0.1-0.1,0.1-0.2,0.2c-0.2,0.2-0.3,0.6-0.5,0.9c-0.1,0.1-0.1,0.3-0.2,0.4
			c-0.1,0.2-0.1,0.4-0.1,0.5c-0.1,0.4-0.1,0.8-0.1,1.2c0,0.6,0,1.2,0.2,1.8c0.1,0.3,0.1,0.6,0.3,0.8c0.1,0.2,0.3,0.5,0.5,0.7
			c0.1,0.1,0.1,0.2,0.2,0.2c0.1,0.1,0.1,0.2,0.2,0.3c0.1,0.1,0.2,0.1,0.2,0.2c0.1,0.1,0.2,0.1,0.3,0.2c0.1,0.1,0.2,0.2,0.4,0.3
			c0.2,0.1,0.4,0.2,0.5,0.3c0.3,0.3,0.7,0.2,1,0.2c0.5,0,0.9,0,1.4,0c0.2,0,0.4,0,0.5,0c0.1,0,0.2,0,0.3-0.1c0,0,0.1-0.1,0.1-0.1
			c0.1,0,0.1,0,0.2-0.1c0.1,0,0.1-0.1,0.2-0.1c0.1,0,0.1-0.1,0.2-0.1c0.1,0,0.1-0.1,0.2-0.1c0.1-0.1,0.3-0.2,0.3-0.3
			c0-0.1,0.1-0.2,0.1-0.3c0.1-0.1,0.1-0.2,0.1-0.3c0.1-0.1,0.1-0.2,0.1-0.3c0.1-0.1,0.1-0.2,0.2-0.3c0.3-0.7,0.2-1.5,0.2-2.2
			c0-0.2,0-0.5-0.1-0.7c-0.1-0.2-0.1-0.4-0.2-0.6c-0.1-0.2-0.2-0.4-0.3-0.7c-0.1-0.2-0.1-0.4-0.2-0.7c0-0.2-0.2-0.4-0.2-0.6
			c0-0.1-0.1-0.3-0.2-0.4c0-0.1,0-0.2-0.1-0.2C93,83,92.8,83,92.7,83c-0.1-0.1-0.1-0.1-0.3-0.1c-0.2,0-0.3-0.1-0.5-0.2
			c-0.2,0-0.4-0.1-0.6-0.1c-0.2,0-0.4,0-0.6,0c-0.1,0-0.2,0-0.2-0.1C90.4,82.5,90.4,82.5,89.4,82.2z"/>
	</g>
	<g id="XMLID_45_">
		<path id="XMLID_47_" class="st0" d="M165.2,148.8c0,0.7,0.1,1.5,0,2.2c-0.1,0.3-0.2,0.5-0.2,0.8c-0.1,0.4,0,0.8,0,1.2
			c0,0.4,0.1,0.5,0.2,0.8c0.1,0.3,0,0.5,0.3,0.7c0.2,0.1,0.7,0,1,0c0.5,0,0.9,0,1.4,0c0.7,0,1.5,0,2.2,0c1,0,1.8,0.2,2.8,0.2
			c2.7,0,5.5,0,8.2,0c2.3,0,4.6,0,6.8,0c0.8,0,1.6,0,2.4,0c0.9,0,1.8-0.2,2.7-0.2c0.4,0,0.7,0,1.1,0c0.5,0,1-0.2,1.6-0.2
			c0.9,0,1.7-0.2,2.6-0.2c2.1,0,4.2,0,6.3,0c1.4,0,2.7,0,4.1,0c0.6,0,1.3-0.1,1.9,0c0.5,0.1,0.9,0.3,1.4,0.3c0.8,0.1,1.6,0,2.4,0
			c0.7,0,1.4,0.1,2.1,0.3c0.9,0.2,1.8,0.2,2.8,0.4c1.2,0.2,2.5,0.3,3.8,0.5c0.7,0.1,1.3,0.3,2.1,0.3c0.8,0,1.6,0.1,2.5,0.2
			c0.6,0,1.3,0,1.9,0c0.8,0,1.5,0.1,2.3,0.2c1,0.1,2-0.1,3,0c0.4-0.4,0.2-1.5,0.2-2.1c0-0.9,0-1.7-0.2-2.6c-0.2-0.8-0.2-1.7-0.4-2.5
			c0-0.2-0.2-0.2-0.2-0.4c0-0.2,0.1-0.4,0-0.7c-1.5-0.2-3.1,0-4.5,0c-0.6,0-1.2,0-1.9,0c-1.6,0-3.1,0.2-4.6,0.2
			c-2.1,0-4.1,0.5-6.2,0.6c-1.6,0.1-3.2,0.3-4.9,0.4c-2.5,0.2-5.1,0.2-7.6,0.2c-4.6,0-9.1,0-13.7,0c-0.3,0-0.7,0-1,0
			c-0.5,0-0.7,0.1-1.2,0.2c-1.4,0.3-2.8-0.5-4.2-0.6c-2.7-0.3-5.4-0.8-8.1-0.8c-1.3,0-2.7-0.2-4.1-0.4c-0.3,0-0.6,0-0.9,0
			c-0.3,0-0.5-0.2-0.7-0.3c-0.4-0.1-0.8-0.1-1.2-0.1C168.2,147.6,167,147.6,165.2,148.8z"/>
		<path id="XMLID_48_" class="st0" d="M233.7,147.2c0-0.9-0.1-1.6-0.2-2.4c-0.6-0.3-1.7,0-2.4,0c-0.5,0-0.9,0-1.4,0
			c-1,0-2.2,0.2-3.2,0c-1.1-0.2-2.2-0.2-3.4-0.2c-0.4,0-0.9,0.1-1.3,0c-0.4-0.1-0.7-0.2-1.2-0.2c-0.6,0-1.2-0.1-1.8-0.2
			c-0.5,0-1,0-1.4,0c-0.9,0-1.9,0-2.8,0c-0.2,0-1-0.1-1.2,0c-0.3,0.3,0.1,0.9,0.2,1.2c0.3,0.7,0.4,2.1,0.2,2.8c-0.1,0-0.1,0-0.2,0"
			/>
		<path id="XMLID_50_" class="st0" d="M166,147.2c0-0.4,0-0.8,0-1.2c0-0.5,0.2-0.9,0.2-1.4c0-0.4,0-0.8,0-1.2c0-0.6,0.1-0.6,0.7-0.6
			c0.9,0,1.9,0,2.8,0c0.5,0,0.9,0,1.4-0.1c0.6-0.1,1.2-0.1,1.8-0.1c2.4,0,4.8,0,7.3,0c0.4,0,0.9,0,1.3,0c0.3,0,0.6,0,1,0
			c0.3,0,0.5,0.2,0.8,0.2c0.5,0.1,1-0.1,1.5,0c0.3,0.1,0.6,0.1,0.9,0.2c0.4,0,0.4,0,0.4,0.3c0.2,0.9,0,2,0,2.9c0,1,0,2,0,3"/>
		<path id="XMLID_51_" class="st0" d="M172.8,141.5c0-1.5,0-3,0-4.4c0-0.9,0-1.9,0-2.8c0-0.5,0-0.9,0-1.4c0-0.6-0.2-1-0.2-1.6
			c0-0.3,0-0.7,0-1c0-0.4-0.2-0.7-0.2-1.2c-0.1-0.8,0-1.7,0-2.4c0-1.7,0-3.5,0-5.2c0-0.8,0-1.5,0-2.3c0-0.4-0.1-0.6,0.3-0.7
			c0.4-0.1,0.7,0.3,1.1,0.4c0.8,0.3,2,0,2.8,0c0.7,0,1.5,0,2.2,0c0.3,0,0.8,0.1,1.1-0.1c0.3-0.3,0.1-1,0.1-1.4c0-0.8,0-1.6,0-2.4
			c0-1.8,0-3.6,0-5.4c0-2.1,0-4.3,0-6.4c0-1.1,0-2.1,0-3.2c0-0.4,0-0.8,0-1.2c0-0.4-0.1-0.7,0.3-0.8c0.4-0.1,0.9,0,1.3,0
			c0.5,0,0.9,0,1.4,0c0.8,0,1.7,0.1,2.4,0c0.5-0.1,0.9-0.2,1.4-0.2c0.8,0,1.6-0.2,2.4-0.2c1.6,0,3.1-0.2,4.7-0.2
			c6.3,0,12.6,0,18.8,0c1.6,0,3.3,0,4.9,0c0.5,0,0.5,0,0.5,0.5c0,0.3,0.2,0.5,0.2,0.8c0,0.2-0.1,0.4,0,0.5c0.1,0.2,0.3,0.2,0.4,0.4
			c0.1,0.2,0,0.5,0.1,0.8c0,0.3,0.2,0.5,0.2,0.8c0.1,2.2,0,4.5,0,6.8c0,0.7,0,1.3,0,2c0,0.6,0.1,1.2,0.2,1.8c0.1,0.7,0.3,1.4,0.5,2
			c0.2,0.9,0.3,1.8,0.5,2.7c0.1,0.5,0.2,0.9,0.2,1.4c0,0.4,0,0.7,0,1.1c0,0.5,0,1,0,1.5c0,0.3-0.2,1.2,0.1,1.4c0.2,0.2,1.3,0,1.6,0
			c0.8,0,1.6,0,2.3,0c0.6,0,1,0.2,1.6,0.2c0.5,0,0.9-0.1,1.4,0c0.1,0.4,0,1,0,1.4c0,0.6,0,1.1,0,1.7c0,0.9,0,1.9,0,2.8
			c0,2.6,0,5.1,0,7.7c0,0.5,0,1,0,1.5c0,0.4,0.2,0.8,0.2,1.2c0,0.5-0.1,1,0,1.5c0,0.4,0.2,0.8,0.2,1.2c0,0.6,0.2,1.1,0.2,1.7
			c0,0.2-0.1,0.6,0,0.8c0.1,0.2,0.3,0.3,0.2,0.6"/>
		<path id="XMLID_53_" class="st0" d="M187.5,149c0-0.6-0.2-1.5,0-2c0.2-0.7,0.8-0.5,1.3-0.6c0.6-0.1,1.2-0.5,1.7-0.6
			c0.4-0.1,0.8,0,1.2-0.1c0.4-0.1,0.6-0.2,1-0.2c0.6,0,1.3,0,1.9,0c0.3,0,0.7,0,1,0c0.3,0,0.4-0.1,0.7-0.2c0.3-0.1,0.7,0,0.8,0.2
			c0.1,0.2,0,0.8,0,1c0,0.7,0,1.3,0,2"/>
		<path id="XMLID_54_" class="st0" d="M203.8,149.6c0-1.1,0-2.2,0-3.3c0-0.3-0.2-1.7,0-1.9c0.2-0.2,0.5,0.1,0.6,0.1
			c0.2,0.1,0.4,0,0.7,0c2.6,0,5.3,0,7.9,0"/>
		<path id="XMLID_56_" class="st0" d="M196.3,144.5c0-3,0-6,0-9c0-1.7,0-3.5,0-5.2c0-0.9,0-1.9,0-2.8c0-1.1-0.1-2.4,0-3.5
			c0.3-1.6,0.2-3.2,0.2-4.8c0-0.7,0.1-1.3,0.2-2c0-0.3,0-0.7,0-1c0-0.4,0.1-0.7,0.2-1.1c0.1-0.3,0-0.6,0-1c0-0.2,0.2-0.5,0.2-0.7
			c0-0.2,0-0.4,0.1-0.5c0.1-0.1,0.2-0.2,0.4-0.2c0.1-0.2,0.2-0.4,0.2-0.6c0.2-0.4,0.5-0.7,0.8-1c0.3-0.3,1.2-0.5,1.3-0.9
			c0.4-0.1,1,0,1.4,0c0.5,0,1-0.2,1.5-0.2c0.3,0,1-0.1,1.3,0c0.3,0.2,0.6,0.7,0.7,1c0.2,0.5,0.5,0.9,0.6,1.4
			c0.1,0.4,0.1,0.9,0.1,1.4c0,1.6-0.1,3.1-0.4,4.7c-0.2,1.2,0,2.4-0.2,3.6c-0.2,1.1-0.2,2.2-0.2,3.3c0,1,0,2.1,0,3.1
			c0,1.3,0,2.6,0,3.8c0,0.2,0,0.5,0,0.7c0,0.3,0.2,0.4,0.2,0.7c0.1,0.5,0,1.1,0,1.6c0,0.3,0,0.7,0,1c0,0.4,0.4,0.7,0.4,1.1
			c0,0.5-0.1,0.9,0,1.4c0,0.3,0.2,0.5,0.2,0.8c0.1,0.6,0,1.2,0,1.8c0,0.6,0.2,1.1,0.2,1.7"/>
		<path id="XMLID_57_" class="st0" d="M192.3,144.5c0-7,0-14.1,0-21.1c0-3.2,0-6.5,0-9.7c0-0.5-0.1-1.1,0-1.5
			c0.1-0.3,0.3-0.5,0.5-0.8c0.2-0.5,0.2-1,0.4-1.5c0.2-0.6,0.7-1.2,1-1.7c0.3-0.6,0.8-1.2,1.2-1.7c0.4-0.4,0.9-0.7,1.3-1.1
			c0.3-0.3,0.3-0.5,0.8-0.7c0.3-0.1,0.6-0.3,1-0.4c0.7-0.2,1.4-0.3,2.1-0.5c0.8-0.2,1.8-0.1,2.6-0.1c0.9,0,1.5,0.2,2.2,0.8
			c0.2,0.2,0.6,0.4,0.8,0.6c0.1,0.1,0.1,0.3,0.2,0.4c0.1,0.1,0.3,0.1,0.4,0.2c0.1,0.1,0.2,0.4,0.3,0.5c0.2,0.3,0.4,0.5,0.5,0.8
			c0.3,0.6,0.4,1.2,0.7,1.7c0.3,0.7,0.3,1.5,0.4,2.3c0.1,0.8,0.5,1.6,0.6,2.4c0.1,1.3,0.2,2.6,0.2,3.9c0,3.1,0,6.1,0,9.2
			c0,1.4,0,2.7,0,4.1c0,0.9,0,1.9,0,2.8c0,0.4,0.1,0.9,0,1.3c0,0.4-0.2,0.7-0.2,1.2c0,1.4,0,2.7,0,4.1c0,0.6,0,1.2,0,1.8
			c0,0.5,0.1,1.3,0,1.8c-0.1,0-0.1,0-0.2,0"/>
		<path id="XMLID_59_" class="st0" d="M184.5,97.1c0-1.7,0-3.5,0-5.2c0-0.5,0-1,0-1.6c0-0.4-0.4-1.1-0.2-1.5
			c0.2-0.4,1.8-0.2,2.2-0.2c0.5,0,1.7-0.2,2.1,0.1c0.3,0.3,0.1,1.3,0.1,1.7c0,0.5,0,0.8,0.2,1.2c0.1,0.3,0.1,0.6,0.2,0.8
			c0.1,0.4,0.2,0.5,0.6,0.6c0.5,0.1,0.9-0.1,1.4,0.1c0.1,0.1,0.2,0.1,0.3,0.2c0.2,0.1,0.5,0.1,0.7,0.1c0.3,0.1,0.5,0.1,0.9,0.2
			c0.9,0,1.7,0,2.6,0c0.6,0,1.1,0.2,1.7,0.2c0.6,0,1.2,0,1.7,0c2.3,0,4.7,0,7,0c1.2,0,2.3,0,3.5,0c0.5,0,0.9-0.1,1.4-0.2
			c0.3,0,1,0.2,1-0.4c0-0.2-0.1-0.1-0.2-0.2c0-0.2,0-0.4-0.1-0.6c-0.1-0.4-0.2-0.7-0.2-1.2c0-0.7-0.3-1.7,0.6-1.8
			c0.7-0.1,1.5,0,2.2,0c0.6,0,1-0.2,1.5-0.2c0.3,0,0.9-0.3,1-0.1c0.2,0.2,0,1.3,0,1.5c0,0.9-0.2,1.9,0,2.8c0,0.2,0.2,0.4,0.2,0.6
			c0.1,0.3,0,0.7,0,1c0,0.3-0.1,1.1,0.1,1.2c0-0.1-0.1-0.1-0.1-0.2"/>
		<path id="XMLID_60_" class="st0" d="M189,87.8c0-4.8,0-9.6,0-14.4c0-1.2,0-2.4,0-3.6c0-1.1-0.1-2.1-0.1-3.2c0-0.4,0-0.8-0.1-1.2
			c-0.1-0.3-0.1-0.5-0.1-0.8c0-0.4,0.2-0.3,0.5-0.3c0.4,0,0.7,0,1.1,0c1.9,0,3.7,0,5.6,0c0.3,0,0.6,0,0.9,0c0.2,0,0.7-0.3,0.9,0
			c0.1,0.2-0.2,0.5-0.2,0.7c-0.1,0.4,0,0.8,0,1.1c0,3.2,0,6.3,0,9.5c0,1,0,1.9,0,2.9c0,0.6,0,1.1,0.1,1.7c0.1,0.4,0,0.8,0,1.2
			c0,0.4,0.1,0.7,0.1,1.1c0,0.3,0,0.6,0.1,0.9c0.1,0.4,0.2,0.7,0.2,1.1c0,0.5,0.1,0.9,0.1,1.4c0,1.1,0,2.3,0,3.4c0,0.7,0,1.4,0,2.1
			c0,0.3,0,0.6,0,0.8c0,0.3,0.1,0.8,0,1.1c0,0-0.1,0-0.1,0"/>
		<path id="XMLID_62_" class="st0" d="M204.3,93.5c0-1.1,0-2.1,0-3.2c0-0.4,0-0.8-0.1-1.2c-0.1-0.5,0-1.1,0-1.6
			c0-0.8-0.1-1.5-0.1-2.3c0-0.8,0-1.6,0-2.4c0-1.4,0-2.8,0-4.2c0-0.8-0.1-1.6-0.1-2.5c0-0.9,0-1.9,0-2.8c0-1.3,0-2.6,0-3.9
			c0-0.8,0-1.7,0-2.5c0-0.6,0.1-1.2,0-1.8c0.3,0.2,1.1,0.1,1.5,0c0.2-0.1,0.5,0,0.7-0.1c0.2-0.1,0.1-0.1,0.3-0.2c0.1,0,0.3,0,0.5,0
			c1.2-0.3,2.4-0.2,3.6-0.2c0.4,0,0.8,0,1.2,0c0.2,0,0.4,0,0.7,0c0.3,0,0.3,0,0.3,0.2c0.1,0.4,0,0.9,0,1.4c0,0.6,0,1.3-0.1,1.9
			c-0.1,0.6-0.1,1.2-0.1,1.8c0,0.8,0,1.5,0,2.3c0,0.7,0,1.4,0,2.1c0,0.5,0.3,0.9,0.3,1.4c0,0.3,0,0.5,0,0.8c0,0.2,0.1,0.4,0.1,0.6
			c0.1,0.5,0,1,0,1.5c0,0.6,0,1.2,0,1.7c0,1,0,2.1,0,3.1c0,0.6,0,1.1,0,1.7c0,0.4-0.1,0.9,0,1.4c0,0.2,0.1,0.4,0.1,0.7
			c0,0.2,0,0.4,0,0.6c0,0.4,0,0.7,0,1.1c0,0,0,0,0-0.1"/>
		<path id="XMLID_63_" class="st0" d="M204.3,64.7c0-0.4,0-0.8,0.1-1.2c0.1-0.6,0.5-0.9,0.7-1.5c0-0.2,0.1-0.3,0.1-0.4
			c0.1-0.2,0.4-0.3,0.4-0.5c0.1-0.2,0-0.4,0.1-0.5c0.1-0.2,0.1-0.3,0.2-0.5c0.1-0.4,0.3-0.7,0.5-1c0.2-0.4,0.4-0.7,0.6-1.1
			c0.2-0.2,0.6-1.5,1-1.4c0.3,0.1,0.3,0.6,0.4,0.8c0.1,0.2,0.4,0.3,0.6,0.4c0.2,0.2,0.3,0.3,0.5,0.5c0.2,0.2,0.3,0.4,0.4,0.5
			c0.2,0.2,0.4,0.3,0.5,0.5c0.2,0.2,0.3,0.5,0.4,0.7c0.2,0.3,0.4,0.7,0.6,1c0.1,0.2,0.2,0.3,0.3,0.4c0.1,0.1,0.1,0.2,0.1,0.3
			c0.2,0.4,0.4,0.8,0.5,1.2c0,0.2,0.1,0.3,0.1,0.5c0,0.1,0,0.3,0,0.4c0,0,0.1,0,0.1,0"/>
		<path id="XMLID_65_" class="st0" d="M189,63.6c0-0.2,0-0.3,0-0.5c0-0.3,0.1-0.4,0.2-0.6c0.2-0.3,0.3-0.7,0.6-1.1
			c0.2-0.3,0.4-0.6,0.6-0.9c0.4-0.5,0.8-0.9,1-1.5c0.1-0.4,0.5-0.6,0.7-1c0.1-0.2,0.1-0.4,0.2-0.6c0.1-0.3,0.4-0.4,0.6-0.6
			c0.2-0.4,0.3-0.7,0.6-1.1c0.1-0.1,0.2-0.3,0.3-0.4c0.1-0.1,0-0.3,0.2-0.3c0.3-0.1,0.2,0.5,0.3,0.7c0.2,0.5,0.6,1,0.9,1.5
			c0.1,0.2,0.2,0.3,0.3,0.5c0.1,0.2,0.2,0.5,0.3,0.7c0.3,0.6,0.5,1.3,0.7,1.9c0.1,0.3,0.2,0.6,0.3,0.9c0.1,0.2,0.1,0.4,0.1,0.7
			c0,0.2,0.2,0.3,0.2,0.5c0.1,0.3-0.1,0.7,0,1c0.1,0.3,0.3,0.4,0.3,0.7"/>
	</g>
</g>
</svg>
