<?xml version="1.0" encoding="utf-8"?>
<!-- Generator: Adobe Illustrator 19.0.0, SVG Export Plug-In . SVG Version: 6.00 Build 0)  -->
<svg version="1.1" id="Layer_1" xmlns="http://www.w3.org/2000/svg" xmlns:xlink="http://www.w3.org/1999/xlink" x="0px" y="0px"
	 viewBox="0 0 100 200" style="enable-background:new 0 0 100 200;" xml:space="preserve">
<style type="text/css">
	.st0{fill:none;stroke:#000000;stroke-width:0.9921;stroke-miterlimit:10;}
</style>
<g id="XMLID_1072_">
	<g id="XMLID_939_">
		<path id="XMLID_921_" class="st0" d="M55.6,13.9c-0.8,0-1.4-0.1-2.1,0.3c-0.3,0.2-0.6,0.4-0.9,0.6c-0.4,0.3-1.1,0.5-1.4,0.9
			c-0.2,0.2-0.3,0.6-0.4,0.9c-0.2,0.5-0.6,1-0.9,1.4c-0.5,0.7-1.3,1.3-1.8,2c-0.4,0.7-0.7,1.7-0.9,2.4c-0.3,0.9-0.4,1.6-0.4,2.6
			c0,1.8,0,3.7,0,5.5c0,1.8-0.1,3.5,0.4,5.2c0.3,1.1,0.6,1.8,0.6,2.9c0,0.5,0,1.1,0,1.6c0,1.1,0.4,1.9,0.7,3c0.2,0.7-1,1.4-0.9,2
			c0.2,0.8,0.1,1.3,0.1,2.1c0.1,1.4,0,2.9,0,4.3c0,2.3-0.2,4.6,0.3,6.8c0.1,0.4,0.1,0.7,0.1,1.1c0,0.6,0.2,1.1,0.3,1.7
			c0.3,1.7,0.1,3.6,0.1,5.3c0,1.1,0,2.2,0,3.2c0,0.6-0.1,1.4,0,2c0.1,0.5,0.3,1,0.3,1.5c0.2,2.8,0,5.6,0,8.4c0,2.6,0,5.1,0,7.7
			c0,5.6,0,11.1,0,16.7c0,0.8,0,1.5,0,2.3c0,0.7-0.3,1.2-0.4,1.9c-0.1,1.3-0.3,2.7-0.3,4c0,2.4,0,4.8,0,7.2c0,1.1,0.6,2.3,0.6,3.4
			c0,1.4-0.2,2.7-0.3,4.1c0,0.4,0,0.9,0,1.3c0,0.6-0.2,0.9-0.3,1.5c-0.2,0.9,0,2.1,0,3.1c0,0.6,0.1,1.2,0,1.8c0,0.5-0.3,0.8-0.3,1.3
			c-0.1,0.4,0.1,0.9,0,1.3c-0.1,0.5,0.8,0.5,0.8,1.1c0,0.4-0.1,1.1,0,1.5c0.1,0.5,0.5,0.7,0.9,1c0.7,0.5,0.9,0.8,1.4,1.6"/>
		<path id="XMLID_922_" class="st0" d="M55,10.7c-0.9,0-1.4,0.1-2.3,0.4c-0.8,0.3-1.1,0.7-1.8,1.2c-0.6,0.5-1.4,0.6-2,1.1
			c-0.2,0.1-0.6,0.5-0.7,0.6c-0.1,0.2,0,0.5,0,0.6c-0.2,0.3-0.5,0.3-0.8,0.5C47,15.4,47,15.6,46.9,16c-0.2,0.4-0.2,0.4-0.5,0.8
			c-0.6,0.8-1.2,1.5-1.5,2.5c-0.7,1.7-1.6,3.5-1.5,5.3c0,4.5,0,9,0,13.5c0,0.9,0,1.9,0,2.8c0,0.4,0,0.9,0,1.3c0,0.9,0.2,1.7,0.3,2.6
			c0.1,1,0,2.2,0,3.2c0,1.3,0.3,2.3,0.3,3.6c0,3.1,0.1,6.2,0.9,9.1c0.4,1.6,0.1,3.8,0.1,5.5c0,4.6,0,9.3,0,13.9c0,0.4,0.1,1,0,1.4
			c-0.1,0.6-0.3,0.9-0.3,1.5c0,1.9,0.3,4.1-0.1,5.9c-0.5,2-0.3,4.2-0.3,6.4c0,6,0,12,0,18.1c0,3.1,0.4,6.1,1,9.1
			c0.2,1.1,0,2.5,0,3.6c0,1.2-0.1,2.1-0.3,3.3c-0.2,1.2,0.2,2.4-0.1,3.6c-0.3,1.3-0.3,2.6-0.3,4c0,2,0,3.9,0,5.9c0-0.1,0-0.1,0-0.2"
			/>
		<path id="XMLID_927_" class="st0" d="M69.3,17.8c0.1-0.8-0.6-1.5-0.9-2.1c-0.4-0.8-0.8-1.5-1.3-2.2c-0.5-0.7-1.3-1.1-1.7-1.8
			c-0.5-0.8-1.3-1.5-1.9-2.3C63,8.8,62.9,9,62.4,8.7c-0.3-0.1-0.4-0.4-0.7-0.6c-0.6-0.6-1.2-0.6-2-0.6c-0.6,0-1.3-0.1-1.5,0.6
			c-0.1,0.4,0.1,0.6-0.1,1c-0.1,0.2-0.4,0.4-0.5,0.6c-0.4,0.6-0.3,1.2-0.6,1.8c-0.2,0.5-0.5,1.1-0.7,1.6c-0.1,0.4,0,0.7,0,1.1
			c0,0.4-0.2,0.6-0.3,1c-0.2,0.7-0.1,1.5-0.1,2.3c0,1.5,0.7,2,1.5,3.2c0.3,0.4,0.5,0.9,0.7,1.4c0.3,0.5,0.6,0.9,0.8,1.5
			c0.2,0.5,0.1,0.6-0.4,1.1c-0.3,0.3-0.7,0.7-1.1,1c-0.2,0.2-0.5,0.4-0.8,0.6c-0.5,0.4-0.5,0.7-0.8,1.1c-0.7,1.1-2.1,2.2-1.5,3.6
			c0.8-0.2,1.5-1,2.1-1.5c0.6-0.4,1.3-0.8,2-1.1c0.4-0.2,0.7-0.5,1.1-0.7c0.4-0.2,0.8-0.2,1.3-0.3c0.5-0.2,0.5-0.6,0.9-0.9
			c0.4-0.4,1.4-0.3,2-0.5c2.1-1,4.4-1.7,6.7-2.1c0.9-0.2,1.7-0.2,2.6-0.4c0.6-0.1,1.2-0.3,1.7-0.4c0.5-0.1,1.1-0.2,1.6-0.3
			c0.1,0,0.3-0.2,0.4-0.3c0.4-0.1,0.8,0,1.2-0.1c0.2-0.8,0.2-1.8-0.7-2.2c-0.2-0.1-0.4-0.1-0.6,0c-0.2,0-0.4-0.1-0.4-0.3
			c-0.5-0.3-0.6-0.2-1.2-0.3c-0.7-0.1-1.4-0.5-2.2-0.7C72.2,18.5,71.6,18.1,69.3,17.8z"/>
		<path id="XMLID_928_" class="st0" d="M64.4,26.6c0.5,0,0.3,0.4,0.6,0.7c0.2,0.3,0.5,0.2,0.7,0.4c0.5,0.5,0.4,0.9,0.4,1.6
			c0,1.3-0.2,2.6,0,3.9c0.1,1,1.3,1.6,2,2.2c0.4,0.3,1,0.4,1.6,0.4c0.7,0,0.8-0.1,1.4-0.6c0.2-0.2,0.4-0.2,0.6-0.4
			c0.1-0.1,0.3-0.5,0.4-0.6c0.3-0.4,0.4-0.8,0.6-1.3c0.4-0.9,0.5-2.2-0.5-2.9c-0.2-0.1-0.5-0.2-0.7-0.3c-0.2-0.1-0.3-0.4-0.5-0.5
			c-0.4-0.3-0.7-0.3-1-0.8c-0.1-0.2-0.2-0.4-0.4-0.6c-0.1-0.2-0.4-0.3-0.5-0.5c-0.2-0.3-0.2-0.7-0.4-1c-0.3-0.6-0.7-0.9-0.8-1.6
			c-0.1,0-0.2,0-0.3,0"/>
		<path id="XMLID_929_" class="st0" d="M54.4,31.3c0.7,0,1.4,0,2.1,0.2c0.4,0.1,0.9,0.2,1.3,0.2c0.2,0,0.3,0,0.5,0.1
			c0.2,0.1,0.5,0,0.7,0c0.5,0.1,1.1,0.2,1.7,0.2c0.8,0,1.5,0,2.3,0c0.3,0,0.7,0.1,0.9-0.1c0.1-0.1,0.1-0.2,0.2-0.2
			c0.1,0,0.2,0,0.2,0c0.2,0,0.4-0.1,0.5-0.1c0,0,0-0.1,0-0.1"/>
		<path id="XMLID_930_" class="st0" d="M70.7,28.6c0.3,0,0.5,0,0.8,0c0.4,0,0.7-0.2,1-0.4c0.2-0.1,0.5-0.2,0.7-0.3
			c0.1-0.1,0.3-0.2,0.4-0.3c0.2-0.1,0.2-0.2,0.4-0.4c0.1-0.2,0.4-0.3,0.5-0.5c0.1,0,0.2-0.1,0.2-0.1c0.1-0.1,0-0.2,0.1-0.2
			c0.1-0.1,0.2-0.1,0.3-0.2c0,0,0-0.2,0.1-0.2c0.1-0.2,0.3-0.2,0.4-0.2c0.1-0.1,0.2-0.2,0.3-0.3c0.3-0.3,0.5-0.5,0.7-0.8
			c0.2-0.3,0.5-0.6,0.8-0.9c0.1-0.1,0.1-0.3,0.2-0.5c0.1-0.1,0.3-0.1,0.2-0.4"/>
		<path id="XMLID_933_" class="st0" d="M46.8,172.3c0,0.3-1.4,2.9-1.4,3.1c-0.1,0.2-0.1,0.5-0.3,0.7c-0.2,0.4-0.6,0.6-0.8,1
			c-0.2,0.4-0.3,0.8-0.5,1.1c-0.1,0.2-0.2,0.2-0.4,0.3c-0.2,0.2-0.2,0.4-0.3,0.6c-0.2,0.3-0.3,0.7-0.5,1c-0.2,0.4-0.7,0.7-1.1,0.9
			c-0.3,0.2-0.4,0.4-0.6,0.6c-0.2,0.2-0.6,0.3-0.8,0.5c-0.3,0.3-0.5,0.6-0.8,0.8c-1.1,0.7-2.3,1.4-3.4,2.1c-0.6,0.4-1.5,0.5-2.2,0.3
			c-0.6-0.2-1.3-0.4-1.9-0.7c-0.4-0.3-1.1-0.8-1.3-1.2c-0.1-0.2-0.1-0.4-0.2-0.5c-0.1-0.1-0.2-0.2-0.3-0.3c-0.1-0.2-0.2-0.5-0.3-0.7
			c-0.2-0.3-0.3-0.6-0.5-0.9c-0.2-0.3-0.5-0.6-0.6-1c-0.2-0.8-0.4-1.6-0.7-2.3c-0.1-0.2-0.1-0.3-0.2-0.5c0-0.1,0-0.2,0-0.3
			c0-0.1-0.1-0.1-0.1-0.1c-0.1-0.5-0.4-0.7-0.4-1.2c0-0.9,0-1.8,0-2.7c0-0.8,0-1.7,0-2.5c0-0.5,0-0.9,0.1-1.4c0.1-0.3,0.1-0.7,0.1-1
			c0-0.3,0-0.5,0-0.8c0-0.2,0.1-0.2,0.1-0.5c0-0.3,0-0.7,0.1-0.9c0.1-0.3,0.1-0.7,0.2-1c0.1-0.3,0.2-0.7,0.3-0.9
			c0.3-0.6,0.5-1.2,0.8-1.9c0.1-0.2,0-0.4,0.1-0.5c0.1-0.1,0.2-0.2,0.3-0.3c0.1-0.2,0.2-0.4,0.3-0.6c0.1-0.2,0.3-0.2,0.2-0.5
			c-0.2,0-0.3-0.3-0.5-0.3c-0.1,0-0.2,0-0.3,0c-0.1-0.1-0.2-0.1-0.2-0.3c-0.2-0.2-0.4,0-0.6-0.1c-0.2,0-0.3-0.2-0.5-0.3
			c-0.7-0.4-1.2-0.9-1.7-1.5c-0.1-0.1-0.2-0.3-0.3-0.4c-0.2-0.2-0.4-0.3-0.5-0.5c-0.2-0.2-0.3-0.6-0.3-1c0-0.5,0-1.1,0-1.6
			c0-0.5,0.1-0.9,0.2-1.4c0-0.2,0.1-0.4,0.1-0.6c0-0.2-0.1-0.5,0-0.6c0.1-0.1,0.1-0.2,0.3-0.2c0.1-0.1,0.1-0.2,0.1-0.3
			c0.1-0.1,0.1-0.3,0.2-0.5c0.4-0.6,0.9-1.2,1.5-1.7c0.3-0.3,0.7-0.4,1-0.7c0.3-0.2,0.5-0.4,0.8-0.6c0.3-0.2,0.7-0.4,1-0.4
			c0.4-0.1,0.8,0.1,1.2,0c0-0.1,0-0.3,0-0.4c0.5-0.1,1,0.4,1.4,0.1c0.4-0.2-0.1-0.7,0.3-0.9c0.1-0.1,0.5-0.1,0.7,0
			c0.3,0,0.4,0.2,0.6,0.4c0.5,0.3,0.6-0.1,1-0.2c0.4-0.2,0.7,0.2,0.9,0.4c0.2,0.3,0.3,0.6,0.4,0.8c0.2,0.4,0.1,0.4,0.5,0.4
			c0.3,0,1-0.1,1.2,0.1c0.1,0.2,0,1.1,0,1.3l-0.2,0.3c0,0.7,0.1,0.9,0.6,1.3c0.3,0.2,0.5,0.5,0.8,0.7c0.3,0.2,0.5,0.5,0.8,0.8
			c0.1,0.1,0.3,0.2,0.5,0.3c0.2,0.2,0.2,0.4,0.3,0.6c0.2,0.4,0.5,0.8,0.7,1.2c0.2,0.5,0.6,0.6,0.6,1.2c0,0.4,0.1,1.1,0,1.5
			c-0.2,0.6-0.8,1-1.1,1.5c-0.3,0.4-0.4,0.5-0.9,0.7c-0.4,0.2-1,0.4-1.5,0.4c-0.5,0-1,0.1-1.5,0c-0.5-0.1-1-0.5-1.5-0.7
			c-0.4-0.1-0.7-0.4-1.1-0.5c-0.5-0.1-1.1-0.1-1.5,0.1c-0.4,0.2-0.8,0.6-1.2,0.6c-0.5,0.1-1.3,0.1-1.7-0.2c-0.2-0.1-0.4-0.2-0.5-0.4
			c-0.1-0.2-0.2-0.4-0.3-0.6c-0.1-0.2-0.3-0.2-0.4-0.4c-0.1-0.1,0-0.2-0.1-0.3c-0.2-0.2-0.2-0.2-0.3-0.5c0-0.3,0-0.6,0-0.9
			c0-0.3-0.1-0.6,0.1-0.8c0.1-0.2,0.4-0.2,0.6-0.3c0.2-0.1,0.3-0.3,0.5-0.4c0.2-0.1,0.4-0.2,0.6-0.3"/>
		<path id="XMLID_934_" class="st0" d="M46.8,165.1c0,0.6,0,1.1,0,1.7c0,0.5-0.1,0.9-0.1,1.3c-0.1,1,0,2,0,3c0,0.5,0.1,0.8,0.2,1.3
			c0,0.2,0,0.5,0,0.7c0,0.4,0.2,0.4,0.4,0.7c0.2,0.3,0.3,0.8,0.4,1.2c0.1,0.4,0.2,0.7,0.2,1.1c0,1.4,0.3,2.8-0.7,3.9
			c-0.2,0.2-0.3,0.5-0.5,0.7c-0.2,0.2-0.4,0.4-0.6,0.6c-0.3,0.4-0.7,0.7-1,1.1c-0.4,0.5-0.2,1.5,0,2.1c0.1,0.3,0.1,0.3,0.4,0.5
			c0.1,0.1,0.2,0.1,0.3,0.2c0.3,0.2,0.4,0.4,0.8,0.4c0.8,0,1.5,0.6,2.1,1.2c0.4,0.4,0.8,0.7,0.8,1.3c0,0.6-0.1,1.2,0.5,1.6
			c0.3,0.2,0.7,0.5,1,0.7c0.3,0.2,0.5,0.3,0.9,0.3c0.3,0,0.8,0.1,1,0c0.2-0.1,0.1-0.1,0.2-0.3c0.1-0.1,0.2-0.2,0.3-0.3
			c0.2-0.2,0.2-0.5,0.5-0.5c0.4-0.1,0.7,0,1.1-0.2c0.2-0.1,0.4-0.2,0.6-0.3c0.3-0.2,0.6-0.2,0.9-0.2c0.6,0,1.2-0.5,1.4-1.1
			c0.2-0.5,0.1-0.4-0.3-0.5c-0.3-0.1-0.6-0.3-0.8-0.5c-0.2-0.2-0.2-0.3-0.4-0.4c-0.3-0.1-0.4-0.1-0.6-0.2c-0.3-0.2-0.4-0.5-0.8-0.7
			c-0.3-0.2-0.4-0.4-0.7-0.7c-0.1-0.1-0.3-0.3-0.4-0.5c-0.1-0.1-0.1-0.3-0.2-0.4c-0.1-0.1-0.2-0.1-0.3-0.2c-0.2-0.2-0.4-0.4-0.7-0.6
			c-0.3-0.2-0.4-0.4-0.5-0.7c-0.1-0.4-0.4-0.7-0.4-1.1c-0.1-0.7-0.3-1.3-0.3-2c0-0.9,0-1.9,0-2.8c0-1.5,0-3,0-4.5c0-0.7,0-1.4,0-2.1
			c0-0.9,0.1-1.7,0.2-2.5c0-0.5,0.3-0.9,0.3-1.4c0-0.4,0.1-0.8,0.2-1.3c0-0.4,0-0.9,0-1.3c0-0.6,0.2-0.9,0.2-1.4
			c0-0.7,0.1-1.4-0.1-2c-0.1-0.3-0.1-0.5-0.3-0.7c-0.3-0.4-0.5-0.8-0.8-1.2c-0.5-0.7-1-1.2-1.8-1.2c-0.8,0-1.6,0.5-2.2,0.9
			c-0.2,0.1-0.5,0.2-0.7,0.4c-0.1,0.1-0.3,0.2-0.4,0.3c-0.1,0.1-0.3,0.2-0.5,0.4c-0.2,0.2-0.2,0.3-0.3,0.5c-0.1,0.2-0.4,0.3-0.5,0.5
			c-0.2,0.2-0.3,0.4-0.4,0.6c-0.1,0.3-0.3,0.3-0.5,0.5c-0.4,0.3-0.6,0.7-0.9,1.1c-0.3,0.4-0.7,0.7-1,1.1c-0.1,0.2-0.3,0.3-0.4,0.5
			c-0.2,0.2-0.2,0.4-0.4,0.6c-0.3,0.2-0.4,0.3-0.5,0.6c-0.1,0.3-0.2,0.3-0.4,0.5c-0.2,0.2-0.3,0.5-0.5,0.7c-0.2,0.1-0.3,0.3-0.5,0.4
			c-0.2,0.2-0.4,0.3-0.5,0.5c-0.1,0.2-0.2,0.3-0.3,0.5c-0.2,0.2-0.5,0.3-0.7,0.4c-0.2,0.1-0.3,0.3-0.5,0.5c-0.4,0.5-0.9,0.7-1.2,1.2
			c-0.2,0.3-0.3,0.4-0.5,0.6c-0.2,0.2-0.3,0.4-0.4,0.6c-0.1,0.2-0.3,0.3-0.5,0.4c-0.1,0.2-0.2,0.3-0.4,0.5c-0.7,0.7-1.3,1.3-2,2
			c-0.7,0.6-1.2,1.7-1.4,2.6c-0.1,0.6-0.3,1.7-0.1,2.4c0,0,0.1,0,0.1,0"/>
		<path id="XMLID_935_" class="st0" d="M28.3,189.3c0,0.5-0.1,0.9-0.2,1.4c-0.1,0.5,0,1.1,0,1.6c0,0.7-0.1,1.4,0.2,2.1
			c0.1,0.3,0.3,0.4,0.5,0.6c0.1,0.1,0.1,0.4,0.2,0.5c0.1,0.1,0.4,0.3,0.5,0.4c0.2,0.2,0.6,0.3,0.9,0.4c0.4,0.2,0.9,0.3,1.3,0.4
			c0.5,0.1,1.1,0,1.6,0c0.5,0,1.1,0.1,1.6-0.3c0.1-0.1,0.3-0.3,0.4-0.4c0.1-0.2,0.1-0.2,0.2-0.4c0.1-0.2,0.3-0.3,0.4-0.5
			c0.1-0.2,0-0.6,0-0.8c0-0.3-0.1-0.7,0-1.1c0-0.2,0.1-0.3,0.1-0.5c0-0.4,0-0.8-0.1-1.1c-0.1-0.1-0.1-0.4-0.2-0.5
			c-0.1-0.2-0.3-0.2-0.4-0.4c-0.3-0.4-0.3-0.6-0.7-0.9c-0.4-0.2-0.9-0.4-1.3-0.6c-0.3-0.1-0.7-0.5-1-0.6c-0.4-0.1-0.8,0-1.2,0
			C30.7,188.6,30.3,188.6,28.3,189.3z"/>
		<path id="XMLID_936_" class="st0" d="M48.7,147.3c0.3-0.4,0.6-0.7,1-1c0.2-0.1,0.2-0.2,0.4-0.3c0.2-0.1,0.3-0.4,0.5-0.5
			c0.2-0.1,1.1,0,1.4,0c0.6,0.1,1,0.7,1.4,1c0.2,0.2,0.4,0.3,0.6,0.5c0.2,0.2,0.3,0.4,0.5,0.7c0.3,0.3,0.4,0.7,0.6,1.1
			c0.2,0.3,0.5,0.6,0.6,1c0.1,0.3,0.1,0.5,0.2,0.8c0.1,0.2,0.1,0.4,0.2,0.6c0.2,0.7,0.5,1.4,0.6,2.1c0.2,0.7,0.5,1.3,0.7,2
			c0.2,0.6,0.4,1.2,0.5,1.9c0.1,0.5,0.3,1,0.5,1.5c0.1,0.3,0.2,0.6,0.3,0.8c0.1,0.3,0.3,0.5,0.4,0.9c0.2,0.8,0.7,1.5,0.9,2.3
			c0.1,0.3,0.3,0.7,0.4,1c0.1,0.4,0.3,0.7,0.5,1.1c0.3,0.6,0.3,1.4,0.8,1.9c0.2,0.3,0.4,0.2,0.5,0.6c0,0.2,0,0.3,0,0.4
			c0.1,0.2,0.2,0.3,0.3,0.5c0.3,0.5,0.5,1,0.8,1.4c0.2,0.4,0.6,0.7,0.8,1c0.2,0.2,0.2,0.4,0.4,0.7c0,0.1,0.1,0.2,0.2,0.3
			c0.1,0,0.2,0,0.2,0.1c0.2,0.1,0.3,0.3,0.5,0.5c0.1,0.1,0.1,0.2,0.2,0.3c0.1,0.1,0.3,0.2,0.5,0.3c0.3,0.3,0.5,0.6,0.8,0.8
			c0.3,0.2,0.7,0.3,1.1,0.5c0.3,0.2,0.5,0.4,0.7,0.7c0.2,0.5,0,0.7-0.5,0.9c-0.2,0.1-0.4,0.2-0.6,0c-0.1-0.1-0.2-0.2-0.3-0.3
			c-0.5-0.2-1.2-0.2-1.8-0.3c-0.8-0.2-1.9-0.3-2.7,0c-0.8,0.3-1.8,0.5-2.8,0.5c-0.5,0-0.9,0.1-1.3-0.4c-0.3-0.4-0.3-0.9-0.4-1.4
			c-0.1-0.5-0.1-1-0.1-1.6c0-0.4-0.1-0.9,0-1.3c0.1-0.3,0.2-0.5,0.2-0.8c0-1.4-0.4-2.6-1.1-3.8c-0.5-0.8-0.9-1.5-1.3-2.3
			c-0.2-0.3-0.3-0.6-0.6-0.9c-0.3-0.2-0.5-0.4-0.8-0.8c-0.3-0.4-0.5-0.8-0.9-1.2c-0.2-0.2-0.5-0.3-0.7-0.5c-0.2-0.1-0.3-0.3-0.5-0.4
			"/>
		<path id="XMLID_937_" class="st0" d="M52.3,153.3c0,0.3,0.1,0.7,0,1.1c-0.1,0.2-0.3,0.4-0.4,0.7c-0.1,0.3-0.2,0.5-0.3,0.8
			c0,0.1-0.1,0.3-0.2,0.4c-0.2,0.1-0.8,1-0.8,1.3"/>
		<path id="XMLID_938_" class="st0" d="M42.7,153.7c0-0.4,0-0.9,0-1.3c0-0.5,0.1-1.1,0-1.6c0-0.2-0.1-0.4-0.2-0.6
			c-0.1-0.3-0.1-0.6-0.1-1c-0.1-0.5-0.3-1-0.4-1.5c0-0.2,0-0.4,0-0.6c-0.1-0.3-0.2-0.4-0.2-0.7c0-0.6-0.1-1.2,0-1.8
			c0-0.4,0.2-0.4,0.4-0.7c0.1-0.1,0-0.2,0.1-0.2c0.1-0.1,0.2-0.1,0.3-0.1c0.1-0.1,0.3-0.3,0.4-0.4c0.2-0.1,0.5,0,0.7,0
			c0.1,0.4-0.1,1,0.1,1.4c0.1,0.3,0.4,0.5,0.6,0.6c0.7,0.4,0.8-0.1,1.3-0.5c0.5-0.4,1.4-0.8,2-0.9c0.2,0,0.7-0.1,1,0
			c0.3,0.1,0.4,0.5,0.5,0.7c0.1,0.3,0.4,0.4,0.5,0.8c0,0.2,0,0.5,0.1,0.7c0.1,0.3,0.1,0.4-0.1,0.6c-0.3,0.3-0.6,0.4-1,0.4
			c-0.1,0-0.3,0-0.4,0.1c-0.3,0.1-0.3,0.1-0.6,0.3c-0.3,0.2-0.5,0.5-0.8,0.6c-0.5,0.3-0.9,0.2-1,1c0,0.9,0,1.7,0,2.6
			c0,0.2,0,0.4,0,0.6c0,0.2-0.1,0.3-0.2,0.5c0,0.2,0,0.4,0,0.6c0,0.2-0.1,0.4-0.2,0.6c-0.1,0.4,0.1,0.8,0,1.2
			c-0.1,0.5-0.1,0.8-0.1,1.3"/>
	</g>
	<path id="XMLID_1066_" class="st0" d="M39.1,156.9c0.1,0,0.3,0,0.4-0.1c0.1-0.1,0.2-0.2,0.2-0.3c0.1-0.1,0.1-0.2,0.2-0.2
		c0-0.1,0-0.1,0.1-0.2c0-0.1,0.1-0.1,0.1-0.2"/>
	<path id="XMLID_1067_" class="st0" d="M36,152.2c0.2,0.2,0.3,0.3,0.5,0.4c0.2,0.1,0.4,0.3,0.7,0.4c0.1,0,0.2,0,0.3,0
		c0.1,0,0.2,0,0.3,0.1c0.2,0,0.2,0.1,0.3,0.2c0.1,0.1,0.3,0.1,0.4,0.1c0.4,0.1,0.6,0.4,0.7,0.8c0.1,0.3-0.2,0.6-0.4,0.9
		c-0.1,0.1-0.1,0.1-0.2,0.1c-0.1,0-0.2,0-0.3,0.2"/>
	<path id="XMLID_1068_" d="M34.7,154.4c0,0.1,0.1,0.2,0.1,0.3c0,0,0.1,0.1,0.1,0.1c0,0,0.1,0,0.1,0.1c0,0,0,0,0.1,0c0,0,0.1,0,0.1,0
		c0,0,0.1,0,0.1,0c0,0,0.1,0,0.1,0c0.1,0,0.1-0.1,0.2-0.2c0,0,0-0.1,0.1-0.1c0,0,0,0,0-0.1c0,0,0-0.1,0-0.1c0,0,0,0,0-0.1
		c0,0,0,0,0,0c0,0,0,0,0-0.1c0,0,0,0,0-0.1c0,0,0,0,0,0c0,0,0,0,0-0.1c0,0-0.1-0.1-0.1-0.1c0,0-0.1,0-0.1-0.1c0,0,0,0-0.1-0.1
		c0,0-0.1,0-0.1,0c0,0,0,0-0.1,0c0,0,0,0,0,0c0,0-0.1,0-0.1,0.1c0,0,0,0,0,0.1c0,0,0,0-0.1,0c0,0-0.1,0-0.1,0.1c0,0,0,0,0,0
		C34.7,154.1,34.7,154.1,34.7,154.4z"/>
	<g id="XMLID_1070_">
		<path id="XMLID_1069_" d="M36.8,151.4c0,0.1,0.1,0.2,0.1,0.3c0,0,0.1,0.1,0.1,0.1c0,0,0.1,0,0.1,0.1c0,0,0,0,0.1,0
			c0,0,0.1,0,0.1,0c0,0,0.1,0,0.1,0c0,0,0.1,0,0.1,0c0.1,0,0.1-0.1,0.2-0.2c0,0,0-0.1,0.1-0.1c0,0,0,0,0-0.1c0,0,0-0.1,0-0.1
			c0,0,0,0,0-0.1c0,0,0,0,0,0c0,0,0,0,0-0.1c0,0,0,0,0-0.1c0,0,0,0,0,0c0,0,0,0,0-0.1c0,0-0.1-0.1-0.1-0.1c0,0-0.1,0-0.1-0.1
			c0,0,0,0-0.1-0.1c0,0-0.1,0-0.1,0c0,0,0,0-0.1,0c0,0,0,0,0,0c0,0-0.1,0-0.1,0.1c0,0,0,0,0,0.1c0,0,0,0-0.1,0c0,0-0.1,0-0.1,0.1
			c0,0,0,0,0,0C36.9,151.1,36.8,151.1,36.8,151.4z"/>
	</g>
	<path id="XMLID_1071_" class="st0" d="M36.1,148.2c0,0.1,0,0.4-0.1,0.5c-0.1,0.1-0.2,0.1-0.2,0.1c-0.1,0-0.3,0-0.4,0
		c-0.2,0-0.4,0-0.6,0c-0.1,0-0.1,0-0.1,0.1c-0.1,0.1-0.1,0.1-0.2,0.1c-0.1,0.1-0.2,0.1-0.3,0.2c-0.1,0-0.2,0.1-0.3,0.1
		c-0.2,0-0.4,0-0.6,0c-0.1,0-0.2-0.2-0.3-0.1c0,0.1,0.1,0.2,0.1,0.3c0,0.1,0,0.2,0,0.3c0,0.1,0,0.3,0,0.4c0,0.1,0,0.1,0,0.2
		c0,0.1,0,0.2,0,0.2c0,0.1-0.2,0.1-0.2,0.2c-0.1,0.1-0.2,0.2-0.3,0.3c0,0.1,0,0.1,0.1,0.1c0.1,0.1,0.1,0.1,0.2,0.2
		c0.1,0.1,0.1,0.1,0.2,0.1c0.1,0.1,0.1,0.2,0.1,0.3c0.1,0.2,0.1,0.4,0.1,0.6c-0.1,0.3-0.2,0.5-0.4,0.7c0,0.1-0.1,0.1-0.1,0.1
		c-0.1,0.1,0,0.1,0.1,0.2c0.3,0.2,0.2,0.4,0.2,0.7c0,0.3,0,0.6-0.1,0.9c0,0.1-0.1,0.1-0.1,0.2c0,0-0.1,0-0.1,0.1
		c0,0.1,0.1,0.1,0.1,0.2c0.2,0.3,0.1,0.6,0.1,0.9c0,0.1-0.1,0.2-0.2,0.2c-0.1,0-0.2,0.1-0.3,0.1c0,0.1-0.2,0.2-0.3,0.3
		c-0.1,0.1,0,0.1,0,0.2c0,0.1-0.1,0.2-0.1,0.2c0,0.1,0,0.3,0,0.5c0,0.1,0,1.3,0,1.4"/>
</g>
</svg>
