<?xml version="1.0" encoding="utf-8"?>
<!-- Generator: Adobe Illustrator 19.0.0, SVG Export Plug-In . SVG Version: 6.00 Build 0)  -->
<svg version="1.1" id="Layer_1" xmlns="http://www.w3.org/2000/svg" xmlns:xlink="http://www.w3.org/1999/xlink" x="0px" y="0px"
	 viewBox="0 0 250 200" style="enable-background:new 0 0 250 200;" xml:space="preserve">
<style type="text/css">
	.st0{fill:none;stroke:#000000;stroke-width:0.9921;stroke-miterlimit:10;}
	.st1{stroke:#000000;stroke-width:0.9921;stroke-miterlimit:10;}
</style>
<g id="XMLID_443_">
	<path id="XMLID_415_" class="st0" d="M185.9,126.8c0.5,0,1.2-0.5,1.6-0.8c0.1-0.1,0.3-0.3,0.4-0.5c0.1-0.1,0.1-0.2,0.2-0.3
		c0.1-0.1,0.2-0.2,0.4-0.3c0-0.1,0.1-0.2,0.1-0.3c0.2-0.3,0.5-0.6,0.6-0.9c0.1-0.2,0.1-0.4,0.2-0.7c0.1-0.4,0.8-1.8,0.3-2
		c-0.2-0.1-0.5,0-0.6,0.2c-0.2,0.2-0.3,0.2-0.7,0.2c-0.6,0-1.2,0-1.7,0c-0.5,0-1.1,0-1.6,0c-0.3,0-0.3,0-0.6-0.2
		c-0.1-0.1-0.2-0.1-0.2-0.3c-0.1-0.2,0-0.2-0.2-0.4c-0.3-0.3-0.5-0.7-0.7-1.1c-0.1-0.2,0-0.5-0.1-0.6c0-0.1-0.1-0.1-0.2-0.2
		c-0.2-0.3-0.1-0.4,0.1-0.6c0.5-0.7-0.3-0.9-0.8-1.2c-0.2-0.1-0.4-0.4-0.6-0.5c-0.1-0.1-0.2,0-0.2-0.1c-0.1-0.1,0-0.4,0-0.5
		c0-0.6,0-1.2,0-1.7c0-0.3,0-0.6,0-0.9c0-0.1,0-0.3,0-0.4c0.1-0.1,0.2-0.1,0.3-0.2c0.1-0.1,0.2-0.2,0.4-0.3c0.1-0.1,0.3-0.2,0.4-0.3
		c0.2-0.1,0.2-0.4,0.4-0.6c0,0,0.2-0.1,0.3-0.1c0,0,0.1-0.1,0.1-0.1c0.1-0.1,0.2-0.1,0.4-0.1c0.2-0.2,0.3-0.5,0.4-0.8
		c0.3-0.6,0.7-1,1-1.6c0.1-0.3,0.2-0.3,0.4-0.5c0.1-0.1,0.1-0.2,0.2-0.4c0.1-0.2,0.3-0.4,0.4-0.7c0.2-0.5,0.5-1.1,0.8-1.6
		c0.2-0.2,0.4-0.3,0.6-0.4c0.5-0.2,0.9-0.6,1.5-0.7c0.4-0.1,0.9-0.2,1.4-0.2c0.4,0,0.8-0.2,1.2-0.3c0.8-0.1,1.7,0,2.5,0
		c0.6,0,1.3-0.1,1.9,0c0.2,0,0.3,0.1,0.5,0.1c0.1,0,0.3,0,0.4,0c0.3,0,0.5,0.1,0.8,0.1c0.3,0,0.6,0,0.9,0c0.4,0,0.8,0,1.2,0
		c0.5,0,0.7,0.1,1.1,0.3c0.3,0.2,0.7,0.4,1,0.6c0.3,0.3,0.5,0.6,0.8,0.9c0.2,0.1,0.2,0.2,0.3,0.3c0.1,0.1,0.2,0.2,0.3,0.3
		c0.2,0.2,0.4,0.8,0.5,1.1c0.2,0.6,0.2,1.3,0.2,1.9c0,0.3,0.1,0.5,0.1,0.8c0.1,0.3,0.2,0.7,0.2,1c0.1,0.3,0.1,0.7,0.2,1
		c0,0.2,0.1,0.6,0,0.8c-0.1,0.1-0.3,0.2-0.4,0.4c-0.2,0.3-0.4,0.6-0.5,0.9c-0.1,0.2-0.1,0.4-0.2,0.6c-0.1,0.2-0.2,0.3-0.3,0.5
		c-0.1,0.2-0.1,0.4-0.2,0.6c-0.1,0.2-0.3,0.4-0.3,0.6c-0.1,0.2-0.1,0.5-0.2,0.7c0,0.2-0.1,0.2-0.1,0.4c0,0.1,0.1,0.4,0,0.5
		c-0.1,0.1-0.2,0.1-0.3,0.3c0,0.1,0,0.4,0,0.5c0,0.3,0,0.6,0,0.9c0,0.4-0.1,0.5-0.2,0.8c-0.1,0.3-0.4,0.6-0.4,0.9c0,0.1,0,0.3,0,0.4
		c0,0.1-0.2,0.3-0.2,0.4c-0.1,0.2-0.3,0.4-0.4,0.6c-0.1,0.2-0.2,0.4-0.4,0.6c-0.2,0.1,0,0.1-0.3,0.1c-0.2,0-0.3,0-0.5,0.2
		c-0.2,0.1-0.4,0.4-0.7,0.5c-0.1,0-0.2-0.1-0.4,0c-0.1,0.1-0.2,0.2-0.3,0.2c-0.2,0.1-0.6,0.4-0.8,0.5c-0.1,0-0.2,0-0.4,0.1
		c-0.2,0-0.4,0.2-0.5,0.3c-0.6,0.3-1.2,0.4-1.9,0.4"/>
	<path id="XMLID_419_" class="st0" d="M198,124.8c0,0.6,0,1-0.2,1.6c0,0.1-0.1,0.2-0.1,0.3c0,0.1,0,0.3,0,0.5c0,0.2-0.1,0.6,0,0.9
		c0.1,0.4,0.7,0.7,1,0.8c0.2,0.1,0.3,0.2,0.6,0.2c0.3,0,0.5,0,0.8,0.1"/>
	<path id="XMLID_420_" class="st0" d="M199.5,124.5c0.4,0,0.6,0,0.9,0.2c0.3,0.2,0.5,0.4,0.7,0.6c0.2,0.2,0.4,0.5,0.6,0.7
		c0.1,0.1,0.1,0.2,0.2,0.3c0.1,0.2,0,0.3,0.1,0.4c0,0.2,0.1,0.2,0.1,0.4c0,0.1,0,0.3,0,0.4c0,0.4,0,0.7,0,1.1c0,0.1,0,0.3,0,0.5
		c0,0.1-0.1,0.2-0.1,0.3c-0.1,0.4-0.1,0.8-0.2,1.1c-0.1,0.3-0.2,0.6-0.3,0.8c-0.1,0.2-0.2,0.3-0.3,0.5c-0.1,0.1-0.1,0.3-0.1,0.4
		c-0.1,0.2-0.1,0.5-0.3,0.7c-0.2,0.2-0.4,0.5-0.5,0.7c-0.1,0.2-0.3,0.4-0.4,0.5c-0.1,0.2-0.1,0.3-0.3,0.4c-0.2,0.1-0.3,0.3-0.4,0.4
		c-0.2,0.2-0.4,0.3-0.6,0.4c-0.2,0.1-0.5,0.2-0.7,0.3c-0.2,0.1-0.4,0.4-0.7,0.5c-0.5,0.2-1,0.1-1.5,0.1c-0.3,0-0.8,0.1-1.1,0
		c-0.5-0.1-0.8-0.7-1.1-1c-0.2-0.3-0.4-0.6-0.6-0.8c-0.2-0.2-0.4-0.3-0.6-0.5c-0.3-0.3-0.6-0.6-1-0.9c-0.3-0.2-0.5-0.2-0.8-0.3
		c-0.3,0-0.6-0.2-0.9-0.3c-0.4-0.1-0.8-0.1-1.1-0.3c-0.3-0.1-0.6-0.2-0.9-0.3c-0.2-0.1-0.3-0.3-0.5-0.4c-0.3-0.1-0.4-0.3-0.6-0.5
		c-0.2-0.2-0.5-0.2-0.7-0.3c-0.1-0.1-0.2-0.3-0.3-0.4c-0.3-0.2-0.7-0.4-1-0.6c-1.1-1-2-2.3-2.4-3.7c-0.1-0.4-0.2-0.9,0-1.3
		c0.1-0.3,0.4-0.6,0.6-0.8c0.1-0.1,0.1-0.2,0.3-0.3c0.1-0.1,0.2-0.1,0.4-0.2c0.4-0.1,0.8-0.3,1.1-0.4c0.4-0.2,0.7-0.5,1.1-0.6
		c0.4,0,0.7,0,1.1,0c0.4,0,0.7,0,1.1,0c0.4,0,0.6,0.1,1,0.2c0,0,0,0.1,0,0.1"/>
	<path id="XMLID_421_" class="st0" d="M188.6,124.4c-0.6,0-1.3,0-1.9,0.1c-0.4,0.1-0.8,0.2-1.2,0.4c-0.1,0.1-0.3,0.2-0.4,0.2
		c-0.2,0.1-0.1,0.1-0.3,0.2c-0.2,0-0.2,0-0.3,0.1c-0.1,0.1-0.1,0.2-0.1,0.2c-0.1,0.1-0.2,0.1-0.3,0.2c-0.2,0.3,0.2,0.3,0.4,0.4
		c0.4,0.2,0.6,0.4,0.9,0.8c0.3,0.4,0.7,0.5,1.1,0.7c0.2,0.1,0.3,0.1,0.5,0.2c0,0,0.3,0.1,0.3,0.1c0.1,0.1,0.1,0.1,0.2,0.2
		c0.1,0.1,0.3,0.1,0.5,0.2c0.2,0.1,0.3,0.3,0.4,0.4c0.2,0.1,0.4,0.1,0.6,0.3c0.2,0.2,0.4,0.3,0.6,0.4c0.4,0.2,0.8,0.5,1.2,0.7
		c0.7,0.5,1.4,0.9,2.1,1.3c0.4,0.2,0.8,0.2,1.3,0.2c0.4,0,1,0.1,1.5,0c0.4-0.1,0.6-0.4,1-0.6c0.1,0,0.2-0.1,0.3-0.1
		c0.1-0.1,0.1-0.2,0.2-0.3c0.1-0.1,0.4-0.3,0.5-0.4c0.1,0,0.2,0,0.2,0c0.1,0,0.3-0.2,0.4-0.3c0.2-0.1,0.4-0.3,0.6-0.5
		c0.2-0.1,0.4-0.1,0.6-0.3c0.2-0.2,0.3-0.3,0.5-0.5c0.3-0.2,0.4-1.1,0.3-1.5c-0.1-0.2-0.4-0.4-0.5-0.6c-0.2-0.2-0.4-0.4-0.6-0.4"/>
	<path id="XMLID_422_" class="st0" d="M182.1,125.5c0,0.4,0.1,0.8-0.1,1.1c-0.4,0.5-0.6,1.1-1,1.6c-0.2,0.3-0.4,0.5-0.5,0.8
		c-0.1,0.2-0.1,0.5-0.2,0.7c-0.1,0.2-0.2,0.3-0.4,0.5c-0.2,0.2-0.2,0.6-0.4,0.8c-0.2,0.4-0.5,0.7-0.7,1.1c-0.1,0.4-0.3,0.8-0.4,1.1
		c-0.1,0.2-0.2,0.3-0.3,0.5c-0.1,0.2-0.2,0.5-0.3,0.7c-0.3,0.7-0.8,1-1.2,1.6c-0.5,0.7-0.9,1.3-1.2,2c-0.1,0.2-0.1,0.3-0.1,0.5
		c0,0.1-0.1,0.2-0.1,0.3c-0.1,0.3-0.2,0.7-0.3,1.1c-0.1,0.3-0.1,0.5-0.2,0.8c-0.1,0.4-0.4,0.7-0.4,1.1c0,0.4-0.2,0.7-0.3,1.2
		c0,0.2-0.1,0.3-0.1,0.5c0,0.1,0,0.2,0,0.3c0,0.1-0.1,0.1-0.1,0.2c0,0.1,0,0.2,0,0.3c0,0.1-0.1,0.1-0.1,0.2c0,0.2,0,0.4,0,0.6
		c0,0.2,0,0.4,0,0.6c0,0.2-0.2,0.2-0.2,0.5c0.1-0.3,0.4-0.4,0.7-0.5c0.2-0.1,0.2-0.3,0.4-0.4c0.2-0.1,0.4,0,0.6-0.1
		c0.1,0,0.3-0.2,0.4-0.3c0.3-0.2,0.6-0.6,0.8-0.9c0.2-0.4,0.4-0.9,0.7-1.2c0.2-0.2,0.5-0.3,0.6-0.5c0.2-0.2,0.2-0.2,0.4-0.4
		c0.6-0.3,1.3-0.5,2-0.7c0.2-0.1,0.3-0.1,0.6-0.1c0.2,0,0.2-0.1,0.4-0.1c0.5-0.1,0.6,0.1,0.7,0.5c0.1,0.4,0.1,0.9,0.2,1.3
		c0.1,0.5,0,1.1,0,1.6c0,0.8-0.2,1.6-0.4,2.3c-0.2,0.5-0.3,1-0.4,1.5c0,0.2,0.1,0.4,0,0.6c0,0.2-0.1,0.3-0.1,0.5c0,0.4,0,0.8,0,1.3
		c0,0.4-0.1,0.6-0.1,1c0,0.4,0,0.8,0,1.3c0,0.4-0.1,0.4-0.2,0.8c-0.1,0.3-0.3,0.6-0.4,1c-0.1,0.2-0.3,0.5-0.4,0.6
		c-0.2,0.2-0.6,0.3-0.8,0.2c-0.2-0.1-0.4-0.5-0.6-0.6c-0.2-0.1-0.4,0.1-0.6,0c-0.1-0.1-0.2-0.2-0.3-0.3c-0.2-0.2-0.4-0.3-0.6-0.5
		c-0.1-0.1-0.2-0.3-0.3-0.4c-0.2-0.2-0.3-0.1-0.5-0.1c-0.5,0-0.8-0.1-1.3-0.1c-0.4,0-0.6,0.1-1,0.3c-0.3,0.1-0.4,0.2-0.6,0.4
		c-0.1,0.1-0.3,0.1-0.4,0.3c-0.1,0.2-0.1,0.3-0.1,0.5c-0.1,0.3-0.3,0.7-0.4,1c-0.2,0.4-0.2,0.9-0.3,1.3c-0.1,0.6-0.1,1.2-0.1,1.8
		c0,0.5,0.1,1.2-0.1,1.7c-0.2,0.3-0.1,0.5-0.1,0.9c0,0.4-0.1,0.6-0.1,0.9c-0.1,0.4,0,0.7,0,1.1c-0.1,0.5-0.1,0.9-0.2,1.4
		c-0.4,1.7-0.2,3.5-0.2,5.2c0,1.6-0.2,3.1-0.6,4.6c-0.1,0.5-0.2,1-0.2,1.6c0,0.2-0.1,1.6-0.4,1.7"/>
	<path id="XMLID_423_" class="st0" d="M177.9,143c-0.1,0.1-0.2,0.4-0.3,0.5c0,0.2,0,0.4-0.2,0.6c-0.2,0.3-0.6,0.5-0.7,0.9
		c-0.1,0.2-0.2,0.4-0.2,0.6c0,0.2,0,0.2,0.1,0.3c0.1,0.1,0.4,0,0.6,0c0.2,0,0.4,0.2,0.5,0.3c0,0.1,0,0.2,0.1,0.3
		c0,0.1,0.2,0.2,0.2,0.4c-0.1-0.2-0.2-0.4-0.3-0.6c-0.1-0.3-0.1-0.4-0.5-0.5c-0.4-0.1-1,0-1.5,0c-0.4,0-1,0.1-1.4,0.3
		c-0.2,0.1-0.3,0.3-0.5,0.5c-0.2,0.1-0.4,0.2-0.6,0.3c-0.9,0.2-1.9-0.1-2.8,0c-0.2,0-0.4,0.1-0.6,0.2c-0.2,0.1-0.3,0.2-0.5,0.2
		c-0.2,0.1-0.5,0.1-0.7,0.2c-0.1,0.1-0.3,0.2-0.4,0.3c-0.1,0.1-0.3,0.2-0.4,0.4c0.2,0,0.7,0.1,0.9,0.3c0.2,0.2,0.1,0.1,0.1,0.4
		c0,0.2,0.1,0.2,0.2,0.4c0.3,0.5,0.5,1,0.7,1.6c0.1,0.3,0.2,0.5,0.2,0.8c0,0.2,0,0.8,0.4,0.5c0-0.1,0.1-0.2,0.2-0.3
		c0.1-0.1,0.2-0.1,0.3-0.1c0.2-0.1,0.2-0.1,0.4-0.1c0.3,0,0.7,0,1.1,0c0.9,0,1.6,0.2,2.4,0.5c0.3,0.1,0.5,0.3,0.8,0.4
		c0.3,0.1,0.6,0.1,0.9,0.2c0.1,0,0.3,0.1,0.4,0.2c0.2,0.1,0.4,0,0.7,0.1c0.4,0.1,0.8,0.1,1.3,0.1c0.4,0,0.8,0,1.3,0
		c0.3,0,0.5-0.1,0.8-0.3"/>
	<path id="XMLID_424_" class="st0" d="M167.4,148.2c-0.3,0.4-0.7,0.5-1,0.9c-0.2,0.3-0.4,0.5-0.7,0.8c-0.3,0.2-0.5,0.4-0.7,0.6
		c0,0-0.1,0-0.2,0c-0.1,0.1-0.1,0.2-0.2,0.3c-0.1,0.1-0.3,0.2-0.5,0.3c-0.3,0.2-0.5,0.3-0.8,0.5c-0.3,0.2-0.5,0.5-0.8,0.7
		c-0.6,0.4-1.1,1-1.6,1.5c-0.2,0.2-0.4,0.5-0.6,0.7c-0.2,0.3-0.4,0.5-0.6,0.7c-0.1,0.2-0.2,0.4-0.4,0.6c-0.1,0.1-0.2,0.2-0.3,0.4
		c-0.2,0.3-0.2,0.2-0.5,0.4c-0.4,0.3-0.5,0.8-0.8,1.1c-0.2,0.2-0.4,0.3-0.6,0.5c-0.1,0.2-0.2,0.4-0.4,0.6c-0.2,0.3-0.3,0.6-0.5,0.9
		c-0.1,0.1-0.2,0.2-0.3,0.3c-0.1,0.2,0,0.3-0.1,0.5c0,0.1-0.2,0.1-0.2,0.2c0,0.1-0.1,0.2-0.1,0.2c0,0.1-0.1,0.1-0.2,0.1
		c-0.1,0.2-0.1,0.5-0.2,0.7c-0.1,0.2-0.3,0.3-0.4,0.6c-0.1,0.3-0.2,0.7-0.3,1c-0.1,0.3-0.2,0.5-0.1,0.8c0,0.2-0.1,0.3-0.1,0.4
		c0,0.1,0,0.3-0.1,0.4c-0.1,0.2-0.2,0.1-0.2,0.3c0,0.1,0,0.2,0,0.3c0,0.1-0.1,0.1-0.1,0.2c-0.1,0.3-0.1,0.8,0,1.1
		c0.1,0.2,0,0.2,0.3,0.2c0.3,0,0.3,0,0.4-0.2c0-0.1,0-0.1,0-0.2c0-0.1,0.1-0.1,0.1-0.2c0-0.1,0.1-0.3,0.1-0.4
		c0.1-0.4,0.3-0.7,0.5-1.1c0.2-0.4,0.2-0.9,0.5-1.3c0.2-0.3,0.4-0.5,0.5-0.8c0.1-0.3,0.2-0.5,0.4-0.8c0.1-0.2,0.2-0.3,0.3-0.5
		c0.1-0.2,0.1-0.4,0.2-0.6c0.1-0.2,0.3-0.3,0.5-0.4c0.2-0.2,0.6-0.4,0.8-0.5c0.1,0,0.4-0.1,0.5,0c0.1,0.1,0,0.4,0,0.5
		c0.1,0.2,0.3,0.7,0.5,0.9c0.3,0.4,0.9,0.9,1.3,0.4c0.2-0.3,0.4-0.7,0.6-1c0.1-0.1,0.3-0.3,0.4-0.3c0.2,0,0.3,0.3,0.4,0.4
		c0.1,0.1,0.2,0.1,0.3,0.2c0.1,0.1,0.1,0.3,0.2,0.3c0.1,0.1,0.3,0.2,0.5,0.1c0.3-0.2,0.3-0.8,0.6-0.9c0,0.5,0.7,0.6,1.1,0.5
		c0.1-0.3,0.2-0.6,0.3-0.9c0-0.1,0.1-0.4,0.2-0.5c0.2-0.1,0.4,0,0.6,0.2c0.3,0.2,0.8,0.4,1,0c0-0.1,0-0.2,0-0.2
		c0-0.1,0.1-0.1,0.1-0.2c0-0.1,0-0.2,0-0.3c0.1-0.2,0.3-0.3,0.2-0.5c-0.1-0.4,0.1-0.9,0-1.2c0-0.1-0.1-0.2-0.1-0.3
		c0-0.2,0.2-0.3,0.3-0.5c0.1-0.1,0.1-0.2,0.2-0.3c0.1-0.1,0.2-0.1,0.2-0.2c0-0.1,0-0.2,0.1-0.4c0.1-0.1,0.1-0.2,0.2-0.3
		c0-0.1,0-0.1,0-0.2c0-0.2,0.1-0.4,0.1-0.6c0,0,0-0.1,0.1-0.1c0-0.1,0-0.2,0-0.2c0-0.2,0.1-0.3,0.1-0.5c0-0.2,0-0.3,0-0.5
		c0-0.1,0-0.3,0-0.5c0-0.2,0.1-0.2,0.3-0.2c0.1,0,0.2-0.1,0.3-0.1c0,0,0.1,0,0.1-0.1c0.1,0,0.1,0,0.1,0c0,0,0-0.1,0.1-0.1
		c0.1-0.1,0.2-0.1,0.3-0.2c0.1-0.1,0.1-0.2,0.2-0.3c0,0-0.1-0.1-0.1-0.1c-0.2,0-0.3-0.3-0.3-0.5c-0.1-0.2-0.1-0.3-0.2-0.5
		c0-0.1-0.1-0.2-0.1-0.4c0-0.1,0-0.3-0.1-0.4c-0.1-0.1-0.2-0.2-0.2-0.3c-0.1-0.2-0.2-0.4-0.2-0.5c0-0.1-0.1-0.1-0.1-0.2
		c-0.1-0.1-0.3-0.2-0.4-0.3c-0.1-0.1-0.2-0.2-0.3-0.3c-0.1,0-0.1-0.1-0.1-0.1C167.8,148.3,167.5,148.2,167.4,148.2z"/>
	<path id="XMLID_425_" class="st0" d="M202.3,113.3c-0.5,0-1,0-1.5,0c-0.1,0-0.2,0-0.4,0c-0.1,0-0.2,0-0.3,0c-0.1,0-0.3,0-0.4,0
		c-0.1,0-0.2-0.1-0.3-0.1c0,0.1,0.1,0.1,0.1,0.1c0,0,0.1,0.1,0.1,0.2c0,0.2,0,0.4,0,0.5c0,0.3,0,0.7,0,1c0,0.2,0,0.4,0,0.5
		c0,0.2,0.1,0.4,0.1,0.6c0,0.1,0.1,0.2,0.1,0.3c0.1,0.2,0,0.5,0.1,0.7c0,0.1,0.1,0.2,0.2,0.4c0,0.1,0,0.1,0.1,0.2c0,0,0.1,0,0.1,0.1
		c0,0,0,0.1,0.1,0.1c0.1,0.1,0.1,0.2,0.1,0.4c0,0.1,0,0.2,0,0.2c0,0.1,0,0.1-0.1,0.2c-0.1,0.1-0.1,0.1-0.2,0.2
		c-0.1,0.1-0.2,0.3-0.4,0.4c-0.1,0-0.1,0-0.2,0c0,0-0.1,0-0.1,0c0,0-0.1,0-0.1,0c-0.1,0-0.1,0-0.2,0c-0.1,0-0.2,0-0.3-0.1
		c-0.1,0-0.1-0.1-0.1-0.1c0,0-0.1-0.1-0.2-0.1c0-0.1,0-0.1-0.1-0.2c-0.1,0-0.2,0-0.3,0c0,0,0,0-0.1,0c-0.1,0-0.1,0-0.2,0
		c-0.1,0-0.1,0.1-0.2,0.1c-0.1,0-0.2,0-0.3,0c-0.1,0-0.2-0.1-0.2-0.2"/>
	<path id="XMLID_426_" class="st0" d="M197.5,114.3c0-0.2,0-0.4,0-0.5c0-0.1-0.1-0.1-0.1-0.2c-0.1,0-0.1,0-0.2-0.1
		c-0.1-0.1-0.1-0.1-0.2-0.1c-0.1,0-0.1,0-0.2,0c0,0-0.1,0-0.1-0.1c0,0-0.1,0-0.1,0c-0.2,0-0.3,0-0.5,0c-0.2,0-0.2,0-0.3,0.1
		c-0.1,0.1-0.3,0.1-0.5,0.2c-0.1,0.1-0.2,0.2-0.3,0.2c-0.1,0.1-0.1,0.1-0.2,0.2c0,0-0.1,0-0.1,0.1c0,0,0,0.1-0.1,0.1
		c0,0-0.1,0-0.1,0.1c-0.1,0.1-0.2,0.2-0.3,0.2c0,0-0.1,0-0.1,0c0,0-0.1,0.1-0.1,0.1c0,0-0.1,0-0.1,0.1c-0.2,0.1-0.4,0.2-0.7,0.3
		c-0.1,0-0.2,0.1-0.4,0.1c-0.1,0-0.2,0-0.3,0c-0.1,0-0.1,0-0.2,0"/>
	<path id="XMLID_427_" class="st0" d="M197.5,116.8c0,0.1-0.2,0.1-0.2,0.2c-0.1,0.1-0.1,0.1-0.2,0.2c0,0-0.1,0-0.1,0.1
		c0,0-0.1,0.1-0.1,0.1c-0.1,0-0.1,0.1-0.2,0.1c-0.1,0-0.2,0.1-0.2,0.1c0,0-0.1,0-0.1,0c0,0,0,0-0.1,0c0,0-0.1,0-0.1,0
		c-0.2,0-0.4,0-0.6,0c-0.2,0-0.4,0-0.6,0c-0.1,0-0.2-0.1-0.3-0.1c-0.1,0-0.2,0-0.3,0c-0.2,0-0.4,0-0.7,0c-0.1,0-0.2,0-0.3,0.1
		c0,0,0,0,0,0.1c0,0,0,0-0.1,0c0,0-0.1,0.1-0.1,0"/>
	<path id="XMLID_428_" class="st0" d="M197.5,116.8c0-0.1,0-0.1-0.1-0.2c0,0,0-0.1-0.1-0.1c0,0,0-0.1,0-0.1
		c-0.1-0.2-0.1-0.3-0.2-0.5c-0.1-0.1-0.1-0.2-0.2-0.3c0-0.1,0-0.2-0.1-0.2c-0.1-0.1-0.1-0.2-0.2-0.2c0,0-0.1,0-0.1,0c0,0,0,0,0,0
		c0,0-0.1,0-0.1,0c0,0-0.1,0-0.1,0c0,0-0.1,0-0.1,0c-0.1,0-0.2,0-0.3,0c-0.2,0-0.5,0.1-0.6,0.2c0,0-0.1,0.1-0.1,0.1c0,0-0.1,0-0.1,0
		c-0.1,0.1-0.1,0.2-0.2,0.2c-0.1,0.1-0.2,0.2-0.3,0.4c0,0.1-0.1,0.2-0.1,0.3c0,0.1,0,0.2-0.1,0.3c-0.1,0.2-0.1,0.4-0.1,0.7"/>
	<path id="XMLID_429_" class="st1" d="M197,115.8c-0.1,0-0.1,0-0.1,0.1c0,0,0,0,0,0.1c0,0-0.1,0-0.1,0c0,0-0.1,0.2-0.1,0.3
		c0,0.1,0,0.1,0,0.1c0,0-0.1,0.1-0.1,0.1c0,0.1-0.1,0.1-0.1,0.2c0,0.1,0,0.2,0,0.3c0,0.1-0.1,0.2,0,0.3c0.1,0.1,0.4,0,0.5,0
		c0.1-0.1,0.3-0.1,0.4-0.3c0,0,0.1,0,0.1-0.1c0,0,0.1-0.1,0.1-0.1c0.1,0,0.2-0.2,0.1-0.2c0,0-0.1,0-0.1-0.1c0,0,0,0-0.1-0.1
		c-0.1-0.1-0.1-0.1-0.1-0.2c0-0.1-0.1-0.2-0.1-0.2C197.1,116,197,115.9,197,115.8"/>
	<path id="XMLID_430_" class="st0" d="M196.9,121.5c0.2,0,0.4-0.1,0.5-0.2c0.1-0.1,0.2-0.1,0.3-0.1c0.1-0.1,0.1-0.1,0.2-0.2
		c0.1-0.1,0.1-0.1,0.2-0.2c0.1-0.1,0.1-0.1,0.2-0.1c0.2,0,0.4,0,0.5,0.2c0.1,0,0-0.1,0-0.1c0,0,0.1-0.1,0.1-0.1
		c0.1-0.1,0.1-0.2,0.3-0.2c0.1,0,0.2,0,0.3,0c0.2,0,0.1,0,0.2,0.1c0.1,0.1,0.1,0.1,0.2,0.1c0,0,0.1,0.1,0.1,0.1c0,0,0,0.1,0,0.1
		c0.1,0.1,0.2,0.3,0.3,0.3c0,0,0,0,0,0"/>
	<path id="XMLID_431_" class="st0" d="M199.5,121.3c-0.1,0-0.3,0-0.5,0c-0.1,0-0.1,0.1-0.1,0.1c-0.1,0-0.1,0-0.2,0
		c-0.2,0.1-0.4,0.2-0.6,0.2"/>
	<path id="XMLID_432_" class="st0" d="M201.7,115.3c-0.1,0-0.2-0.1-0.3-0.1c-0.1,0-0.2,0-0.3,0c-0.2,0-0.3,0-0.5,0.1
		c-0.1,0.1-0.2,0.1-0.3,0.2c-0.1,0.1-0.2,0.2-0.3,0.2c0,0,0,0,0,0"/>
	<path id="XMLID_433_" class="st0" d="M200.3,117c0.2,0,0.4,0,0.6,0c0.2,0,0.5,0,0.7,0c0,0,0,0,0-0.1c0.1,0,0.1,0,0.2,0"/>
	<path id="XMLID_434_" class="st1" d="M201.7,115.4c-0.1,0-0.2,0-0.3,0.1c-0.1,0.1-0.2,0.1-0.2,0.2c0,0.1,0,0.2,0,0.3
		c0,0,0,0.1,0,0.1c0,0,0,0.1,0,0.1c0,0,0,0.1-0.1,0.1c-0.1,0.1-0.1,0.4-0.1,0.6c0.1,0.2,0.3,0.1,0.5,0.1c0.1,0,0.3,0,0.3,0
		c0.1,0,0.1-0.2,0.1-0.3c0,0,0.1,0,0.1-0.1c0,0,0-0.1,0-0.1c0-0.1,0.1-0.2,0.1-0.3c0-0.1,0-0.3,0-0.4c0-0.1,0-0.2,0-0.3
		c-0.1-0.2-0.3-0.2-0.5-0.3"/>
	<path id="XMLID_435_" class="st0" d="M202.3,127.4c0,0.2,0.1,0.3,0.2,0.4c0.1,0.1,0.2,0.2,0.3,0.4c0.1,0.2,0.3,0.4,0.4,0.6
		c0,0.1,0.1,0.2,0.1,0.3c0.1,0.1,0.2,0.2,0.2,0.4c0.1,0.2,0.1,0.4,0.1,0.7c0,0.2,0,0.5,0,0.7c0.1,0.2,0.2,0.5,0.3,0.7
		c0.1,0.1,0.1,0.2,0.1,0.4c0,0.1,0.1,0.2,0.1,0.3c0,0.4,0,0.7,0,1.1c0,0.3-0.1,0.5-0.1,0.8c0,0.2,0,0.3,0,0.5c0,0.2,0,0.5,0,0.7
		c0,0.2,0,0.5,0,0.7c0,0.1,0,0.2,0,0.3c0,0.1-0.1,0.2-0.1,0.3c0,0.1,0,0.2,0,0.2c0,0.1-0.1,0.2-0.1,0.4c-0.1,0.4-0.1,0.8-0.2,1.1
		c-0.1,0.3-0.1,0.6-0.1,0.9c0,0.5,0.1,1.1-0.1,1.6c-0.1,0.3-0.3,0.6-0.4,0.9c-0.1,0.3-0.2,0.6-0.2,0.9c0,0.2,0,0.5,0,0.7
		c0,0.2-0.1,0.6,0.1,0.8"/>
	<path id="XMLID_436_" class="st0" d="M208,136.3c0,0.4-0.1,1,0,1.3c0.1,0.2,0.2,0.3,0.3,0.5c0.1,0.2,0.2,0.5,0.2,0.7
		c0.2,0.8,0.2,1.6,0.4,2.4c0.1,0.5,0.1,0.9,0.2,1.4c0,0.3,0.1,0.7,0.1,1c0.1,0.3,0.2,0.7,0.3,1c0.2,1.2,0.3,2.3,0.3,3.5
		c0,0.6,0,1.3-0.2,1.8c-0.2,0.5-0.4,0.9-0.6,1.3c-0.1,0.4-0.3,0.8-0.4,1.2c-0.1,0.1-0.1,0.4-0.2,0.5c-0.1,0.2-0.2,0.3-0.2,0.6
		c-0.1,0.4-0.8,0.3-1.1,0.2c-0.2,0-0.2,0-0.4-0.1c-0.2-0.1-0.5-0.2-0.7-0.3c-0.2-0.1-0.7-0.4-0.8-0.7c-0.1-0.1,0-0.3,0-0.4
		c-0.1-0.1-0.3-0.3-0.4-0.4c-0.3-0.3-0.6-0.7-0.9-1.1c-0.2-0.3-0.3-0.6-0.5-0.9c-0.2-0.2-0.3-0.5-0.4-0.7c-0.2-0.4-0.5-0.7-0.8-1.1
		c-0.1-0.2-0.3-0.4-0.4-0.6c-0.1-0.2-0.1-0.3-0.2-0.5"/>
	<path id="XMLID_437_" class="st0" d="M203.9,133.1c0,0.2,0,0.3-0.1,0.5c-0.1,0.1-0.2,0.2-0.3,0.3c-0.3,0.4-0.5,0.8-0.9,1.2
		c-0.2,0.2-0.3,0.5-0.5,0.8c-0.2,0.2-0.4,0.4-0.6,0.7c-0.2,0.3-0.4,0.5-0.5,0.8c-0.2,0.4-0.1,0.8-0.1,1.2c0,1,0,1.9,0,2.9
		c0,0.9-0.1,1.9,0.2,2.7c0.1,0.3,0.2,0.7,0.3,1c0.1,0.2,0.2,0.4,0.2,0.7c0.1,0.4,0.1,0.8,0.1,1.2c0,1.1,0,2.2,0,3.3
		c0,0.4,0,0.7,0,1.1c0,0.3,0,0.6,0.1,0.8c0.1,0.3,0.1,0.4,0.1,0.7c0,0.3,0.1,0.6,0.1,0.9c0,0.3,0.1,0.4,0.2,0.6
		c0.3,0.3,0.8,0.3,1.3,0.3c0.5,0,1,0.1,1.5-0.1c0.2-0.1,0.3-0.2,0.5-0.2c0.2,0,0.5,0,0.7,0c0.1,0.3,0,0.7,0,1c0,0.4,0,0.8,0,1.1
		c0,0.7,0,1.4,0,2.1c0,0.5-0.1,1-0.2,1.4c-0.1,0.3-0.1,0.5-0.2,0.8c-0.1,0.3-0.1,0.5-0.1,0.8c-0.2,1.1-0.1,2.3-0.1,3.5c0,1,0,2,0,3
		c0,0.6-0.1,1.1-0.1,1.7c0,0.5,0,1,0,1.5c0,1.1,0,2.3,0,3.4c0,1.3,0,2.7,0,4c0,0.8,0,1.6,0,2.5c0,0.7-0.2,1.4-0.2,2.1
		c0,0.2,0,0.5,0,0.7c0,0.3-0.1,0.5-0.1,0.7c0,0.2-0.1,0.3-0.1,0.5c0,0.1,0,0.2,0,0.3c0,0.2-0.1,0.3-0.1,0.5c-0.2,1,0,2.1,0,3.1
		c0,0.3,0,0.7,0,1c0,0.2,0.1,0.5,0,0.7c0,0-0.1,0-0.1,0"/>
	<path id="XMLID_438_" class="st0" d="M208.7,134.3c0,0.3,0.1,0.7,0,1.1c0,0.2-0.2,0.2-0.3,0.3c-0.2,0.1-0.3,0.1-0.5,0.1
		c-0.5,0-0.9,0-1.4,0c-0.4,0-0.7,0-1.1-0.2c-0.1,0-0.1-0.1-0.2-0.1c-0.1-0.1-0.1-0.1-0.2-0.2c-0.1-0.1-0.3-0.2-0.3-0.3
		c0-0.1,0-0.4,0-0.6c0-0.1,0.1-0.1,0.1-0.1c0,0,0-0.1,0-0.1c0-0.1,0-0.2,0-0.3c0-0.2,0-0.4,0.1-0.6c0-0.1,0.1-0.2,0.1-0.4
		c0-0.1,0-0.2,0.1-0.3c0-0.2,0-0.4,0.1-0.6c0.1-0.2,0.2-0.4,0.2-0.6c0-0.3,0.2-0.5,0.3-0.7c0-0.1,0.1-0.2,0.1-0.4
		c0.1-0.1,0.2-0.3,0.2-0.4c0.1-0.1,0.1-0.2,0.1-0.3c0.1-0.1,0.2-0.2,0.3-0.3c0.1-0.1,0.1-0.2,0.1-0.3c0.1-0.2,0.2-0.3,0.3-0.5
		c0.3-0.5,0.5-1.2,0.6-1.8c0.1-0.6,0.3-1.3,0.4-1.9c0-0.2,0.2-0.5,0.2-0.7c0-0.1,0-0.2,0.1-0.3c0,0,0.1-0.1,0.1-0.1c0,0,0-0.1,0-0.2
		c0,0,0.1-0.1,0.1-0.1c0,0,0-0.1,0.1-0.2c0,0,0.1-0.1,0.1-0.1c0-0.1,0-0.1,0.1-0.2c0.1-0.1,0.4-0.4,0.6-0.2c0.1,0.1,0,0.1,0.1,0.2
		c0,0.1,0.1,0.1,0.1,0.2c0,0.2,0.1,0.4,0.2,0.6c0.1,0.3,0,0.8,0,1.1c0,0.2,0,0.4,0,0.6c0,0.4-0.2,0.5-0.4,0.8
		c-0.1,0.1-0.1,0.2-0.2,0.3c-0.1,0.1,0,0.2-0.1,0.3c-0.1,0.2-0.2,0.4-0.2,0.7c0,0.4,0,0.8,0,1.2c0,0.1,0,0.2,0,0.3
		c0,0.1,0.1,0.2,0.1,0.3c0,0,0,0.1,0,0.1c0,0.1,0,0.1,0,0.1c0,0.1,0,0.2,0,0.3"/>
	<path id="XMLID_439_" class="st0" d="M209,127c0.5-0.6,1.1-1.1,1.6-1.7c0.1-0.1,0.2-0.2,0.3-0.3c0.1-0.2,0.2-0.4,0.4-0.5
		c0.3-0.2,0.5-0.6,0.8-0.8c0.2-0.2,0.4-0.4,0.6-0.6c0.1-0.1,0.2-0.2,0.4-0.3c0.2-0.1,0.3-0.2,0.4-0.4c0.1-0.2,0.2-0.2,0.4-0.4
		c0.1-0.1,0.2-0.2,0.2-0.3c0.1-0.1,0.2-0.2,0.3-0.2c0.1-0.1,0.2-0.1,0.3-0.2c0.2-0.1,0.4-0.2,0.6-0.4c0.1-0.1,0.5-0.1,0.6,0
		c0.1,0.1,0,0.5,0,0.6c0,0.1,0,0.2,0,0.3c0,0.1-0.3,0.2-0.3,0.3c-0.1,0.1-0.2,0.3-0.3,0.4c-0.1,0.1-0.3,0.2-0.4,0.3
		c-0.2,0.2-0.4,0.3-0.6,0.5c0,0.1-0.1,0.1-0.2,0.2c-0.1,0.1-0.1,0.1-0.1,0.2c-0.2,0.2-0.4,0.3-0.5,0.5c-0.1,0.1-0.2,0.2-0.3,0.3
		c-0.1,0.1-0.2,0.2-0.3,0.3c-0.2,0.1-0.4,0.2-0.5,0.4c-0.1,0.1-0.2,0.2-0.3,0.3c-0.1,0.1-0.2,0.2-0.3,0.3c-0.1,0.1-0.2,0.2-0.2,0.3
		c0,0.1,0,0.1-0.1,0.2c0,0.1-0.1,0.1-0.1,0.2c-0.1,0-0.1,0.1-0.2,0.1"/>
	<path id="XMLID_440_" class="st0" d="M215.7,121.8c0.2,0,0.4,0,0.5,0c0.1,0,0.1-0.1,0.2-0.1c0.1,0,0.2,0,0.2,0
		c0.2,0,0.2,0.1,0.2,0.2c0,0.2,0,0.3-0.1,0.4c0,0.1,0,0.2-0.1,0.2c-0.1,0.1-0.1,0.1-0.2,0.2c-0.1,0.1-0.2,0.3-0.4,0.4
		c-0.1,0.1-0.2,0.2-0.4,0.3c-0.1,0.1-0.2,0.3-0.4,0.4c-0.3,0.2-0.4,0.6-0.7,0.8c-0.2,0.2-0.4,0.4-0.6,0.6c-0.1,0.1-0.2,0.1-0.3,0.2
		c0,0.1-0.1,0.2-0.1,0.2c0,0-0.1,0.1-0.1,0.1c-0.1,0.1-0.2,0.2-0.3,0.3c-0.1,0.1-0.2,0.1-0.3,0.2c-0.1,0.1-0.2,0.2-0.3,0.4
		c-0.1,0.2-0.3,0.3-0.4,0.4c-0.1,0.1-0.1,0.1-0.2,0.2c-0.1,0.1-0.2,0.1-0.2,0.2"/>
	<path id="XMLID_441_" class="st0" d="M216.3,123c0.1,0,0.3,0,0.4,0c0.2,0,0.2,0.1,0.2,0.2c0.1,0.2,0.3,0.4,0.3,0.6
		c0,0.1-0.1,0.2-0.2,0.3c-0.1,0.1-0.2,0.2-0.3,0.3c-0.1,0.1-0.1,0.2-0.2,0.3c-0.2,0.2-0.4,0.3-0.6,0.5c0,0.1-0.1,0.1-0.1,0.2
		c-0.1,0.1-0.2,0.1-0.3,0.1c-0.1,0.1-0.1,0.3-0.2,0.3c-0.1,0.1-0.1,0-0.2,0.1c-0.1,0.2-0.3,0.3-0.4,0.5c-0.1,0.1-0.1,0.2-0.2,0.3
		c-0.1,0.1-0.2,0.1-0.3,0.2c-0.1,0.1-0.2,0.3-0.3,0.4c-0.2,0.2-0.5,0.5-0.7,0.7c-0.1,0.1-0.2,0.2-0.3,0.3c-0.1,0.1-0.2,0.1-0.2,0.3"
		/>
	<path id="XMLID_442_" class="st0" d="M215.8,125.4c0.1,0,0.2-0.1,0.4-0.1c0.1,0,0.3-0.1,0.4,0c0.1,0,0.2,0.1,0.3,0.2
		c0,0.1,0,0.2,0,0.2c0,0.1,0,0.1,0,0.2c0,0.1,0,0.1,0,0.2c0,0-0.1,0-0.1,0.1c0,0,0,0.1-0.1,0.1c0,0-0.1,0-0.1,0.1
		c0,0-0.1,0.1-0.1,0.1c-0.1,0.1-0.1,0.2-0.2,0.3c0,0-0.1,0-0.1,0c0,0,0,0.1,0,0.1c-0.1,0-0.1,0-0.1,0.1c-0.5,0.3-0.9,0.9-1.4,1.3
		c-0.1,0-0.1,0.1-0.2,0.1c0,0,0,0.1-0.1,0.1c0,0-0.1,0-0.1,0c-0.1,0.1-0.2,0.2-0.3,0.3c-0.1,0.1-0.1,0.2-0.2,0.2
		c-0.1,0.1-0.3,0.1-0.3,0.3c-0.1,0-0.3,0.2-0.3,0.3c-0.1,0.1-0.2,0.2-0.3,0.3c-0.1,0.1-0.1,0.1-0.2,0.2c-0.1,0.1-0.2,0.1-0.2,0.2
		c-0.1,0.1-0.1,0.1-0.1,0.2c-0.1,0.1-0.2,0.1-0.3,0.2c-0.1,0-0.1,0.1-0.2,0.1c-0.1,0.1-0.1,0.2-0.1,0.2c-0.1,0.1-0.1,0.1-0.2,0.1
		c0,0.1-0.1,0.1-0.1,0.2c-0.2,0.2-0.4,0.4-0.6,0.6c-0.1,0.1-0.2,0.2-0.3,0.3c-0.1,0.1-0.2,0.3-0.3,0.4c-0.1,0.1-0.2,0.2-0.3,0.3
		c-0.1,0.1-0.1,0.1-0.1,0.2c0,0-0.1,0.1-0.1,0.1c-0.1,0.1-0.1,0.2-0.3,0.3c-0.1,0-0.1,0-0.2,0.1c0,0-0.1,0.1-0.1,0.1
		c-0.1,0.1-0.1,0.2-0.2,0.3c0,0.1-0.1,0.1-0.1,0.1c0,0,0,0.1,0,0.1c0,0-0.1,0-0.1,0.1"/>
</g>
<g id="XMLID_69_">
	<path id="XMLID_376_" class="st0" d="M51.3,163.9c-0.1,0-0.2,0-0.2,0"/>
	<path id="XMLID_550_" class="st0" d="M132.6,188.4c-0.8,0-1.5-0.2-2.3-0.2c-0.6,0-1.2,0.3-1.7,0.6c-0.4,0.2-0.9,0.2-1.3,0.4
		c-0.4,0.2-0.7,0.1-1.1,0.2c-0.2,0.1-0.4,0.3-0.7,0.3c-0.3,0.1-0.5,0.1-0.8,0.2c-0.3,0.1-0.5,0.2-0.8,0.2c-0.4,0-0.5-0.3-0.8-0.5
		c-0.7-0.5-1.3-1-2-1.5c-0.4-0.3-0.6-0.7-1.1-0.9c-0.6-0.2-1.4,0-2,0c-0.4,0-0.6,0-0.9-0.2c-0.2-0.2-0.4-0.4-0.5-0.7
		c-0.3-0.7-0.2-1.2-0.3-1.9c0-0.6-0.5-1.1-1-1.3c-0.5-0.3-1.2-0.2-1.8-0.2c-0.5,0-1.3,0.1-1.5-0.5c-0.1-0.4,0.1-0.9,0-1.3
		c0-0.1-0.1-0.1-0.2-0.2c0-0.1,0-0.4,0-0.6c0-1.8-0.2-3.5-0.2-5.3c0-1.9,0-3.7,0-5.6c0-0.8,0.2-1.9,0-2.6c-0.1-0.3-0.3-0.5-0.5-0.8
		c-0.3-0.6-0.3-0.7-0.9-0.7c-0.2-0.5,0-1.5,0-2c0-0.9-0.2-1.9,0-2.7c0.2-0.9,0.6-1.7,1.2-2.4c0.2-0.3,0.5-0.5,0.6-0.8
		c0.1-0.5,0.3-0.9,0.6-1.4c0.4-0.6,0.8-1.3,1.4-1.6c0.6-0.4,1.2-0.5,1.4-1.3c0.3-1.1-0.2-2.2-0.7-3.1c-0.1-0.2-0.1-0.1-0.2-0.4
		c-0.1-0.2-0.1-0.5-0.3-0.5c-0.5-0.2-1.3,0.7-1.7,0.9c-0.3,0.1-0.3,0.1-0.5,0.4c-0.1,0.1-0.1,0.3-0.2,0.4c-0.2,0.3-0.3,0.5-0.4,0.9
		c-0.5,0-0.9,0.4-1.3,0.7c-0.1,0.1-0.4,0.2-0.5,0.2c-0.1,0-0.5,0-0.6,0c-0.2-0.1-0.1-0.1-0.2-0.4c0-0.3,0-0.7,0-1
		c0-0.3-0.1-0.5-0.1-0.7c-0.2-0.7-0.2-1.4-0.2-2.2c0-0.7-0.1-1.4,0.2-2c0.1-0.2,0.2-0.5,0.4-0.8c0.1-0.2,0.3-0.4,0.5-0.5
		c0.2-0.2,0.4-0.4,0.6-0.5c0.1-0.1,0.3-0.2,0.4-0.3c0.2-0.2,0.2-0.4,0.4-0.6c0.3-0.3,0.6-0.5,0.9-0.6c0.5-0.2,1-0.1,1.5-0.5
		c0.3-0.2,0.7-0.6,0.9-0.9c0.1-0.1,0.1-0.3,0.2-0.4c0.2-0.2,0.5-0.3,0.6-0.5c0.3-0.4,0.3-0.8,0.6-1.2c0.2-0.3,0.4-0.6,0.6-0.9
		c0.3-0.6,0.7-1.2,0.9-1.9c0.7-1.9,2-3.8,2-5.9c0-1.1,0.1-2.3,0.2-3.4c0-0.7,0.2-1.3,0.2-1.9c0-0.5,0-1,0-1.4c0-0.8,0.2-2.2-0.1-3
		c-0.1-0.1,0-0.2-0.1-0.3c-0.1-0.1-0.6-0.1-0.7,0c-0.3,0.1-0.5,0.2-0.8,0.3c-0.3,0.1-0.6,0.3-0.9,0.4c-0.2,0.1-0.4,0-0.6,0.1
		c-0.1,0.1-0.2,0.2-0.3,0.3c-0.2,0.2-0.5,0.2-0.7,0.3c-0.3,0.1-0.6,0.4-0.9,0.5"/>
	<path id="XMLID_588_" class="st0" d="M107.7,149.2c0-0.7,0-1.4,0-2.1c0-0.1,0-0.3,0-0.5c0-0.1,0.1-0.2,0.1-0.3
		c0-0.3,0.1-0.5,0.2-0.7c0-0.2,0-0.3,0.1-0.5c0-0.1,0.1-0.2,0.1-0.3c0.1-0.1,0.1-0.2,0.2-0.3c0.1-0.1,0.1-0.3,0.2-0.4
		c0.1-0.2,0.1-0.3,0.2-0.5c0.1-0.1,0.1-0.3,0.3-0.4c0.1-0.1,0.3-0.2,0.4-0.3c0.1-0.1,0.2-0.2,0.2-0.2c0,0,0.1-0.1,0.1-0.1
		c0,0,0.1,0,0.1,0c0.1,0,0.2-0.1,0.3-0.2c0.1-0.1,0.2-0.2,0.4-0.3c0.3-0.1,0.6-0.2,0.8-0.3c0.1-0.1,0.2-0.2,0.4-0.2
		c0.1,0,0.2-0.1,0.3-0.1c0.2-0.1,0.5-0.2,0.7-0.3c0.1-0.1,0.1-0.1,0.2-0.2c0.1-0.1,0.2-0.2,0.3-0.3c0.2-0.1,0.3-0.2,0.5-0.4
		c0.1-0.2,0.2-0.4,0.3-0.5c0.1-0.2,0.2-0.4,0.3-0.6c0.1-0.2,0.3-0.3,0.4-0.5c0.1-0.3,0.2-0.6,0.3-0.9c0.1-0.2,0.1-0.3,0.2-0.5
		c0-0.2,0-0.4,0-0.6c0-0.1,0.1-0.2,0.1-0.4c0-0.1,0-0.2,0-0.3c0.1-0.2,0.2-0.4,0.2-0.6c0-0.2,0-0.2,0.1-0.3c0.1-0.1,0-0.3,0-0.5
		c0-0.5,0-0.9,0-1.4c0-0.5,0.2-1,0.2-1.6c0-0.5,0-1,0-1.6c0-0.2,0-0.5,0-0.7c0-0.3-0.1-0.6-0.2-1c-0.1-0.3-0.2-0.5-0.2-0.8
		c0-0.2-0.1-0.4-0.2-0.6c-0.1-0.2-0.1-0.4-0.1-0.6c0-0.1,0-0.3,0-0.4c0-0.2-0.1-0.4-0.2-0.5c-0.1-0.3-0.1-0.5-0.2-0.8
		c-0.1-0.3-0.2-0.5-0.2-0.8c0-0.4-0.2-0.8-0.4-1.2c0-0.1-0.1-0.3-0.1-0.4c0-0.1-0.1-0.2-0.1-0.3c-0.1-0.1-0.2-0.2-0.3-0.3
		c-0.1-0.1-0.1-0.3-0.2-0.4c-0.1-0.1-0.2-0.2-0.2-0.3c-0.1-0.1-0.1-0.2-0.2-0.3c-0.1-0.1-0.2-0.2-0.2-0.3c-0.1-0.2-0.2-0.3-0.3-0.5
		c-0.2-0.3-0.4-0.6-0.6-0.9c-0.2-0.2-0.3-0.5-0.4-0.7c-0.1-0.2-0.2-0.3-0.3-0.5c0,0-0.1-0.1-0.2-0.2c-0.1-0.1-0.2-0.1-0.3-0.1
		c-0.1-0.1-0.3-0.1-0.4-0.2c-0.1-0.1-0.1-0.2-0.2-0.3c-0.1,0-0.1-0.1-0.2-0.1c-0.1-0.1-0.1-0.2-0.1-0.2c-0.2-0.2-0.8,0.2-1.1,0.3
		c-0.2,0.1-0.4,0.2-0.6,0.3c-0.2,0.2-0.4,0.4-0.6,0.6c-0.3,0.3-0.4,0.6-0.7,0.8c-0.2,0.1-0.3,0.3-0.5,0.4c-0.2,0.1-0.4,0.3-0.6,0.4
		c-0.7,0.5-1.5,0.9-2.2,1.5c-0.1,0.1-0.3,0.2-0.5,0.3c-0.1,0.1-0.1,0.2-0.1,0.2c-0.1,0.1-0.2,0.1-0.3,0.2c-0.1,0.1-0.2,0.2-0.3,0.4
		c-0.1,0.2-0.2,0.3-0.4,0.4c-0.2,0.1-0.3,0.4-0.5,0.6c-0.1,0.2-0.2,0.4-0.4,0.5c-0.2,0.2-0.3,0.4-0.5,0.6c-0.2,0.3-0.4,0.6-0.6,0.8
		c-0.2,0.2-0.4,0.4-0.5,0.6c-0.2,0.2-0.2,0.5-0.3,0.7c-0.1,0.2-0.2,0.5-0.3,0.7c-0.1,0.2-0.2,0.4-0.3,0.5c-0.1,0.2-0.1,0.4-0.2,0.6
		c-0.1,0.2-0.2,0.4-0.3,0.6c0,0.1-0.1,0.3-0.1,0.4c0,0.1-0.1,0.2-0.2,0.3c-0.1,0.3-0.1,0.6-0.2,0.8c0,0.2,0,0.4-0.1,0.5
		c-0.1,0.3-0.1,0.5-0.2,0.8c0,0.6-0.1,1.2-0.1,1.7c0,0.4,0,0.8,0.1,1.3c0.2,0.5,0.4,0.8,0.6,1.3c0.1,0.2,0.2,0.4,0.3,0.7
		c0,0.1,0.1,0.2,0.1,0.2c0.1,0.2,0.1,0.5,0.2,0.7c0.1,0.1,0.2,0.2,0.2,0.3c0.1,0.1,0.1,0.2,0.2,0.3c0.1,0.1,0.1,0.3,0.2,0.4
		c0,0,0.1,0.1,0.1,0.1c0.1,0.1,0.1,0.1,0.2,0.2c0.1,0.1,0.2,0.1,0.2,0.2c0.1,0.1,0.2,0.1,0.3,0.2c0.1,0.1,0.1,0.2,0.3,0.3
		c0.1,0,0.1,0,0.2,0.1c0.2,0.1,0.3,0.3,0.5,0.4c0.2,0.1,0.4,0.3,0.6,0.4c0.2,0.1,0.3,0.1,0.5,0.2c0.1,0,0.1,0.1,0.2,0.2
		c0.2,0.1,0.3,0.1,0.5,0.1c0.2,0,0.3,0.1,0.4,0.1c0.1,0,0.3,0.1,0.4,0.1c0.3,0.1,0.7,0.1,1,0.3c0.1,0.1,0.2,0.2,0.3,0.3
		c0.1,0.1,0.2,0.2,0.2,0.3c0.1,0.1,0.1,0.2,0.2,0.3c0.1,0.2,0.1,0.4,0.1,0.6c0.1,0.5,0.1,1.1,0.2,1.7c0.1,0.5,0,1,0,1.5"/>
	<path id="XMLID_589_" class="st0" d="M101.1,122.9c0.1-0.2-0.2-0.6-0.3-0.8c-0.1-0.1-0.2-0.3-0.4-0.4c-0.1-0.1-0.2-0.3-0.3-0.4
		c0-0.1-0.1-0.1-0.2-0.1c-0.1-0.1-0.1-0.2-0.2-0.2c-0.2-0.2-0.5-0.4-0.7-0.6c-0.2-0.3-0.5-0.7-0.7-1.1c-0.1-0.2-0.4-0.5-0.6-0.6
		c-0.1-0.1-0.2-0.1-0.3-0.1c-0.1,0-0.1-0.1-0.2-0.2c0,0-0.1-0.1-0.2-0.2c0,0-0.1-0.2-0.1-0.2c-0.1-0.1-0.2-0.1-0.3-0.1
		c-0.2-0.1-0.4-0.3-0.6-0.5c-0.1,0.3,0.1,0.5-0.1,0.8c-0.1,0.1-0.2,0.2-0.3,0.4c-0.2,0.3-0.3,0.6-0.3,0.9c-0.1,0.3-0.2,0.6-0.3,0.9
		c-0.2,0.4-0.3,0.9-0.5,1.4c-0.1,0.2-0.1,0.4-0.2,0.6c-0.1,0.3-0.2,0.7-0.3,1c-0.1,0.3-0.1,0.7-0.2,1c-0.1,0.2-0.1,0.5-0.2,0.7
		c-0.1,0.2-0.2,0.5-0.3,0.7c-0.1,0.5-0.4,1.1-0.5,1.6c-0.1,0.6-0.2,1.2-0.2,1.8c0,0.7,0,1.5,0,2.2c0,0.2,0,0.5,0,0.7
		c0,0.3,0,0.5,0.1,0.7c0,0.3,0.1,0.6,0.2,0.9c0,0.1,0,0.3,0.1,0.4c0,0.2,0.2,0.3,0.2,0.5c0,0.2,0,0.3,0.1,0.5
		c0.1,0.2,0.1,0.3,0.2,0.5c0.1,0.2,0.2,0.3,0.2,0.5c0.1,0.1,0.1,0.3,0.2,0.4c0.1,0.2,0.3,0.5,0.4,0.8c0.1,0.1,0.1,0.1,0.2,0.2
		c0.1,0.1,0.1,0.3,0.2,0.4c0.1,0.1,0.1,0.1,0.2,0.2c0.1,0,0.1,0.1,0.1,0.2c0,0.1,0.1,0.2,0.1,0.3c0.1,0.2,0.3,0.3,0.4,0.4
		c0.1,0.1,0.1,0.2,0.2,0.3c0.2,0.2,0.3,0.3,0.5,0.5c0.3,0.3,0.6,0.7,0.9,1c0.3,0.2,0.6,0.4,0.9,0.6c0.2,0.1,0.4,0.2,0.5,0.3
		c0.1,0.1,0.2,0.1,0.4,0.1c0.2,0,0.3,0.1,0.5,0.1c0.1,0,0.2,0,0.4,0.1c0.2,0.1,0.4,0,0.7,0.1c0.2,0,0.3,0.1,0.5,0.1l0.2,0
		c0.4,0,0.7,0,1,0.2c0.3,0.2,0.5,0.4,0.7,0.7c0.5,0.6,1,1.4,1.2,2.2c0.1,0.2,0,0.4,0,0.6c0,0.2,0.1,0.3,0.2,0.5c0.1,0.4,0,0.8,0,1.2
		c0,0.8,0,1.6,0,2.4c0,0.4,0.1,0.9,0,1.3c-0.1,0.4-0.3,0.7-0.3,1.1c-0.2,0.9,0,2,0,2.9c0,1.6,0,3.2,0,4.8c0,1,0.1,2-0.2,2.9
		c-0.3,1-0.1,2.1-0.3,3.2c-0.1,0.6,0,1.7-0.8,1.8c-0.4,0-0.5-0.2-0.8-0.5c-0.2-0.2-0.4-0.7-0.6-0.6c-0.3,0.1-0.4,0.8-0.5,1.1
		c-0.1,0.3-0.1,0.6-0.1,0.9c0,0.9,0,1.9,0,2.8c0,0.7,0,1.3-0.1,1.9c-0.1,0.5-0.2,1.4-0.5,1.8c-0.2,0.2-0.4,0.3-0.5,0.6
		c-0.2,0.4-0.2,0.8-0.2,1.3c0,0.4-0.1,0.9,0,1.3c0,0.1,0.1,0.2,0.2,0.4c0.1,0.3,0.1,0.5,0.2,0.7c0.1,0.4,0.3,0.7,0.4,1.1
		c0.1,0.3,0,0.8,0,1.1c0,1.9,0,3.8,0,5.7"/>
	<path id="XMLID_444_" class="st0" d="M114.1,121.7c0-0.1,0-0.3,0-0.5c0-0.1,0.1-0.2,0.1-0.3c0-0.1,0-0.3,0.1-0.4
		c0-0.2,0.2-0.3,0.3-0.5c0.2-0.4,0.3-0.8,0.5-1.2c0.1-0.3,0.2-0.6,0.3-0.9c0.1-0.2,0.2-0.4,0.3-0.6c0.1-0.2,0.1-0.3,0.1-0.5
		c0.1-0.2,0.3-0.4,0.4-0.7c0.1-0.4,0.2-0.8,0.4-1.1c0.3-0.6,0.5-1.1,0.8-1.6c0.2-0.3,0.3-0.7,0.5-1c0.2-0.3,0.4-0.5,0.6-0.8
		c0.1-0.1,0.2-0.3,0.2-0.4c0.1-0.3,0.2-0.4,0.4-0.6c0.2-0.2,0.3-0.5,0.5-0.8c0.1-0.2,0.2-0.6,0.5-0.8c0.1-0.1,0.3-0.1,0.3-0.3
		c0.1-0.1,0.1-0.3,0.1-0.5c0.1-0.3,0.2-0.5,0.3-0.7c0.2-0.3,0.3-0.6,0.5-1c0.1-0.2,0.2-0.5,0.4-0.7c0.1-0.1,0.2-0.2,0.3-0.3
		c0.1-0.1,0.2-0.3,0.4-0.4c0.1-0.1,0.1-0.1,0.2-0.1c0.1-0.1,0.1-0.1,0.2-0.3c0-0.1,0.1-0.1,0.2-0.2c0,0,0.1-0.1,0.1-0.2
		c0.1-0.1,0.2-0.1,0.3-0.3c0.1-0.2,0.1-0.5,0.3-0.7c0.1-0.1,0.3-0.2,0.4-0.4c0-0.1,0-0.1,0-0.2c0-0.1,0.1-0.2,0.2-0.2
		c0.3-0.3,0.6-0.5,0.8-0.8c0.1-0.1,0.2-0.3,0.4-0.3c0.5-0.1,1,0.1,1.5-0.1c0.5-0.2,1-0.3,1.5-0.5c0.6-0.2,1.2-0.4,1.8-0.7
		c0.6-0.3,1.4-0.5,2-0.9c0.3-0.2,0.6-0.4,0.9-0.7c0.1-0.1,0.2-0.3,0.3-0.4c0.1-0.2,0.3-0.3,0.5-0.5c0.3-0.4,0.6-0.8,0.9-1.3
		c0.3-0.4,0.5-0.9,0.8-1.4c0.1-0.1,0.2-0.3,0.2-0.5c0.1-0.2,0.2-0.4,0.3-0.6c0.1-0.1,0.1-0.3,0.2-0.4c0.1-0.2,0.2-0.4,0.3-0.5
		c0.1-0.3,0.1-0.6,0.1-0.8c0-0.2,0.1-0.3,0.1-0.5c0-0.1,0-0.3,0-0.5c0.1-0.3,0.2-0.5,0.3-0.8c0-0.2,0-0.4,0-0.6c0-0.6,0-1.1,0-1.7
		c0-0.2-0.1-0.4-0.2-0.6c-0.1-0.3-0.2-0.6-0.3-0.8c-0.1-0.3-0.2-0.7-0.2-1.1c0-0.2-0.1-0.4-0.2-0.6c-0.1-0.4-0.1-0.8-0.2-1.2
		c0-0.2-0.1-0.5-0.2-0.7c-0.1-0.5-0.2-1.1-0.4-1.6c-0.1-0.4-0.3-0.7-0.3-1.1c-0.1-0.2,0-0.4,0-0.7c0-0.2-0.1-0.3-0.2-0.5
		c-0.1-0.2-0.2-0.4-0.2-0.6c-0.8-0.1-1.6,0.1-2.4,0.4c-0.6,0.2-1.2,0.5-1.9,0.7c-0.3,0.1-0.4,0.1-0.6,0.2c-0.2,0.1-0.3,0.1-0.5,0.1
		c-0.4,0-0.8,0.3-1.1,0.4c-0.4,0.1-0.7,0.2-1.1,0.4c-0.2,0.1-0.4,0.1-0.5,0.2c-0.2,0.1-0.2,0.2-0.4,0.3c-0.5,0.2-0.9,0.4-1.4,0.7
		c-0.2,0.1-0.4,0.2-0.6,0.3c-0.2,0.1-0.4,0.3-0.6,0.5c-0.2,0.1-0.4,0.2-0.6,0.4c-0.1,0.1-0.2,0.2-0.4,0.3c-0.1,0.1-0.2,0.1-0.3,0.2
		c-0.2,0.1-0.3,0.3-0.4,0.4c-0.2,0.2-0.5,0.2-0.8,0.3c-0.4,0.2-0.5,0.5-0.8,0.7c-0.3,0.2-0.5,0.4-0.6,0.7c-0.1,0.2-0.3,0.5-0.4,0.7
		c-0.1,0.1-0.2,0.3-0.3,0.4c-0.1,0.1-0.1,0.1-0.2,0.2c-0.2,0.2-0.2,0.3-0.2,0.5c-0.2,1-0.5,1.9-0.5,2.9c0,0.5-0.1,1,0,1.4
		c0,0.3,0.1,0.5,0.2,0.8c0.2,0.3,0.2,0.6,0.4,0.8c0.2,0.3,0.4,0.6,0.6,0.8c0.2,0.4,0.4,0.9,0.6,1.3c0.1,0.2,0.2,0.5,0.3,0.8
		c0.2,0.2,0.3,0.3,0.4,0.6c0.1,0.4-0.2,0.8-0.5,1.1c-0.2,0.1-0.2,0.2-0.4,0.4c-0.1,0.1-0.3,0.2-0.4,0.3c-0.2,0.3-0.6,0.6-0.8,0.9
		c-0.1,0.2-0.2,0.3-0.3,0.5c-0.2,0.2-0.3,0.3-0.4,0.6c-0.2,0.2-0.4,0.4-0.5,0.7c-0.1,0.2-0.3,0.4-0.4,0.7c-0.3,0.4-0.5,0.9-0.8,1.3
		c-0.2,0.3-0.3,0.6-0.4,0.9c-0.2,0.4-0.5,0.8-0.8,1.2c-0.1,0.2-0.3,0.3-0.4,0.5c-0.1,0.1-0.1,0.3-0.2,0.5c-0.2,0.2-0.3,0.5-0.4,0.7
		c-0.2,0.2-0.3,0.4-0.4,0.6c-0.1,0.3-0.3,0.5-0.4,0.8c-0.2,0.3-0.4,0.6-0.5,1c-0.2,0.4-0.2,0.8-0.4,1.2c-0.2,0.3-0.3,0.6-0.5,0.9
		c-0.2,0.3-0.3,0.6-0.5,1c-0.2,0.3-0.4,0.6-0.5,1c-0.2,0.4-0.3,0.8-0.5,1.2c-0.1,0.2-0.2,0.4-0.3,0.6c-0.1,0.2-0.3,0.4-0.3,0.6"/>
	<path id="XMLID_590_" class="st0" d="M109.2,115.9c-0.3-0.1-0.5-0.6-0.7-0.8c-0.1-0.1-0.1-0.3-0.2-0.4c-0.1-0.1-0.2-0.1-0.2-0.2
		c-0.1-0.1-0.1-0.2-0.1-0.3c-0.1-0.1-0.1-0.1-0.2-0.2c-0.1-0.1-0.1-0.2-0.2-0.3c-0.1-0.2-0.3-0.4-0.3-0.5c-0.2-0.5-0.3-1-0.6-1.5
		c-0.1-0.2-0.2-0.3-0.4-0.4c-0.2-0.2-0.3-0.5-0.6-0.7c-0.3-0.3-0.5-0.7-0.8-1.1c-0.1-0.1-0.3-0.2-0.4-0.4c-0.2-0.2-0.3-0.4-0.5-0.6
		c-0.1-0.1-0.3-0.2-0.4-0.4c-0.1-0.1-0.2-0.3-0.3-0.4c-0.1-0.2-0.3-0.2-0.5-0.4c-0.2-0.2-0.3-0.4-0.5-0.6c-0.7-0.4-1-1.2-1.5-1.8
		c-0.3-0.3-0.6-0.6-0.8-0.9c-0.1-0.2-0.2-0.3-0.4-0.4c-0.1-0.1-0.2-0.2-0.2-0.3c-0.2-0.2-0.4-0.3-0.5-0.4c-0.3-0.3-0.5-0.7-0.8-0.9
		c-0.2-0.1-0.3-0.2-0.5-0.4c-0.1-0.2-0.3-0.4-0.4-0.5c-0.2-0.3-0.4-0.3-0.7-0.5c-0.2-0.1-0.3-0.3-0.5-0.4c-0.2-0.2-0.5-0.3-0.6-0.5
		c-0.1-0.1-0.2-0.3-0.3-0.3c-0.2-0.1-0.4-0.2-0.6-0.3C94.3,99,94.1,99,94,98.9c-0.3-0.1-0.6-0.2-0.9-0.4c0-0.1,0.2-0.4,0.3-0.5
		c0.1-0.1,0.2-0.3,0.3-0.5c0.1-0.2,0-0.4,0.1-0.6c0.1-0.2,0.3-0.5,0.3-0.7c0.1-0.5,0.1-1,0.1-1.5c0-0.5,0.1-1,0.2-1.5
		c0.1-0.5,0-1,0-1.5c0-0.6-0.3-1.1-0.5-1.6c-0.1-0.4-0.2-0.7-0.5-1c-0.3-0.3-0.3-0.7-0.5-1c-0.1-0.3-0.2-0.5-0.4-0.6
		c-0.3-0.2-0.5-0.5-0.7-0.8c-0.2-0.2-0.5-0.4-0.8-0.5c-0.3-0.1-0.5-0.3-0.8-0.4c-0.2-0.1-0.3-0.2-0.5-0.3c-0.2-0.1-0.4-0.1-0.5-0.2
		c-0.2-0.1-0.2-0.2-0.4-0.2C88.5,85,88.3,85,88.1,85c-0.3,0-0.4-0.2-0.6-0.3c-0.2-0.1-0.3-0.2-0.5-0.2c-0.3-0.1-0.6-0.2-0.8-0.3
		c-0.4-0.1-0.9-0.2-1.3-0.2c-0.4-0.1-0.8-0.1-1.2-0.1c-0.5,0-0.9-0.1-1.4-0.1c-0.3,0-0.6-0.1-0.8-0.1c-0.2,0-0.4,0-0.6,0
		c-0.4,0-0.7,0-1.1,0c-0.2,0-0.3-0.1-0.5,0.1c-0.2,0.3-0.4,0.7-0.6,1.1c-0.1,0.3-0.3,0.5-0.4,0.8c-0.1,0.2-0.3,0.3-0.4,0.5
		c-0.1,0.2-0.2,0.4-0.3,0.6c-0.3,0.7-0.5,1.4-0.6,2.2c0,0.2,0,0.3,0,0.5c0,0.2-0.1,0.3-0.1,0.4c0,0.2,0,0.5,0,0.7
		c0,0.2-0.1,0.4-0.1,0.6c-0.1,1.4-0.1,2.8-0.1,4.2c0,0.7-0.1,1.6,0.2,2.2c0.1,0.3,0.3,0.5,0.4,0.8c0.1,0.1,0.1,0.3,0.1,0.4
		c0.1,0.2,0.2,0.3,0.3,0.4c0.3,0.6,0.4,1.4,0.8,1.9c0.3,0.3,0.7,0.6,1.1,0.8c0.3,0.2,0.5,0.5,0.9,0.7c0.4,0.3,0.8,0.5,1.2,0.6
		c0.5,0.2,1.1,0.1,1.6,0.1c0.5,0,1,0,1.5,0c0.2,0,0.4,0,0.6,0c0.2,0,0.3-0.1,0.5-0.1c0.6-0.1,1.1,0.2,1.6,0.5
		c0.2,0.1,0.5,0.3,0.7,0.4c0.4,0.2,0.8,0.4,1.1,0.7c0.1,0.1,0.2,0.2,0.3,0.2c0.2,0.1,0.3,0.2,0.5,0.4c0.3,0.3,0.6,0.5,0.9,0.8
		c0.2,0.2,0.3,0.4,0.5,0.5c0.3,0.2,0.4,0.4,0.6,0.6c0.2,0.2,0.4,0.3,0.5,0.5c0.2,0.2,0.4,0.3,0.6,0.5c0.5,0.4,1,0.7,1.5,1.2
		c0.8,0.7,1.6,1.4,2.3,2.2c0.2,0.2,0.3,0.3,0.4,0.5c0.2,0.2,0.4,0.4,0.6,0.5c0.3,0.3,0.5,0.6,0.7,1c0.3,0.5,0.6,1,0.9,1.5
		c0.3,0.5,0.8,0.9,1.1,1.4c0.4,0.5,0.6,1.1,1,1.6c0.3,0.4,0.4,0.8,0.6,1.1c0.2,0.3,0.3,0.5,0.5,0.8c0.1,0.2,0.2,0.5,0.4,0.7"/>
	<path id="XMLID_591_" class="st0" d="M115.5,103.9c0-0.5-0.1-1-0.2-1.5c-0.1-0.3-0.2-0.7-0.2-1c0-0.3-0.2-0.5-0.2-0.8
		c-0.1-0.3-0.1-0.6-0.1-1c0-0.5-0.1-0.9-0.2-1.4c0-0.2-0.1-0.3-0.1-0.5c0-0.2,0-0.4-0.1-0.6c-0.1-0.1-0.2-0.2-0.2-0.3
		c0-0.1-0.1-0.2-0.1-0.3c-0.1-0.2-0.1-0.5-0.2-0.7c-0.1-0.2-0.2-0.3-0.3-0.5c-0.1-0.2-0.1-0.5-0.2-0.7c-0.1-0.2-0.3-0.2-0.5-0.3
		c-0.3-0.2-0.5-0.7-0.8-0.9c-0.1-0.1-0.2-0.2-0.4-0.3c0,0-0.1-0.1-0.2-0.1c-0.1-0.1-0.1-0.2-0.2-0.3c-0.1-0.1-0.3-0.1-0.4-0.3
		c-0.1-0.1-0.2-0.2-0.3-0.3c-0.3-0.2-0.6-0.4-0.9-0.7c-0.4-0.3-0.7-0.6-1.1-0.8c-0.1-0.1-0.3-0.2-0.4-0.3c-0.3-0.2-0.5-0.4-0.8-0.5
		c-0.4-0.2-0.8-0.4-1.2-0.5c-0.5-0.2-1-0.3-1.5-0.4c-0.3-0.1-0.6-0.3-0.8-0.4c-0.3-0.1-0.6-0.1-0.9-0.2c-0.2-0.1-0.4-0.1-0.7-0.2
		c-0.3-0.1-0.5-0.2-0.8-0.3c-0.3-0.1-0.7-0.2-1-0.3c-0.3,0-0.7-0.3-0.9-0.2c-0.1,1.1,0,2.2,0,3.2c0,0.3,0.1,0.7,0.2,1.1
		c0.1,0.4,0.2,0.8,0.2,1.1c0.1,0.8,0.3,1.5,0.6,2.2c0.1,0.3,0.2,0.6,0.3,1c0.1,0.3,0.3,0.6,0.5,0.9c0.1,0.1,0.1,0.3,0.2,0.4
		c0.1,0.1,0.1,0.1,0.2,0.2c0.1,0.2,0.2,0.4,0.3,0.6c0.1,0.2,0.3,0.4,0.5,0.5c0.1,0.1,0.1,0.3,0.2,0.4c0.1,0.1,0.2,0.1,0.3,0.1
		c0.1,0.1,0.2,0.2,0.3,0.2c0.2,0.1,0.3,0.3,0.5,0.4c0.3,0.2,0.6,0.3,0.9,0.5c0.3,0.2,0.6,0.4,0.9,0.6c0.3,0.2,0.6,0.5,0.9,0.7
		c0.2,0.1,0.4,0.1,0.6,0.3c0.1,0.1,0.3,0.2,0.5,0.3c0.2,0.2,0.5,0.3,0.8,0.4c0.2,0.1,0.4,0.1,0.6,0.2c0.4,0.1,0.8,0.1,1.2,0.2
		c0.4,0.1,0.8,0.3,1.2,0.4c0.2,0,0.3,0.1,0.5,0.2c0.2,0.1,0.4,0.3,0.7,0.4c0.3,0.1,0.5,0.3,0.8,0.4
		C113.8,104.6,114.2,105,115.5,103.9z"/>
	<path id="XMLID_592_" class="st0" d="M120.7,108c0.4-0.4,0.9-0.7,1.4-0.9c0.2-0.1,0.4-0.2,0.5-0.2c0.2-0.1,0.4,0,0.6,0
		c1-0.2,2.1-0.2,3.1-0.2c0.3,0,0.5,0,0.8,0c0.3,0,0.6,0.1,0.9,0.2c0.7,0.1,1.4,0.3,2.1,0.3c0.3,0,0.5,0,0.7,0.1
		c0.3,0.1,0.5,0.2,0.7,0.3c0.3,0.1,0.5,0.1,0.7,0.1c0.4,0,0.8,0.1,1.2,0.1c0.7,0,1.4,0,2.1,0c0.3,0,0.7,0,1,0c0.3,0,0.6-0.1,0.8-0.2
		c0.2-0.1,0.4-0.1,0.6-0.3c0.3-0.2,0.6-0.1,0.9-0.2c0.6-0.3,1.2-0.4,1.8-0.7c0.1-0.1,0.3,0,0.4-0.1c0.2,0,0.3-0.1,0.4-0.2
		c0.2-0.1,0.4-0.1,0.6-0.1c0.5-0.1,0.8-0.4,1.3-0.5c0.5-0.1,0.9-0.2,1.4-0.3c0.4-0.1,0.7-0.2,1.1-0.2c0.4,0,0.7-0.1,1.1-0.2
		c0.5-0.1,1-0.2,1.4-0.4c0.3-0.1,0.6-0.3,0.9-0.3c0.3-0.1,0.6-0.2,0.8-0.2c0.3,0,0.5,0,0.8-0.1c0.5-0.3,1-0.5,1.5-1
		c0.2-0.2,0.3-0.2,0.5-0.3c0.1,0,0.5-0.1,0.5-0.3c-0.3-0.2-0.6-0.3-0.9-0.6c-0.1-0.1-0.2-0.2-0.4-0.3c-0.2-0.1-0.3-0.3-0.4-0.5
		c-0.4-0.4-0.9-0.6-1.3-0.9c-0.3-0.3-0.7-0.4-1-0.6c-0.4-0.2-0.7-0.4-1.2-0.5c-0.3-0.1-0.7-0.1-1-0.2c-0.4-0.1-0.7-0.1-1.1-0.2
		c-0.3-0.1-0.6-0.1-0.8-0.2c-0.3-0.1-0.6-0.1-0.9-0.2c-0.1,0-0.2-0.1-0.3-0.2c-0.1-0.1-0.3-0.1-0.4-0.1c-0.4-0.1-0.7-0.2-1.1-0.3
		c-0.4-0.1-0.8-0.2-1.2-0.2c-0.1,0-0.3,0-0.4,0c-0.2,0-0.4-0.1-0.5-0.1c-0.7-0.1-1.5,0-2.3,0c-0.4,0-1-0.1-1.4,0
		c-0.4,0.1-0.7,0.1-1.1,0.1c-0.3,0.1-0.5,0.1-0.8,0.1c-0.2,0-0.3,0.1-0.4,0.2c-0.1,0.1,0,0.2-0.2,0.2"/>
	<path id="XMLID_593_" class="st0" d="M136.7,88.1c0.1-0.2,0.3-0.3,0.5-0.5c0.2-0.2,0.3-0.4,0.4-0.5c0.1-0.1,0.2-0.2,0.3-0.3
		c0,0,0.1-0.2,0.1-0.3c0.1-0.2,0.4-0.2,0.5-0.3c0.1-0.1,0.2-0.2,0.4-0.3c0.1-0.1,0.3-0.2,0.5-0.4c0.1-0.1,0.1-0.1,0.2-0.2
		c0.1,0,0.1,0,0.2,0c0.1,0,0.1-0.1,0.1-0.2c0.1-0.1,0.2-0.2,0.3-0.3c0.3-0.3,0.6-0.5,0.9-0.7c0.5-0.2,0.8-0.6,1.2-0.9
		c0.3-0.2,0.5-0.3,0.8-0.5c0.2-0.1,0.3-0.3,0.5-0.4c0.2-0.1,0.4-0.3,0.7-0.4c0.4-0.2,0.8-0.5,1.2-0.5c0.7-0.1,1.3-0.4,1.9-0.7
		c0.6-0.3,1.2-0.4,1.7-0.8c0.3-0.3,0.6-0.4,0.9-0.6c0.2-0.1,0.3-0.2,0.5-0.3c0.3-0.1,0.6-0.3,0.9-0.4c0.3-0.1,0.7-0.3,1.1-0.4
		c0.5-0.1,1-0.1,1.5-0.2c0.3-0.1,0.7-0.2,1-0.3c0.3,0,0.6-0.1,0.8-0.1c0.1,0,0.3,0,0.4,0c0.2,0,0.4-0.1,0.6-0.1c0.2,0,0.4,0,0.6,0
		c0.3,0,0.6-0.1,0.9-0.1c0.4,0,0.8,0,1.2,0c1,0,2,0,2.9,0c0.4,0,0.8,0.2,1.3,0.2c0.3,0,0.7,0,1,0.1c0.2,0.1,0.4,0,0.6,0.1
		c-0.1,0.7-0.7,0.9-1,1.4c-0.1,0.2-0.3,0.5-0.4,0.7c-0.1,0.3-0.2,0.3-0.4,0.5c-0.1,0.1-0.2,0.3-0.2,0.3c-0.1,0.2-0.2,0.3-0.4,0.4
		c-0.2,0.2-0.4,0.3-0.6,0.5c-0.2,0.2-0.3,0.5-0.5,0.6c-0.2,0.2-0.5,0.3-0.8,0.5c-0.2,0.1-0.3,0.3-0.5,0.4c-0.2,0.1-0.4,0.2-0.6,0.4
		c-0.3,0.2-0.5,0.5-0.8,0.7c-0.3,0.2-0.5,0.3-0.9,0.4c-0.4,0.1-0.8,0.4-1.2,0.7c-0.5,0.3-1,0.7-1.5,1c-0.1,0.1-0.2,0.2-0.2,0.2
		c-0.1,0.1-0.2,0.1-0.3,0.2c-0.3,0.1-0.6,0.3-0.8,0.4c-0.3,0.1-0.6,0.2-0.8,0.4c-0.3,0.2-0.6,0.4-1,0.4c-0.2,0-0.4,0-0.6,0
		c-0.3,0-0.6,0.1-0.8,0.1c-0.4,0-0.8,0.1-1.2,0.1c-0.3,0-0.6,0-0.9,0c-0.4,0-0.9,0.2-1.3,0.2c-0.4,0-0.8,0.1-1.2,0.2
		c-0.2,0.1-0.4,0.1-0.6,0.1c-0.2,0.1-0.4,0.1-0.6,0.1c-0.3,0.1-0.6,0.2-0.8,0.3c-0.3,0.1-0.6,0.1-0.9,0.2c-0.2,0.1-0.5,0-0.8,0
		c-0.3,0.1-0.6,0-0.9,0c-0.6,0-1.2,0-1.8,0c-0.5,0-1.1,0-1.6-0.2c-0.2-0.1-0.3-0.3-0.5-0.4C137.6,88.6,137.4,88.7,136.7,88.1z"/>
	<path id="XMLID_594_" class="st0" d="M136.7,85.7c0-0.5,0-1,0.2-1.5c0.1-0.3,0.1-0.6,0.2-0.9c0.2-1.2,0.5-2.4,0.7-3.6
		c0.1-0.7,0.2-1.3,0.4-2c0.1-0.6,0.5-1.1,0.6-1.6c0.1-0.3,0.2-0.5,0.3-0.8c0.1-0.2,0.1-0.2,0.1-0.4c0-0.4,0.1-0.7,0.3-1
		c0.1-0.3,0.3-0.5,0.4-0.8c0.1-0.2,0.1-0.5,0.2-0.6c0.1-0.2,0.3-0.2,0.4-0.4c0.1-0.2,0.1-0.4,0.3-0.6c0.1-0.2,0.2-0.3,0.4-0.4
		c0.2-0.2,0.3-0.5,0.5-0.7c0.2-0.4,0.5-0.7,0.8-1c0.2-0.2,0.4-0.5,0.7-0.7c0.1-0.1,0.3-0.1,0.4-0.3c0.1-0.1,0.1-0.2,0.2-0.3
		c0.3-0.2,0.7-0.5,0.9-0.8c0.2-0.2,0.3-0.3,0.6-0.4c0.3-0.1,0.5-0.3,0.7-0.5c0.2-0.2,0.3-0.4,0.5-0.6c0.1-0.1,0.3-0.2,0.4-0.4
		c0.1-0.1,0.2-0.2,0.3-0.4c0.2-0.2,0.5-0.4,0.7-0.5c0.2-0.1,0.4-0.3,0.5-0.5c0.2-0.2,0.5-0.3,0.8-0.5c0.2-0.1,0.4-0.3,0.6-0.5
		c0.3-0.3,0.6-0.4,1-0.6c0.4-0.2,0.7-0.4,1.1-0.6c0.3-0.2,0.6-0.4,1-0.5c0.3-0.1,0.3,0.1,0.3,0.4c0,0.2,0,0.3,0.1,0.4
		c0.1,0.2,0.1,0.3,0.2,0.5c0.1,0.2,0.1,0.3,0.2,0.5c0.1,0.7,0.2,1.5,0.2,2.3c0,0.9,0.1,1.8,0,2.6c0,0.2-0.1,0.3-0.1,0.5
		c0,0.1,0,0.2-0.1,0.3c0,0.1-0.1,0.2-0.1,0.3c-0.1,0.5-0.2,1-0.3,1.4c-0.1,0.4-0.1,0.9-0.3,1.3c-0.1,0.3-0.3,0.6-0.4,0.9
		c-0.2,0.5-0.4,1-0.5,1.5c-0.2,0.5-0.3,1-0.5,1.4c-0.1,0.2-0.2,0.3-0.3,0.5c-0.1,0.2-0.2,0.3-0.3,0.5c-0.2,0.2-0.2,0.4-0.4,0.5
		c-0.1,0.1-0.2,0.2-0.2,0.4c-0.1,0.2-0.3,0.4-0.4,0.6c-0.1,0.2-0.3,0.4-0.5,0.6c-0.3,0.2-0.6,0.5-0.8,0.7c-0.1,0.1-0.1,0.2-0.2,0.3
		c0,0-0.1,0-0.1,0.1c0,0-0.1,0.1-0.2,0.2c-0.1,0.1-0.2,0.2-0.3,0.3c-0.1,0.1-0.3,0.1-0.4,0.2c-0.2,0.1-0.5,0.3-0.5,0.5"/>
	<path id="XMLID_595_" class="st0" d="M137.1,89.3c0.1,0,0.2,0.1,0.3,0.2c0.2,0.1,0.3,0.2,0.4,0.3c0.2,0.1,0.4,0.3,0.6,0.4
		c0.2,0.2,0.4,0.2,0.6,0.4c0.2,0.2,0.4,0.3,0.6,0.4c0.5,0.1,0.7,0.6,1.2,0.8c0.3,0.1,0.3,0,0.5,0.2c0.2,0.2,0.3,0.3,0.5,0.5
		c0.1,0.1,0.2,0.2,0.4,0.3c0.1,0.1,0.3,0.2,0.5,0.3c0.1,0.1,0.2,0.2,0.3,0.3c0.2,0.2,0.4,0.3,0.6,0.4c0.3,0.3,0.7,0.7,1.1,0.8
		c0.2,0.1,0.4,0.1,0.5,0.1c0.3,0.1,0.7,0.2,1,0.3c0.3,0.1,0.6,0.2,0.9,0.3c0.8,0.1,1.6,0.5,2.4,0.7c0.4,0.1,0.7,0.2,1.1,0.2
		c0.2,0,0.5,0,0.7,0c0.3,0,0.6,0.1,0.9,0.2c0.2,0,0.4,0.1,0.6,0.1c0.2,0,0.3,0,0.5,0c0.1,0,0.3,0.2,0.4,0.2c0.5,0.2,1,0,1.5,0.1
		c0.5,0.1,1,0.1,1.5,0.1c0.7,0,1.4,0,2.2-0.1c1.1-0.2,2.2-0.5,3.3-0.8c0.4-0.1,0.8-0.3,1.2-0.5c0.3-0.1,0.7-0.2,0.9-0.4
		c-0.1-0.2-0.3-0.2-0.4-0.3c-0.1-0.1-0.1-0.2-0.2-0.3c-0.1-0.2-0.3-0.3-0.5-0.4c-0.4-0.4-0.7-0.8-1.1-1.2c-0.2-0.1-0.2-0.3-0.4-0.5
		c-0.1-0.2-0.3-0.3-0.5-0.5c-0.2-0.2-0.4-0.4-0.6-0.6c-0.1-0.1-0.3-0.1-0.4-0.3c-0.1-0.1-0.2-0.3-0.4-0.4c-0.2-0.3-0.5-0.4-0.8-0.6
		c-0.2-0.1-0.4-0.3-0.6-0.5c-0.4-0.2-0.7-0.4-1.1-0.6c-0.4-0.2-0.7-0.4-1.1-0.6c-0.3-0.2-0.6-0.3-0.9-0.5c-0.2-0.1-0.4-0.1-0.6-0.2
		c-0.2-0.1-0.4-0.2-0.7-0.2"/>
	<path id="XMLID_596_" class="st0" d="M120.7,84.3c-0.2,0-0.3,0-0.4-0.1c-0.2-0.1-0.3-0.2-0.5-0.3c-0.1-0.1-0.2-0.2-0.3-0.3
		c-0.2-0.1-0.3-0.1-0.4-0.3c-0.1-0.1-0.1-0.2-0.3-0.3c-0.1-0.1-0.3-0.1-0.4-0.2c-0.1-0.1-0.2-0.1-0.2-0.2c0,0,0-0.1-0.1-0.2
		c-0.1-0.1-0.3-0.2-0.4-0.3c-0.2-0.2-0.6-0.4-0.8-0.6c-0.4-0.3-0.7-0.6-1.1-0.9c-0.2-0.1-0.3-0.2-0.4-0.4c-0.1-0.1-0.3-0.2-0.5-0.3
		c-0.4-0.4-0.9-0.6-1.3-1c-0.6-0.5-1.1-1.1-1.8-1.6c-0.2-0.2-0.4-0.4-0.6-0.6c-0.2-0.2-0.4-0.3-0.6-0.5c-0.2-0.2-0.5-0.5-0.8-0.7
		c-0.1-0.1-0.3-0.1-0.5-0.2c-0.2-0.2-0.3-0.4-0.4-0.6c-0.2-0.2-0.4-0.3-0.5-0.5c-0.2-0.2-0.4-0.5-0.5-0.7c-0.3-0.5-0.8-1-1.1-1.5
		c-0.2-0.3-0.3-0.7-0.5-1c-0.2-0.3-0.4-0.6-0.5-1c-0.3-0.6-0.5-1.2-0.7-1.8c-0.1-0.6-0.3-1.2-0.4-1.8c-0.1-0.7-0.2-1.4-0.2-2.1
		c0-0.4,0-0.7,0-1.1c0-0.1,0-0.3,0-0.4c0-0.2-0.1-0.4,0.2-0.5c0.3-0.1,0.7,0,1,0c0.3,0,0.6,0,1,0c0.6,0,0.9,0.2,1.4,0.4
		c0.9,0.4,1.7,0.8,2.6,1.1c0.5,0.2,1.1,0.4,1.6,0.6c0.5,0.2,1.1,0.3,1.5,0.7c0.1,0,0.1,0.1,0.2,0.2c0.1,0.1,0.2,0.1,0.3,0.1
		c0.4,0.1,0.4,0.3,0.7,0.5c0.2,0.2,0.4,0.2,0.6,0.4c0.2,0.2,0.4,0.4,0.6,0.7c0.1,0.1,0.1,0.2,0.2,0.3c0,0,0,0.1,0,0.2
		c0.1,0.2,0.3,0.2,0.4,0.4c0.1,0.2,0.2,0.3,0.3,0.5c0.1,0.1,0.3,0.3,0.4,0.5c0.1,0.1,0.1,0.2,0.2,0.4c0.1,0.2,0.2,0.3,0.3,0.4
		c0.2,0.2,0.2,0.5,0.3,0.8c0.1,0.3,0.2,0.5,0.4,0.8c0.3,0.5,0.4,1,0.6,1.4c0.1,0.2,0.2,0.3,0.2,0.5c0,0.2,0.1,0.4,0.2,0.5
		c0.1,0.1,0.1,0.1,0.1,0.3c0,0.1,0,0.3,0.1,0.4c0.1,0.3,0.1,0.5,0.2,0.8c0.1,0.2,0.2,0.3,0.2,0.5c0,0.1,0,0.1,0,0.3
		c0.2,0.5,0.5,0.9,0.7,1.4c0.2,0.4,0.4,0.7,0.6,1.1c0.1,0.2,0.1,0.5,0.1,0.8c0,0.2,0.1,0.3,0.1,0.5c0,0.2,0,0.4,0,0.6
		c0,0.5,0,1,0.1,1.5c0,0.2,0,0.3,0,0.5C121.9,83,122.1,83.2,120.7,84.3z"/>
	<path id="XMLID_621_" class="st0" d="M109.5,76.2c-0.4,0-0.7,0-1.1,0c-0.3-0.1-0.5-0.2-0.8-0.2c-0.1,0-0.3,0-0.4-0.1
		c-0.2,0-0.4-0.1-0.5-0.2c-0.1,0-0.3,0-0.4,0c-0.2,0-0.3-0.1-0.5-0.1c-0.5-0.1-1-0.1-1.4-0.1c-0.4,0-0.9,0-1.3,0.1
		c-0.2,0-0.4,0.1-0.6,0.1c-0.2,0.1-0.5,0.1-0.7,0.2c-0.2,0.1-0.5,0.1-0.7,0.2c-0.2,0.1-0.5,0.2-0.8,0.2c-0.1,0-0.4,0-0.4,0.2
		c0,0.1,0.2,0.4,0.3,0.6c0.1,0.3,0.2,0.6,0.2,0.9c0,0.3,0,0.5,0.1,0.7c0.1,0.2,0,0.5,0.1,0.7c0.1,0.4,0.2,0.7,0.3,1.1
		c0.1,0.1,0.1,0.3,0.2,0.4c0,0.2,0,0.3,0.1,0.5c0,0.1,0.1,0.3,0.2,0.4c0.1,0.1,0.1,0.1,0.2,0.1c0.1,0.1,0.1,0.2,0.1,0.2
		c0.2,0.2,0.5,0.3,0.7,0.5c0.1,0.1,0.1,0.1,0.2,0.2c0.2,0.1,0.2,0.3,0.4,0.4c0.2,0.1,0.4,0.1,0.5,0.2c0.1,0.1,0.2,0.3,0.3,0.4
		c0.2,0.2,0.5,0.3,0.7,0.5c0.1,0.1,0.3,0.3,0.4,0.4c0.1,0.1,0.2,0.2,0.4,0.3c0.1,0.1,0.2,0.1,0.4,0.2c0.6,0.3,1.2,0.5,1.8,0.6
		c0.3,0.1,0.5,0.2,0.8,0.2c0.3,0,0.5,0.1,0.8,0.1c0.2,0,0.4,0.1,0.6,0.1c0.2,0,0.4,0,0.6,0c0.4,0.1,0.8,0.1,1.2,0.1
		c0.7,0,1.4,0,2.1,0c0.3,0,0.6,0.1,0.9,0.1c0.3,0,0.7,0.1,1,0.1c0.3,0,0.7,0.2,1,0.2c0.3,0,0.5,0,0.8,0c0.2,0,0.2,0,0.4,0.1
		c0.2,0,0.3,0,0.5,0c0.1,0,0.3,0.1,0.4,0.1c0.1,0,0.3,0,0.4,0"/>
	<path id="XMLID_622_" class="st0" d="M125.1,81.4c0-0.3,0-0.6,0.1-0.9c0.1-0.2,0.1-0.4,0.2-0.6c0-0.2,0.1-0.3,0.2-0.5
		c0.1-0.2,0.1-0.5,0.2-0.7c0.1-0.1,0.1-0.2,0.2-0.4c0-0.2,0.1-0.5,0.1-0.7c0.3-1,0.2-2.1,0.2-3.1c0-0.4,0-0.9,0-1.3
		c0-0.5,0.1-1,0-1.4c0-0.3-0.1-0.7-0.3-1c-0.1-0.3-0.2-0.4-0.2-0.7c-0.2-0.7-0.3-1.5-0.7-2.2c-0.2-0.4-0.2-0.9-0.4-1.3
		c-0.3-0.4-0.4-0.8-0.7-1.3c-0.4-0.5-0.4-1.3-0.8-1.8c-0.1-0.1-0.3-0.2-0.3-0.4c0-0.1,0-0.2-0.1-0.4c-0.2-0.3-0.4-0.5-0.6-0.8
		c-0.1-0.1-0.2-0.3-0.3-0.4c0,0-0.1,0-0.1-0.1c-0.1,0-0.1-0.1-0.1-0.2c-0.1-0.1-0.1-0.1-0.1-0.1c-0.1-0.1-0.2-0.2-0.3-0.3
		c-0.1-0.1,0-0.1-0.1-0.1c-0.1-0.1-0.3-0.1-0.4-0.2c-0.5-0.4-1-0.9-1.6-1.3c-0.2-0.1-0.4-0.2-0.6-0.4c-0.1-0.1-0.2-0.2-0.3-0.2
		c-0.1,0-0.2,0-0.3,0c-0.3-0.1-0.5-0.2-0.7-0.3c-0.2-0.1-0.5-0.2-0.8-0.3c-0.3-0.1-0.6-0.3-0.9-0.4c-0.3-0.1-0.7-0.2-1-0.3
		c-0.2-0.1-0.4-0.1-0.6-0.1c-0.2-0.1-0.5-0.3-0.7-0.2c-0.1,0.3,0,0.7,0,1c0,0.4-0.1,0.7-0.2,1.1c-0.1,0.4-0.2,0.8-0.2,1.1
		c0,0.2-0.1,0.3-0.1,0.5c0,0.1,0,0.3,0,0.4c0,0.5,0,1.1,0,1.6c0,0.3,0,0.7,0,1c0,0.4,0.2,0.7,0.3,1.1c0,0,0,0,0.1,0"/>
	<path id="XMLID_623_" class="st0" d="M109.6,63.7c0-0.2-0.2-0.4-0.3-0.6c-0.1-0.2-0.2-0.5-0.3-0.7c-0.2-0.5-0.3-1.1-0.5-1.7
		c-0.2-0.6-0.2-1.3-0.2-1.9c0-0.5-0.1-1,0-1.4c0.5,0.2,1,0.1,1.4,0.3c0.3,0.1,0.6,0.3,1,0.4c0.1,0,0.3,0.1,0.4,0.2
		c0.1,0,0.2,0,0.2,0c0.1,0,0.1,0.1,0.1,0.1c0.1,0,0.2,0,0.2,0.1c0,0,0.1,0.1,0.1,0.1c0.1,0.1,0.3,0.1,0.3,0.2"/>
	<path id="XMLID_624_" class="st0" d="M135.2,78.5c0-0.4-0.1-0.7,0.1-1.1c0.2-0.4,0.2-0.8,0.2-1.3c0-0.7,0.1-1.5,0-2.1
		c-0.1-0.7-0.3-1.4-0.5-2.2c-0.1-0.5-0.3-0.9-0.3-1.4c-0.1-0.4-0.2-0.8-0.3-1.3c-0.2-0.6-0.3-1.3-0.4-1.9c-0.1-0.2-0.2-0.3-0.2-0.5
		c-0.1-0.2-0.1-0.4-0.1-0.6c0-0.4-0.1-0.7-0.2-1c-0.1-0.5-0.3-0.9-0.4-1.3c-0.1-0.3-0.1-0.7-0.2-1c-0.1-0.5-0.3-0.9-0.5-1.4
		c-0.2-0.6-0.5-1-0.8-1.5c-0.3-0.5-0.7-0.9-1.1-1.4c-0.3-0.5-0.6-0.9-0.9-1.4c-0.2-0.3-0.4-0.5-0.7-0.7c-0.3-0.3-0.6-0.7-0.9-0.9
		c-0.3-0.2-0.7-0.4-1-0.6c-0.4-0.3-0.9-0.5-1.4-0.9c-0.3-0.2-0.5-0.3-0.8-0.4c-0.2-0.1-0.3-0.2-0.6-0.3c-0.3-0.1-0.5-0.1-0.8-0.3
		c-0.1,0.2,0,0.3,0.1,0.4c0.1,0.2,0,0.6,0,0.8c0,0.3-0.1,0.5-0.2,0.8c-0.1,0.3-0.1,0.6-0.2,0.9c-0.1,0.5-0.2,0.9-0.3,1.4
		c0,0.4,0,0.9,0,1.3c0,0.4,0,0.8,0,1.3c0,0.4,0,0.8,0,1.1c0.1,0.3,0.1,0.5,0.1,0.8c0.1,0.3,0.1,0.6,0.2,0.9c0.1,0.4,0.2,0.9,0.4,1.4
		c0.1,0.2,0.2,0.5,0.2,0.7c0.1,0.3,0.1,0.6,0.3,0.9c0.1,0.2,0.2,0.5,0.3,0.7c0.1,0.2,0,0.5,0.2,0.7c0.1,0.1,0.2,0.3,0.3,0.4
		c0.1,0.2,0.2,0.4,0.3,0.6c0.1,0.2,0.3,0.4,0.4,0.5c0.2,0.2,0.3,0.4,0.4,0.6c0.1,0.1,0.2,0.2,0.4,0.3c0.1,0.1,0.1,0.2,0.2,0.3
		c0.2,0.2,0.3,0.3,0.5,0.5c0.1,0.2,0.3,0.2,0.4,0.4c0.2,0.2,0.4,0.4,0.5,0.6c0.1,0.1,0.1,0,0.2,0.2c0.1,0.2,0.2,0.3,0.4,0.4
		c0.2,0.1,0.3,0.3,0.4,0.4c0.2,0.2,0.3,0.5,0.5,0.6c0.2,0.2,0.3,0.5,0.6,0.6c0.3,0.2,0.4,0.4,0.5,0.6c0.2,0.2,0.4,0.4,0.6,0.6
		c0.2,0.1,0.4,0.3,0.5,0.4c0.1,0.1,0.1,0.2,0.2,0.3c0.1,0.1,0.3,0.2,0.4,0.3c0.1,0.1,0.1,0.2,0.2,0.2c0.1,0.1,0.2,0.2,0.3,0.3
		c0.2,0.2,0.3,0.3,0.5,0.5c0.2,0.2,0.4,0.4,0.6,0.7C134.2,77.9,134.5,78.2,135.2,78.5z"/>
	<path id="XMLID_625_" class="st0" d="M122.5,56.9c0-0.3,0-0.6,0-0.8c-0.1-0.2-0.2-0.4-0.3-0.6c-0.1-0.1-0.1-0.1-0.2-0.2
		c-0.1-0.1-0.2,0-0.3-0.2c-0.1-0.1-0.2-0.2-0.3-0.3c-0.3-0.2-0.5-0.4-0.8-0.6c-0.2-0.2-0.4-0.3-0.5-0.5c-0.1-0.2-0.3-0.4-0.5-0.6
		c-0.1,0.2,0,0.5,0,0.8c0,0.3-0.2,0.6-0.3,0.9c-0.1,0.4-0.1,0.7-0.1,1.1c0,0.1-0.1,0.3-0.1,0.4c0,0.1,0,0.3,0,0.4c0,0.5,0,1.1,0,1.6
		c0,0.1,0.1,0.2,0.1,0.3c0,0.1,0,0.3,0,0.4c0,0.1,0.1,0.2,0.1,0.2c0,0.1,0,0.2,0.1,0.3"/>
	<path id="XMLID_626_" class="st0" d="M136.9,85.1c0-1.2,0-2.3,0-3.5c0-0.4-0.1-0.8,0-1.2c0-0.2,0.1-0.3,0.1-0.5
		c0.1-0.2,0-0.4,0.1-0.7c0-0.2,0.1-0.4,0.1-0.6c0-0.2,0-0.5,0-0.7c0-0.4-0.1-0.8,0.1-1.1c0.1-0.2,0.2-0.3,0.2-0.5
		c0-0.2,0.1-0.4,0.1-0.6c0.1-0.5,0.1-1,0.2-1.5c0.1-0.3,0-0.6,0-0.9c0-0.6,0.1-1.3,0.1-1.9c0-0.7,0-1.5,0-2.2c0-1.1-0.2-2.1-0.2-3.2
		c0-0.3,0-0.6,0.1-0.9c0.1-0.3,0.2-0.7,0.4-1c0.1-0.2,0.2-0.5,0.2-0.7c0,0,0.1-0.3,0.1-0.3c0,0,0.3-0.2,0.2-0.1
		c0.2-0.1,0.3-0.3,0.4-0.5c0.1-0.1,0.2,0,0.4-0.1c0.2-0.1,0.2-0.2,0.3-0.3c0.1-0.2,0.3-0.2,0.5-0.4c0.1-0.1,0.2-0.2,0.3-0.3
		c0.1-0.1,0.1-0.4,0.3-0.5c0.1-0.1,0.2-0.2,0.3-0.2c0.1-0.1,0.2-0.1,0.3-0.2c0.1-0.1,0.1-0.2,0.2-0.2c0.2-0.1,0.3-0.5,0.5-0.6
		c0.2-0.1,0.4-0.1,0.6-0.2c0.2-0.1,0.3-0.2,0.5-0.3c0.4-0.2,0.8-0.5,1.1-0.8c0.1-0.1,0.2-0.3,0.4-0.4c0.1-0.1,0.2-0.1,0.3-0.2
		c0.2-0.2,0.3-0.3,0.4-0.5c0.1-0.3,0.3-0.5,0.4-0.8c0.1-0.2,0.2-0.5,0.3-0.7c0.1-0.1,0.2-0.3,0.3-0.4c0.1-0.3,0.3-0.3,0.4-0.6
		c0.1-0.2,0.2-0.5,0.3-0.8c0.1-0.2,0.2-0.3,0.3-0.5c0.2-0.3,0.2-0.8,0.3-1.1c0.3-1.3,0.2-2.7,0.2-4c0-0.3,0-0.6,0-0.9
		c0-0.3-0.2-0.7-0.3-1.1c-0.1-0.2-0.1-0.4-0.2-0.7c0,0-0.1-0.1-0.1-0.1c0-0.1,0-0.2,0-0.4c-0.1-1.3-1.1-2.2-1.5-3.4
		c-0.2-0.7-0.6-1.5-1-2.1c-0.1-0.1-0.2-0.1-0.2-0.2c-0.1-0.1-0.1-0.2-0.2-0.3c-0.2-0.2-0.4-0.4-0.6-0.5c-0.6-0.4-1-1.1-1.6-1.5
		c-0.5-0.4-1.1-0.9-1.7-1.2c-0.4-0.2-0.8-0.4-1.1-0.6c-0.1-0.1-0.2-0.2-0.3-0.3c-0.1,0-0.5,0.1-0.5-0.1c-0.4-0.1-1,0.4-1.4,0.6
		c-0.3,0.2-0.4,0.5-0.7,0.6c-0.3,0.1-0.5,0.3-0.8,0.5c-0.1,0.1-0.3,0.2-0.4,0.3c-0.2,0.1-0.4,0.3-0.6,0.4c-0.7,0.5-1.3,1.1-1.9,1.6
		c-0.3,0.2-0.8,0.5-1.1,0.8c-0.3,0.3-0.6,0.5-0.9,0.8c-0.7,0.6-1.3,1.3-1.8,2c-0.4,0.4-0.6,0.9-0.9,1.5c-0.3,0.6-0.6,1.3-0.9,1.9
		c-0.2,0.3-0.2,0.7-0.3,1.1c-0.1,0.5-0.1,1.1-0.1,1.6c0,0.8,0,1.5,0,2.3c0,0.2,0,0.4,0,0.5c0,0.1,0.1,0.2,0.1,0.4
		c0.1,0.2,0.1,0.4,0.2,0.6c0.1,0.2,0.2,0.4,0.3,0.6c0,0.1,0,0.3,0.1,0.5c0.1,0.1,0.1,0.2,0.2,0.3c0.1,0.3,0.2,0.5,0.4,0.8
		c0.1,0.1,0,0.1,0.1,0.3c0.1,0.1,0.2,0.1,0.3,0.2c0.1,0.1,0.1,0.3,0.2,0.4c0.1,0.1,0.2,0.2,0.3,0.3c0.2,0.2,0.3,0.5,0.4,0.8
		c0.1,0.3,0.3,0.4,0.4,0.6c0.1,0.2,0.1,0.2,0.2,0.4c0.1,0.1,0.2,0.2,0.3,0.4c0.2,0.2,0.4,0.3,0.6,0.5c0.1,0.1,0.2,0.3,0.3,0.4
		c0.1,0.1,0.2,0.1,0.3,0.1c0.2,0.1,0.3,0.3,0.4,0.4c0.2,0.1,0.4,0.3,0.6,0.4c0.2,0.1,0.5,0.2,0.7,0.3c0.3,0.1,0.7,0.3,0.9,0.5
		c0.3,0.2,0.5,0.4,0.8,0.6c0.1,0.1,0.2,0.1,0.3,0.3c0.1,0.1,0.1,0.3,0.2,0.4c0.1,0.4,0.1,0.8,0.2,1.2c0.1,0.3,0,0.5,0.1,0.8
		c0,0.2,0.1,0.4,0.2,0.6c0,0.2,0,0.5,0,0.7c0,0.4,0,0.9,0,1.3c0,2.6,0,5.1,0,7.7c0,1.2-0.1,2.5,0.1,3.6c0,0.2,0,0.5,0,0.8
		c0,0.6,0,1.2-0.1,1.7c-0.1,0.3-0.1,0.5-0.1,0.8c0,0.2-0.1,0.4-0.1,0.6"/>
	<path id="XMLID_627_" class="st0" d="M147,43.6c0.2-0.2,0.4-0.4,0.6-0.5c0.2-0.1,0.4-0.2,0.5-0.4c0.3-0.4,0.7-0.6,1-1
		c0.1-0.2,0.2-0.4,0.3-0.5c0.2-0.2,0.4-0.3,0.5-0.5c0.2-0.2,0.4-0.4,0.5-0.5c0.2-0.2,0.4-0.4,0.5-0.6c0.1-0.1,0.2-0.1,0.2-0.2
		c0.1-0.1,0.1-0.2,0.1-0.3c0.1-0.2,0.2-0.4,0.3-0.6c0.1-0.2,0.2-0.5,0.4-0.7c0.1-0.2,0.2-0.5,0.4-0.6c0.1-0.1,0.2-0.3,0.3-0.4
		c0,0,0.1-0.1,0.2-0.1c0.1-0.1,0.3-0.3,0.4-0.5c0.1-0.2,0.2-0.3,0.3-0.6c0.2-0.4,0.4-0.8,0.5-1.2c0.1-0.2,0.1-0.3,0.2-0.5
		c0.1-0.2,0.2-0.5,0.2-0.7c0.1-0.4,0.3-0.8,0.4-1.2c0.1-0.3,0.1-0.7,0.2-1c0.1-0.2,0.1-0.5,0.2-0.7c0.1-0.3,0.3-0.6,0.4-0.8
		c0.1-0.2,0.1-0.4,0.2-0.6c0.1-0.3,0.3-0.7,0.4-1c0.4-1.6,0.3-3.3,0.3-4.9c0-0.7,0-1.4,0-2.1c0-1-0.4-1.9-0.4-2.8c0-0.4,0-0.6-0.2-1
		c-0.2-0.3-0.4-0.7-0.6-1c-0.1-0.2-0.2-0.4-0.3-0.6c-0.2-0.4-0.3-0.8-0.5-1.3c-0.1-0.4-0.4-0.8-0.5-1.2c-0.1-0.3-0.1-0.6-0.2-0.9
		c-0.1-0.2-0.2-0.4-0.2-0.6c-0.1-0.3,0-0.6-0.1-0.9c-0.1-0.3-0.1-0.6-0.2-0.9c-0.1-0.3-0.2-0.6-0.2-0.9c0,0.3,0,0.3-0.2,0.5
		c-0.3,0.4-0.6,0.7-0.9,1.1c-0.3,0.3-0.5,0.5-0.7,0.9c-0.2,0.3-0.5,0.4-0.7,0.6c-0.1,0.1-0.2,0.3-0.4,0.4c-0.2,0.1-0.4,0.2-0.6,0.3
		c-0.2,0.2-0.4,0.4-0.6,0.5c-0.2,0.1-0.3,0.2-0.5,0.3c-0.3,0.2-0.6,0.5-0.9,0.8c-0.2,0.2-0.4,0.3-0.6,0.5c-0.2,0.2-0.4,0.3-0.5,0.5
		c-0.1,0.1-0.2,0.3-0.3,0.5c-0.1,0.2-0.3,0.3-0.4,0.5c-0.1,0.2-0.3,0.5-0.4,0.8c-0.2,0.3-0.4,0.6-0.6,1c-0.2,0.3-0.2,0.7-0.4,1
		c-0.2,0.3-0.3,0.7-0.3,1.1c0,0.3,0,0.9-0.1,1.2c-0.1,0.1-0.2,0.2-0.2,0.3c0,0.1,0,0.2,0,0.3c0,0.5,0,1-0.1,1.4
		c-0.2,0.5-0.4,1-0.6,1.5c-0.3,0.6-0.3,1.3-0.3,2c0,0.6-0.1,1.3,0.1,1.8c0.4,0.9,0.8,1.8,1.3,2.6c0.2,0.3,0.4,0.6,0.6,0.9
		c0.1,0.1,0.1,0.2,0.2,0.3c0.1,0.2,0.1,0.3,0.1,0.5c0.1,0.2,0.2,0.3,0.3,0.6c0.1,0.3,0.1,0.6,0.2,0.8c0.2,0.6,0.5,1.2,0.7,1.8
		c0.2,0.5,0.4,0.9,0.4,1.4c0,0.4,0,0.9,0,1.3c0,0.3,0.1,0.7-0.1,1c-0.1,0.3-0.2,0.5-0.3,0.8c0,0.1-0.1,0.2-0.1,0.3
		c-0.1,0.1-0.1,0.3-0.2,0.4c-0.2,0.2-0.3,0.2-0.3,0.5c0,0.3,0,0.7,0,1c0,0.1,0,0.3,0.1,0.4C146.4,43,146.6,43.1,147,43.6z"/>
	<path id="XMLID_628_" class="st0" d="M147.8,42.6c0.1,0,0.2,0,0.3,0c0.2,0,0.3,0.1,0.4,0.1c0.3,0.1,0.7,0.1,1,0.1
		c0.5,0.1,1,0.2,1.5,0.3c0.2,0,0.3,0.1,0.4,0.1c0.2,0,0.3,0,0.5,0c0.3,0.1,0.6,0,0.9,0.1c0.2,0,0.3,0.1,0.5,0.1c0.2,0,0.3,0,0.4,0
		c0.2,0,0.5,0.1,0.7,0.1c0.4,0.1,0.7,0.2,1.1,0.3c0.2,0.1,0.4,0.1,0.5,0.1c0.1,0.1,0.2,0.1,0.3,0.2c0.2,0.1,0.4,0.1,0.6,0.1
		c0.3,0,0.6,0.1,0.9,0.2c0.2,0.1,0.4,0.3,0.5,0.4c0.2,0.2,0.5,0.4,0.8,0.5c0.5,0.3,0.9,0.8,1.4,1.1c0.2,0.1,0.3,0.3,0.5,0.4
		c0.2,0.1,0.3,0.2,0.5,0.3c0.3,0.3,0.7,0.5,1,0.8c0.2,0.2,0.3,0.4,0.5,0.6c0.3,0.3,0.4,0.5,0.5,0.8c0.1,0.2,0.3,0.3,0.4,0.5
		c0.1,0.2,0.3,0.4,0.4,0.6c0.2,0.3,0.4,0.7,0.5,1.1c0.1,0.4,0.1,0.8,0.4,1.2c0.2,0.3,0.3,0.5,0.5,0.7c0.3,0.4,0.4,0.9,0.5,1.4
		c0.1,0.4,0.1,0.8,0.2,1.2c0.1,0.5,0.1,1,0.3,1.5c0.1,0.2,0.1,0.3,0.1,0.5c0,0.2,0.1,0.3,0.1,0.5c0,0.2,0,0.3,0.1,0.5
		c0.1,0.1,0.1,0.3,0.2,0.3c-0.6-0.1-1.1,0-1.7,0c-0.2,0-0.4-0.1-0.7-0.1c-0.4,0-0.8,0-1.1,0c-0.7,0-1.5,0-2.2,0
		c-0.3,0-0.6,0.1-0.9,0.1c-0.2,0-0.4,0-0.7,0c-0.4,0-0.7,0.1-1.1,0.1c-0.4,0-0.9,0-1.3,0c-0.4-0.1-0.7-0.2-1.1-0.4
		c-0.2-0.1-0.3-0.1-0.5-0.2c-0.1-0.1-0.3-0.3-0.4-0.4c-0.1-0.1-0.2-0.1-0.3-0.2c-0.1-0.1-0.1-0.1-0.1-0.2c-0.2-0.2-0.4-0.3-0.5-0.4
		c-0.1-0.1-0.2-0.2-0.3-0.3c-0.2-0.2-0.1-0.4-0.3-0.6c-0.6-0.5-1.1-1.1-1.5-1.8c-0.2-0.3-0.3-0.6-0.5-0.9c-0.3-0.5-0.4-1-0.6-1.5
		c-0.1-0.2-0.2-0.5-0.3-0.8c-0.1-0.3-0.2-0.5-0.3-0.7c-0.1-0.2,0-0.5-0.1-0.7c-0.2-0.4-0.5-0.8-0.7-1.3c-0.1-0.3-0.3-0.6-0.5-0.9
		c-0.2-0.3-0.2-0.6-0.4-0.9c-0.1-0.1-0.1-0.1-0.2-0.2c-0.1-0.2-0.1-0.3-0.2-0.4c-0.1-0.2-0.3-0.4-0.4-0.5c-0.2-0.2-0.5-0.4-0.7-0.7
		c-0.3-0.4-0.3-0.8-0.3-1.2c0-0.2,0-0.4,0.1-0.6C147.8,43.6,148,43.4,147.8,42.6z"/>
	<path id="XMLID_629_" class="st0" d="M132.3,39.2c0-0.4,0-0.8,0-1.1c0-0.2,0.1-0.4,0.1-0.7c0-0.2,0-0.4,0-0.6c0-0.1,0-0.2,0.1-0.4
		c0-0.1,0-0.2,0-0.4c0-0.2,0.1-0.5,0.1-0.7c0-0.1,0.1-0.2,0.1-0.3c0-0.1,0.1-0.2,0.1-0.4c0-0.1,0.1-0.2,0.1-0.4
		c0-0.1,0.1-0.2,0.1-0.3c0.2-0.5,0.3-1,0.5-1.5c0.2-0.4,0.3-0.8,0.4-1.1c0.1-0.2,0.1-0.4,0.2-0.6c0.1-0.2,0.2-0.4,0.3-0.6
		c0.1-0.3,0.3-0.6,0.4-1c0.1-0.2,0-0.4,0.1-0.6c0.1-0.1,0.1-0.2,0.2-0.4c0-0.2,0.1-0.3,0.1-0.5c0-0.5,0.1-0.9,0.1-1.4
		c0-0.5,0-1.1,0-1.6c0-0.7,0.1-1.4-0.1-2c-0.1-0.3-0.3-0.6-0.3-0.9c0-0.2-0.1-0.5-0.1-0.7c0-0.1,0-0.1,0-0.2c0-0.1-0.1-0.1-0.1-0.2
		c-0.1-0.1,0-0.3-0.1-0.5c-0.1-0.3-0.2-0.5-0.2-0.7c-0.1-0.3-0.1-0.7-0.3-1c0-0.1-0.1-0.2-0.1-0.3c0-0.2-0.1-0.3-0.2-0.4
		c-0.1-0.2-0.1-0.3-0.1-0.5c0-0.1-0.1-0.2-0.2-0.4c-0.1-0.2-0.2-0.5-0.4-0.7c-0.1-0.3-0.3-0.5-0.4-0.8c-0.1-0.2-0.1-0.3-0.2-0.4
		c-0.1-0.2-0.2-0.3-0.3-0.5c-0.3-0.4-0.5-0.8-0.8-1.1c-0.2-0.2-0.4-0.3-0.6-0.5c-0.1-0.1-0.1-0.2-0.2-0.2c-0.1-0.1-0.2-0.1-0.2-0.2
		c-0.1-0.2-0.2-0.3-0.4-0.4c-0.2-0.2-0.4-0.5-0.6-0.7c-0.2-0.2-0.4-0.4-0.5-0.7c-0.1-0.1,0-0.2,0-0.3c0,0.4-0.3,0.5-0.5,0.8
		c-0.1,0.3-0.3,0.6-0.5,0.9c-0.1,0.1-0.1,0.2-0.2,0.2c-0.1,0.1-0.1,0.1-0.2,0.2c-0.2,0.2-0.4,0.4-0.6,0.6c-0.3,0.4-0.7,0.8-1.1,1.1
		c-0.2,0.2-0.3,0.4-0.5,0.6c-0.2,0.2-0.5,0.4-0.6,0.6c-0.2,0.3-0.4,0.6-0.6,0.9c-0.2,0.2-0.3,0.5-0.5,0.8c-0.2,0.2-0.4,0.4-0.5,0.6
		c-0.2,0.3-0.3,0.5-0.4,0.8c-0.1,0.1-0.1,0.3-0.2,0.4c-0.1,0.1-0.2,0.2-0.3,0.4c-0.1,0.1-0.1,0.2-0.1,0.3c0,0.2-0.2,0.5-0.2,0.7
		c-0.1,0.3-0.2,0.7-0.3,1c-0.1,0.3-0.2,0.6-0.2,0.9c0,0.4,0,0.7-0.1,1c-0.1,0.3,0,0.6,0,0.9c0,0.6,0,1.2,0,1.8c0,0.3,0,0.6,0,0.9
		c0,0.4,0,0.8,0,1.2c0,0.2,0.1,0.3,0.1,0.5c0,0.2,0,0.3,0,0.5c0.1,0.4,0.3,0.8,0.4,1.2c0.1,0.3,0.2,0.7,0.4,1
		c0.1,0.1,0.1,0.2,0.2,0.3c0,0.1,0.1,0.2,0.1,0.3c0.1,0.2,0.1,0.4,0.2,0.6c0.1,0.1,0.2,0.2,0.2,0.3c0.1,0.2,0.1,0.3,0.2,0.5
		c0.1,0.3,0.4,0.4,0.5,0.7c0.1,0.2,0.2,0.4,0.4,0.6c0.1,0.2,0.2,0.3,0.3,0.5c0.1,0.2,0.3,0.3,0.4,0.4c0.1,0.1,0.1,0.3,0.2,0.4
		c0.1,0.1,0.1,0.2,0.2,0.3c0.1,0.1,0.2,0.2,0.2,0.3c0.1,0.1,0.2,0.2,0.4,0.3c0.2,0.1,0.3,0.4,0.4,0.5c0.3,0.3,0.7,0.5,0.9,0.9
		c0.3,0.4,0.8,0.7,1.2,1.1c0.2,0.1,0.3,0.3,0.4,0.5c0.3,0.2,0.5,0.4,0.7,0.6c0.1,0.2,0.3,0.4,0.5,0.6c0.1,0.1,0.2,0.2,0.3,0.4
		c0.1,0.1,0.2,0.2,0.3,0.2"/>
	<path id="XMLID_630_" class="st0" d="M128.8,42.3c-0.3,0-0.6-0.1-0.9,0c-0.1,0-0.3,0.1-0.4,0.1c-0.2,0.1-0.3,0.2-0.5,0.2
		c-0.3,0.2-0.7,0.4-0.9,0.6c-0.1,0.1-0.3,0.2-0.4,0.3c-0.2,0.2-0.3,0.4-0.5,0.6c-0.1,0.2-0.3,0.3-0.4,0.5c0,0.1,0,0.1-0.1,0.2
		c-0.1,0.1-0.2,0.2-0.2,0.3c-0.1,0.2-0.2,0.3-0.3,0.5c-0.1,0.1-0.2,0.2-0.4,0.4c-0.1,0.1-0.2,0.3-0.3,0.5c-0.1,0.2-0.2,0.3-0.4,0.5
		c-0.2,0.2-0.3,0.5-0.4,0.7c-0.1,0.1-0.2,0.2-0.3,0.2c-0.1,0.1-0.2,0.2-0.3,0.3c-0.2,0.2-0.4,0.4-0.6,0.5c-0.1,0.1-0.2,0.1-0.3,0.2
		c-0.1,0.1-0.1,0.2-0.2,0.3c-0.3,0.2-0.6,0.5-0.9,0.7c-0.2,0.1-0.3,0.2-0.5,0.3c-0.1,0.1-0.3,0.2-0.4,0.3c-0.1,0-0.2,0.1-0.2,0.1
		c-0.3,0.2-0.6,0.4-1,0.6c-0.4,0.2-0.8,0.3-1.2,0.4c-0.4,0.1-0.9,0.3-1.3,0.3c-0.3,0-0.5,0.1-0.8,0.1c-0.3,0-0.6,0.1-0.9,0.1
		c-0.5,0-1,0.1-1.4,0.2c-0.1,0-0.2,0-0.3,0c-0.1,0-0.2,0.1-0.3,0.1c-0.2,0-0.4,0-0.6,0c-0.2,0-0.4,0.1-0.6,0.1c-0.1,0-0.3,0-0.4,0
		c-0.1,0-0.2,0.1-0.3,0.1c-0.2,0-0.4,0-0.5,0c-0.2,0-0.4,0.1-0.7,0.1c-0.4,0-0.9,0-1.3,0c-0.7,0-1.4,0-2.1,0c-0.2,0-0.4,0.1-0.4-0.2
		c0-0.2,0.2-0.3,0.3-0.5c0.1-0.1,0.2-0.3,0.3-0.5c0-0.1,0-0.2,0-0.3c0-0.1,0-0.1,0.1-0.2c0.1-0.4,0.3-0.8,0.4-1.1
		c0.1-0.3,0.2-0.5,0.3-0.8c0-0.2,0.1-0.4,0.2-0.6c0.1-0.2,0.1-0.5,0.2-0.7c0.3-0.7,0.3-1.5,0.7-2.2c0.2-0.4,0.4-0.8,0.6-1.1
		c0.2-0.4,0.6-0.7,0.8-1.2c0.2-0.4,0.4-0.8,0.8-1.1c0.2-0.2,0.4-0.4,0.6-0.6c0.1-0.2,0.3-0.3,0.4-0.5c0.1-0.2,0.3-0.3,0.5-0.5
		c0.2-0.2,0.4-0.4,0.5-0.7c0.2-0.3,0.5-0.4,0.8-0.6c0.2-0.2,0.5-0.3,0.7-0.4c0.2-0.1,0.3-0.1,0.5-0.2c0.1-0.1,0.2-0.2,0.4-0.2
		c0.1-0.1,0.3-0.1,0.4-0.2c0.2-0.1,0.3-0.2,0.5-0.3c0.3-0.2,0.8-0.2,1.1-0.4c0.2-0.1,0.4-0.4,0.7-0.5c0.1,0,0.2,0,0.3-0.1
		c0.2-0.1,0.3-0.2,0.5-0.2c0.4-0.1,0.8-0.1,1.2-0.1c0.3-0.1,0.6-0.1,1-0.1c1,0,2,0,3,0.2c0.3,0.1,0.7,0.2,1,0.3
		c0.2,0.1,0.4,0.2,0.6,0.3c0.2,0.1,0.4,0.2,0.6,0.3c0.4,0.2,0.8,0.2,1.1,0.5c0.1,0.1,0.2,0.2,0.4,0.2c0.2,0,0.3,0,0.5,0.1
		c0.5,0.2,1,0.3,1.4,0.6c0.1,0,0.1,0.1,0.2,0.1c0.1,0,0.2,0,0.2,0.1c0.1,0.1,0.2,0.2,0.4,0.2c0.1,0.1,0.2,0.1,0.3,0.2
		c0.2,0.1,0.4,0.2,0.5,0.3c0.1,0.1,0.1,0.2,0.2,0.3c0.1,0.1,0.2,0.2,0.3,0.2c0,0,0,0,0,0.1"/>
	<path id="XMLID_631_" class="st0" d="M92.4,87c0.2-0.2,0.3-0.4,0.5-0.6c0.2-0.1,0.3-0.3,0.5-0.4c0.1-0.1,0.2-0.2,0.3-0.3
		c0.1-0.1,0.2-0.2,0.3-0.3c0.2-0.2,0.4-0.4,0.7-0.6c0.1-0.1,0.2-0.3,0.3-0.4c0.2-0.2,0.4-0.5,0.6-0.8c0.1-0.1,0.1-0.1,0.2-0.2
		c0,0,0-0.1,0.1-0.1c0,0,0.1,0,0.1-0.1c0.1-0.1,0.1-0.1,0.2-0.2c0.1-0.2,0.3-0.3,0.4-0.5c0.1-0.1,0.2-0.2,0.3-0.4
		c0.2-0.3,0.5-0.6,0.7-1c0.1-0.1,0.1-0.2,0.2-0.3c0.1-0.1,0.2-0.3,0.2-0.4c0,0,0,0,0.1,0c0.3-0.2,0.6-0.7,0.7-1
		c0.2-0.3,0.5-0.6,0.5-1c0-0.2,0.1-0.3,0.2-0.5c0.1-0.1,0.1-0.2,0.1-0.4c0.1-0.3,0.3-0.6,0.3-1c0-0.2,0-0.4,0.1-0.5
		c0-0.1,0.1-0.2,0.1-0.3c0.1-0.3,0.2-0.6,0.3-0.9c0.1-0.3,0.2-0.7,0.3-1.1c0-0.2,0.1-0.4,0.1-0.5c0-0.2,0-0.4,0-0.6
		c0-0.2,0.1-0.3,0.1-0.4c0.1-0.1,0.1-0.3,0.1-0.4c0.1-0.5,0.4-1,0.4-1.6c0.1-0.3,0.1-0.7,0.1-1c0-0.5,0-0.9,0-1.4c0-0.2,0-0.4,0-0.6
		c0-0.3-0.2-0.6-0.2-0.8c0-0.1,0-0.2,0-0.3c0-0.1-0.1-0.2-0.1-0.3c-0.1-0.2-0.2-0.4-0.2-0.7c-0.1-0.4-0.3-0.9-0.5-1.3
		c-0.2-0.3-0.2-0.7-0.4-1.1c-0.2-0.4-0.3-0.8-0.5-1.2c-0.3-0.5-0.5-1-0.9-1.5c-0.1-0.2-0.3-0.4-0.4-0.6c-0.1-0.1-0.2-0.3-0.3-0.3
		c0,0.2-0.1,0.2-0.2,0.3c-0.1,0.1-0.2,0.2-0.3,0.3c-0.1,0.1-0.2,0.2-0.3,0.3c-0.1,0.1-0.1,0.1-0.2,0.2c-0.1,0.1-0.2,0.2-0.3,0.3
		c-0.1,0.1-0.3,0.2-0.4,0.3c-0.1,0.1-0.2,0.2-0.3,0.3c-0.1,0.1-0.2,0.1-0.2,0.2c-0.3,0.3-0.6,0.6-0.9,1c-0.2,0.2-0.3,0.4-0.5,0.5
		C94.1,62.9,94,63,94,63.1c-0.2,0.2-0.3,0.4-0.4,0.6c-0.1,0.2-0.2,0.3-0.3,0.4c-0.1,0.1-0.1,0.2-0.2,0.4c0,0.1-0.1,0.1-0.2,0.2
		c-0.1,0.1-0.1,0.3-0.2,0.4c-0.1,0.2-0.2,0.3-0.3,0.5c-0.1,0.3-0.3,0.5-0.4,0.8c-0.1,0.5-0.4,1-0.6,1.4c-0.1,0.2-0.1,0.3-0.1,0.5
		c0,0.3-0.3,0.5-0.4,0.8c-0.1,0.2-0.2,0.4-0.3,0.6c-0.1,0.3-0.2,0.6-0.2,0.8c0,0.2,0,0.4-0.1,0.6c0,0.1-0.1,0.2-0.2,0.3
		c-0.1,0.3-0.1,0.7-0.2,1.1c0,0.3-0.1,0.6-0.1,0.9c0,0.2,0.1,0.2,0.1,0.4c0,0.2,0,0.3,0.1,0.5c0.1,0.4,0.3,0.7,0.4,1.1
		c0.1,0.4,0.3,0.8,0.4,1.2c0.1,0.5,0.2,1,0.2,1.5c0,0.3,0,0.5,0,0.8c0,0.2,0.1,0.4,0.1,0.7c0,0.6,0.2,1.2,0.2,1.7
		c0,0.6,0.1,1.3,0,1.8c-0.1,0.3-0.2,0.5-0.2,0.8c-0.1,0.2-0.2,0.4-0.3,0.6c-0.1,0.2-0.2,0.4-0.3,0.7c-0.1,0.2-0.1,0.4-0.3,0.5"/>
	<path id="XMLID_632_" class="st0" d="M90.2,70.6c-0.2-0.3-0.4-0.5-0.6-0.8c-0.1-0.2-0.2-0.3-0.3-0.5c-0.1-0.2-0.3-0.5-0.5-0.7
		c-0.1-0.1-0.1-0.1-0.2-0.2c0-0.1-0.1-0.2-0.1-0.3c-0.1,0-0.1,0-0.2-0.1c0,0-0.1-0.1-0.1-0.1c-0.1-0.1-0.2-0.2-0.2-0.3
		c-0.1-0.2-0.3-0.3-0.4-0.5c-0.2-0.2-0.4-0.4-0.6-0.6c-0.2-0.2-0.3-0.4-0.5-0.5c-0.2-0.2-0.5-0.3-0.7-0.4c-0.2-0.2-0.5-0.3-0.7-0.4
		c-0.3-0.2-0.6-0.3-0.9-0.5c-0.2-0.1-0.5-0.3-0.7-0.4c-0.2-0.1-0.5-0.3-0.8-0.4c-0.3-0.1-0.6-0.2-1-0.2c-0.4-0.1-0.7-0.3-1-0.4
		c-0.2,0.3,0,0.7-0.1,1.1c0,0.2-0.1,0.3-0.1,0.5c-0.1,0.4-0.1,0.9-0.1,1.4c0,0.3-0.1,0.5-0.1,0.8c0,0.3,0,0.5,0,0.8
		c0,0.6,0,1.2,0,1.8c0,0.4,0.1,0.8,0.1,1.2c0,0.1,0.1,0.3,0.1,0.4c0,0.2,0.1,0.5,0.1,0.7c0,0.1,0.1,0.2,0.1,0.4c0,0.1,0,0.3,0.1,0.4
		c0.1,0.3,0.2,0.5,0.2,0.8c0,0.2,0.1,0.3,0.2,0.5c0.1,0.2,0.1,0.4,0.2,0.6c0.1,0.3,0.2,0.6,0.3,1c0.1,0.2,0.2,0.4,0.3,0.7
		c0.1,0.3,0.2,0.5,0.4,0.8c0,0.1,0.1,0.2,0.2,0.3c0,0.1,0,0.2,0.1,0.3c0.1,0.1,0.1,0.1,0.2,0.2c0,0.1,0.1,0.2,0.1,0.3
		c0.1,0.3,0.3,0.5,0.5,0.7c0.1,0.2,0.3,0.4,0.4,0.6c0.1,0.2,0.3,0.4,0.5,0.6c0.1,0.1,0.1,0.3,0.2,0.3c0,0,0.1,0.1,0.2,0.1
		c0.1,0.1,0,0.2,0.1,0.3c0.1,0.2,0.2,0.3,0.3,0.4c0.2,0.2,0.3,0.4,0.4,0.6c0.1,0.1,0.2,0.2,0.3,0.3c0.1,0.1,0,0.1,0.1,0.2
		c0.1,0.1,0.3,0.2,0.4,0.3c0.1,0.1,0.2,0.4,0.3,0.5c0.1,0.1,0.1,0.1,0.2,0.1c0.1,0.1,0.1,0.3,0.3,0.4c0.1,0.1,0.3,0.2,0.5,0.3
		c0.2,0.1,0.3,0.3,0.5,0.4c0.1,0.1,0.3,0.2,0.5,0.3c0.2,0.1,0.4,0.3,0.6,0.5c0.1,0.1,0.2,0.1,0.3,0.2c0.1,0.1,0.2,0.1,0.3,0.2
		c0.2,0.1,0.3,0.1,0.4,0.3"/>
	<path id="XMLID_633_" class="st0" d="M76.5,97.5c0,0.3-0.1,0.6-0.2,1c-0.1,0.2-0.2,0.5-0.3,0.7c-0.1,0.2-0.2,0.3-0.3,0.5
		c-0.2,0.2-0.3,0.5-0.5,0.8c-0.2,0.2-0.3,0.4-0.4,0.6c-0.1,0.2-0.3,0.3-0.4,0.5c-0.3,0.4-0.7,0.8-1.1,1.1c-0.2,0.1-0.5,0.3-0.7,0.4
		c-0.3,0.3-0.6,0.4-1,0.6c-1,0.4-1.8,1-2.9,1.2c-0.2,0.1-0.5,0.1-0.7,0.2c-0.3,0.1-0.5,0.1-0.8,0.2c-0.2,0.1-0.5,0.1-0.7,0.1
		c-0.1,0-0.2,0-0.3,0c-0.1,0-0.2,0.1-0.3,0.1c-0.4,0.1-0.8,0.2-1.2,0.3c-0.3,0.1-0.5,0.2-0.7,0.3c-0.2,0.1-0.5,0.1-0.7,0.2
		c-0.3,0.1-0.6,0.1-1,0.2c-0.1,0-0.2,0-0.3,0c0,0-0.1,0-0.2,0c-0.1,0-0.2,0.1-0.3,0.2c-0.1,0-0.2,0-0.3,0c-0.1,0-0.2,0-0.3,0.1
		c-0.1,0-0.3,0-0.4,0c-0.5,0.1-1,0.2-1.4,0.2c-0.8,0.1-1.5,0.4-2.3,0.5c-0.6,0.1-1.2,0.1-1.8,0.1c0.1,0,0.3-0.1,0.4-0.2
		c0.1-0.1,0.1-0.2,0.1-0.3c0.1-0.1,0.2-0.3,0.3-0.4c0.2-0.2,0.3-0.4,0.4-0.6c0.2-0.3,0.5-0.5,0.6-0.8c0.1-0.2,0.3-0.3,0.4-0.5
		c0.1-0.1,0.2-0.3,0.3-0.5c0.2-0.4,0.5-0.7,0.7-1.1c0.3-0.3,0.5-0.7,0.8-1c0.2-0.2,0.3-0.4,0.4-0.5c0.1-0.2,0.2-0.3,0.4-0.5
		c0.2-0.3,0.5-0.6,0.7-0.9c0.3-0.3,0.6-0.7,1-0.9c0.3-0.2,0.5-0.3,0.7-0.6c0.2-0.2,0.3-0.3,0.5-0.5c0.1,0,0.1,0,0.2-0.1
		c0.1,0,0.1-0.1,0.2-0.2c0.1-0.1,0.3-0.1,0.5-0.2c0.1,0,0.1-0.1,0.2-0.1c0.1,0,0.1,0,0.2-0.1c0.1-0.1,0.2-0.2,0.3-0.2c0,0,0,0,0-0.1
		"/>
	<path id="XMLID_634_" class="st0" d="M76.5,93.3c-0.3,0-0.2,0.1-0.3,0.2c-0.1,0-0.1,0.1-0.2,0.1c-0.1,0.1-0.2,0.2-0.3,0.3
		c-0.2,0.2-0.4,0.2-0.6,0.4c-0.1,0.1-0.2,0.1-0.3,0.2c-0.1,0.1-0.2,0.1-0.3,0.2c-0.3,0.1-0.6,0.2-0.8,0.4c-0.1,0.1-0.2,0.1-0.3,0.2
		c-0.2,0.1-0.3,0.1-0.5,0.2c-0.6,0.3-1.2,0.5-1.8,0.7c-0.1,0-0.3,0.1-0.4,0.1c-0.1,0-0.3,0.1-0.4,0.2c-0.3,0.1-0.6,0.1-0.9,0.2
		c-0.2,0-0.4,0.1-0.6,0.1c-0.1,0-0.3,0-0.4,0c-0.1,0-0.2,0.1-0.3,0.1c-0.3,0-0.5,0.1-0.8,0.1c-0.3,0-0.5,0.1-0.8,0.1
		c-0.1,0-0.2,0-0.3,0c-0.1,0-0.2,0.1-0.3,0.1c-0.3,0-0.5,0-0.8,0.1c-0.2,0-0.4,0.1-0.6,0.1c-0.1,0-0.2,0-0.3,0.1c-0.1,0-0.2,0-0.3,0
		c-0.1,0-0.2,0.1-0.3,0.1c-0.1,0-0.2,0-0.3,0c-0.3,0-0.5,0-0.8,0.1c-0.2,0-0.4,0-0.6,0c-0.2,0-0.5,0.1-0.7,0.1c-0.4,0-0.9,0-1.3,0
		c-0.5,0-1,0-1.5,0c-0.5,0-1-0.1-1.5-0.2c-0.4-0.1-0.7-0.2-1.1-0.3c-0.2,0-0.4-0.1-0.6-0.1C54.5,97,54,97,53.6,96.9
		c-0.1,0-0.2,0-0.4,0c-0.1,0-0.3-0.1-0.4-0.1c-0.3-0.1-0.5-0.2-0.7-0.3c-0.1,0-0.1-0.1-0.2-0.1c0-0.1,0-0.1-0.1-0.2
		c-0.1,0-0.3-0.1-0.3-0.1c-0.1,0-0.2-0.1-0.2-0.1c-0.1,0-0.1-0.1-0.2-0.1c-0.2-0.1-0.3-0.1-0.5-0.2c-0.1,0-0.2-0.1-0.3-0.1
		c-0.2-0.1-0.3-0.1-0.5-0.1c-0.3-0.1-0.5-0.2-0.8-0.2c-0.2,0-0.4-0.3-0.7-0.2c-0.1-0.2,0.7-0.8,0.9-0.9c0.1-0.1,0.3-0.1,0.4-0.2
		c0.1,0,0.1-0.1,0.2-0.2c0.1-0.1,0.4-0.3,0.5-0.3c0.1,0,0.1,0,0.2,0c0.1,0,0.2-0.2,0.3-0.3c0.2-0.1,0.4-0.3,0.6-0.4
		c0.2-0.1,0.4-0.3,0.6-0.5c0.2-0.2,0.5-0.3,0.7-0.4c0.3-0.2,0.6-0.4,0.9-0.5c0.2-0.1,0.3-0.1,0.4-0.2c0.1-0.1,0.2-0.1,0.3-0.2
		c0.3-0.1,0.5-0.1,0.7-0.3c0.2-0.1,0.5-0.3,0.7-0.4c0.5-0.3,0.9-0.4,1.4-0.7c0.2-0.1,0.4-0.3,0.6-0.4c0.1-0.1,0.2-0.1,0.4-0.1
		c0.3,0,0.4-0.2,0.6-0.4c0.2-0.1,0.5-0.1,0.7-0.2c0.3-0.1,0.6-0.2,0.9-0.3c0.7-0.2,1.4-0.2,2.1-0.3c0.6-0.1,1.2-0.1,1.7-0.1
		c0.7,0,1.4-0.1,2.1,0.2c0.8,0.3,1.7,0.6,2.4,1c0.1,0.1,0.2,0.2,0.3,0.2c0,0,0.1,0,0.2,0c0.2,0.1,0.4,0.2,0.6,0.3
		c0.2,0.1,0.4,0.2,0.6,0.3c0.1,0.1,0.3,0.1,0.4,0.1c0.5,0.1,0.9,0.2,1.4,0.3c0.5,0.1,1,0.2,1.5,0.3c0.3,0.1,0.6,0.1,0.9,0.1
		c0.2,0,0.3,0,0.5,0c0.2,0,0.3,0.1,0.5,0.1c0.2,0,0.3,0,0.4,0.1"/>
	<path id="XMLID_635_" class="st0" d="M76.7,88.8c-0.2,0-0.4-0.2-0.6-0.3c-0.1,0-0.2-0.1-0.3-0.1c0,0-0.1,0-0.2,0
		c-0.1,0-0.2-0.1-0.3-0.2c-0.2-0.1-0.3-0.2-0.4-0.4c-0.1-0.1-0.2-0.2-0.3-0.3c-0.1-0.1-0.2-0.2-0.3-0.3c-0.2-0.1-0.3-0.3-0.5-0.4
		c-0.2-0.2-0.4-0.5-0.6-0.8c-0.1-0.2-0.2-0.3-0.3-0.5c-0.1-0.3-0.3-0.6-0.4-0.9c-0.1-0.2-0.2-0.5-0.3-0.8c-0.1-0.3-0.1-0.5-0.2-0.8
		c0-0.2-0.1-0.3-0.2-0.5c-0.1-0.2-0.1-0.5-0.3-0.7c-0.1-0.2-0.4-0.5-0.5-0.7c-0.1-0.3-0.2-0.6-0.3-0.9c-0.2-0.5-0.4-1-0.6-1.4
		c-0.1-0.3-0.2-0.6-0.3-0.9c-0.2-0.3-0.4-0.5-0.5-0.8c-0.3-0.5-0.6-1-1-1.4c-0.1-0.2-0.3-0.3-0.4-0.5c0,0,0-0.1-0.1-0.1
		c-0.1,0-0.1-0.1-0.2-0.1c-0.1-0.1-0.1-0.2-0.2-0.3c-0.1-0.1-0.3-0.2-0.4-0.3c-0.2-0.1-0.4-0.3-0.6-0.4c-0.3-0.2-0.5-0.3-0.8-0.4
		c-0.4-0.2-0.9-0.2-1.3-0.4c-0.3-0.1-0.6-0.2-0.9-0.3c-0.1-0.1-0.3-0.1-0.5-0.1c-0.2,0-0.4-0.1-0.6-0.1c-0.2-0.1-0.5-0.1-0.7-0.2
		c-0.4-0.1-0.8-0.1-1.3-0.2c-0.2,0-0.4-0.1-0.5-0.1c-0.2-0.1-0.4-0.1-0.6-0.2c-0.5-0.1-1-0.1-1.4-0.1c-0.2,0-0.3,0-0.4-0.1
		c-0.1,0-0.2-0.2-0.3-0.2c0,0.1,0.2,0.3,0.2,0.4c0,0.1,0,0.3,0,0.4c0,0.2,0,0.4,0,0.6c0,0.8-0.1,1.6,0.1,2.3c0,0.2,0,0.4,0.1,0.6
		c0.1,0.2,0.1,0.4,0.1,0.6c0,0.4,0.3,0.8,0.4,1.2c0.2,0.6,0.4,1.3,0.7,1.9c0.1,0.3,0.3,0.7,0.5,1c0.1,0.2,0.1,0.5,0.2,0.8
		c0.1,0.3,0.3,0.5,0.4,0.8c0.1,0.2,0.2,0.3,0.2,0.5c0.1,0.2,0.2,0.3,0.3,0.5c0.1,0.3,0.2,0.6,0.4,0.8c0.1,0.1,0.2,0.2,0.3,0.3
		c0.1,0.1,0.2,0.3,0.3,0.4c0.1,0.1,0.2,0.1,0.2,0.2c0.1,0.1,0.2,0.1,0.3,0.3c0.2,0.2,0.4,0.4,0.6,0.5c0.1,0.1,0.2,0.2,0.3,0.2
		c0.1,0.1,0.2,0.1,0.3,0.2c0.3,0.3,0.8,0.5,1.1,0.8c0.1,0.1,0.2,0.1,0.3,0.2c0.1,0.1,0.1,0.2,0.2,0.2c0.1,0.1,0.1,0.1,0.2,0.2
		c0.1,0.1,0.1,0.1,0.2,0.2c0,0,0,0,0,0.1"/>
	<path id="XMLID_636_" class="st0" d="M78.9,84.2c-0.2-0.2-0.4-0.5-0.5-0.8c-0.1-0.2-0.2-0.5-0.3-0.7c-0.1-0.2-0.1-0.3-0.2-0.5
		c-0.1-0.1-0.1-0.2-0.1-0.4c0-0.2-0.1-0.4-0.2-0.7c0-0.1,0-0.2,0-0.3c0-0.1-0.1-0.2-0.1-0.3c-0.1-0.2-0.1-0.4-0.2-0.6
		C77.1,79.6,77,79.3,77,79c0-0.1,0-0.3-0.1-0.4c0-0.2-0.1-0.3-0.2-0.5c-0.1-0.2-0.1-0.5-0.2-0.7c-0.4-0.8-0.7-1.7-0.9-2.6
		c-0.1-0.4-0.2-0.7-0.3-1.1c-0.2-0.4-0.2-0.9-0.4-1.4c-0.1-0.2-0.1-0.5-0.2-0.8c0-0.2,0-0.5-0.1-0.7c0-0.1-0.1-0.3-0.2-0.4
		c0-0.2-0.1-0.3-0.1-0.5c-0.1-0.2,0-0.3-0.1-0.5c0-0.2-0.1-0.3-0.1-0.5c0-0.3,0-0.5,0-0.8c0-0.6,0-1.2,0-1.7c0-0.3-0.1-0.9,0.1-1.1
		c0-0.1,0.1-0.1,0.1-0.1c0-0.1,0-0.2,0.2-0.3c0.2-0.1,0.2-0.1,0.2-0.3c0-0.1,0.1-0.2,0.2-0.3c0.4-0.4,0.9-0.6,1.3-1
		c0.1-0.1,0.3-0.2,0.5-0.3c0.1-0.1,0.2-0.1,0.3-0.2c0.1-0.1,0.1-0.2,0.2-0.3c0.1-0.1,0.3-0.2,0.5-0.3c0.1-0.1,0.2-0.2,0.3-0.2
		c0.2-0.2,0.3-0.2,0.4-0.5c0.1-0.2,0.3-0.4,0.4-0.5c0.1-0.1,0.1-0.2,0.2-0.3c0.1-0.1,0.2-0.1,0.2-0.3c0.1-0.2,0.3-0.5,0.4-0.7
		c0-0.1,0-0.3,0.1-0.4c0-0.1,0.1-0.1,0.1-0.2c0-0.1,0-0.1,0-0.2c0-0.2,0.1-0.3,0.2-0.5c0-0.2,0.1-0.3,0.1-0.5c0-0.2,0-0.3,0-0.5
		c0-0.2,0.1-0.5,0.1-0.7c0-0.3,0.1-0.6,0.1-0.8c0-0.1,0-0.3,0-0.4c0-0.1,0.1-0.2,0.1-0.4c0-0.5-0.2-1-0.2-1.4c0-0.2-0.1-0.5-0.1-0.7
		c0-0.2-0.1-0.3-0.1-0.4c0-0.3,0-0.5-0.1-0.7c-0.1-0.3-0.1-0.5-0.2-0.8c-0.1-0.2-0.1-0.5-0.2-0.7c-0.1-0.2-0.2-0.4-0.2-0.7
		c-0.1-0.2-0.2-0.4-0.2-0.6c0-0.2-0.1-0.4-0.2-0.6c-0.1-0.3-0.1-0.5-0.2-0.8c0-0.1-0.1-0.2-0.1-0.3c-0.1-0.2-0.3-0.3-0.4-0.5
		c-0.2-0.3-0.4-0.6-0.6-0.9c-0.1-0.2-0.2-0.6-0.4-0.8c-0.1-0.1-0.2-0.2-0.3-0.3c0-0.1-0.1-0.1-0.1-0.2c-0.1-0.1-0.2-0.2-0.3-0.3
		c-0.1-0.1-0.2-0.3-0.3-0.5c-0.1-0.2-0.4-0.4-0.6-0.5c-0.1-0.1-0.2-0.1-0.4-0.2c-0.2-0.1-0.4-0.2-0.6-0.3c-0.1-0.1-0.1-0.1-0.2-0.2
		c-0.1-0.1-0.1-0.1-0.2-0.1c-0.1-0.1-0.2-0.2-0.3-0.3c-0.2-0.2-0.4-0.3-0.6-0.5c-0.2-0.2-0.4-0.2-0.5-0.4c-0.1-0.1-0.3-0.1-0.4-0.2
		c-0.2-0.1-0.4-0.2-0.6-0.3c-0.2-0.1-0.3-0.1-0.5-0.2c-0.1-0.1-0.2-0.2-0.4-0.3c-0.2-0.2-0.4-0.3-0.6-0.1c-0.1,0-0.1,0.1-0.1,0.2
		c-0.1,0.1-0.3,0.2-0.4,0.3c0,0.1-0.1,0.1-0.1,0.2c-0.1,0.1-0.2,0.1-0.3,0.1c-0.1,0.1-0.1,0.2-0.2,0.2c-0.1,0.1-0.2,0.1-0.2,0.1
		c-0.3,0.2-0.5,0.5-0.8,0.7c-0.1,0.1-0.2,0.2-0.4,0.3c-0.1,0.1-0.3,0.2-0.5,0.3c-0.1,0.1-0.3,0.2-0.4,0.3c-0.1,0.1-0.2,0.2-0.3,0.3
		c-0.1,0.1-0.3,0.1-0.4,0.2c0,0-0.1,0.1-0.1,0.2c-0.1,0.1-0.2,0.2-0.4,0.3c-0.2,0.1-0.3,0.3-0.5,0.5c-0.2,0.2-0.3,0.3-0.5,0.4
		c-0.1,0.1-0.3,0.3-0.4,0.4c-0.2,0.2-0.5,0.4-0.7,0.7c-0.1,0.2-0.2,0.4-0.3,0.5c-0.2,0.2-0.3,0.4-0.5,0.7c-0.2,0.3-0.3,0.6-0.5,0.9
		c-0.1,0.2-0.3,0.4-0.4,0.7c-0.1,0.2-0.2,0.5-0.2,0.7c-0.1,0.3-0.1,0.6-0.2,0.9c-0.2,0.5-0.2,1-0.3,1.5c-0.1,0.5,0,1.1-0.1,1.6
		c-0.2,0.6-0.2,1.1-0.3,1.7c-0.1,0.2-0.1,0.5,0,0.7c0,0.4,0,0.8,0,1.1c0,0.2,0,0.5,0.1,0.7c0,0.1,0.1,0.2,0.1,0.3
		c0.1,0.3,0.1,0.5,0.3,0.8c0.4,0.8,0.4,1.8,0.9,2.7c0.1,0.2,0.3,0.4,0.4,0.6c0.1,0.2,0.1,0.3,0.2,0.5c0.1,0.2,0.2,0.3,0.3,0.5
		c0.2,0.3,0.5,0.5,0.8,0.8c0.2,0.2,0.5,0.4,0.8,0.6c1,0.8,2.1,1.2,3.3,1.4c1.1,0.2,2.1,0.1,3.2,0.2c0.2,0,0.5-0.1,0.6,0.1
		c0.1,0.2,0,0.6,0.1,0.8c0.1,0.5,0.2,1,0.2,1.6c0,0.3,0.1,0.6,0.2,1c0,0.4,0.1,0.8,0.1,1.2c0,0.3,0.1,0.7,0.2,1
		c0,0.2,0.1,0.3,0.1,0.4c0.1,0.3,0.2,0.5,0.2,0.8c0.1,0.5,0.2,1,0.4,1.5c0.1,0.2,0.1,0.4,0.2,0.6c0,0.1,0,0.3,0.1,0.4
		c0,0.1,0,0.1,0,0.1c0.2,0.7,0.4,1.5,0.5,2.3c0.1,0.5,0.1,0.9,0.2,1.4c0,0.3,0.1,0.5,0.2,0.7c0.1,0.3,0.1,0.6,0.2,0.9
		c0.1,0.3,0.2,0.7,0.3,1c0.1,0.2,0.2,0.4,0.2,0.6c0.1,0.2,0.2,0.4,0.3,0.7c0.1,0.3,0.2,0.5,0.3,0.8c0.1,0.3,0.2,0.6,0.4,0.8
		c0.1,0.3,0.2,0.5,0.3,0.8c0.1,0.3,0.3,0.7,0.4,1c0.1,0.2,0.2,0.3,0.3,0.4c0.1,0.1,0.2,0.3,0.3,0.4"/>
	<path id="XMLID_637_" class="st0" d="M68.1,41.5c0-0.7,0-1.5,0-2.2c0-0.2-0.1-0.4-0.2-0.6c-0.1-0.2-0.1-0.3-0.2-0.5
		c-0.1-0.3-0.3-0.7-0.4-1c-0.1-0.2-0.2-0.4-0.2-0.6c0-0.2,0-0.3-0.1-0.4c-0.1-0.2-0.2-0.4-0.3-0.6c-0.1-0.1-0.1-0.2-0.1-0.3
		c-0.1-0.2-0.2-0.3-0.2-0.4c-0.2-0.5-0.3-1-0.5-1.5c-0.2-0.4-0.3-0.7-0.4-1.1c-0.1-0.2-0.1-0.5-0.2-0.7c-0.2-0.3-0.3-0.6-0.4-0.9
		c-0.1-0.2-0.2-0.3-0.2-0.5c-0.1-0.2-0.2-0.5-0.2-0.7c-0.2-0.6-0.6-1.2-0.7-1.9c-0.2-1-0.2-2-0.2-3c0-0.4,0-0.9,0.1-1.3
		c0.1-0.3,0.1-0.6,0.2-0.9c0-0.2,0.1-0.4,0.2-0.6c0.1-0.2,0.2-0.3,0.2-0.5c0.1-0.2,0.1-0.4,0.2-0.6c0.1-0.2,0.1-0.4,0.2-0.6
		c0.1-0.4,0.3-0.8,0.3-1.3c0.1-0.6,0.3-1.2,0.5-1.7c0-0.1,0.1-0.2,0.1-0.3c0.1-0.2,0.2-0.5,0.3-0.7c0.1-0.2,0.1-0.3,0.2-0.5
		c0.1-0.3,0.3-0.6,0.4-0.9c0.2-0.4,0.5-0.8,0.7-1.1c0.1-0.2,0.2-0.3,0.3-0.5c0.1-0.2,0.3-0.4,0.4-0.6c0.1-0.2,0.2-0.4,0.3-0.5
		c0.1-0.2,0.3-0.4,0.4-0.5c0.1-0.1,0.2-0.2,0.3-0.3c0.1-0.1,0.1-0.2,0.1-0.3c0-0.1,0.1-0.1,0.1-0.1c0.1-0.1,0.2-0.5,0.4-0.6
		c0.1,0.3,0.4,0.5,0.5,0.7c0.1,0.3,0.2,0.4,0.3,0.6c0.2,0.3,0.3,0.6,0.4,0.9c0.1,0.1,0.1,0.2,0.2,0.3c0.1,0.1,0.2,0.3,0.3,0.4
		c0.1,0.1,0,0.2,0.1,0.3c0.1,0.1,0.2,0.1,0.2,0.2c0.1,0.1,0.1,0.3,0.2,0.4c0.1,0.2,0.2,0.3,0.3,0.5c0.2,0.2,0.4,0.5,0.6,0.7
		c0.2,0.2,0.2,0.4,0.3,0.6c0.1,0.2,0.2,0.3,0.3,0.5c0.1,0.3,0.1,0.7,0.3,1c0.2,0.3,0.2,0.8,0.2,1.1c0.1,0.3,0.2,0.6,0.2,0.9
		c0,0.2,0.1,0.4,0.1,0.7c0.1,0.5,0.2,1,0.3,1.6c0,0.4,0.2,0.8,0.3,1.2c0,0.3,0,0.6,0,0.9c0,0.2,0.1,0.4,0.1,0.6c0,0.3,0,0.5,0.1,0.8
		c0.1,0.5,0,1.1,0,1.6c0,0.3,0,0.6,0,0.9c0,0.3-0.1,0.7-0.1,1c0,0.6,0,1.3-0.1,1.9c0,0.3,0,0.7,0,1c0,0.1,0,0.2-0.1,0.4
		c0,0.3,0,0.6,0,0.9c-0.1,0.5-0.1,1.1-0.2,1.6c0,0.3-0.2,0.6-0.2,0.9c0,0.2,0,0.5-0.1,0.7c0,0.7-0.2,1.3-0.3,2
		c-0.1,0.4-0.2,0.8-0.2,1.2c0,0.3,0,0.5,0,0.8c0,0.1,0,0.2,0,0.3c0,0.2,0,0.3-0.1,0.4c0,0.2,0,0.3,0,0.5c0,0.2,0,0.3-0.1,0.5
		c0,0.1,0,0.1-0.1,0.2c0,0.1,0,0.2-0.2,0.2"/>
	<path id="XMLID_638_" class="st0" d="M75.7,43.5c0.3-0.1,0.5-0.3,0.8-0.5c0.2-0.1,0.3-0.1,0.4-0.3c0.1-0.2,0.2-0.3,0.4-0.4
		c0.2-0.1,0.2-0.3,0.4-0.4c0.1,0,0.1,0,0.2-0.1c0,0,0.1-0.1,0.1-0.1c0.2-0.2,0.4-0.3,0.6-0.5c0.2-0.1,0.4-0.4,0.6-0.5
		c0.1-0.1,0.3-0.3,0.4-0.4c0.2-0.2,0.2-0.5,0.4-0.7c0.2-0.2,0.4-0.5,0.6-0.8c0.2-0.3,0.4-0.6,0.6-1c0.1-0.1,0.1-0.2,0.2-0.3
		c0.1-0.1,0.1-0.1,0.2-0.2c0.1,0,0.1-0.1,0.1-0.2c0.1-0.3,0.3-0.7,0.4-1c0.1-0.2,0.3-0.3,0.4-0.5c0.1-0.2,0.2-0.4,0.3-0.6
		c0.1-0.2,0.2-0.4,0.3-0.6c0-0.1,0.1-0.1,0.1-0.2c0.1-0.1,0.1-0.3,0.2-0.5c0.1-0.3,0.1-0.5,0.2-0.8c0.1-0.1,0.1-0.2,0.2-0.3
		c0-0.1,0-0.2,0.1-0.3c0.1-0.2,0.2-0.4,0.3-0.6c0.1-0.3,0.2-0.6,0.4-0.9c0.1-0.3,0.2-0.6,0.4-0.8c0.1-0.2,0.2-0.4,0.3-0.6
		c0.1-0.2,0.1-0.5,0.2-0.7c0.1-0.2,0.2-0.3,0.2-0.5c0.1-0.4,0.1-0.7,0.2-1.1c0.1-0.4,0.2-0.8,0.3-1.2c0.1-0.4,0.2-0.8,0.3-1.2
		c0-0.2,0-0.3,0.1-0.5c0.1-0.2,0.1-0.3,0.1-0.4c0-0.3,0-0.4,0.1-0.7c0.1-0.4,0.2-0.7,0.2-1.1c0-0.3,0.1-0.6,0.1-0.9c0-0.3,0-0.6,0-1
		c0-0.2,0-0.4,0-0.5c0-0.3,0.1-0.5,0.1-0.8c0-0.3,0-0.6,0.1-0.9c0-0.3,0-0.7,0.1-1c0.1-0.3,0.1-0.7,0.2-1c0-0.1,0-0.2,0-0.3
		c0-0.2,0.1-0.5,0.1-0.7c0-0.3,0-0.6,0.1-0.8c0-0.1,0.2-0.4,0.1-0.5c-0.4,0.3-0.7,0.6-1,0.9c-0.2,0.2-0.5,0.3-0.7,0.5
		c-0.1,0.1-0.2,0.1-0.2,0.2c-0.1,0.1-0.3,0.2-0.4,0.2c-0.1,0.1-0.1,0.1-0.2,0.2c-0.1,0.1-0.2,0.1-0.3,0.2c-0.2,0.1-0.4,0.3-0.6,0.5
		c-0.6,0.5-1.4,0.8-2,1.3c-0.2,0.1-0.3,0.3-0.5,0.4c-0.2,0.1-0.3,0.3-0.5,0.3c-0.2,0.1-0.3,0.3-0.5,0.4c-0.2,0.2-0.4,0.4-0.6,0.5
		c-0.2,0.2-0.5,0.3-0.6,0.6c-0.2,0.3-0.4,0.6-0.6,0.8c-0.3,0.3-0.4,0.7-0.8,1c-0.2,0.2-0.4,0.5-0.5,0.8c-0.1,0.1-0.2,0.3-0.3,0.4
		C77,23,77,23.1,76.9,23.4c-0.1,0.3-0.3,0.7-0.5,1c-0.2,0.3-0.3,0.6-0.4,1c0,0.1-0.1,0.2-0.1,0.3c-0.1,0.2-0.1,0.3-0.1,0.5
		c-0.2,0.5-0.3,1.1-0.5,1.6c-0.1,0.2-0.1,0.4-0.2,0.5c-0.1,0.2-0.2,0.4-0.2,0.6"/>
	<path id="XMLID_639_" class="st0" d="M77.7,46.3c0.4,0,0.7,0,1.1,0c0.2,0,0.3,0,0.5,0c0.1,0,0.2,0,0.3,0c0.1,0,0.2-0.1,0.3-0.1
		c0.1,0,0.3,0,0.4,0c0.1,0,0.3,0,0.4-0.1c0.2,0,0.4-0.1,0.7-0.2c0.4-0.1,0.8-0.3,1.2-0.4c0.2-0.1,0.4-0.2,0.6-0.2
		c0.1,0,0.3-0.1,0.4-0.2c0.2-0.1,0.3-0.2,0.5-0.3c0.1-0.1,0.2-0.1,0.4-0.1c0.2,0,0.3-0.2,0.5-0.3c0.2-0.1,0.5-0.2,0.7-0.3
		c0.4-0.1,0.6-0.4,0.9-0.6c0.2-0.2,0.5-0.4,0.7-0.6c0.2-0.2,0.5-0.4,0.7-0.6c0.1-0.1,0.2-0.3,0.3-0.4c0.3-0.2,0.6-0.3,0.9-0.4
		c0.2-0.1,0.4-0.3,0.6-0.5c0.2-0.2,0.5-0.4,0.6-0.6c0.1-0.2,0.4-0.3,0.5-0.5c0.2-0.2,0.4-0.5,0.6-0.7c0.1-0.1,0.3-0.2,0.4-0.4
		c0.1-0.1,0.2-0.3,0.3-0.4c0.2-0.2,0.5-0.4,0.6-0.6c0.1-0.1,0.1-0.2,0.2-0.3c0.1-0.1,0.2-0.2,0.3-0.3c0.2-0.1,0.3-0.2,0.4-0.4
		c0.2-0.2,0.3-0.3,0.5-0.5c0.1-0.1,0.2-0.1,0.3-0.2c0.1-0.1,0.2-0.2,0.3-0.3c0.1-0.1,0.2-0.1,0.3-0.2c0.1-0.1,0.2-0.2,0.3-0.4
		c0.2-0.3,0.4-0.5,0.5-0.8c0.1-0.2,0.2-0.3,0.3-0.4c0.1-0.2,0.2-0.3,0.2-0.5c0.1-0.3,0.4-0.5,0.6-0.8c0.2-0.3,0.3-0.7,0.5-1
		c0.2-0.3,0.4-0.5,0.5-0.9c0.1-0.4,0.4-0.8,0.6-1.2c0.1-0.2,0.1-0.3,0.2-0.5c0.1-0.2,0.2-0.3,0.2-0.4c0.1-0.2,0.2-0.3,0.2-0.4
		c0.1-0.2,0.1-0.3,0.3-0.4c0.1-0.1,0.1-0.2,0.2-0.4c0.1-0.2,0.2-0.3,0.3-0.5c0.1-0.2,0.1-0.4,0.3-0.6c0.1-0.2,0.3-0.4,0.4-0.6
		c0.2-0.3,0.3-0.5,0.5-0.8c0.1-0.2,0.1-0.3,0.3-0.4c-0.2-0.1-0.5,0-0.7,0c-0.2,0-0.5,0-0.7,0c-0.2,0-0.5,0-0.7,0.1
		C99.2,24.9,99,25,98.7,25c-0.4,0-0.7,0.2-1,0.3c-0.4,0.1-0.9,0.3-1.3,0.4c-0.3,0.1-0.7,0.2-1,0.3c-0.3,0.1-0.5,0.1-0.8,0.2
		c-0.6,0.1-1.2,0.4-1.7,0.6c-0.3,0.1-0.6,0.3-0.9,0.4c-0.3,0.1-0.6,0.2-0.9,0.3c-0.2,0.1-0.3,0.2-0.5,0.3c-0.1,0-0.2,0.1-0.4,0.1
		c-0.3,0.1-0.6,0.3-0.9,0.5c-0.5,0.2-0.9,0.5-1.3,0.7c-0.3,0.2-0.7,0.3-1,0.5c-0.3,0.2-0.6,0.3-0.9,0.5c-0.2,0.1-0.4,0.3-0.6,0.4
		c-0.2,0.1-0.2,0.2-0.4,0.4c-0.1,0.1-0.3,0.1-0.4,0.2c0,0-0.1,0.1-0.1,0.1c-0.1,0.1-0.2,0.1-0.2,0.1"/>
	<path id="XMLID_640_" class="st0" d="M79.3,50.6c0.3,0,0.5,0.1,0.8,0.2c0.3,0.1,0.6,0.2,1,0.3c0.3,0.1,0.6,0.1,0.9,0.2
		c0.2,0,0.3,0,0.5,0.1c0.2,0,0.4,0,0.6,0c0.1,0,0.3,0.1,0.4,0.1c0.1,0,0.3,0,0.4,0c0.2,0,0.4,0,0.6,0c0.5,0,1,0,1.5,0
		c0.2,0,0.4,0,0.6-0.1c0.1,0,0.2-0.1,0.3-0.1c0,0,0.1,0,0.2,0c0.1,0,0.2-0.1,0.3-0.2c0.1,0,0.2,0,0.3,0c0.2,0,0.4-0.1,0.5-0.1
		c0.2-0.1,0.2-0.1,0.5-0.1c0.4,0,1-0.2,1.4-0.3c0.3-0.1,0.5-0.3,0.9-0.4c0.2-0.1,0.3-0.1,0.5-0.2c0.1,0,0.2-0.1,0.3-0.2
		c0.1-0.1,0.3,0,0.4-0.1c0.2,0,0.3-0.1,0.5-0.2c0.3-0.2,0.7-0.3,1-0.4c0.3-0.2,0.7-0.4,1-0.5c0.4-0.1,0.7-0.4,1.1-0.6
		c0.2-0.1,0.3-0.3,0.6-0.5c0.3-0.2,0.6-0.3,0.8-0.5c0.1-0.1,0.1-0.2,0.2-0.2c0.1-0.1,0.3-0.2,0.4-0.3c0.2-0.1,0.3-0.3,0.4-0.4
		c0.1-0.1,0.3-0.2,0.4-0.3c0.2-0.2,0.4-0.3,0.7-0.5c0.2-0.2,0.5-0.4,0.7-0.6c0.3-0.3,0.6-0.5,0.9-0.8c0.2-0.1,0.3-0.3,0.5-0.5
		c0.2-0.2,0.4-0.3,0.6-0.5c0.2-0.3,0.5-0.5,0.8-0.8c0.2-0.3,0.5-0.5,0.7-0.7c0.1-0.1,0.2-0.2,0.3-0.3c0.1-0.1,0.3-0.2,0.4-0.3
		c0.1-0.1,0.1-0.2,0.2-0.2c0.1-0.1,0.2-0.1,0.3-0.2c0.1-0.1,0.3-0.2,0.4-0.3c0.2-0.1,0.4-0.3,0.6-0.4c-0.1,0-0.2,0-0.3-0.1
		c-0.1,0-0.2,0-0.3,0c-0.2,0-0.3-0.1-0.5-0.1c-0.1,0-0.3,0-0.4,0c-0.1,0-0.2-0.1-0.4-0.1c-0.2-0.1-0.5-0.1-0.7-0.2
		c-0.5-0.1-1.1-0.1-1.6-0.3c-0.3-0.1-0.5-0.1-0.8-0.2c-0.2-0.1-0.4-0.1-0.6-0.1c-0.2,0-0.4-0.1-0.7-0.1c-0.3,0-0.6-0.1-0.9-0.1
		c-0.4,0-0.9,0-1.4-0.1c-0.4-0.1-0.7-0.1-1.1-0.1c-0.5,0-1,0-1.5,0c-0.4,0-0.9-0.1-1.2,0.1c-0.3,0.1-0.6,0.3-0.9,0.3"/>
	<path id="XMLID_641_" class="st0" d="M80.1,56.1c0.2,0.2,0.3,0.3,0.5,0.5c0.2,0.2,0.4,0.4,0.6,0.6c0.1,0.1,0.2,0.2,0.4,0.3
		c0.1,0.1,0.1,0.1,0.2,0.1c0.1,0,0.1,0.1,0.2,0.2c0.2,0.1,0.3,0.2,0.5,0.3c0.2,0.1,0.4,0.2,0.5,0.3c0.1,0.1,0.3,0.2,0.4,0.3
		c0.2,0.1,0.4,0.2,0.5,0.2c0.5,0.2,1,0.4,1.5,0.6c0.2,0.1,0.5,0.2,0.7,0.3c0.2,0.1,0.4,0.1,0.5,0.2c0.2,0.1,0.5,0,0.7,0.1
		c0.1,0,0.2,0.1,0.3,0.1c0.1,0,0.2,0,0.3,0c0.4,0.1,0.8,0.1,1.2,0.1c0.4,0,0.8,0,1.1,0.1c0.2,0,0.4,0.1,0.6,0.1c0.1,0,0.3,0,0.4,0
		c0.5,0,0.9,0,1.4,0c0.3,0,0.5,0,0.8,0c0.3-0.1,0.7-0.2,1-0.2c0.4-0.1,0.8-0.2,1.3-0.3c0.3-0.1,0.5-0.1,0.8-0.2
		c0.3-0.1,0.6-0.3,0.9-0.4c0.3-0.1,0.6-0.2,0.9-0.3c0.3-0.1,0.5-0.3,0.8-0.4c0.4-0.1,0.9-0.4,1.2-0.6c0.1-0.1,0.2-0.2,0.3-0.2
		c0.1-0.1,0.3-0.1,0.4-0.2c0.3-0.1,0.5-0.3,0.8-0.4c0.2-0.1,0.3-0.2,0.5-0.2c0.1-0.1,0.3-0.1,0.4-0.1c0.1-0.1,0.2-0.2,0.4-0.3
		c0.2-0.2,0.5-0.2,0.7-0.4c0.4-0.3,0.8-0.5,1.3-0.8c0.1,0,0.2-0.1,0.2-0.1c0.1-0.1,0.1-0.2,0.3-0.2c-0.2-0.1-0.3-0.2-0.5-0.3
		c-0.1-0.1-0.2-0.1-0.3-0.1c-0.2-0.1-0.4-0.2-0.5-0.3c-0.3-0.3-0.7-0.5-1-0.8c-0.2-0.2-0.4-0.4-0.6-0.5c-0.1-0.1-0.2-0.1-0.4-0.2
		c-0.1-0.1-0.2-0.2-0.3-0.3c-0.2-0.1-0.4-0.2-0.6-0.3c-0.1-0.1-0.2-0.1-0.3-0.2c-0.3-0.2-0.7-0.4-1.1-0.5c-0.2-0.1-0.4-0.2-0.6-0.3
		c-0.2-0.1-0.3-0.2-0.5-0.2c-0.3-0.1-0.5-0.2-0.8-0.4c-0.2-0.2-0.5-0.2-0.7-0.3C97.5,50.1,97.3,50,97,50c-0.2-0.1-0.5-0.1-0.7-0.2
		c-0.3-0.1-0.6-0.1-0.9-0.2c-0.3-0.1-0.6-0.2-0.9-0.3c-0.1,0-0.2,0-0.3-0.1c-0.1,0-0.2,0-0.3-0.1c-0.2-0.1-0.3-0.1-0.5-0.1"/>
	<path id="XMLID_642_" class="st0" d="M65.6,43.7c-0.1-0.6-0.5-1-0.9-1.5c-0.1-0.2-0.2-0.3-0.4-0.4c-0.1,0-0.2,0-0.2-0.1
		c-0.1-0.1-0.2-0.2-0.3-0.3c-0.3-0.2-0.6-0.4-0.9-0.6c-0.2-0.1-0.3-0.3-0.5-0.4c-0.2-0.1-0.3-0.2-0.5-0.3c-0.4-0.3-0.8-0.7-1.2-1
		c-0.2-0.1-0.4-0.3-0.6-0.4c-0.2-0.1-0.4-0.2-0.6-0.3c-0.2-0.2-0.4-0.4-0.6-0.5c-0.2-0.1-0.4-0.3-0.6-0.5c-0.1-0.2-0.2-0.4-0.4-0.5
		c-0.2-0.1-0.4-0.1-0.6-0.3c-0.3-0.2-0.6-0.4-0.8-0.7c-0.1-0.1-0.1-0.3-0.2-0.4c-0.1-0.1-0.2-0.1-0.2-0.2c-0.2-0.1-0.2-0.3-0.4-0.5
		c-0.1-0.2-0.3-0.3-0.5-0.5c-0.2-0.3-0.4-0.6-0.5-0.9c-0.2-0.4-0.4-0.8-0.6-1.2c-0.1-0.2-0.1-0.5-0.2-0.7c0-0.1-0.1-0.2-0.2-0.3
		c-0.1-0.2-0.1-0.4-0.2-0.5c0-0.2-0.1-0.4-0.1-0.6c0-0.1-0.1-0.2-0.2-0.3c0-0.1,0-0.2,0-0.3c0-0.2,0-0.4,0-0.6
		c-0.1-0.5-0.1-1-0.1-1.6c0-0.3-0.1-0.6-0.1-1c0-0.3,0-0.5-0.1-0.8c0-0.3-0.1-0.6-0.1-0.8c0-0.1,0-0.3,0-0.4c0-0.2,0-0.3-0.1-0.5
		c0-0.1,0-0.2,0-0.4c0-0.1-0.1-0.2-0.1-0.4c0-0.2-0.1-0.4-0.1-0.7c0-0.2-0.1-0.4-0.1-0.6c0-0.1,0-0.3,0-0.4c0-0.2-0.1-0.3-0.1-0.5
		c0-0.1,0-0.2-0.1-0.3c0-0.1-0.2-0.3-0.1-0.4c0.2,0,0.5,0.2,0.7,0.3c0.2,0.1,0.4,0.1,0.7,0.2c0.2,0,0.4,0.1,0.6,0.2
		c0.4,0.1,0.8,0.2,1.2,0.3c0.3,0.1,0.7,0.2,1,0.3c0.2,0,0.3,0.2,0.5,0.2c0.2,0,0.4,0.1,0.6,0.2c0.4,0.1,0.8,0.2,1.2,0.4
		c0.1,0.1,0.2,0.1,0.3,0.2c0.1,0.1,0.3,0.1,0.4,0.2c0.2,0.1,0.3,0.2,0.5,0.4c0.1,0.1,0.2,0.2,0.3,0.2c0.1,0.1,0.3,0.2,0.4,0.3
		c0.2,0.1,0.3,0.1,0.5,0.3c0.2,0.1,0.3,0.3,0.5,0.4c0.4,0.3,0.7,0.7,1,1c0.1,0.1,0.2,0.1,0.3,0.2c0,0,0.1,0.1,0.1,0.1
		c0.1,0.1,0.2,0.2,0.3,0.3c0.2,0.2,0.4,0.4,0.6,0.6"/>
	<path id="XMLID_643_" class="st0" d="M55.7,35.2c-0.5,0.1-0.9-0.5-1.3-0.7c-0.4-0.2-0.7-0.3-1.1-0.5c-0.6-0.2-1.4-0.4-2-0.4
		c-0.3,0-0.6-0.1-0.8-0.1c-0.3,0-0.5,0-0.8,0c-1.4,0-2.9,0-4.3,0c-0.3,0-0.5,0-0.8,0.1c-0.1,0-0.2,0-0.3,0c-0.1,0-0.2,0.1-0.3,0.1
		c-0.3,0-0.6,0.1-0.9,0.1c-0.2,0-0.3,0-0.5,0c-0.2,0-0.3,0.1-0.4,0.1c-0.5,0-1.1,0-1.6,0c-0.4,0-0.9,0.1-1.2-0.1
		c0,0.2,0.2,0.4,0.3,0.5c0.1,0.1,0.1,0.2,0.2,0.4c0,0.1,0.1,0.1,0.2,0.2c0.2,0.3,0.3,0.6,0.5,0.8c0.1,0.1,0.2,0.3,0.3,0.4
		c0.1,0.1,0.2,0.2,0.3,0.4c0.3,0.4,0.6,0.8,0.9,1.1c0.1,0.1,0.2,0.2,0.3,0.3c0.1,0.1,0.3,0.2,0.5,0.4c0.1,0.2,0.3,0.3,0.4,0.5
		c0.1,0.2,0.3,0.3,0.5,0.5c0.1,0.2,0.3,0.3,0.4,0.5c0.1,0.1,0.2,0.2,0.3,0.3c0,0.1,0,0.1,0.1,0.2c0,0,0,0,0.1,0.1
		c0.2,0.3,0.4,0.5,0.7,0.7c0.2,0.1,0.3,0.4,0.5,0.5c0.2,0.1,0.3,0.3,0.5,0.4c0.2,0.2,0.4,0.3,0.7,0.5c0.3,0.2,0.5,0.4,0.7,0.6
		c0.2,0.1,0.4,0.2,0.7,0.3c0.2,0.1,0.4,0.3,0.6,0.4c0.2,0.1,0.4,0.2,0.6,0.3c0.4,0.2,0.8,0.3,1.1,0.5c0.2,0.1,0.3,0.3,0.4,0.3
		c0.2,0.1,0.4,0.2,0.7,0.4c0.4,0.2,0.7,0.4,1.1,0.6c0.3,0.2,0.6,0.3,0.9,0.4c0.2,0.1,0.4,0.3,0.6,0.4c0.3,0.1,0.5,0.1,0.8,0.2
		c0.2,0.1,0.3,0.1,0.5,0.2c0.1,0,0.3,0,0.4,0c0.3,0.1,0.7,0.2,1,0.2c1.1,0.2,2.2,0.4,3.3,0.6c0.3,0.1,0.6,0.1,0.9,0.2
		c0.2,0,0.3,0.1,0.5,0.1c0.2,0,0.3,0.1,0.5,0.1"/>
	<path id="XMLID_644_" class="st0" d="M52,45.7c-0.5,0-1.1,0-1.6,0c-0.7,0-1.3,0.2-2,0.2c-0.4,0-0.8,0.1-1.2,0.1
		c-0.4,0-0.7,0.1-1.1,0.1c-0.4,0-0.7,0-1.1,0.1c-0.4,0.1-0.8,0.2-1.2,0.3c-0.5,0.1-1,0.2-1.5,0.3c-0.2,0-0.3,0.1-0.4,0.2
		c-0.1,0.1-0.3,0.1-0.4,0.1c-0.2,0-0.3,0.1-0.5,0.2c-0.2,0-0.4,0-0.6,0.1c-0.2,0.1-0.4,0.1-0.6,0.1c-0.2,0-0.3,0.1-0.5,0.1
		c-0.3,0.1-0.6,0.2-1,0.3c-0.3,0.1-0.6,0.2-0.9,0.2c-0.3,0-0.6,0.2-0.9,0.3c-0.3,0-0.7,0.1-1,0.2c-0.1,0-0.2,0.1-0.3,0.1
		c-0.1,0-0.1,0-0.2,0.1c-0.1,0-0.2,0-0.2,0.1c-0.1,0-0.2,0.1-0.2,0.1c-0.1,0-0.1,0-0.2,0c-0.1,0-0.2,0.1-0.2,0.1
		c0.1,0.2,0.3,0.3,0.4,0.4c0.2,0.2,0.2,0.3,0.4,0.5c0.4,0.3,0.7,0.7,1.1,1.1c0.3,0.3,0.8,0.6,1.2,0.8c0.4,0.2,0.8,0.6,1.3,0.7
		c0.2,0.1,0.4,0.3,0.6,0.4c0.2,0.1,0.4,0.2,0.6,0.3c0.2,0.1,0.3,0.2,0.5,0.3c0.1,0.1,0.2,0.1,0.3,0.1c0.2,0,0.2,0.1,0.3,0.2
		c0.2,0.1,0.4,0.2,0.6,0.2c0.2,0.1,0.4,0.2,0.6,0.3c0.4,0.1,0.7,0.2,1.1,0.3c0.5,0.2,1,0.3,1.5,0.4c0.2,0.1,0.4,0.1,0.7,0.2
		c0.2,0.1,0.3,0,0.4,0.1c0.1,0,0.3,0.1,0.4,0.1c0.2,0,0.5,0,0.7,0.1c0.2,0.1,0.4,0.1,0.6,0.1c0.5,0.1,1,0.1,1.5,0.2
		c0.4,0.1,0.9,0,1.3,0c0.3,0,0.6-0.1,0.8-0.1c0.2,0,0.5,0,0.7-0.1c0.4-0.1,0.8,0,1.3,0c0.3,0,0.6-0.1,0.8-0.2
		c0.3-0.1,0.5-0.1,0.8-0.1c0.2,0,0.3,0,0.5-0.1c0.2,0,0.3,0,0.4,0c0.3,0,0.5-0.1,0.8-0.1c0.2,0,0.4,0,0.6,0c0.2,0,0.3-0.1,0.5-0.1
		c0.4,0,0.7,0,1.1,0c0.4,0,0.9,0,1.3,0c0.3,0,0.6,0,0.8,0.1"/>
	<path id="XMLID_645_" class="st0" d="M47.7,55.6c-0.2,0-0.4,0-0.6,0.1c-0.3,0.1-0.5,0.2-0.8,0.4c-0.2,0.1-0.4,0.2-0.6,0.3
		c-0.1,0.1-0.3,0.1-0.4,0.2c-0.3,0.2-0.7,0.3-1,0.5c-0.2,0.1-0.3,0.2-0.5,0.3c-0.2,0.1-0.4,0.2-0.6,0.4c-0.3,0.2-0.7,0.4-1,0.6
		c-0.3,0.2-0.6,0.5-0.9,0.8c-0.1,0.1-0.2,0.2-0.3,0.3c-0.1,0.1-0.3,0.2-0.5,0.4c-0.2,0.2-0.4,0.5-0.7,0.7c-0.1,0.1-0.2,0.2-0.3,0.3
		c-0.1,0.2-0.2,0.4-0.4,0.5c-0.1,0.1-0.2,0.2-0.3,0.3c-0.1,0.1-0.2,0.2-0.3,0.3c-0.2,0.2-0.4,0.5-0.6,0.7c-0.2,0.2-0.3,0.5-0.4,0.7
		c-0.1,0.1-0.1,0.2-0.2,0.3c-0.1,0.1-0.2,0.2-0.2,0.3c-0.1,0.2-0.2,0.4-0.3,0.6c0,0.1-0.1,0.1-0.1,0.2c-0.1,0.1-0.2,0.1-0.2,0.2
		c-0.1,0.3,0.7,0.4,0.9,0.4c0.2,0.1,0.5,0.1,0.7,0.2c0.6,0.1,1.2,0,1.8,0c1.9,0,3.8,0,5.7,0c0.2,0,3.9-0.9,4.3-1
		c0.2-0.1,0.4-0.3,0.7-0.3c0.2-0.1,1-0.4,1.2-0.5c0.2,0,0.8-0.2,1-0.3c0.1-0.1,1.7-1.3,1.8-1.3c0.1-0.1,0.2-0.2,0.3-0.2
		c0.1-0.1,0.2-0.1,0.3-0.2c0.1-0.1,0.4-0.3,0.5-0.4c0.2-0.1,1-0.5,1.2-0.6c0.1,0,0.1-0.1,0.2-0.2c0.1-0.1,0.5-0.2,0.6-0.3
		c0.1-0.1,0.4-0.2,0.4-0.3c0.1-0.1,0.8-0.4,1-0.5c0.1-0.1,0.8-0.6,1-0.7c0.1-0.1,0.2-0.1,0.3-0.2c0.1,0,0.1-0.1,0.2-0.2"/>
	<path id="XMLID_646_" class="st0" d="M64.2,63.8c0,0.2-0.1,0.3-0.2,0.4c-0.2,0.3-0.4,0.6-0.6,0.9c-0.1,0.2-0.2,0.3-0.3,0.5
		c-0.1,0.1-0.2,0.2-0.3,0.4c-0.1,0.1-0.1,0.2-0.2,0.3c-0.1,0.1-0.1,0.1-0.2,0.1c-0.1,0.1-0.1,0.1-0.1,0.2c-0.1,0.1-0.2,0.1-0.2,0.2
		C62,66.9,62,67,61.9,67c-0.1,0.2-0.3,0.3-0.4,0.5c-0.1,0.2-0.2,0.5-0.4,0.7c-0.4,0.3-0.7,0.7-1.1,1c-0.1,0.1-0.3,0.3-0.4,0.4
		c-0.1,0.1-0.3,0.2-0.4,0.3c-0.1,0.1-0.1,0.2-0.2,0.3c-0.1,0.1-0.3,0.2-0.4,0.3c-0.2,0.1-0.2,0.3-0.4,0.4c-0.1,0-0.1,0-0.2,0.1
		c-0.2,0.1-0.3,0.2-0.5,0.3c-0.2,0.1-0.3,0.3-0.5,0.4c-0.3,0.2-0.6,0.3-0.8,0.5c-0.4,0.3-0.7,0.5-1.1,0.8c-0.2,0.1-0.4,0.3-0.6,0.4
		c-0.2,0.1-0.4,0.2-0.6,0.3c-0.2,0.1-0.3,0.3-0.5,0.4c-0.2,0.1-0.3,0.2-0.5,0.2c-0.2,0.1-0.4,0.3-0.6,0.4c-0.2,0.1-0.4,0.3-0.6,0.4
		c-0.4,0.3-1,0.5-1.5,0.7c-0.2,0.1-0.4,0.1-0.6,0.2c-0.2,0.1-0.4,0.2-0.6,0.3c-0.5,0.2-1,0.4-1.5,0.7c-0.1,0-0.1,0.1-0.2,0.1
		c-0.1,0.1-0.2,0.1-0.4,0.1c-0.4,0.1-0.7,0.3-1.1,0.5C45.6,78,45.5,78,45.4,78c-0.1,0-0.2,0.1-0.4,0.2c-0.1,0-0.2,0-0.3,0.1
		c-0.2,0-0.4,0.1-0.5,0.1c-0.2,0-0.4,0.1-0.5,0.2c-0.1,0-0.2,0.1-0.3,0.1c0.1-0.2,0.3-0.3,0.3-0.5c0-0.1,0-0.2,0-0.4
		c0-0.2,0.1-0.4,0.2-0.5c0.1-0.3,0.2-0.5,0.3-0.8c0.1-0.3,0.2-0.5,0.4-0.7c0.2-0.2,0.2-0.4,0.3-0.6c0.1-0.2,0.2-0.4,0.3-0.5
		c0.2-0.3,0.4-0.7,0.5-1c0.1-0.2,0.1-0.3,0.2-0.5c0.1-0.3,0.3-0.5,0.4-0.8c0.1-0.2,0.2-0.5,0.3-0.8c0.1-0.2,0.2-0.3,0.2-0.4
		c0.2-0.4,0.3-0.7,0.5-1.1c0.2-0.4,0.4-0.8,0.6-1.2c0.1-0.2,0.2-0.3,0.3-0.5c0.1-0.2,0.2-0.3,0.3-0.4c0.1-0.1,0.1-0.3,0.2-0.4
		c0.1-0.1,0.2-0.2,0.3-0.3c0.1-0.2,0.2-0.4,0.3-0.5c0.1-0.2,0.3-0.4,0.4-0.6c0.2-0.4,0.5-0.7,0.7-1c0.1-0.2,0.3-0.3,0.4-0.4
		c0.1-0.1,0.2-0.4,0.3-0.4"/>
</g>
</svg>
